<svg width="70" height="70" viewBox="0 0 70 70" fill="none" xmlns="http://www.w3.org/2000/svg">
<path d="M49.6777 0H20.3477C7.60769 0 0.0126953 7.595 0.0126953 20.335V49.63C0.0126953 62.405 7.60769 70 20.3477 70H49.6427C62.3827 70 69.9777 62.405 69.9777 49.665V20.335C70.0127 7.595 62.4177 0 49.6777 0ZM51.8827 30.87C50.8677 31.885 49.1877 31.885 48.1727 30.87L37.6377 20.335V56C37.6377 57.435 36.4477 58.625 35.0127 58.625C33.5777 58.625 32.3877 57.435 32.3877 56V20.335L21.8527 30.87C20.8377 31.885 19.1577 31.885 18.1427 30.87C17.6177 30.345 17.3727 29.68 17.3727 29.015C17.3727 28.35 17.6527 27.65 18.1427 27.16L33.1577 12.145C33.6477 11.655 34.3127 11.375 35.0127 11.375C35.7127 11.375 36.3777 11.655 36.8677 12.145L51.8827 27.16C52.8977 28.175 52.8977 29.82 51.8827 30.87Z" fill="white"/>
</svg>
