<svg width="66" height="66" viewBox="0 0 66 66" fill="none" xmlns="http://www.w3.org/2000/svg">
<path d="M38.4968 8.25008L38.5013 12.3746C38.4671 13.0533 38.5651 13.7808 38.4102 14.4052C38.0998 15.6578 36.9849 16.5005 35.6986 16.501C34.017 16.5019 32.3354 16.5011 30.6538 16.4987C30.2211 16.4981 29.9181 16.482 29.7449 16.4504C28.667 16.253 27.811 15.4048 27.5744 14.3555C27.4605 13.851 27.481 13.1057 27.4969 12.572C27.5 12.4711 27.4992 12.4055 27.4946 12.3751L27.4996 8.24963C27.5121 7.95974 27.522 7.77757 27.5293 7.70312C27.723 5.71036 29.028 3.98743 30.8562 3.19206C32.8849 2.30963 35.2975 2.78913 36.8732 4.36893C37.7611 5.25927 38.2892 6.34195 38.4576 7.61697C38.4835 7.81297 38.4845 8.03631 38.4968 8.25008ZM35.7392 8.24507C35.7392 7.51806 35.4504 6.82083 34.9363 6.30675C34.4222 5.79268 33.725 5.50388 32.998 5.50388C32.271 5.50388 31.5737 5.79268 31.0597 6.30675C30.5456 6.82083 30.2568 7.51806 30.2568 8.24507C30.2568 8.60505 30.3277 8.9615 30.4655 9.29408C30.6032 9.62665 30.8051 9.92884 31.0597 10.1834C31.5737 10.6975 32.271 10.9863 32.998 10.9863C33.358 10.9863 33.7144 10.9154 34.047 10.7776C34.3796 10.6398 34.6817 10.4379 34.9363 10.1834C35.1908 9.92884 35.3927 9.62665 35.5305 9.29408C35.6683 8.9615 35.7392 8.60505 35.7392 8.24507Z" fill="#90A4AE"/>
<path d="M38.4993 8.24997C42.1472 8.24967 45.7991 8.24997 49.455 8.25088C52.218 8.2518 54.6379 10.3166 54.9578 13.0933C54.9837 13.3164 54.9966 13.6201 54.9966 14.0045C55.0017 28.457 55.0007 42.9097 54.9934 57.3625C54.9934 57.5348 54.9919 57.7071 54.9888 57.8794C54.9401 60.6147 52.8434 62.8536 50.171 63.2C49.9504 63.2285 49.6473 63.2428 49.2617 63.2428C38.4513 63.2422 27.6411 63.2421 16.831 63.2424C16.4126 63.2424 16.109 63.2327 15.9203 63.2132C13.3373 62.9461 11.2333 60.8102 11.0245 58.214C10.989 57.7714 10.9981 57.2577 10.9981 56.7773C10.9963 42.7474 10.996 28.7189 10.9972 14.6918C10.9972 14.5167 10.9934 14.3412 10.9858 14.1667C10.9809 14.0522 10.9885 13.8413 11.0086 13.5341C11.1909 10.7396 13.1901 8.58635 15.9777 8.2837C16.1895 8.26061 16.4929 8.24921 16.888 8.24952C20.4204 8.25043 23.9585 8.25043 27.5022 8.24952L27.4972 12.375C23.9544 12.3747 20.4207 12.3748 16.8962 12.3754C16.4726 12.3754 16.183 12.3996 16.0274 12.4479C15.3186 12.6671 15.1245 13.2679 15.1245 13.9589C15.123 28.3886 15.1219 42.8185 15.1213 57.2486C15.1213 57.6822 15.1444 57.9841 15.1906 58.1543C15.3662 58.8039 15.8562 59.1288 16.6605 59.1288C27.4363 59.1285 38.2119 59.1286 48.9873 59.1292C49.4246 59.1292 49.7268 59.1077 49.8939 59.0645C50.5515 58.8956 50.8802 58.4116 50.8802 57.6128C50.8796 43.1575 50.8793 28.7022 50.8793 14.2469C50.8793 13.4119 50.8151 12.684 49.9281 12.442C49.7625 12.3967 49.4606 12.3741 49.0224 12.3741C45.5267 12.3753 42.0205 12.3754 38.5039 12.3745L38.4993 8.24997Z" fill="#455A64"/>
<path d="M39.865 29.7099L39.1166 30.3831L38.5231 30.9123C38.5107 30.9235 38.5044 30.9207 38.5044 30.9036L38.5049 27.554C38.5052 27.5193 38.493 27.4897 38.4684 27.4651L35.7765 24.7736C35.7695 24.7665 35.7606 24.7614 35.7509 24.7591C35.7413 24.7568 35.7312 24.7572 35.7218 24.7604L27.5328 27.4897C27.5207 27.4938 27.5102 27.5017 27.5029 27.5122C27.4956 27.5227 27.4919 27.5353 27.4923 27.548C27.5324 28.6725 27.4895 29.7865 27.4996 30.9009C27.4996 30.904 27.4988 30.907 27.4971 30.9096C27.4955 30.9123 27.4932 30.9144 27.4904 30.9157C27.4876 30.917 27.4844 30.9174 27.4814 30.917C27.4783 30.9166 27.4755 30.9152 27.4731 30.9132L26.8268 30.3348L26.1376 29.7145C26.1158 28.9281 26.1223 28.2193 26.1572 27.5882C26.3323 24.4016 28.3155 21.5078 31.5298 20.7826C32.6096 20.5392 33.9027 20.6208 35.0381 20.6244C35.0551 20.6244 35.0674 20.632 35.075 20.6472L35.7395 21.9768C35.744 21.9856 35.7503 21.9933 35.7581 21.9993C35.7659 22.0053 35.775 22.0094 35.7847 22.0114C38.473 22.5689 39.6945 24.5439 39.8313 27.1629C39.8747 27.9988 39.886 28.8478 39.865 29.7099Z" fill="#424242"/>
<path d="M39.1177 30.3833L39.1706 30.4298C39.1803 30.4386 39.1853 30.4495 39.1856 30.4626C39.2008 31.0783 39.1907 31.6913 39.1551 32.3018C38.9078 34.19 38.0115 35.6764 36.4663 36.7609C36.4524 36.7706 36.4446 36.7855 36.4431 36.8055C36.41 36.8095 36.3885 36.8144 36.3788 36.8201C34.7583 37.8202 33.0209 38.0588 31.1667 37.5362C30.8545 37.4482 30.5131 37.2787 30.148 37.131C30.066 37.0976 29.9833 37.0468 29.9001 36.9787C29.8101 36.9052 29.6975 36.8479 29.5623 36.8069C29.566 36.8033 29.5646 36.7948 29.5582 36.7814C29.5549 36.7741 29.5496 36.7679 29.5423 36.7627C28.0074 35.6891 27.1127 34.2172 26.858 32.3469C26.8565 32.3366 26.8524 32.3274 26.8457 32.3195C26.84 32.3129 26.8369 32.3083 26.8366 32.3059C26.8599 32.1769 26.8271 32.0101 26.8239 31.9102C26.8075 31.3994 26.8088 30.8744 26.828 30.335L27.4743 30.9134C27.4766 30.9154 27.4795 30.9167 27.4825 30.9172C27.4856 30.9176 27.4887 30.9171 27.4915 30.9158C27.4943 30.9145 27.4967 30.9125 27.4983 30.9098C27.4999 30.9072 27.5008 30.9042 27.5007 30.9011C27.4907 29.7867 27.5335 28.6727 27.4934 27.5482C27.4931 27.5354 27.4968 27.5229 27.5041 27.5124C27.5114 27.5019 27.5219 27.494 27.534 27.4899L35.7229 24.7605C35.7323 24.7574 35.7424 24.757 35.7521 24.7593C35.7618 24.7616 35.7706 24.7666 35.7776 24.7738L38.4696 27.4653C38.4942 27.4899 38.5063 27.5195 38.506 27.5541L38.5056 30.9038C38.5056 30.9208 38.5118 30.9237 38.5243 30.9125L39.1177 30.3833ZM30.9452 30.9371C30.9452 30.7535 30.8723 30.5774 30.7424 30.4475C30.6126 30.3177 30.4365 30.2447 30.2529 30.2447C30.0692 30.2447 29.8931 30.3177 29.7633 30.4475C29.6334 30.5774 29.5605 30.7535 29.5605 30.9371C29.5605 31.1207 29.6334 31.2968 29.7633 31.4267C29.8931 31.5565 30.0692 31.6295 30.2529 31.6295C30.4365 31.6295 30.6126 31.5565 30.7424 31.4267C30.8723 31.2968 30.9452 31.1207 30.9452 30.9371ZM36.4445 30.9371C36.4445 30.7535 36.3715 30.5774 36.2417 30.4475C36.1118 30.3177 35.9357 30.2447 35.7521 30.2447C35.5685 30.2447 35.3924 30.3177 35.2625 30.4475C35.1327 30.5774 35.0597 30.7535 35.0597 30.9371C35.0597 31.1207 35.1327 31.2968 35.2625 31.4267C35.3924 31.5565 35.5685 31.6295 35.7521 31.6295C35.9357 31.6295 36.1118 31.5565 36.2417 31.4267C36.3715 31.2968 36.4445 31.1207 36.4445 30.9371Z" fill="#FFB74D"/>
<path d="M39.8656 29.71C40.2467 29.926 40.47 30.2508 40.5356 30.6845C40.6742 31.5983 40.1127 32.3194 39.1546 32.3016C39.1901 31.6912 39.2003 31.0781 39.1851 30.4625C39.1848 30.4494 39.1798 30.4385 39.1701 30.4297L39.1172 30.3832L39.8656 29.71Z" fill="#FF9800"/>
<path d="M26.1358 29.7144L26.825 30.3347C26.8059 30.8741 26.8045 31.3992 26.8209 31.91C26.8241 32.0098 26.8569 32.1766 26.8337 32.3056C26.3165 32.3062 25.9332 32.1236 25.6837 31.7577C25.2338 31.0986 25.4097 30.1045 26.1358 29.7144Z" fill="#FF9800"/>
<path d="M30.247 31.6294C30.6294 31.6294 30.9394 31.3194 30.9394 30.937C30.9394 30.5546 30.6294 30.2446 30.247 30.2446C29.8647 30.2446 29.5547 30.5546 29.5547 30.937C29.5547 31.3194 29.8647 31.6294 30.247 31.6294Z" fill="#784719"/>
<path d="M35.747 31.6294C36.1294 31.6294 36.4394 31.3194 36.4394 30.937C36.4394 30.5546 36.1294 30.2446 35.747 30.2446C35.3647 30.2446 35.0547 30.5546 35.0547 30.937C35.0547 31.3194 35.3647 31.6294 35.747 31.6294Z" fill="#784719"/>
<path d="M36.4433 36.8057L36.4419 39.1886C34.5563 40.9794 31.4404 41.0473 29.5625 39.1877V36.807C29.6977 36.8481 29.8103 36.9053 29.9002 36.9789C29.9835 37.0469 30.0662 37.0977 30.1482 37.1311C30.5133 37.2788 30.8547 37.4483 31.1669 37.5363C33.0211 38.059 34.7585 37.8203 36.379 36.8203C36.3887 36.8145 36.4102 36.8096 36.4433 36.8057Z" fill="#FF9800"/>
<path d="M29.5578 39.1875C31.4357 41.0472 34.5516 40.9793 36.4372 39.1884C39.2149 39.8238 41.817 41.4934 43.1042 44.0755C43.7177 45.3057 43.9999 46.7283 43.9898 48.1016C43.9898 48.1147 43.9833 48.1212 43.9702 48.1212H22.0257C22.0138 48.1212 22.0079 48.1153 22.0079 48.1034C21.9956 45.2332 23.1743 42.7081 25.5103 41.0207C26.7333 40.1374 28.0825 39.5263 29.5578 39.1875Z" fill="#2196F3"/>
<path d="M43.986 50.8794H22.0128C22.0057 50.8794 22 50.8851 22 50.8922V53.6124C22 53.6194 22.0057 53.6251 22.0128 53.6251H43.986C43.9931 53.6251 43.9988 53.6194 43.9988 53.6124V50.8922C43.9988 50.8851 43.9931 50.8794 43.986 50.8794Z" fill="#03A9F4"/>
</svg>
