<svg width="80" height="80" viewBox="0 0 80 80" fill="none" xmlns="http://www.w3.org/2000/svg">
<path d="M58.3397 60.545C58.5227 60.8695 58.4793 61.1671 58.2093 61.4378C57.8896 61.7586 57.5194 61.9829 57.0988 62.1107C56.8905 62.1743 56.3944 62.2439 56.3038 61.9737C56.2817 61.9067 56.2561 61.8398 56.227 61.7732C52.4303 52.3334 48.6306 42.8921 44.8281 33.4494C43.9456 31.2586 43.1481 29.3991 42.4358 27.871C39.978 22.5966 36.9817 17.652 33.4469 13.0373C30.7695 9.54223 26.5248 7.35052 22.0712 7.81792C20.0529 8.02953 18.006 8.55991 16.4612 9.95881C14.4678 11.7632 13.8927 14.5748 14.4087 17.1428C14.4982 17.5888 14.6058 17.9398 14.7314 18.1958C15.933 20.6472 20.2507 20.5726 22.4723 20.298C24.6723 20.0257 26.8286 19.6969 29.0358 20.1417C31.0225 20.5417 32.6518 21.5787 33.7645 23.2699C33.9896 23.6117 34.1656 23.9349 34.2927 24.2395C35.0027 25.9444 34.5281 27.8246 33.5452 29.3461C33.2082 29.8776 32.8194 30.3949 32.3789 30.898C32.3686 30.9098 32.364 30.9222 32.3651 30.9351C32.3341 30.9498 32.3069 30.97 32.2833 30.9958C32.0417 31.2595 31.7909 31.5139 31.5308 31.7588C31.3275 31.9505 30.9651 31.8616 30.7336 31.7566C30.3108 31.5647 29.9968 31.27 29.7916 30.8726C29.6706 30.6384 29.6049 30.25 29.8209 30.0467C30.1163 29.7693 30.3946 29.4804 30.6557 29.1798C31.0421 28.7459 31.3772 28.2794 31.6612 27.7804C31.8881 27.3881 32.0491 26.9862 32.1441 26.5748C32.3712 25.592 32.0275 24.8516 31.3894 24.1091C29.664 22.1025 26.7916 22.2002 24.396 22.5041C21.3485 22.8909 18.1314 23.1947 15.2667 21.85C13.3231 20.9373 12.3574 19.44 11.9966 17.3804C11.3684 13.7969 12.4021 10.0013 15.3734 7.73284C17.0911 6.42124 19.1187 5.78035 21.2408 5.48035C26.8806 4.68367 32.1435 7.37925 35.5209 11.8047C40.1728 17.8991 43.8806 24.6218 46.7408 31.7301C50.6052 41.3345 54.4715 50.9395 58.3397 60.545Z" fill="#1B2943"/>
<path d="M25.9768 25.3252C21.1055 25.402 18.6304 31.2478 17.5851 35.0826C16.8072 37.9351 16.3519 40.9042 16.1 43.8158C15.8746 46.4154 15.7632 49.0607 15.7657 51.7517C15.7657 51.7701 15.7595 51.7863 15.7469 51.8003C15.733 51.8154 15.7232 51.8338 15.7177 51.8556C14.9116 51.1114 13.8199 50.5202 12.6934 50.7241C12.637 46.8176 12.9873 42.985 13.7442 39.2263C14.4492 35.7257 15.6011 32.2025 17.2829 29.05C17.6151 28.4272 18.0022 27.8101 18.4442 27.1987C18.7027 26.841 18.942 26.5622 19.1619 26.3622C20.9442 24.7401 23.795 24.8186 25.9768 25.3252Z" fill="#B0B8CF"/>
<path d="M25.9779 25.3252C26.762 25.5009 27.5392 25.7309 28.3094 26.0153C29.5042 26.4565 30.6215 27.0447 31.6613 27.7799C31.3773 28.279 31.0421 28.7455 30.6558 29.1793C30.1121 28.8528 29.0248 28.4788 28.479 29.0003C28.3235 29.1491 28.0642 29.4241 27.7011 29.8252C27.5125 30.0337 27.3926 30.2029 27.3414 30.3329C27.1845 30.7318 27.2967 31.3318 27.4723 31.6871C27.9703 32.6937 28.7259 33.414 29.7392 33.8478C30.2403 34.0628 31.0878 34.1976 31.4978 33.7594C31.7246 33.5171 31.9513 33.2742 32.1779 33.0307C32.3911 32.8013 32.5241 32.6254 32.5768 32.5031C32.7895 32.0114 32.6171 31.3766 32.3652 30.9346C32.3641 30.9217 32.3687 30.9094 32.379 30.8976C32.8195 30.3944 33.2083 29.8771 33.5453 29.3456C34.7655 30.5526 35.8003 31.9162 36.6497 33.4362C38.4436 36.6473 39.4812 40.2296 40.074 43.8501C40.4663 46.2473 40.6712 48.6434 40.8337 51.065C40.8895 51.8965 41.0408 52.9059 40.9873 53.7838C40.9073 55.0946 40.3734 56.1473 39.3856 56.9418C39.1981 57.0924 38.8893 57.292 38.4591 57.5407C34.8373 59.6346 31.2143 61.7267 27.59 63.8169C26.1519 64.6462 24.3215 64.5473 22.7823 63.9605C21.8287 63.597 20.9009 63.0607 19.9989 62.3517C18.9458 61.5241 17.9784 60.5913 17.0967 59.5534C18.3127 58.8948 18.4127 57.4014 18.1751 56.2048C17.8458 54.5456 16.9536 53.0048 15.7188 51.8556C15.7243 51.8339 15.734 51.8154 15.748 51.8003C15.7606 51.7863 15.7668 51.7701 15.7668 51.7517C15.7642 49.0607 15.8757 46.4154 16.1011 43.8158C16.353 40.9042 16.8083 37.9351 17.5862 35.0827C18.6315 31.2478 21.1066 25.402 25.9779 25.3252ZM29.9862 58.2213C30.1983 58.3473 30.3635 58.2467 30.5845 58.1197C32.8641 56.8062 35.1418 55.4895 37.4176 54.1694C37.9105 53.8838 38.1292 53.444 38.0779 52.8622C37.8024 49.7455 37.5272 46.6285 37.2525 43.5114C37.2132 43.0672 36.9094 42.8711 36.5044 43.1048C34.3048 44.3733 32.106 45.6436 29.9083 46.9158C29.5226 47.1394 29.2803 47.3117 29.1812 47.4329C28.9734 47.6871 28.8865 48.0099 28.9204 48.4014C29.1919 51.5248 29.4681 54.648 29.7491 57.7711C29.7652 57.9517 29.8397 58.1346 29.9862 58.2213Z" fill="#E3E7F2"/>
<path d="M30.6548 29.1798C30.3937 29.4803 30.1154 29.7693 29.82 30.0466C29.604 30.2499 29.6697 30.6383 29.7907 30.8726C29.9959 31.27 30.3099 31.5647 30.7327 31.7566C30.9642 31.8615 31.3266 31.9505 31.53 31.7588C31.79 31.5138 32.0408 31.2595 32.2824 30.9958C32.306 30.97 32.3333 30.9498 32.3642 30.935C32.6161 31.377 32.7885 32.0118 32.5758 32.5035C32.5231 32.6258 32.3902 32.8017 32.1769 33.0312C31.9504 33.2746 31.7237 33.5175 31.4968 33.7599C31.0869 34.198 30.2393 34.0632 29.7382 33.8483C28.725 33.4144 27.9694 32.6941 27.4714 31.6875C27.2957 31.3323 27.1836 30.7323 27.3405 30.3334C27.3917 30.2034 27.5115 30.0341 27.7001 29.8256C28.0633 29.4245 28.3226 29.1496 28.478 29.0008C29.0239 28.4792 30.1112 28.8533 30.6548 29.1798Z" fill="#F05372"/>
<path d="M29.9791 58.2217C29.8327 58.135 29.7581 57.9521 29.7421 57.7715C29.4611 54.6484 29.1848 51.5252 28.9134 48.4019C28.8795 48.0103 28.9664 47.6875 29.1742 47.4333C29.2732 47.3122 29.5156 47.1398 29.9012 46.9162C32.099 45.644 34.2977 44.3737 36.4974 43.1052C36.9023 42.8715 37.2062 43.0676 37.2454 43.5118C37.5202 46.6289 37.7953 49.7459 38.0708 52.8626C38.1222 53.4444 37.9034 53.8842 37.4106 54.1698C35.1347 55.4899 32.857 56.8066 30.5775 58.1201C30.3565 58.2472 30.1913 58.3477 29.9791 58.2217ZM36.8143 45.2438C36.7837 45.1901 36.7329 45.1507 36.6733 45.1344C36.6136 45.1181 36.55 45.1262 36.4963 45.1568L30.0271 48.8467C30.0005 48.8619 29.9772 48.8822 29.9584 48.9063C29.9396 48.9305 29.9258 48.9582 29.9177 48.9877C29.9097 49.0173 29.9075 49.0481 29.9113 49.0785C29.9151 49.1088 29.9249 49.1382 29.9401 49.1648L29.9417 49.1676C29.9724 49.2214 30.0231 49.2607 30.0827 49.277C30.1424 49.2933 30.2061 49.2853 30.2598 49.2546L36.7289 45.5647C36.7555 45.5495 36.7789 45.5293 36.7976 45.5051C36.8164 45.4809 36.8302 45.4532 36.8383 45.4237C36.8464 45.3942 36.8486 45.3633 36.8447 45.333C36.8409 45.3026 36.8311 45.2733 36.8159 45.2467L36.8143 45.2438ZM36.415 47.278C36.3841 47.2245 36.3331 47.1854 36.2734 47.1694C36.2137 47.1534 36.15 47.1618 36.0965 47.1927L30.0247 50.6982C29.9712 50.7291 29.9321 50.7801 29.9161 50.8398C29.9001 50.8995 29.9085 50.9632 29.9394 51.0167L29.9411 51.0196C29.972 51.0731 30.0229 51.1122 30.0826 51.1282C30.1424 51.1442 30.206 51.1358 30.2595 51.1049L36.3313 47.5994C36.3848 47.5685 36.4239 47.5176 36.4399 47.4578C36.4559 47.3981 36.4475 47.3345 36.4166 47.2809L36.415 47.278ZM36.6153 49.032C36.5844 48.9784 36.5335 48.9394 36.4738 48.9234C36.414 48.9073 36.3504 48.9157 36.2968 48.9466L30.226 52.4516C30.1995 52.4669 30.1763 52.4873 30.1576 52.5116C30.139 52.5359 30.1253 52.5636 30.1174 52.5932C30.1095 52.6228 30.1075 52.6536 30.1115 52.684C30.1155 52.7143 30.1254 52.7436 30.1407 52.7701L30.1429 52.7739C30.1738 52.8275 30.2248 52.8666 30.2845 52.8826C30.3442 52.8986 30.4079 52.8902 30.4614 52.8593L36.5322 49.3543C36.5587 49.339 36.582 49.3186 36.6006 49.2943C36.6192 49.27 36.6329 49.2423 36.6408 49.2127C36.6488 49.1831 36.6508 49.1523 36.6468 49.122C36.6428 49.0916 36.6328 49.0623 36.6175 49.0358L36.6153 49.032ZM36.811 50.7886C36.7801 50.7351 36.7291 50.696 36.6694 50.68C36.6097 50.664 36.546 50.6724 36.4925 50.7033L30.4227 54.2077C30.3961 54.223 30.3729 54.2434 30.3543 54.2677C30.3356 54.292 30.322 54.3197 30.314 54.3493C30.3061 54.3788 30.3041 54.4097 30.3081 54.44C30.3121 54.4704 30.322 54.4997 30.3373 54.5262L30.3395 54.53C30.3704 54.5836 30.4214 54.6226 30.4811 54.6386C30.5408 54.6546 30.6045 54.6463 30.658 54.6153L36.7279 51.1109C36.7544 51.0956 36.7776 51.0752 36.7962 51.0509C36.8149 51.0267 36.8286 50.9989 36.8365 50.9694C36.8444 50.9398 36.8464 50.9089 36.8424 50.8786C36.8384 50.8482 36.8285 50.819 36.8132 50.7924L36.811 50.7886ZM37.0104 52.5441C36.9794 52.4906 36.9285 52.4515 36.8688 52.4355C36.8091 52.4195 36.7454 52.4279 36.6919 52.4588L30.6211 55.9638C30.5946 55.9791 30.5713 55.9995 30.5527 56.0237C30.534 56.048 30.5204 56.0758 30.5124 56.1053C30.5045 56.1349 30.5025 56.1658 30.5065 56.1961C30.5105 56.2265 30.5204 56.2557 30.5357 56.2823L30.5379 56.2861C30.5689 56.3396 30.6198 56.3787 30.6795 56.3947C30.7392 56.4107 30.8029 56.4023 30.8564 56.3714L36.9272 52.8665C36.9537 52.8511 36.977 52.8308 36.9956 52.8065C37.0143 52.7822 37.0279 52.7545 37.0359 52.7249C37.0438 52.6953 37.0458 52.6645 37.0418 52.6341C37.0378 52.6037 37.0279 52.5745 37.0126 52.548L37.0104 52.5441Z" fill="#4C5C75"/>
<path d="M36.4998 45.1565L30.0306 48.8464C29.9188 48.9102 29.8798 49.0526 29.9436 49.1644L29.9453 49.1673C30.0091 49.2792 30.1515 49.3181 30.2633 49.2543L36.7325 45.5644C36.8443 45.5006 36.8833 45.3582 36.8195 45.2463L36.8178 45.2435C36.754 45.1316 36.6116 45.0927 36.4998 45.1565Z" fill="#1B2943"/>
<path d="M36.1018 47.1924L30.03 50.6979C29.9185 50.7623 29.8803 50.9049 29.9447 51.0164L29.9464 51.0192C30.0107 51.1308 30.1533 51.169 30.2648 51.1046L36.3366 47.5991C36.4481 47.5347 36.4863 47.3921 36.4219 47.2806L36.4203 47.2777C36.3559 47.1662 36.2133 47.128 36.1018 47.1924Z" fill="#1B2943"/>
<path d="M36.304 48.9463L30.2332 52.4513C30.1216 52.5157 30.0834 52.6583 30.1478 52.7698L30.15 52.7736C30.2144 52.8851 30.357 52.9233 30.4685 52.859L36.5393 49.354C36.6508 49.2896 36.689 49.147 36.6247 49.0355L36.6224 49.0317C36.5581 48.9201 36.4155 48.8819 36.304 48.9463Z" fill="#1B2943"/>
<path d="M15.7184 51.8558C16.9533 53.0049 17.8455 54.5458 18.1748 56.2049C18.4124 57.4016 18.3124 58.895 17.0963 59.5536L15.6284 60.3878C15.9835 59.8615 16.1814 59.3176 16.2223 58.7563C16.3593 56.8884 15.414 54.906 14.1825 53.542C13.5102 52.7972 12.5588 52.0519 11.5671 51.8972C11.2702 51.8508 10.9588 51.8451 10.6328 51.8801C11.1742 51.5383 11.7068 51.2217 12.2306 50.9304C12.3901 50.8416 12.5446 50.7729 12.6941 50.7243C13.8207 50.5204 14.9124 51.1116 15.7184 51.8558Z" fill="#4C5C75"/>
<path d="M36.4983 50.7032L30.4285 54.2076C30.317 54.272 30.2788 54.4146 30.3431 54.5261L30.3453 54.53C30.4097 54.6415 30.5523 54.6797 30.6638 54.6153L36.7337 51.1109C36.8452 51.0465 36.8834 50.9039 36.819 50.7924L36.8168 50.7886C36.7524 50.677 36.6098 50.6388 36.4983 50.7032Z" fill="#1B2943"/>
<path d="M15.6221 60.3877C15.5474 60.4374 15.4573 60.496 15.352 60.5634C13.9603 61.4557 12.2376 60.2822 11.3078 59.2689C10.0995 57.9524 9.22268 56.1551 9.20334 54.3369C9.19672 53.7021 9.33926 53.0176 9.73263 52.528C9.96799 52.2352 10.266 52.0192 10.6265 51.88C10.9525 51.845 11.2639 51.8507 11.5608 51.8971C12.5525 52.0518 13.5039 52.7971 14.1763 53.5419C15.4078 54.9059 16.3531 56.8883 16.2161 58.7562C16.1752 59.3176 15.9772 59.8614 15.6221 60.3877ZM14.8359 60.0021C15.3555 59.6985 15.6302 59.0247 15.5997 58.129C15.5691 57.2332 15.2358 56.1889 14.6729 55.2258C14.3943 54.7489 14.0676 54.3063 13.7117 53.9232C13.3558 53.5401 12.9776 53.2241 12.5986 52.9932C12.2196 52.7623 11.8473 52.621 11.503 52.5774C11.1587 52.5338 10.849 52.5887 10.5918 52.7391C10.0722 53.0427 9.79745 53.7165 9.82801 54.6122C9.85858 55.508 10.1919 56.5523 10.7547 57.5154C11.0334 57.9923 11.36 58.4349 11.716 58.818C12.0719 59.201 12.4501 59.517 12.8291 59.748C13.2081 59.9789 13.5803 60.1202 13.9247 60.1638C14.269 60.2074 14.5787 60.1524 14.8359 60.0021Z" fill="#1B2943"/>
<path d="M36.6946 52.4585L30.6238 55.9635C30.5123 56.0279 30.4741 56.1705 30.5384 56.282L30.5407 56.2858C30.605 56.3973 30.7476 56.4355 30.8591 56.3712L36.9299 52.8662C37.0415 52.8018 37.0797 52.6592 37.0153 52.5477L37.0131 52.5439C36.9487 52.4324 36.8061 52.3941 36.6946 52.4585Z" fill="#1B2943"/>
<path d="M14.8383 60.0022C14.5811 60.1525 14.2714 60.2074 13.9271 60.1638C13.5828 60.1202 13.2105 59.9789 12.8315 59.748C12.4525 59.5171 12.0743 59.2011 11.7184 58.818C11.3625 58.435 11.0358 57.9924 10.7572 57.5155C10.1943 56.5523 9.86099 55.508 9.83043 54.6123C9.79986 53.7166 10.0746 53.0428 10.5942 52.7392C10.8514 52.5888 11.1611 52.5339 11.5054 52.5775C11.8498 52.6211 12.222 52.7624 12.601 52.9933C12.98 53.2242 13.3582 53.5402 13.7141 53.9233C14.0701 54.3064 14.3967 54.749 14.6754 55.2259C15.2382 56.189 15.5715 57.2333 15.6021 58.129C15.6327 59.0248 15.3579 59.6986 14.8383 60.0022ZM13.5737 57.837C13.7836 57.7144 13.8946 57.4423 13.8823 57.0805C13.87 56.7188 13.7354 56.2971 13.5082 55.9082C13.2809 55.5193 12.9796 55.1951 12.6705 55.0068C12.3614 54.8185 12.0698 54.7817 11.8599 54.9043C11.6501 55.027 11.5391 55.2991 11.5513 55.6608C11.5636 56.0225 11.6982 56.4442 11.9254 56.8331C12.1527 57.222 12.454 57.5463 12.7631 57.7345C13.0722 57.9228 13.3638 57.9597 13.5737 57.837Z" fill="#E3E7F2"/>
<path d="M11.9226 56.8331C12.3958 57.6429 13.1337 58.0924 13.5708 57.837C14.0079 57.5816 13.9785 56.7181 13.5053 55.9082C13.0321 55.0984 12.2941 54.6489 11.8571 54.9043C11.42 55.1597 11.4493 56.0233 11.9226 56.8331Z" fill="#1B2943"/>
<path d="M69.6161 61.7781C69.5966 61.7906 69.587 61.8136 69.5874 61.8472C69.5874 61.8648 69.5785 61.8731 69.5609 61.872C69.0664 61.8472 68.6658 62.0057 68.2294 62.2505C66.1583 63.4107 64.0872 64.5724 62.0161 65.7356C61.9995 65.7448 61.9883 65.7405 61.9824 65.7229L61.0078 62.8897C62.4785 62.0584 63.9341 61.2372 65.3747 60.4262C65.8111 60.1803 66.4785 60.0245 66.9802 60.2444C66.9982 60.2521 67.199 60.3669 67.5824 60.5886C68.2627 60.982 68.9406 61.3785 69.6161 61.7781Z" fill="#648CC9"/>
<path d="M60.4037 61.1592L56.9147 63.189C56.8981 63.1986 56.8816 63.1988 56.865 63.1895L55.3125 62.2956L56.2269 61.773C56.256 61.8396 56.2816 61.9065 56.3037 61.9735C56.3943 62.2437 56.8904 62.1741 57.0987 62.1105C57.5193 61.9827 57.8895 61.7584 58.2092 61.4376C58.4792 61.1669 58.5226 60.8693 58.3396 60.5448L58.802 60.2697C58.8201 60.2586 58.8381 60.2584 58.8561 60.2691L60.4037 61.1592Z" fill="#648CC9"/>
<path d="M60.3987 61.1592L61.0031 62.8896L61.9777 65.7227C61.9836 65.7404 61.9948 65.7446 62.0114 65.7354C64.0825 64.5723 66.1536 63.4106 68.2246 62.2503C68.6611 62.0056 69.0617 61.847 69.5561 61.8719C69.5738 61.873 69.5827 61.8647 69.5827 61.847C69.5823 61.8135 69.5919 61.7905 69.6114 61.778C69.8716 61.9255 70.1628 62.0614 70.3622 62.289C70.6727 62.6437 70.8064 63.1741 70.7932 63.6382C70.7928 63.6566 70.7847 63.6704 70.7688 63.6796C64.3298 67.3338 57.8909 70.9877 51.4523 74.6415C51.4386 74.6492 51.425 74.6531 51.4114 74.6531C51.3893 74.6535 51.3746 74.6513 51.3672 74.6465C51.523 72.9205 52.4506 71.1387 53.9926 70.2647C55.46 69.4334 56.9252 68.6076 58.3882 67.7874C58.3933 67.7845 58.3975 67.7802 58.4005 67.7751C58.4034 67.7701 58.405 67.7643 58.4049 67.7584C58.4048 67.7526 58.4032 67.7469 58.4002 67.742C58.3971 67.7371 58.3928 67.7331 58.3876 67.7305L55.2849 66.1144L55.3075 62.2956L56.86 63.1896C56.8766 63.1988 56.8932 63.1986 56.9097 63.189L60.3987 61.1592Z" fill="#5574B7"/>
<path d="M55.2831 66.1143L58.3858 67.7303C58.391 67.7329 58.3953 67.7369 58.3984 67.7418C58.4014 67.7468 58.4031 67.7524 58.4031 67.7583C58.4032 67.7641 58.4016 67.7699 58.3987 67.775C58.3958 67.7801 58.3915 67.7843 58.3864 67.7872C56.9234 68.6074 55.4582 69.4332 53.9908 70.2645C52.4488 71.1386 51.5212 72.9203 51.3654 74.6463L48.4372 72.9413C48.4275 72.9357 48.4195 72.9275 48.4141 72.9177C48.4086 72.9079 48.4059 72.8967 48.4063 72.8855C48.4626 71.1866 49.5284 69.3662 51.019 68.5225C52.433 67.7222 53.8543 66.9194 55.2831 66.1143Z" fill="#648CC9"/>
</svg>
