<svg width="66" height="64" viewBox="0 0 66 64" fill="none" xmlns="http://www.w3.org/2000/svg">
<path d="M49.7298 1.00195C49.779 1.59178 49.7237 2.34204 49.5639 3.25273C46.694 19.6055 43.8219 35.9576 40.9479 52.309C40.597 54.3052 40.2406 56.2999 39.8788 58.2933C39.758 58.961 39.6863 59.9727 39.375 60.8145" stroke="#F9D519" stroke-width="2"/>
<path d="M39.3723 60.8145C38.1462 60.8282 36.8887 60.8418 35.5999 60.8555C35.0448 60.8616 34.1519 60.7264 33.3777 60.8964C33.3456 60.9036 33.3123 60.9037 33.2801 60.8969C33.248 60.89 33.2176 60.8763 33.1912 60.8567C33.1648 60.837 33.1429 60.812 33.127 60.7831C33.1112 60.7543 33.1017 60.7224 33.0992 60.6896L32.8125 56.9355" stroke="#E8D875" stroke-width="2"/>
<path d="M32.8159 56.9355L32.5988 53.9413C32.5962 53.9073 32.5865 53.8744 32.5703 53.8447C32.554 53.815 32.5316 53.7893 32.5046 53.7693C32.3489 53.6505 32.1755 53.6082 31.9844 53.6423" stroke="#F9D519" stroke-width="2"/>
<path d="M31.9774 53.6424L24.625 53.5933" stroke="#F0D016" stroke-width="2"/>
<path d="M24.6265 53.5931L13.3828 53.5869" stroke="#FFEF8B" stroke-width="2"/>
<path d="M13.3876 53.5871C12.937 53.5789 12.1342 53.4888 11.8925 54.009C11.2385 55.4194 10.4801 57.2026 9.61715 59.3585C9.39733 59.9087 9.24373 60.3565 9.15635 60.702C9.14133 60.7593 9.10447 60.7921 9.04576 60.8003L8.64844 60.8474" stroke="#F9D519" stroke-width="2"/>
<path d="M24.625 53.5933L24.8953 54.9818" stroke="#F0E18B" stroke-width="2"/>
<path d="M24.9009 54.9819C20.615 55.3233 16.3825 55.823 12.2031 56.4811" stroke="#E8E9E9" stroke-width="2"/>
<path d="M42.623 50.1567L41.9922 54.0849" stroke="#F9E58E" stroke-width="2"/>
<path d="M41.9985 54.085L40.8393 60.7287C40.8257 60.8079 40.7786 60.8468 40.698 60.8455L39.375 60.8148" stroke="#E2CF78" stroke-width="2"/>
<path d="M32.8136 56.9355L31.6094 56.9663" stroke="#E2CF78" stroke-width="2"/>
<path d="M13.3869 53.5869L12.2031 56.4808" stroke="#F9E58E" stroke-width="2"/>
<path d="M12.2038 56.481L10.4036 60.7347C10.3736 60.8043 10.321 60.8391 10.2459 60.8391L8.64844 60.8473" stroke="#E2CF78" stroke-width="2"/>
<path d="M31.9838 53.6426C31.7175 54.713 31.5933 55.821 31.611 56.9665" stroke="#E9C719" stroke-width="2"/>
<path d="M31.6078 56.9665L25.3818 56.9624C25.3387 56.9624 25.2969 56.947 25.2639 56.9189C25.2309 56.8908 25.2088 56.8518 25.2015 56.8088L24.8984 54.9819" stroke="#D9CA75" stroke-width="2"/>
<path d="M54.5138 54.2874C50.3713 54.0471 46.1975 53.9795 41.9922 54.0846" stroke="#E8E9E9" stroke-width="2"/>
<path d="M61.9991 56.9623H55.8755C55.8152 56.9623 55.7562 56.9444 55.7056 56.911C55.655 56.8775 55.6151 56.8299 55.5908 56.7739L54.5156 54.2876" stroke="#D9CA75" stroke-width="2"/>
<path d="M54.5158 54.2876L52.7177 50.255C52.689 50.1909 52.6392 50.1588 52.5682 50.1588L42.625 50.1567" stroke="#F0E18B" stroke-width="2"/>
<path d="M22.7899 4.89946C22.3489 4.86806 21.8997 4.93701 21.4423 5.10631C21.4046 5.11992 21.3711 5.14365 21.3456 5.17501C21.32 5.20636 21.3032 5.24418 21.2969 5.28449L20.8955 7.88343C20.8861 7.94487 20.8904 8.00764 20.9081 8.06722C20.9258 8.12679 20.9566 8.18168 20.9981 8.22793C21.0397 8.27417 21.091 8.31061 21.1483 8.33462C21.2057 8.35863 21.2676 8.36961 21.3297 8.36676L22.2861 8.3258" stroke="#F9D519" stroke-width="2"/>
<path d="M22.2891 8.32603C22.7014 8.37245 23.0885 8.39429 23.4503 8.39156C28.6386 8.35743 33.8269 8.31852 39.0153 8.27483C39.3798 8.2721 39.6857 8.15672 39.9328 7.92871" stroke="#F0D016" stroke-width="2"/>
<path d="M39.9271 7.92826L40.3285 5.39895C40.3392 5.33116 40.3351 5.26186 40.3165 5.19583C40.2979 5.1298 40.2653 5.06859 40.221 5.01644C40.1766 4.96428 40.1215 4.9224 40.0595 4.89368C39.9974 4.86496 39.9299 4.85009 39.8616 4.85008L25.6094 4.83984" stroke="#FFEF8B" stroke-width="2"/>
<path d="M25.6112 4.83984L22.7891 4.89924" stroke="#F0D016" stroke-width="2"/>
<path d="M25.6094 4.83984L26.0579 7.39168C26.1166 7.72346 26.3139 7.88935 26.6498 7.88935L39.9271 7.92826" stroke="#F0E18B" stroke-width="2"/>
<path d="M22.2891 8.32576C22.2891 7.12562 22.457 5.9835 22.7929 4.89941" stroke="#E9C719" stroke-width="2"/>
<path d="M19.8939 13.8452C18.235 13.3967 16.6928 14.2487 16.4327 15.9997C16.1747 17.7528 17.8541 18.2423 19.1914 17.7897C19.2734 17.7624 19.3123 17.7064 19.3082 17.6218L19.2918 17.1261C19.291 17.1051 19.2851 17.0845 19.2747 17.0662C19.2643 17.0478 19.2495 17.0322 19.2317 17.0206C19.2139 17.009 19.1936 17.0017 19.1723 16.9994C19.1511 16.9971 19.1295 16.9999 19.1095 17.0074C16.8075 17.9003 16.8198 14.0459 19.6092 14.6255C19.6939 14.6433 19.7512 14.6119 19.7813 14.5313L19.9758 14.005C20.0072 13.9217 19.9799 13.8684 19.8939 13.8452Z" stroke="#A08C20" stroke-width="2"/>
<path d="M33.4679 17.6596C33.8618 17.9565 34.3848 18.0483 34.922 17.9149C35.4592 17.7816 35.9664 17.4339 36.3322 16.9485C36.698 16.4631 36.8924 15.8797 36.8725 15.3266C36.8526 14.7734 36.6202 14.2959 36.2263 13.9991C35.8324 13.7023 35.3094 13.6105 34.7722 13.7439C34.235 13.8772 33.7277 14.2248 33.3619 14.7102C32.9962 15.1957 32.8018 15.7791 32.8217 16.3322C32.8416 16.8853 33.074 17.3628 33.4679 17.6596Z" stroke="#A08C20" stroke-width="2"/>
<path d="M21.6099 13.8003C21.5899 13.8002 21.5703 13.8057 21.5532 13.8162C21.5362 13.8267 21.5225 13.8417 21.5136 13.8597L19.6438 17.7427C19.6358 17.759 19.632 17.7771 19.6329 17.7953C19.6339 17.8134 19.6394 17.831 19.6491 17.8464C19.6587 17.8618 19.6721 17.8745 19.6881 17.8832C19.704 17.8919 19.7219 17.8965 19.7401 17.8963H20.5204C20.5411 17.8965 20.5615 17.8906 20.579 17.8793C20.5965 17.868 20.6103 17.8519 20.6187 17.8329L21.0385 16.8846C21.0469 16.8656 21.0607 16.8494 21.0782 16.8382C21.0956 16.8269 21.116 16.821 21.1368 16.8211H22.0953C22.1215 16.8215 22.1466 16.8315 22.1659 16.8493C22.1852 16.8671 22.1972 16.8913 22.1997 16.9174L22.2837 17.8001C22.2862 17.8262 22.2983 17.8504 22.3175 17.8682C22.3368 17.8859 22.3619 17.896 22.3881 17.8963H23.236C23.2513 17.8965 23.2664 17.8933 23.2804 17.8871C23.2943 17.8809 23.3068 17.8717 23.3169 17.8603C23.327 17.8488 23.3345 17.8353 23.3389 17.8207C23.3434 17.8061 23.3446 17.7906 23.3425 17.7755L22.8162 13.8925C22.8127 13.8671 22.8003 13.8439 22.7811 13.8269C22.7619 13.81 22.7373 13.8006 22.7117 13.8003H21.6099Z" stroke="#A08C20" stroke-width="2"/>
<path d="M24.3088 13.9355C24.0712 15.0905 23.1598 17.7223 25.0686 17.9148C27.2784 18.138 27.3992 15.7603 27.6225 13.9457C27.6334 13.8488 27.5904 13.8003 27.4934 13.8003H26.8237C26.7861 13.8004 26.7498 13.8139 26.7216 13.8384C26.6934 13.8629 26.6751 13.8966 26.6701 13.9334C26.5063 15.0742 26.4162 17.7223 25.0153 16.9891C24.958 16.959 24.9232 16.9119 24.9109 16.8478C24.7634 16.047 25.13 14.7506 25.2775 13.9273C25.2925 13.8426 25.257 13.8003 25.171 13.8003H24.4747C24.3818 13.8003 24.3265 13.8454 24.3088 13.9355Z" stroke="#A08C20" stroke-width="2"/>
<path d="M28.9517 14.6195C28.966 14.6196 28.98 14.6228 28.9929 14.6288C29.0058 14.6349 29.0172 14.6437 29.0263 14.6546C29.0355 14.6655 29.0422 14.6783 29.0459 14.692C29.0497 14.7058 29.0504 14.7202 29.048 14.7342L28.5114 17.7714C28.5091 17.7851 28.5097 17.7992 28.5132 17.8126C28.5167 17.8261 28.523 17.8386 28.5317 17.8495C28.5404 17.8603 28.5513 17.8692 28.5637 17.8755C28.5761 17.8818 28.5897 17.8854 28.6036 17.8861L29.3675 17.9168C29.391 17.9177 29.4141 17.9102 29.4325 17.8955C29.4509 17.8808 29.4634 17.8601 29.4678 17.8369L30.0167 14.7014C30.0205 14.6786 30.0323 14.6579 30.0499 14.6429C30.0675 14.628 30.0898 14.6197 30.113 14.6195H31.0612C31.0856 14.6196 31.1091 14.6107 31.1273 14.5944C31.1455 14.5781 31.157 14.5557 31.1595 14.5314L31.223 13.9088C31.2244 13.8953 31.223 13.8815 31.2188 13.8685C31.2146 13.8556 31.2078 13.8436 31.1988 13.8334C31.1897 13.8232 31.1786 13.8149 31.1662 13.8092C31.1538 13.8036 31.1404 13.8005 31.1267 13.8003H28.1591C28.1331 13.8003 28.1081 13.8107 28.0896 13.8291C28.0712 13.8475 28.0608 13.8725 28.0608 13.8986L28.0547 14.5212C28.0547 14.5473 28.065 14.5723 28.0835 14.5907C28.1019 14.6091 28.1269 14.6195 28.153 14.6195H28.9517Z" stroke="#A08C20" stroke-width="2"/>
<path d="M32.6582 13.9254C32.6594 13.9185 32.6593 13.9115 32.6578 13.9046C32.6563 13.8978 32.6534 13.8913 32.6494 13.8856C32.6454 13.8799 32.6403 13.875 32.6345 13.8712C32.6286 13.8674 32.622 13.8649 32.6151 13.8636L31.7844 13.7157C31.7775 13.7144 31.7705 13.7146 31.7636 13.7161C31.7568 13.7176 31.7503 13.7204 31.7446 13.7244C31.7389 13.7284 31.734 13.7335 31.7302 13.7394C31.7264 13.7453 31.7239 13.7519 31.7226 13.7588L31.0086 17.7671C31.0074 17.774 31.0076 17.7811 31.0091 17.7879C31.0106 17.7947 31.0134 17.8012 31.0174 17.8069C31.0214 17.8127 31.0265 17.8176 31.0324 17.8213C31.0383 17.8251 31.0448 17.8277 31.0517 17.8289L31.8824 17.9769C31.8893 17.9781 31.8964 17.978 31.9032 17.9765C31.91 17.975 31.9165 17.9721 31.9222 17.9681C31.928 17.9641 31.9329 17.959 31.9366 17.9531C31.9404 17.9472 31.943 17.9407 31.9442 17.9338L32.6582 13.9254Z" stroke="#A08C20" stroke-width="2"/>
<path d="M38.4384 15.2581L39.3539 17.8099C39.3744 17.8673 39.4146 17.8959 39.4747 17.8959H40.2878C40.3642 17.8959 40.4093 17.8584 40.423 17.7833L41.107 13.9084C41.1206 13.8361 41.0899 13.7999 41.0148 13.7999H40.3472C40.2475 13.7999 40.1902 13.8491 40.1751 13.9474L39.8352 16.2534C39.8342 16.2602 39.831 16.2666 39.8261 16.2716C39.8212 16.2766 39.8149 16.2798 39.8082 16.2807C39.8015 16.2817 39.7949 16.2803 39.7893 16.2768C39.7838 16.2734 39.7798 16.268 39.7778 16.2616L38.9054 13.9146C38.8932 13.8816 38.8714 13.8531 38.8429 13.833C38.8143 13.8128 38.7804 13.802 38.7456 13.8019L37.8486 13.7979C37.8135 13.7978 37.7795 13.81 37.7525 13.8325C37.7256 13.855 37.7074 13.8862 37.7011 13.9207L37.0273 17.7321C37.0096 17.8345 37.0526 17.8871 37.1564 17.8898L37.7687 17.9082C37.8534 17.911 37.9025 17.8707 37.9162 17.7874L38.3442 15.2663C38.3462 15.2558 38.3516 15.2462 38.3596 15.2391C38.3675 15.2319 38.3776 15.2275 38.3882 15.2266C38.3989 15.2257 38.4095 15.2282 38.4186 15.2339C38.4277 15.2396 38.4346 15.2481 38.4384 15.2581Z" stroke="#A08C20" stroke-width="2"/>
<path d="M25.8066 22.0024C25.8066 21.4044 25.5691 20.8309 25.1462 20.408C24.7233 19.9851 24.1498 19.7476 23.5517 19.7476C22.9537 19.7476 22.3802 19.9851 21.9573 20.408C21.5344 20.8309 21.2969 21.4044 21.2969 22.0024C21.2969 22.6005 21.5344 23.174 21.9573 23.5969C22.3802 24.0197 22.9537 24.2573 23.5517 24.2573C24.1498 24.2573 24.7233 24.0197 25.1462 23.5969C25.5691 23.174 25.8066 22.6005 25.8066 22.0024Z" stroke="#9E8C26" stroke-width="2"/>
<path d="M21.8661 27.0734C21.9753 29.6539 22.9474 31.8316 24.7824 33.6066C25.6221 34.4197 27.5247 35.3966 28.4382 36.6172C29.7079 38.3129 29.9046 40.0886 30.5927 41.9748C30.6031 42.0045 30.6216 42.0308 30.6461 42.051C30.6706 42.0712 30.7003 42.0845 30.732 42.0895C31.9526 42.2923 31.1477 37.6883 30.9408 37.0473C30.3715 35.2655 28.9584 33.7069 27.5923 32.4146C27.5323 32.3573 27.5418 32.315 27.621 32.2877C30.4104 31.3169 33.7651 33.6127 35.8807 35.2593C36.0868 35.4191 36.2794 35.5017 36.4582 35.5072C36.5055 35.5088 36.5523 35.4978 36.5939 35.4752C36.6354 35.4526 36.6702 35.4193 36.6944 35.3787C36.7187 35.3381 36.7316 35.2918 36.7319 35.2445C36.7321 35.1972 36.7197 35.1507 36.6958 35.1098C34.5699 31.4623 31.844 29.9939 27.6517 29.9099C27.5766 29.9085 27.5172 29.8778 27.4735 29.8177C26.8086 28.8948 26.4127 27.8633 26.2857 26.7232C26.2843 26.7118 26.2853 26.7002 26.2887 26.6892C26.2922 26.6782 26.298 26.6681 26.3057 26.6594C26.3134 26.6507 26.3229 26.6437 26.3336 26.6388C26.3442 26.6339 26.3558 26.6313 26.3676 26.631C29.8759 26.5122 31.7048 24.4274 32.4523 21.1546C32.4712 21.0733 32.46 20.9878 32.4209 20.9141C32.3818 20.8403 32.3173 20.7832 32.2393 20.7532C32.0099 20.6617 31.786 20.745 31.5675 21.0031C30.1851 22.6312 29.1345 23.9665 26.9267 24.5031C24.719 25.0397 22.0504 24.3721 19.7607 25.265C17.8949 25.9961 16.4982 28.0667 15.8285 29.9038C15.7261 30.185 15.735 30.454 15.8551 30.7107C15.8694 30.7405 15.8928 30.765 15.9218 30.7808C15.9508 30.7966 15.9841 30.8029 16.0169 30.7987C16.2941 30.7619 16.5241 30.6308 16.7071 30.4055C18.0854 28.7098 19.3757 27.1348 21.7432 26.9649C21.821 26.9594 21.862 26.9956 21.8661 27.0734Z" stroke="#9E8C26" stroke-width="2"/>
<path d="M27.8586 48.2778C28.0546 48.4275 28.2846 48.5287 28.5357 48.5754C28.7868 48.6222 29.054 48.6136 29.322 48.5501C29.5901 48.4867 29.8537 48.3697 30.0978 48.2057C30.342 48.0417 30.5619 47.8341 30.745 47.5946C31.1148 47.1109 31.3123 46.5268 31.2941 45.9708C31.2758 45.4149 31.0432 44.9326 30.6475 44.6301C30.4516 44.4803 30.2215 44.3791 29.9704 44.3324C29.7193 44.2856 29.4522 44.2942 29.1841 44.3577C28.9161 44.4211 28.6525 44.5382 28.4083 44.7021C28.1642 44.8661 27.9443 45.0737 27.7611 45.3132C27.3913 45.797 27.1938 46.381 27.2121 46.937C27.2304 47.4929 27.463 47.9752 27.8586 48.2778Z" stroke="#A08C20" stroke-width="2"/>
<path d="M32.1692 48.2733C32.3642 48.4239 32.5936 48.526 32.8444 48.5737C33.0953 48.6213 33.3626 48.6136 33.6311 48.551C33.8997 48.4884 34.1642 48.3721 34.4096 48.2088C34.655 48.0455 34.8764 47.8383 35.0613 47.5991C35.2462 47.3599 35.3908 47.0934 35.487 46.8148C35.5832 46.5361 35.6291 46.2508 35.622 45.9752C35.6148 45.6995 35.5549 45.4389 35.4456 45.2082C35.3362 44.9774 35.1796 44.7812 34.9847 44.6305C34.7898 44.4798 34.5603 44.3778 34.3095 44.3301C34.0587 44.2825 33.7914 44.2902 33.5228 44.3528C33.2542 44.4154 32.9897 44.5317 32.7443 44.695C32.4989 44.8583 32.2775 45.0655 32.0926 45.3047C31.9078 45.5439 31.7631 45.8104 31.6669 46.089C31.5707 46.3676 31.5249 46.6529 31.532 46.9286C31.5391 47.2043 31.599 47.4649 31.7084 47.6956C31.8177 47.9263 31.9743 48.1226 32.1692 48.2733Z" stroke="#A08C20" stroke-width="2"/>
<path d="M9.35669 47.1275L9.36489 44.502C9.36489 44.4661 9.35064 44.4317 9.32529 44.4064C9.29995 44.381 9.26557 44.3668 9.22972 44.3668H8.45761C8.36613 44.3668 8.32313 44.4125 8.32859 44.504L8.5682 48.3768C8.57367 48.4697 8.62282 48.5161 8.71566 48.5161L9.52668 48.512C9.60177 48.512 9.65366 48.4765 9.68233 48.4055L10.6633 45.8987C10.6906 45.8305 10.7152 45.8311 10.7371 45.9008C10.7644 45.9827 10.7637 46.0687 10.735 46.1588C10.7201 46.2077 10.7125 46.2588 10.7125 46.3104L10.7596 48.3953C10.7601 48.427 10.7731 48.4572 10.7957 48.4794C10.8183 48.5016 10.8487 48.514 10.8804 48.514H11.7242C11.7679 48.514 11.7986 48.4942 11.8164 48.4546L13.5285 44.5163C13.5352 44.5003 13.5379 44.4829 13.5363 44.4656C13.5347 44.4483 13.5289 44.4316 13.5194 44.4171C13.5099 44.4026 13.497 44.3906 13.4818 44.3822C13.4666 44.3737 13.4496 44.3692 13.4323 44.3688L12.7196 44.3647C12.6294 44.3647 12.5687 44.4071 12.5373 44.4917L11.5972 47.1009C11.5941 47.1111 11.5874 47.1197 11.5782 47.1252C11.5691 47.1307 11.5583 47.1326 11.5479 47.1305C11.5374 47.1285 11.5281 47.1227 11.5217 47.1142C11.5153 47.1057 11.5123 47.0951 11.5133 47.0845V44.4958C11.5133 44.4098 11.4709 44.3668 11.3863 44.3668H10.606C10.5323 44.3668 10.4817 44.4009 10.4544 44.4692L9.42223 47.1398C9.37854 47.2559 9.35669 47.2518 9.35669 47.1275Z" stroke="#A08C20" stroke-width="2"/>
<path d="M14.5702 46.8591C14.5758 46.8349 14.5893 46.8133 14.6086 46.7977C14.6279 46.7821 14.6519 46.7734 14.6767 46.7731H15.9936C16.0219 46.7732 16.0492 46.7624 16.0697 46.7429C16.0903 46.7235 16.1026 46.6969 16.1042 46.6687L16.137 46.1219C16.1378 46.1068 16.1356 46.0918 16.1304 46.0776C16.1252 46.0635 16.1172 46.0506 16.1068 46.0396C16.0965 46.0287 16.084 46.02 16.0702 46.0141C16.0563 46.0081 16.0414 46.0051 16.0264 46.0051H14.8324C14.8161 46.0051 14.8001 46.0015 14.7854 45.9946C14.7707 45.9877 14.7577 45.9776 14.7473 45.9651C14.737 45.9525 14.7295 45.9379 14.7254 45.9222C14.7214 45.9064 14.7208 45.89 14.7238 45.874L14.8324 45.276C14.8372 45.2507 14.8506 45.2279 14.8704 45.2114C14.8902 45.195 14.9152 45.1859 14.9409 45.1859H16.3295C16.3555 45.1858 16.3807 45.1765 16.4006 45.1596C16.4204 45.1428 16.4337 45.1194 16.438 45.0937L16.5425 44.4957C16.5452 44.4799 16.5444 44.4637 16.5401 44.4482C16.5359 44.4327 16.5284 44.4184 16.5181 44.4061C16.5077 44.3938 16.4949 44.3839 16.4803 44.3771C16.4658 44.3703 16.45 44.3668 16.4339 44.3667H14.1012C14.0752 44.3668 14.05 44.3761 14.0302 44.393C14.0103 44.4098 13.997 44.4332 13.9927 44.4589L13.2984 48.3849C13.2957 48.4007 13.2965 48.4169 13.3008 48.4324C13.305 48.4479 13.3125 48.4623 13.3228 48.4746C13.3332 48.4868 13.346 48.4967 13.3606 48.5035C13.3751 48.5103 13.3909 48.5139 13.407 48.5139H15.8441C15.8708 48.5137 15.8964 48.5038 15.9164 48.4861C15.9363 48.4684 15.9492 48.4441 15.9527 48.4177L16.0366 47.8197C16.0387 47.804 16.0373 47.788 16.0327 47.7729C16.0281 47.7578 16.0203 47.7439 16.0098 47.732C15.9993 47.7202 15.9864 47.7107 15.972 47.7043C15.9575 47.6979 15.9418 47.6946 15.926 47.6947H14.5231C14.5065 47.6948 14.49 47.6912 14.4749 47.684C14.4599 47.6769 14.4466 47.6664 14.4362 47.6534C14.4258 47.6404 14.4184 47.6252 14.4146 47.609C14.4109 47.5927 14.4109 47.5758 14.4146 47.5596L14.5702 46.8591Z" stroke="#A08C20" stroke-width="2"/>
<path d="M16.8294 45.1183C16.8271 45.1331 16.8279 45.1482 16.832 45.1626C16.836 45.1769 16.8432 45.1903 16.853 45.2016C16.8627 45.2129 16.8748 45.222 16.8885 45.2281C16.9021 45.2342 16.9169 45.2373 16.9318 45.2371H17.7674C17.7826 45.2369 17.7976 45.24 17.8114 45.2462C17.8252 45.2525 17.8374 45.2617 17.8472 45.2733C17.857 45.2849 17.8641 45.2984 17.8681 45.3131C17.872 45.3277 17.8726 45.343 17.8698 45.3579L17.3271 48.3931C17.3244 48.408 17.325 48.4233 17.3289 48.438C17.3328 48.4526 17.3399 48.4662 17.3497 48.4778C17.3595 48.4893 17.3718 48.4986 17.3856 48.5048C17.3994 48.5111 17.4144 48.5142 17.4295 48.514H18.2016C18.2255 48.5139 18.2486 48.5054 18.267 48.4901C18.2853 48.4748 18.2977 48.4535 18.302 48.43L18.8508 45.3211C18.8551 45.2976 18.8675 45.2763 18.8859 45.261C18.9042 45.2456 18.9273 45.2372 18.9512 45.2371H19.8994C19.924 45.2374 19.9478 45.2289 19.9666 45.2131C19.9854 45.1973 19.9979 45.1753 20.0018 45.1511L20.1063 44.4855C20.1086 44.4709 20.1078 44.456 20.1039 44.4418C20.0999 44.4275 20.093 44.4143 20.0834 44.403C20.0739 44.3917 20.062 44.3827 20.0487 44.3764C20.0353 44.3701 20.0207 44.3668 20.0059 44.3667H17.0383C17.0138 44.3664 16.99 44.3749 16.9712 44.3907C16.9524 44.4065 16.9399 44.4285 16.9359 44.4527L16.8294 45.1183Z" stroke="#A08C20" stroke-width="2"/>
<path d="M22.2988 46.9574C22.3027 46.9343 22.3148 46.9133 22.3328 46.8983C22.3509 46.8833 22.3737 46.8752 22.3971 46.8755H23.6894C23.7123 46.8755 23.7343 46.8674 23.7519 46.8529C23.7695 46.8383 23.7814 46.8181 23.7857 46.7957L23.9024 46.1731C23.9052 46.1587 23.9047 46.1439 23.901 46.1298C23.8973 46.1156 23.8905 46.1025 23.8811 46.0913C23.8717 46.0801 23.8599 46.0712 23.8465 46.0651C23.8332 46.0591 23.8187 46.0561 23.8041 46.0563H22.5774C22.5631 46.0562 22.5491 46.053 22.5362 46.047C22.5233 46.0409 22.5119 46.0321 22.5027 46.0212C22.4936 46.0103 22.4869 45.9975 22.4832 45.9838C22.4794 45.9701 22.4787 45.9557 22.4811 45.9416L22.5897 45.2678C22.5935 45.245 22.6053 45.2243 22.6229 45.2093C22.6405 45.1944 22.6628 45.1861 22.6859 45.1859H24.1072C24.131 45.1862 24.1541 45.1778 24.1721 45.1624C24.1902 45.1469 24.2021 45.1255 24.2055 45.1019L24.2957 44.4793C24.2977 44.4655 24.2968 44.4513 24.2929 44.4378C24.289 44.4243 24.2823 44.4118 24.2731 44.4011C24.264 44.3905 24.2527 44.3819 24.24 44.3759C24.2273 44.37 24.2134 44.3668 24.1994 44.3667H21.8626C21.8395 44.3669 21.8172 44.3752 21.7996 44.3901C21.782 44.4051 21.7702 44.4258 21.7663 44.4486L21.0639 48.3993C21.0615 48.4133 21.0622 48.4277 21.0659 48.4414C21.0697 48.4552 21.0764 48.4679 21.0855 48.4788C21.0947 48.4897 21.1061 48.4985 21.119 48.5046C21.1318 48.5107 21.1459 48.5138 21.1601 48.5139H21.965C21.9885 48.5143 22.0113 48.5062 22.0293 48.4912C22.0473 48.4761 22.0594 48.4552 22.0633 48.432L22.2988 46.9574Z" stroke="#A08C20" stroke-width="2"/>
<path d="M25.4882 47.6947C25.4724 47.6947 25.4569 47.6912 25.4426 47.6845C25.4283 47.6778 25.4156 47.668 25.4055 47.6559C25.3954 47.6439 25.388 47.6297 25.3839 47.6145C25.3798 47.5992 25.379 47.5833 25.3817 47.5678L25.9183 44.4937C25.921 44.4781 25.9202 44.4622 25.9161 44.447C25.912 44.4317 25.9046 44.4176 25.8945 44.4055C25.8843 44.3934 25.8717 44.3837 25.8574 44.377C25.8431 44.3703 25.8276 44.3668 25.8118 44.3667H25.0581C25.0326 44.3668 25.0079 44.3759 24.9885 44.3924C24.969 44.4089 24.9559 44.4317 24.9516 44.4568L24.2594 48.387C24.2567 48.4025 24.2574 48.4185 24.2616 48.4337C24.2657 48.4489 24.2731 48.4631 24.2832 48.4752C24.2933 48.4872 24.306 48.497 24.3203 48.5037C24.3345 48.5104 24.3501 48.5139 24.3659 48.5139H26.7354C26.761 48.5138 26.7856 48.5047 26.8051 48.4883C26.8246 48.4718 26.8376 48.449 26.8419 48.4238L26.9423 47.8217C26.945 47.8062 26.9442 47.7902 26.9401 47.775C26.936 47.7598 26.9286 47.7456 26.9185 47.7335C26.9084 47.7214 26.8957 47.7117 26.8814 47.705C26.8671 47.6983 26.8516 47.6948 26.8358 47.6947H25.4882Z" stroke="#A08C20" stroke-width="2"/>
<path d="M38.5891 46.4702C39.2895 45.9254 39.7052 44.7847 38.5215 44.4734C37.8798 44.3055 37.2217 44.3007 36.5472 44.4591C36.4885 44.4727 36.4543 44.5089 36.4448 44.5676L35.7607 48.3933C35.7471 48.4739 35.7812 48.5141 35.8631 48.5141H36.6045C36.6823 48.5141 36.7274 48.4752 36.7397 48.3974L36.9261 47.2218C36.943 47.1244 36.9947 47.0363 37.0716 46.974C37.1484 46.9117 37.2452 46.8793 37.3441 46.8828C37.4429 46.8863 37.5372 46.9254 37.6095 46.993C37.6817 47.0606 37.727 47.1521 37.7371 47.2505L37.8354 48.3687C37.8436 48.4657 37.8968 48.5141 37.9951 48.5141H38.6976C38.7918 48.5141 38.8382 48.467 38.8369 48.3728C38.8273 47.7693 38.7297 47.1822 38.544 46.6115C38.5263 46.5542 38.5413 46.5071 38.5891 46.4702Z" stroke="#A08C20" stroke-width="2"/>
<path d="M34.3821 17.1117C34.4947 17.1531 34.6183 17.161 34.746 17.1349C34.8737 17.1089 35.0029 17.0493 35.1262 16.9598C35.2496 16.8702 35.3646 16.7523 35.4649 16.6128C35.5651 16.4734 35.6485 16.3151 35.7103 16.147C35.7722 15.9789 35.8113 15.8042 35.8253 15.6331C35.8394 15.4619 35.8282 15.2976 35.7923 15.1494C35.7564 15.0013 35.6966 14.8722 35.6163 14.7696C35.536 14.667 35.4367 14.5929 35.3241 14.5515C35.2115 14.51 35.0879 14.5021 34.9602 14.5282C34.8325 14.5543 34.7033 14.6138 34.58 14.7034C34.4566 14.793 34.3416 14.9108 34.2414 15.0503C34.1411 15.1898 34.0577 15.3481 33.9959 15.5162C33.934 15.6843 33.8949 15.8589 33.8809 16.03C33.8668 16.2012 33.878 16.3656 33.9139 16.5137C33.9498 16.6619 34.0096 16.7909 34.0899 16.8935C34.1703 16.9961 34.2695 17.0702 34.3821 17.1117Z" stroke="#A08C20" stroke-width="2"/>
<path d="M21.3896 15.9404C21.385 15.95 21.3827 15.9604 21.3828 15.971C21.3829 15.9816 21.3854 15.9921 21.3902 16.0016C21.3949 16.011 21.4017 16.0193 21.4102 16.0257C21.4186 16.0322 21.4284 16.0366 21.4388 16.0387L22.0429 16.1616C22.0536 16.1638 22.0646 16.1636 22.0751 16.1609C22.0856 16.1581 22.0953 16.153 22.1034 16.1458C22.1116 16.1386 22.118 16.1297 22.122 16.1196C22.1261 16.1095 22.1278 16.0987 22.1269 16.0878L22.045 14.9369C22.0446 14.9211 22.0388 14.9059 22.0286 14.8939C22.0185 14.8818 22.0045 14.8736 21.989 14.8705C21.9736 14.8674 21.9575 14.8696 21.9435 14.8769C21.9295 14.8841 21.9183 14.8959 21.9119 14.9102L21.3896 15.9404Z" stroke="#A08C20" stroke-width="2"/>
<path d="M28.7944 47.754C28.9087 47.7938 29.0335 47.7997 29.1619 47.7712C29.2902 47.7428 29.4194 47.6806 29.5422 47.5882C29.665 47.4959 29.7789 47.3751 29.8775 47.2329C29.976 47.0907 30.0573 46.9298 30.1167 46.7593C30.176 46.5889 30.2123 46.4123 30.2234 46.2396C30.2345 46.0669 30.2202 45.9015 30.1813 45.7529C30.1425 45.6042 30.0798 45.4752 29.9969 45.3732C29.914 45.2712 29.8126 45.1983 29.6983 45.1585C29.584 45.1187 29.4591 45.1128 29.3308 45.1413C29.2025 45.1697 29.0732 45.2319 28.9505 45.3243C28.8277 45.4166 28.7137 45.5374 28.6152 45.6796C28.5166 45.8218 28.4353 45.9827 28.376 46.1532C28.3166 46.3236 28.2804 46.5002 28.2693 46.6729C28.2582 46.8456 28.2725 47.011 28.3113 47.1596C28.3502 47.3083 28.4128 47.4373 28.4957 47.5393C28.5786 47.6413 28.6801 47.7142 28.7944 47.754Z" stroke="#A08C20" stroke-width="2"/>
<path d="M33.1228 47.7603C33.2371 47.7999 33.3621 47.8053 33.4905 47.7762C33.6188 47.7472 33.7482 47.6842 33.871 47.5909C33.9939 47.4976 34.1079 47.3758 34.2066 47.2325C34.3052 47.0891 34.3866 46.9271 34.446 46.7555C34.5054 46.584 34.5417 46.4063 34.5528 46.2327C34.5639 46.059 34.5496 45.8928 34.5108 45.7435C34.4719 45.5942 34.4092 45.4647 34.3263 45.3625C34.2434 45.2602 34.1418 45.1872 34.0274 45.1476C33.9131 45.108 33.7881 45.1026 33.6597 45.1317C33.5314 45.1607 33.402 45.2237 33.2792 45.317C33.1563 45.4103 33.0423 45.5321 32.9436 45.6754C32.845 45.8188 32.7636 45.9808 32.7042 46.1524C32.6448 46.3239 32.6085 46.5016 32.5974 46.6752C32.5863 46.8489 32.6006 47.0151 32.6394 47.1644C32.6783 47.3137 32.741 47.4432 32.8239 47.5454C32.9068 47.6477 33.0084 47.7207 33.1228 47.7603Z" stroke="#A08C20" stroke-width="2"/>
<path d="M38.1449 45.2087L37.4834 45.0592C37.4626 45.0547 37.4411 45.0545 37.4203 45.0585C37.3994 45.0626 37.3796 45.0708 37.3622 45.0827C37.3447 45.0946 37.3299 45.1099 37.3187 45.1277C37.3075 45.1455 37.3001 45.1654 37.297 45.1862L37.1578 46.0934C37.1496 46.1522 37.1748 46.1842 37.2335 46.1897C37.8575 46.258 38.2043 45.9924 38.2739 45.393C38.2786 45.3519 38.268 45.3104 38.2443 45.2765C38.2205 45.2425 38.1852 45.2184 38.1449 45.2087Z" stroke="#A08C20" stroke-width="2"/>
<path d="M49.7253 1.00195C49.7745 1.59178 49.7192 2.34204 49.5595 3.25273C46.6895 19.6055 43.8175 35.9576 40.9434 52.309C40.5925 54.3051 40.2362 56.2999 39.8744 58.2933C39.7535 58.961 39.6818 59.9727 39.3705 60.8144C38.1445 60.8281 36.887 60.8418 35.5981 60.8554C35.0431 60.8616 34.1501 60.7264 33.376 60.8964C33.3439 60.9035 33.3106 60.9037 33.2784 60.8968C33.2462 60.8899 33.2159 60.8762 33.1894 60.8566C33.163 60.837 33.1411 60.8119 33.1253 60.7831C33.1094 60.7542 33.0999 60.7223 33.0975 60.6895L32.8107 56.9355L32.5936 53.9413C32.5911 53.9073 32.5814 53.8744 32.5651 53.8447C32.5489 53.815 32.5264 53.7893 32.4994 53.7692C32.3438 53.6505 32.1704 53.6081 31.9792 53.6423L24.6268 53.5931L13.3832 53.587C12.9326 53.5788 12.1298 53.4887 11.8881 54.0089C11.2341 55.4193 10.4757 57.2024 9.61278 59.3583C9.39295 59.9085 9.23935 60.3564 9.15197 60.7018C9.13695 60.7592 9.10009 60.7919 9.04138 60.8001L8.64406 60.8472L2.96694 60.7796C2.9274 60.779 2.88849 60.7696 2.853 60.7521C2.81751 60.7347 2.78632 60.7096 2.76166 60.6786C2.737 60.6477 2.71948 60.6117 2.71036 60.5733C2.70124 60.5348 2.70074 60.4947 2.70889 60.456L3.10211 58.5985L13.2255 1.16989C13.2446 1.05793 13.3108 1.00195 13.4241 1.00195H49.7253ZM22.7877 4.89934C22.3467 4.86793 21.8975 4.93689 21.4401 5.10619C21.4023 5.1198 21.3689 5.14353 21.3433 5.17488C21.3177 5.20624 21.3009 5.24406 21.2947 5.28437L20.8933 7.88331C20.8838 7.94475 20.8881 8.00752 20.9059 8.06709C20.9236 8.12667 20.9544 8.18156 20.9959 8.22781C21.0374 8.27405 21.0887 8.31049 21.1461 8.3345C21.2034 8.35851 21.2654 8.36949 21.3275 8.36664L22.2839 8.32568C22.6962 8.3721 23.0833 8.39395 23.4451 8.39122C28.6334 8.35708 33.8218 8.31817 39.0101 8.27448C39.3746 8.27175 39.6805 8.15638 39.9276 7.92836L40.329 5.39906C40.3397 5.33126 40.3356 5.26196 40.317 5.19593C40.2984 5.1299 40.2659 5.0687 40.2215 5.01654C40.1771 4.96438 40.122 4.9225 40.06 4.89378C39.9979 4.86507 39.9304 4.8502 39.8621 4.85019L25.6099 4.83995L22.7877 4.89934ZM19.8877 13.8451C18.2288 13.3966 16.6866 14.2486 16.4265 15.9996C16.1685 17.7527 17.8479 18.2422 19.1852 17.7896C19.2672 17.7623 19.3061 17.7063 19.302 17.6217L19.2856 17.126C19.2848 17.105 19.2789 17.0844 19.2685 17.066C19.2581 17.0477 19.2433 17.0321 19.2255 17.0205C19.2077 17.0089 19.1874 17.0016 19.1661 16.9993C19.1449 16.997 19.1234 16.9997 19.1033 17.0072C16.8013 17.9002 16.8136 14.0458 19.603 14.6254C19.6877 14.6431 19.745 14.6117 19.7751 14.5312L19.9696 14.0048C20.001 13.9216 19.9737 13.8683 19.8877 13.8451ZM33.4673 17.6599C33.8611 17.9567 34.3842 18.0485 34.9214 17.9152C35.4585 17.7818 35.9658 17.4342 36.3316 16.9488C36.6974 16.4634 36.8917 15.8799 36.8719 15.3268C36.852 14.7737 36.6195 14.2962 36.2257 13.9994C35.8318 13.7026 35.3087 13.6107 34.7716 13.7441C34.2344 13.8775 33.7271 14.2251 33.3613 14.7105C32.9955 15.1959 32.8012 15.7794 32.8211 16.3325C32.8409 16.8856 33.0734 17.3631 33.4673 17.6599ZM21.6121 13.8C21.5921 13.7999 21.5725 13.8054 21.5555 13.8159C21.5385 13.8264 21.5247 13.8415 21.5159 13.8594L19.646 17.7425C19.638 17.7588 19.6343 17.7769 19.6352 17.795C19.6361 17.8131 19.6417 17.8308 19.6513 17.8461C19.661 17.8615 19.6744 17.8742 19.6903 17.883C19.7062 17.8917 19.7241 17.8962 19.7423 17.8961H20.5226C20.5434 17.8963 20.5638 17.8903 20.5812 17.8791C20.5987 17.8678 20.6125 17.8516 20.6209 17.8326L21.0407 16.8844C21.0491 16.8653 21.0629 16.8492 21.0804 16.8379C21.0979 16.8266 21.1182 16.8207 21.139 16.8209H22.0975C22.1237 16.8213 22.1489 16.8313 22.1681 16.8491C22.1874 16.8668 22.1995 16.8911 22.202 16.9171L22.2859 17.7998C22.2885 17.8259 22.3005 17.8502 22.3198 17.8679C22.339 17.8857 22.3642 17.8957 22.3904 17.8961H23.2383C23.2535 17.8962 23.2687 17.8931 23.2826 17.8869C23.2966 17.8806 23.309 17.8715 23.3191 17.86C23.3292 17.8486 23.3368 17.8351 23.3412 17.8204C23.3456 17.8058 23.3468 17.7904 23.3448 17.7753L22.8184 13.8922C22.815 13.8669 22.8025 13.8436 22.7834 13.8267C22.7642 13.8098 22.7396 13.8003 22.714 13.8H21.6121ZM24.3114 13.9352C24.0739 15.0903 23.1625 17.722 25.0713 17.9145C27.2811 18.1378 27.4019 15.76 27.6251 13.9455C27.6361 13.8485 27.5931 13.8 27.4961 13.8H26.8264C26.7888 13.8001 26.7525 13.8137 26.7243 13.8382C26.696 13.8626 26.6778 13.8964 26.6728 13.9332C26.509 15.0739 26.4188 17.722 25.018 16.9888C24.9607 16.9588 24.9258 16.9117 24.9136 16.8475C24.7661 16.0467 25.1327 14.7503 25.2801 13.927C25.2952 13.8424 25.2597 13.8 25.1737 13.8H24.4773C24.3845 13.8 24.3292 13.8451 24.3114 13.9352ZM28.9482 14.6193C28.9624 14.6194 28.9764 14.6225 28.9893 14.6286C29.0022 14.6347 29.0136 14.6435 29.0228 14.6544C29.0319 14.6653 29.0386 14.678 29.0424 14.6918C29.0461 14.7055 29.0468 14.7199 29.0444 14.7339L28.5078 17.7712C28.5055 17.7849 28.5061 17.7989 28.5096 17.8124C28.5131 17.8258 28.5194 17.8384 28.5281 17.8492C28.5368 17.8601 28.5477 17.8689 28.5601 17.8753C28.5725 17.8816 28.5861 17.8852 28.6 17.8858L29.3639 17.9166C29.3874 17.9175 29.4105 17.9099 29.4289 17.8953C29.4473 17.8806 29.4599 17.8598 29.4643 17.8367L30.0131 14.7012C30.017 14.6784 30.0287 14.6577 30.0463 14.6427C30.0639 14.6277 30.0863 14.6194 30.1094 14.6193H31.0576C31.082 14.6194 31.1056 14.6104 31.1238 14.5942C31.1419 14.5779 31.1534 14.5554 31.1559 14.5312L31.2194 13.9086C31.2208 13.895 31.2194 13.8813 31.2153 13.8683C31.2111 13.8553 31.2043 13.8433 31.1952 13.8331C31.1861 13.8229 31.1751 13.8147 31.1627 13.809C31.1503 13.8033 31.1368 13.8003 31.1232 13.8H28.1556C28.1295 13.8 28.1045 13.8104 28.0861 13.8288C28.0676 13.8473 28.0573 13.8723 28.0573 13.8983L28.0511 14.5209C28.0511 14.547 28.0615 14.572 28.0799 14.5905C28.0984 14.6089 28.1234 14.6193 28.1494 14.6193H28.9482ZM32.6607 13.9252C32.6619 13.9183 32.6617 13.9112 32.6602 13.9044C32.6587 13.8976 32.6559 13.8911 32.6519 13.8853C32.6479 13.8796 32.6428 13.8747 32.6369 13.871C32.631 13.8672 32.6244 13.8646 32.6176 13.8634L31.7869 13.7154C31.78 13.7142 31.7729 13.7143 31.7661 13.7158C31.7593 13.7173 31.7528 13.7202 31.7471 13.7242C31.7413 13.7282 31.7364 13.7333 31.7327 13.7392C31.7289 13.745 31.7263 13.7516 31.7251 13.7585L31.0111 17.7669C31.0099 17.7738 31.01 17.7808 31.0115 17.7877C31.013 17.7945 31.0158 17.801 31.0198 17.8067C31.0238 17.8124 31.0289 17.8173 31.0348 17.8211C31.0407 17.8249 31.0473 17.8274 31.0542 17.8286L31.8849 17.9766C31.8918 17.9778 31.8988 17.9777 31.9057 17.9762C31.9125 17.9747 31.919 17.9719 31.9247 17.9679C31.9304 17.9639 31.9353 17.9588 31.9391 17.9529C31.9429 17.947 31.9454 17.9404 31.9466 17.9335L32.6607 13.9252ZM38.4366 15.2582L39.3521 17.8101C39.3726 17.8674 39.4129 17.8961 39.4729 17.8961H40.286C40.3625 17.8961 40.4075 17.8585 40.4212 17.7834L41.1052 13.9086C41.1189 13.8362 41.0882 13.8 41.0131 13.8H40.3454C40.2457 13.8 40.1884 13.8492 40.1734 13.9475L39.8334 16.2536C39.8324 16.2604 39.8292 16.2668 39.8243 16.2717C39.8194 16.2767 39.8131 16.2799 39.8064 16.2809C39.7997 16.2818 39.7931 16.2805 39.7876 16.277C39.7821 16.2735 39.778 16.2681 39.7761 16.2618L38.9036 13.9147C38.8915 13.8817 38.8697 13.8533 38.8411 13.8331C38.8125 13.813 38.7786 13.8022 38.7439 13.8021L37.8468 13.798C37.8117 13.7979 37.7777 13.8102 37.7508 13.8326C37.7238 13.8551 37.7056 13.8863 37.6994 13.9209L37.0256 17.7322C37.0078 17.8346 37.0508 17.8872 37.1546 17.8899L37.7669 17.9084C37.8516 17.9111 37.9007 17.8708 37.9144 17.7875L38.3424 15.2664C38.3445 15.2559 38.3498 15.2464 38.3578 15.2392C38.3657 15.232 38.3758 15.2277 38.3865 15.2267C38.3971 15.2258 38.4078 15.2284 38.4168 15.2341C38.4259 15.2398 38.4328 15.2482 38.4366 15.2582ZM25.8024 22.0024C25.8024 21.4043 25.5648 20.8308 25.142 20.4079C24.7191 19.9851 24.1456 19.7475 23.5475 19.7475C22.9495 19.7475 22.376 19.9851 21.9531 20.4079C21.5302 20.8308 21.2926 21.4043 21.2926 22.0024C21.2926 22.6004 21.5302 23.1739 21.9531 23.5968C22.376 24.0197 22.9495 24.2572 23.5475 24.2572C24.1456 24.2572 24.7191 24.0197 25.142 23.5968C25.5648 23.1739 25.8024 22.6004 25.8024 22.0024ZM21.864 27.0733C21.9733 29.6538 22.9454 31.8315 24.7804 33.6065C25.6201 34.4195 27.5227 35.3964 28.4362 36.6171C29.7059 38.3128 29.9025 40.0885 30.5907 41.9747C30.6011 42.0043 30.6195 42.0307 30.6441 42.0508C30.6686 42.071 30.6983 42.0844 30.7299 42.0894C31.9506 42.2921 31.1457 37.6882 30.9388 37.0471C30.3695 35.2654 28.9563 33.7068 27.5903 32.4145C27.5302 32.3572 27.5398 32.3148 27.619 32.2875C30.4084 31.3168 33.7631 33.6126 35.8787 35.2592C36.0848 35.419 36.2773 35.5016 36.4562 35.507C36.5035 35.5087 36.5503 35.4977 36.5919 35.4751C36.6334 35.4525 36.6682 35.4192 36.6924 35.3786C36.7167 35.338 36.7296 35.2916 36.7299 35.2443C36.7301 35.197 36.7176 35.1506 36.6938 35.1097C34.5679 31.4622 31.842 29.9938 27.6497 29.9098C27.5746 29.9084 27.5152 29.8777 27.4715 29.8176C26.8066 28.8946 26.4107 27.8631 26.2837 26.7231C26.2822 26.7117 26.2833 26.7001 26.2867 26.6891C26.2902 26.6781 26.2959 26.6679 26.3037 26.6593C26.3114 26.6506 26.3209 26.6435 26.3316 26.6387C26.3422 26.6338 26.3538 26.6311 26.3656 26.6309C29.8739 26.5121 31.7027 24.4272 32.4503 21.1545C32.4692 21.0731 32.458 20.9877 32.4189 20.9139C32.3797 20.8402 32.3152 20.783 32.2373 20.7531C32.0079 20.6616 31.784 20.7449 31.5655 21.0029C30.1831 22.6311 29.1325 23.9664 26.9247 24.503C24.7169 25.0396 22.0484 24.3719 19.7587 25.2649C17.8929 25.996 16.4962 28.0666 15.8265 29.9036C15.7241 30.1849 15.7329 30.4539 15.8531 30.7106C15.8674 30.7404 15.8908 30.7649 15.9198 30.7807C15.9488 30.7965 15.9821 30.8028 16.0149 30.7986C16.2921 30.7618 16.5221 30.6307 16.7051 30.4054C18.0834 28.7096 19.3736 27.1347 21.7412 26.9647C21.819 26.9593 21.86 26.9955 21.864 27.0733ZM27.8568 48.2776C28.0528 48.4274 28.2828 48.5285 28.5339 48.5752C28.785 48.622 29.0522 48.6134 29.3202 48.5499C29.5882 48.4865 29.8519 48.3695 30.096 48.2055C30.3402 48.0416 30.5601 47.8339 30.7432 47.5944C31.113 47.1107 31.3105 46.5266 31.2922 45.9706C31.274 45.4147 31.0414 44.9324 30.6457 44.6299C30.4498 44.4801 30.2197 44.3789 29.9686 44.3322C29.7175 44.2854 29.4503 44.294 29.1823 44.3575C28.9143 44.4209 28.6507 44.538 28.4065 44.7019C28.1624 44.8659 27.9424 45.0735 27.7593 45.313C27.3895 45.7968 27.192 46.3808 27.2103 46.9368C27.2286 47.4927 27.4611 47.975 27.8568 48.2776ZM32.1628 48.2731C32.3577 48.4237 32.5872 48.5258 32.838 48.5734C33.0888 48.6211 33.3562 48.6134 33.6247 48.5508C33.8933 48.4882 34.1578 48.3719 34.4032 48.2086C34.6486 48.0452 34.87 47.8381 35.0549 47.5989C35.2397 47.3597 35.3844 47.0932 35.4806 46.8145C35.5768 46.5359 35.6227 46.2506 35.6155 45.975C35.6084 45.6993 35.5485 45.4387 35.4391 45.2079C35.3298 44.9772 35.1732 44.7809 34.9783 44.6303C34.7833 44.4796 34.5539 44.3776 34.3031 44.3299C34.0523 44.2822 33.7849 44.2899 33.5164 44.3525C33.2478 44.4151 32.9833 44.5314 32.7379 44.6948C32.4925 44.8581 32.2711 45.0653 32.0862 45.3044C31.9014 45.5436 31.7567 45.8102 31.6605 46.0888C31.5643 46.3674 31.5184 46.6527 31.5255 46.9284C31.5327 47.204 31.5926 47.4647 31.7019 47.6954C31.8113 47.9261 31.9679 48.1224 32.1628 48.2731ZM9.35882 47.1275L9.36702 44.5019C9.36702 44.4661 9.35277 44.4317 9.32742 44.4064C9.30207 44.381 9.26769 44.3668 9.23185 44.3668H8.45974C8.36826 44.3668 8.32525 44.4125 8.33071 44.504L8.57033 48.3768C8.57579 48.4696 8.62495 48.5161 8.71779 48.5161L9.52881 48.512C9.6039 48.512 9.65579 48.4765 9.68446 48.4055L10.6655 45.8987C10.6928 45.8304 10.7173 45.8311 10.7392 45.9007C10.7665 45.9827 10.7658 46.0687 10.7371 46.1588C10.7222 46.2077 10.7146 46.2588 10.7146 46.3103L10.7617 48.3952C10.7623 48.4269 10.7752 48.4571 10.7978 48.4794C10.8204 48.5016 10.8509 48.514 10.8826 48.514H11.7263C11.77 48.514 11.8008 48.4942 11.8185 48.4546L13.5306 44.5163C13.5373 44.5003 13.54 44.4828 13.5384 44.4656C13.5368 44.4483 13.531 44.4316 13.5215 44.4171C13.512 44.4026 13.4991 44.3906 13.4839 44.3821C13.4688 44.3737 13.4517 44.3692 13.4344 44.3688L12.7217 44.3647C12.6316 44.3647 12.5708 44.4071 12.5394 44.4917L11.5994 47.1009C11.5963 47.1111 11.5895 47.1197 11.5804 47.1252C11.5712 47.1307 11.5604 47.1326 11.55 47.1305C11.5396 47.1285 11.5302 47.1227 11.5239 47.1142C11.5175 47.1057 11.5144 47.0951 11.5154 47.0845V44.4958C11.5154 44.4098 11.4731 44.3668 11.3884 44.3668H10.6081C10.5344 44.3668 10.4839 44.4009 10.4566 44.4692L9.42436 47.1398C9.38067 47.2559 9.35882 47.2518 9.35882 47.1275ZM14.5669 46.8592C14.5725 46.835 14.586 46.8134 14.6053 46.7978C14.6246 46.7822 14.6486 46.7735 14.6734 46.7732H15.9903C16.0186 46.7732 16.0459 46.7624 16.0664 46.743C16.087 46.7236 16.0993 46.697 16.1009 46.6688L16.1337 46.1219C16.1345 46.1069 16.1323 46.0919 16.1271 46.0777C16.1219 46.0636 16.1139 46.0507 16.1035 46.0397C16.0932 46.0288 16.0807 46.0201 16.0669 46.0142C16.053 46.0082 16.0381 46.0052 16.0231 46.0052H14.8291C14.8128 46.0052 14.7968 46.0016 14.7821 45.9947C14.7674 45.9877 14.7544 45.9777 14.7441 45.9651C14.7337 45.9526 14.7262 45.938 14.7221 45.9223C14.7181 45.9065 14.7175 45.8901 14.7205 45.8741L14.8291 45.2761C14.8339 45.2508 14.8473 45.2279 14.8671 45.2115C14.8869 45.195 14.9119 45.186 14.9376 45.186H16.3262C16.3522 45.1859 16.3774 45.1766 16.3973 45.1597C16.4171 45.1428 16.4304 45.1195 16.4347 45.0938L16.5392 44.4958C16.5419 44.48 16.5411 44.4638 16.5368 44.4483C16.5326 44.4328 16.5251 44.4184 16.5148 44.4062C16.5044 44.3939 16.4916 44.384 16.477 44.3772C16.4625 44.3704 16.4467 44.3669 16.4306 44.3668H14.0979C14.0719 44.3669 14.0467 44.3762 14.0269 44.3931C14.007 44.4099 13.9937 44.4333 13.9894 44.4589L13.2951 48.385C13.2924 48.4008 13.2933 48.417 13.2975 48.4325C13.3017 48.448 13.3092 48.4624 13.3195 48.4746C13.3299 48.4869 13.3427 48.4968 13.3573 48.5036C13.3718 48.5104 13.3876 48.514 13.4037 48.514H15.8408C15.8675 48.5138 15.8931 48.5039 15.9131 48.4862C15.933 48.4685 15.9459 48.4442 15.9494 48.4178L16.0333 47.8197C16.0354 47.8041 16.034 47.7881 16.0294 47.773C16.0248 47.7579 16.017 47.7439 16.0065 47.7321C15.996 47.7203 15.9831 47.7108 15.9687 47.7044C15.9542 47.6979 15.9385 47.6947 15.9227 47.6948H14.5198C14.5032 47.6949 14.4867 47.6913 14.4716 47.6841C14.4566 47.6769 14.4433 47.6665 14.4329 47.6535C14.4225 47.6405 14.4151 47.6253 14.4113 47.609C14.4076 47.5928 14.4076 47.5759 14.4113 47.5596L14.5669 46.8592ZM16.8321 45.1184C16.8297 45.1332 16.8305 45.1483 16.8346 45.1626C16.8387 45.177 16.8458 45.1903 16.8556 45.2017C16.8653 45.213 16.8775 45.222 16.8911 45.2282C16.9047 45.2343 16.9195 45.2374 16.9345 45.2372H17.7701C17.7852 45.2369 17.8002 45.2401 17.814 45.2463C17.8278 45.2526 17.8401 45.2618 17.8498 45.2734C17.8596 45.2849 17.8668 45.2985 17.8707 45.3132C17.8746 45.3278 17.8752 45.3431 17.8725 45.358L17.3297 48.3932C17.327 48.4081 17.3276 48.4234 17.3315 48.4381C17.3354 48.4527 17.3425 48.4663 17.3523 48.4778C17.3621 48.4894 17.3744 48.4986 17.3882 48.5049C17.402 48.5112 17.417 48.5143 17.4321 48.514H18.2042C18.2281 48.5139 18.2512 48.5055 18.2696 48.4902C18.2879 48.4748 18.3003 48.4536 18.3046 48.4301L18.8535 45.3212C18.8578 45.2976 18.8701 45.2764 18.8885 45.2611C18.9068 45.2457 18.9299 45.2373 18.9538 45.2372H19.902C19.9266 45.2375 19.9504 45.229 19.9692 45.2132C19.988 45.1974 20.0005 45.1754 20.0044 45.1512L20.1089 44.4856C20.1113 44.471 20.1104 44.4561 20.1065 44.4418C20.1025 44.4276 20.0956 44.4144 20.086 44.4031C20.0765 44.3918 20.0646 44.3827 20.0513 44.3765C20.0379 44.3702 20.0233 44.3669 20.0085 44.3668H17.041C17.0164 44.3665 16.9926 44.375 16.9738 44.3908C16.955 44.4065 16.9425 44.4286 16.9386 44.4528L16.8321 45.1184ZM22.2982 46.9575C22.3021 46.9344 22.3142 46.9134 22.3322 46.8984C22.3503 46.8834 22.3731 46.8753 22.3965 46.8756H23.6888C23.7117 46.8755 23.7337 46.8675 23.7513 46.853C23.7689 46.8384 23.7808 46.8181 23.7851 46.7957L23.9018 46.1731C23.9046 46.1588 23.9041 46.144 23.9004 46.1298C23.8967 46.1157 23.8899 46.1026 23.8805 46.0914C23.871 46.0802 23.8593 46.0712 23.8459 46.0652C23.8326 46.0591 23.8181 46.0561 23.8035 46.0564H22.5768C22.5625 46.0563 22.5485 46.0531 22.5356 46.047C22.5227 46.041 22.5113 46.0322 22.5021 46.0213C22.493 46.0104 22.4863 45.9976 22.4826 45.9839C22.4788 45.9701 22.4781 45.9557 22.4805 45.9417L22.589 45.2679C22.5929 45.2451 22.6047 45.2244 22.6223 45.2094C22.6399 45.1944 22.6622 45.1861 22.6853 45.186H24.1066C24.1304 45.1862 24.1535 45.1779 24.1715 45.1624C24.1896 45.147 24.2015 45.1255 24.2049 45.102L24.295 44.4794C24.2971 44.4655 24.2961 44.4514 24.2923 44.4379C24.2884 44.4244 24.2817 44.4119 24.2725 44.4012C24.2634 44.3905 24.2521 44.382 24.2394 44.376C24.2267 44.3701 24.2128 44.3669 24.1988 44.3668H21.862C21.8389 44.3669 21.8166 44.3752 21.799 44.3902C21.7814 44.4052 21.7696 44.4259 21.7657 44.4487L21.0633 48.3993C21.0609 48.4134 21.0616 48.4278 21.0653 48.4415C21.0691 48.4552 21.0757 48.468 21.0849 48.4789C21.0941 48.4898 21.1055 48.4986 21.1184 48.5047C21.1312 48.5107 21.1453 48.5139 21.1595 48.514H21.9644C21.9879 48.5144 22.0107 48.5063 22.0287 48.4912C22.0467 48.4762 22.0588 48.4552 22.0627 48.4321L22.2982 46.9575ZM25.489 47.6948C25.4733 47.6947 25.4577 47.6912 25.4434 47.6845C25.4291 47.6778 25.4165 47.6681 25.4064 47.656C25.3962 47.6439 25.3888 47.6298 25.3847 47.6146C25.3806 47.5993 25.3799 47.5834 25.3825 47.5678L25.9191 44.4938C25.9218 44.4782 25.9211 44.4623 25.917 44.447C25.9128 44.4318 25.9055 44.4177 25.8953 44.4056C25.8852 44.3935 25.8725 44.3838 25.8583 44.3771C25.844 44.3704 25.8284 44.3668 25.8126 44.3668H25.059C25.0335 44.3669 25.0088 44.376 24.9893 44.3925C24.9698 44.4089 24.9568 44.4318 24.9525 44.4569L24.2602 48.387C24.2576 48.4026 24.2583 48.4185 24.2624 48.4338C24.2665 48.449 24.2739 48.4631 24.284 48.4752C24.2942 48.4873 24.3068 48.4971 24.3211 48.5037C24.3354 48.5104 24.351 48.514 24.3667 48.514H26.7363C26.7618 48.5139 26.7865 48.5048 26.8059 48.4883C26.8254 48.4719 26.8385 48.4491 26.8428 48.4239L26.9431 47.8218C26.9458 47.8062 26.9451 47.7903 26.941 47.7751C26.9369 47.7598 26.9295 47.7457 26.9193 47.7336C26.9092 47.7215 26.8966 47.7118 26.8823 47.7051C26.868 47.6984 26.8524 47.6949 26.8366 47.6948H25.489ZM38.5882 46.4701C39.2886 45.9253 39.7044 44.7846 38.5206 44.4733C37.8789 44.3053 37.2208 44.3006 36.5463 44.4589C36.4876 44.4726 36.4535 44.5088 36.4439 44.5675L35.7599 48.3932C35.7462 48.4737 35.7804 48.514 35.8623 48.514H36.6037C36.6815 48.514 36.7266 48.4751 36.7388 48.3973L36.9252 47.2217C36.9422 47.1243 36.9939 47.0362 37.0707 46.9739C37.1475 46.9116 37.2443 46.8792 37.3432 46.8826C37.4421 46.8861 37.5364 46.9253 37.6086 46.9929C37.6808 47.0605 37.7262 47.152 37.7362 47.2504L37.8345 48.3686C37.8427 48.4656 37.896 48.514 37.9943 48.514H38.6967C38.791 48.514 38.8374 48.4669 38.836 48.3727C38.8265 47.7692 38.7288 47.1821 38.5431 46.6114C38.5254 46.5541 38.5404 46.507 38.5882 46.4701Z" fill="#FFDE16"/>
<path d="M49.7298 1.00205L52.6134 1C52.645 0.999952 52.6757 1.01099 52.7 1.0312C52.7243 1.05141 52.7408 1.0795 52.7465 1.11059L62.9805 55.3668L63.2652 56.7554C63.2816 56.8414 63.2468 56.8871 63.1607 56.8926L62.0036 56.9622L51.571 1.91751C51.5608 1.86249 51.5314 1.81287 51.488 1.77754C51.4447 1.74222 51.3901 1.7235 51.3342 1.72473C51.2782 1.72596 51.2245 1.74707 51.1828 1.78427C51.141 1.82147 51.1138 1.87234 51.1061 1.92775C50.3237 7.46356 49.1604 13.5155 48.1282 19.297C46.4352 28.7766 44.7538 38.2583 43.084 47.742C42.9433 48.5421 42.7918 49.347 42.6293 50.1566L41.9985 54.0847L40.8393 60.7285C40.8257 60.8077 40.7786 60.8466 40.698 60.8453L39.375 60.8145C39.6863 59.9728 39.758 58.9611 39.8788 58.2934C40.2406 56.3 40.597 54.3052 40.9479 52.3091C43.8219 35.9577 46.6939 19.6056 49.5639 3.25283C49.7237 2.34214 49.779 1.59188 49.7298 1.00205Z" fill="#F2CB1C"/>
<path d="M61.9993 56.9622H55.8757C55.8154 56.9621 55.7564 56.9443 55.7058 56.9108C55.6552 56.8773 55.6153 56.8297 55.591 56.7737L54.5158 54.2874L52.7177 50.2549C52.689 50.1907 52.6392 50.1586 52.5682 50.1586L42.625 50.1566C42.7875 49.3469 42.939 48.5421 43.0797 47.742C44.7495 38.2583 46.4309 28.7766 48.1239 19.297C49.1561 13.5154 50.3194 7.4635 51.1018 1.92769C51.1095 1.87227 51.1367 1.82141 51.1785 1.78421C51.2202 1.74701 51.2739 1.7259 51.3299 1.72467C51.3858 1.72343 51.4404 1.74216 51.4837 1.77748C51.5271 1.81281 51.5565 1.86243 51.5667 1.91745L61.9993 56.9622Z" fill="#E0C216"/>
<path d="M25.6151 4.83984L26.0636 7.39168C26.1223 7.72346 26.3196 7.88935 26.6554 7.88935L39.9328 7.92826C39.6857 8.15628 39.3798 8.27165 39.0153 8.27438C33.8269 8.31807 28.6386 8.35698 23.4503 8.39111C23.0885 8.39384 22.7014 8.372 22.2891 8.32558C22.2891 7.12544 22.457 5.98332 22.7929 4.89924L25.6151 4.83984Z" fill="#E0C216"/>
<path d="M39.9271 7.92826L26.6498 7.88935C26.3139 7.88935 26.1166 7.72346 26.0579 7.39168L25.6094 4.83984L39.8616 4.85008C39.9299 4.85009 39.9974 4.86496 40.0595 4.89368C40.1215 4.9224 40.1766 4.96428 40.221 5.01644C40.2653 5.06859 40.2979 5.1298 40.3165 5.19583C40.3351 5.26186 40.3392 5.33116 40.3285 5.39895L39.9271 7.92826Z" fill="white"/>
<path d="M22.7899 4.89946C22.4541 5.98355 22.2861 7.12566 22.2861 8.3258L21.3297 8.36676C21.2676 8.36961 21.2057 8.35863 21.1483 8.33462C21.091 8.31061 21.0397 8.27417 20.9981 8.22793C20.9566 8.18168 20.9258 8.12679 20.9081 8.06722C20.8904 8.00764 20.8861 7.94487 20.8955 7.88343L21.2969 5.28449C21.3032 5.24418 21.32 5.20636 21.3456 5.17501C21.3711 5.14365 21.4046 5.11992 21.4423 5.10631C21.8997 4.93701 22.3489 4.86806 22.7899 4.89946Z" fill="#F2CB1C"/>
<path d="M16.4327 15.9997C16.6928 14.2487 18.235 13.3967 19.8939 13.8452C19.9799 13.8684 20.0072 13.9217 19.9758 14.005L19.7813 14.5313C19.7512 14.6119 19.6939 14.6433 19.6092 14.6255C16.8198 14.0459 16.8075 17.9003 19.1095 17.0074C19.1295 16.9999 19.1511 16.9971 19.1723 16.9994C19.1936 17.0017 19.2139 17.009 19.2317 17.0206C19.2495 17.0322 19.2643 17.0478 19.2747 17.0662C19.2851 17.0845 19.291 17.1051 19.2918 17.1261L19.3082 17.6218C19.3123 17.7064 19.2734 17.7624 19.1914 17.7897C17.8541 18.2423 16.1747 17.7528 16.4327 15.9997Z" fill="#403A29"/>
<path d="M33.4679 17.6596C33.074 17.3628 32.8416 16.8853 32.8217 16.3322C32.8018 15.7791 32.9962 15.1957 33.3619 14.7102C33.7277 14.2248 34.235 13.8772 34.7722 13.7439C35.3094 13.6105 35.8324 13.7023 36.2263 13.9991C36.6202 14.2959 36.8526 14.7734 36.8725 15.3266C36.8924 15.8797 36.698 16.4631 36.3322 16.9485C35.9664 17.4339 35.4592 17.7816 34.922 17.9149C34.3848 18.0483 33.8618 17.9565 33.4679 17.6596ZM34.3802 17.1115C34.4928 17.153 34.6164 17.1609 34.7441 17.1348C34.8718 17.1087 35.001 17.0492 35.1243 16.9596C35.2477 16.87 35.3627 16.7522 35.4629 16.6127C35.5632 16.4732 35.6466 16.3149 35.7084 16.1468C35.7703 15.9787 35.8094 15.8041 35.8234 15.633C35.8375 15.4618 35.8263 15.2974 35.7904 15.1493C35.7545 15.0011 35.6947 14.8721 35.6144 14.7695C35.534 14.6669 35.4347 14.5928 35.3222 14.5513C35.2096 14.5099 35.0859 14.502 34.9583 14.5281C34.8306 14.5541 34.7014 14.6137 34.5781 14.7032C34.4547 14.7928 34.3397 14.9107 34.2394 15.0502C34.1392 15.1896 34.0558 15.3479 33.9939 15.516C33.9321 15.6841 33.893 15.8588 33.879 16.0299C33.8649 16.2011 33.8761 16.3654 33.912 16.5136C33.9479 16.6617 34.0077 16.7908 34.088 16.8934C34.1683 16.996 34.2676 17.0701 34.3802 17.1115Z" fill="#403A29"/>
<path d="M21.6099 13.8003H22.7117C22.7373 13.8006 22.7619 13.81 22.7811 13.8269C22.8003 13.8439 22.8127 13.8671 22.8162 13.8925L23.3425 17.7755C23.3446 17.7906 23.3434 17.8061 23.3389 17.8207C23.3345 17.8353 23.327 17.8488 23.3169 17.8603C23.3068 17.8717 23.2943 17.8809 23.2804 17.8871C23.2664 17.8933 23.2513 17.8965 23.236 17.8963H22.3881C22.3619 17.896 22.3368 17.8859 22.3175 17.8682C22.2983 17.8504 22.2862 17.8262 22.2837 17.8001L22.1997 16.9174C22.1972 16.8913 22.1852 16.8671 22.1659 16.8493C22.1466 16.8315 22.1215 16.8215 22.0953 16.8211H21.1368C21.116 16.821 21.0956 16.8269 21.0782 16.8382C21.0607 16.8494 21.0469 16.8656 21.0385 16.8846L20.6187 17.8329C20.6103 17.8519 20.5965 17.868 20.579 17.8793C20.5615 17.8906 20.5411 17.8965 20.5204 17.8963H19.7401C19.7219 17.8965 19.704 17.8919 19.6881 17.8832C19.6721 17.8745 19.6587 17.8618 19.6491 17.8464C19.6394 17.831 19.6339 17.8134 19.6329 17.7953C19.632 17.7771 19.6358 17.759 19.6438 17.7427L21.5136 13.8597C21.5225 13.8417 21.5362 13.8267 21.5532 13.8162C21.5703 13.8057 21.5899 13.8002 21.6099 13.8003ZM21.3867 15.9405C21.3821 15.95 21.3798 15.9605 21.3799 15.9711C21.38 15.9817 21.3825 15.9922 21.3872 16.0016C21.3919 16.0111 21.3988 16.0194 21.4072 16.0258C21.4156 16.0323 21.4254 16.0367 21.4358 16.0388L22.04 16.1617C22.0506 16.1639 22.0616 16.1637 22.0721 16.161C22.0826 16.1582 22.0923 16.1531 22.1005 16.1459C22.1086 16.1387 22.115 16.1298 22.1191 16.1197C22.1232 16.1096 22.1248 16.0988 22.124 16.0879L22.042 14.9369C22.0416 14.9212 22.0358 14.906 22.0257 14.894C22.0155 14.8819 22.0015 14.8737 21.9861 14.8706C21.9706 14.8675 21.9546 14.8697 21.9405 14.877C21.9265 14.8842 21.9154 14.8959 21.9089 14.9103L21.3867 15.9405Z" fill="#403A29"/>
<path d="M24.4747 13.8003H25.171C25.257 13.8003 25.2925 13.8426 25.2775 13.9273C25.13 14.7506 24.7634 16.047 24.9109 16.8478C24.9232 16.9119 24.958 16.959 25.0153 16.9891C26.4162 17.7223 26.5063 15.0742 26.6701 13.9334C26.6751 13.8966 26.6934 13.8629 26.7216 13.8384C26.7498 13.8139 26.7861 13.8004 26.8237 13.8003H27.4934C27.5904 13.8003 27.6334 13.8488 27.6225 13.9457C27.3992 15.7603 27.2784 18.138 25.0686 17.9148C23.1598 17.7223 24.0712 15.0905 24.3088 13.9355C24.3265 13.8454 24.3818 13.8003 24.4747 13.8003Z" fill="#403A29"/>
<path d="M28.9517 14.6195H28.153C28.1269 14.6195 28.1019 14.6091 28.0835 14.5907C28.065 14.5723 28.0547 14.5473 28.0547 14.5212L28.0608 13.8986C28.0608 13.8725 28.0712 13.8475 28.0896 13.8291C28.1081 13.8107 28.1331 13.8003 28.1591 13.8003H31.1267C31.1404 13.8005 31.1538 13.8036 31.1662 13.8092C31.1786 13.8149 31.1897 13.8232 31.1988 13.8334C31.2078 13.8436 31.2146 13.8556 31.2188 13.8685C31.223 13.8815 31.2244 13.8953 31.223 13.9088L31.1595 14.5314C31.1569 14.5557 31.1455 14.5781 31.1273 14.5944C31.1091 14.6107 31.0856 14.6196 31.0612 14.6195H30.113C30.0898 14.6197 30.0675 14.628 30.0499 14.6429C30.0323 14.6579 30.0205 14.6786 30.0167 14.7014L29.4678 17.8369C29.4634 17.8601 29.4509 17.8808 29.4325 17.8955C29.4141 17.9102 29.391 17.9177 29.3675 17.9168L28.6036 17.8861C28.5897 17.8854 28.5761 17.8818 28.5637 17.8755C28.5513 17.8692 28.5404 17.8603 28.5317 17.8495C28.523 17.8386 28.5167 17.8261 28.5132 17.8126C28.5097 17.7992 28.5091 17.7851 28.5114 17.7714L29.048 14.7342C29.0504 14.7202 29.0497 14.7058 29.0459 14.692C29.0422 14.6783 29.0355 14.6655 29.0263 14.6546C29.0172 14.6437 29.0058 14.6349 28.9929 14.6288C28.98 14.6228 28.966 14.6196 28.9517 14.6195Z" fill="#403A29"/>
<path d="M32.6175 13.8634L31.7868 13.7154C31.7578 13.7102 31.7302 13.7295 31.725 13.7585L31.011 17.7669C31.0059 17.7958 31.0252 17.8235 31.0541 17.8286L31.8848 17.9766C31.9138 17.9817 31.9414 17.9625 31.9466 17.9335L32.6606 13.9251C32.6658 13.8962 32.6465 13.8685 32.6175 13.8634Z" fill="#403A29"/>
<path d="M38.4384 15.2581C38.4346 15.2481 38.4277 15.2396 38.4186 15.2339C38.4095 15.2282 38.3989 15.2257 38.3882 15.2266C38.3776 15.2275 38.3675 15.2319 38.3596 15.2391C38.3516 15.2462 38.3462 15.2558 38.3442 15.2663L37.9162 17.7874C37.9025 17.8707 37.8534 17.911 37.7687 17.9082L37.1564 17.8898C37.0526 17.8871 37.0096 17.8345 37.0273 17.7321L37.7011 13.9207C37.7074 13.8862 37.7256 13.855 37.7525 13.8325C37.7795 13.81 37.8135 13.7978 37.8486 13.7979L38.7456 13.8019C38.7804 13.802 38.8143 13.8128 38.8429 13.833C38.8714 13.8531 38.8932 13.8816 38.9054 13.9146L39.7778 16.2616C39.7798 16.268 39.7838 16.2734 39.7893 16.2768C39.7949 16.2803 39.8015 16.2817 39.8082 16.2807C39.8149 16.2798 39.8212 16.2766 39.8261 16.2716C39.831 16.2666 39.8342 16.2602 39.8352 16.2534L40.1751 13.9474C40.1902 13.8491 40.2475 13.7999 40.3472 13.7999H41.0148C41.0899 13.7999 41.1206 13.8361 41.107 13.9084L40.423 17.7833C40.4093 17.8584 40.3642 17.8959 40.2878 17.8959H39.4747C39.4146 17.8959 39.3744 17.8673 39.3539 17.8099L38.4384 15.2581Z" fill="#403A29"/>
<path d="M33.9942 15.5165C33.7341 16.2234 33.9071 16.9378 34.3805 17.112C34.8539 17.2862 35.4486 16.8542 35.7087 16.1473C35.9688 15.4403 35.7959 14.726 35.3225 14.5518C34.849 14.3776 34.2543 14.8095 33.9942 15.5165Z" fill="#FFDE16"/>
<path d="M21.3896 15.9404L21.9119 14.9102C21.9183 14.8959 21.9295 14.8841 21.9435 14.8769C21.9575 14.8696 21.9736 14.8674 21.989 14.8705C22.0045 14.8736 22.0185 14.8818 22.0286 14.8939C22.0388 14.9059 22.0446 14.9211 22.045 14.9369L22.1269 16.0878C22.1278 16.0987 22.1261 16.1095 22.122 16.1196C22.118 16.1297 22.1116 16.1386 22.1034 16.1458C22.0953 16.153 22.0856 16.1581 22.0751 16.1609C22.0646 16.1636 22.0536 16.1638 22.0429 16.1616L21.4388 16.0387C21.4284 16.0366 21.4186 16.0322 21.4102 16.0257C21.4017 16.0193 21.3949 16.011 21.3902 16.0016C21.3854 15.9921 21.3829 15.9816 21.3828 15.971C21.3827 15.9604 21.385 15.95 21.3896 15.9404Z" fill="#FFDE16"/>
<path d="M23.5517 24.2573C24.7971 24.2573 25.8066 23.2478 25.8066 22.0024C25.8066 20.7571 24.7971 19.7476 23.5517 19.7476C22.3064 19.7476 21.2969 20.7571 21.2969 22.0024C21.2969 23.2478 22.3064 24.2573 23.5517 24.2573Z" fill="#3C3A35"/>
<path d="M21.7432 26.9649C19.3757 27.1348 18.0854 28.7098 16.7071 30.4055C16.5241 30.6308 16.2941 30.7619 16.0169 30.7987C15.9841 30.8029 15.9508 30.7966 15.9218 30.7808C15.8928 30.765 15.8694 30.7405 15.8551 30.7107C15.735 30.454 15.7261 30.185 15.8285 29.9038C16.4982 28.0667 17.8949 25.9961 19.7607 25.265C22.0504 24.3721 24.719 25.0397 26.9267 24.5031C29.1345 23.9665 30.1851 22.6312 31.5675 21.0031C31.786 20.745 32.0099 20.6617 32.2393 20.7532C32.3173 20.7832 32.3818 20.8403 32.4209 20.9141C32.46 20.9878 32.4712 21.0733 32.4523 21.1546C31.7048 24.4274 29.8759 26.5122 26.3676 26.631C26.3558 26.6313 26.3442 26.6339 26.3336 26.6388C26.3229 26.6437 26.3134 26.6507 26.3057 26.6594C26.298 26.6681 26.2922 26.6782 26.2887 26.6892C26.2853 26.7002 26.2843 26.7118 26.2857 26.7232C26.4127 27.8633 26.8086 28.8948 27.4735 29.8177C27.5172 29.8778 27.5766 29.9085 27.6517 29.9099C31.844 29.9939 34.5699 31.4623 36.6958 35.1098C36.7197 35.1507 36.7321 35.1972 36.7319 35.2445C36.7316 35.2918 36.7187 35.3381 36.6944 35.3787C36.6702 35.4193 36.6354 35.4526 36.5939 35.4752C36.5523 35.4978 36.5055 35.5088 36.4582 35.5072C36.2794 35.5017 36.0868 35.4191 35.8807 35.2593C33.7651 33.6127 30.4104 31.3169 27.621 32.2877C27.5418 32.315 27.5323 32.3573 27.5923 32.4146C28.9584 33.7069 30.3715 35.2655 30.9408 37.0473C31.1477 37.6883 31.9526 42.2923 30.732 42.0895C30.7003 42.0845 30.6706 42.0712 30.6461 42.051C30.6216 42.0308 30.6031 42.0045 30.5927 41.9748C29.9046 40.0886 29.7079 38.3129 28.4382 36.6172C27.5247 35.3966 25.6221 34.4197 24.7824 33.6066C22.9474 31.8316 21.9753 29.6539 21.8661 27.0734C21.862 26.9956 21.821 26.9594 21.7432 26.9649Z" fill="#3C3A35"/>
<path d="M27.8586 48.2778C27.463 47.9752 27.2304 47.4929 27.2121 46.937C27.1938 46.381 27.3913 45.797 27.7611 45.3132C27.9443 45.0737 28.1642 44.8661 28.4083 44.7021C28.6525 44.5382 28.9161 44.4211 29.1841 44.3577C29.4522 44.2942 29.7193 44.2856 29.9704 44.3324C30.2215 44.3791 30.4516 44.4803 30.6475 44.6301C31.0432 44.9326 31.2758 45.4149 31.2941 45.9708C31.3123 46.5268 31.1148 47.1109 30.745 47.5946C30.5619 47.8341 30.342 48.0417 30.0978 48.2057C29.8537 48.3697 29.5901 48.4867 29.322 48.5501C29.054 48.6136 28.7868 48.6222 28.5357 48.5754C28.2846 48.5287 28.0546 48.4275 27.8586 48.2778ZM28.793 47.7537C28.9072 47.7935 29.0321 47.7994 29.1604 47.7709C29.2887 47.7425 29.418 47.6803 29.5408 47.5879C29.6635 47.4956 29.7775 47.3748 29.876 47.2326C29.9746 47.0904 30.0559 46.9295 30.1152 46.759C30.1746 46.5886 30.2108 46.412 30.2219 46.2393C30.233 46.0666 30.2187 45.9012 30.1799 45.7526C30.141 45.6039 30.0784 45.4749 29.9955 45.3729C29.9126 45.2709 29.8111 45.198 29.6968 45.1582C29.5825 45.1184 29.4577 45.1125 29.3294 45.141C29.201 45.1694 29.0718 45.2316 28.949 45.324C28.8262 45.4163 28.7123 45.5371 28.6137 45.6793C28.5152 45.8215 28.4339 45.9824 28.3745 46.1529C28.3152 46.3233 28.2789 46.4999 28.2678 46.6726C28.2567 46.8453 28.271 47.0107 28.3099 47.1593C28.3487 47.308 28.4114 47.437 28.4943 47.539C28.5772 47.641 28.6787 47.7139 28.793 47.7537Z" fill="#403A29"/>
<path d="M32.1692 48.2733C31.9743 48.1226 31.8177 47.9263 31.7084 47.6956C31.599 47.4649 31.5391 47.2043 31.532 46.9286C31.5249 46.6529 31.5707 46.3676 31.6669 46.089C31.7631 45.8104 31.9078 45.5439 32.0926 45.3047C32.2775 45.0655 32.4989 44.8583 32.7443 44.695C32.9897 44.5317 33.2542 44.4154 33.5228 44.3528C33.7914 44.2902 34.0587 44.2825 34.3095 44.3301C34.5603 44.3778 34.7898 44.4798 34.9847 44.6305C35.1796 44.7812 35.3362 44.9774 35.4456 45.2082C35.5549 45.4389 35.6148 45.6995 35.622 45.9752C35.6291 46.2508 35.5832 46.5361 35.487 46.8148C35.3908 47.0934 35.2462 47.3599 35.0613 47.5991C34.8764 47.8383 34.655 48.0455 34.4096 48.2088C34.1642 48.3721 33.8997 48.4884 33.6311 48.551C33.3626 48.6136 33.0953 48.6213 32.8444 48.5737C32.5936 48.526 32.3642 48.4239 32.1692 48.2733ZM33.1287 47.7602C33.2431 47.7999 33.368 47.8053 33.4964 47.7762C33.6248 47.7472 33.7541 47.6842 33.877 47.5909C33.9999 47.4976 34.1139 47.3758 34.2125 47.2325C34.3112 47.0891 34.3925 46.9271 34.4519 46.7555C34.5113 46.584 34.5476 46.4063 34.5588 46.2327C34.5699 46.059 34.5556 45.8928 34.5167 45.7435C34.4779 45.5942 34.4152 45.4647 34.3322 45.3625C34.2493 45.2602 34.1478 45.1872 34.0334 45.1476C33.919 45.108 33.7941 45.1026 33.6657 45.1317C33.5373 45.1607 33.408 45.2237 33.2851 45.317C33.1622 45.4103 33.0482 45.5321 32.9496 45.6754C32.8509 45.8188 32.7696 45.9808 32.7102 46.1524C32.6508 46.3239 32.6145 46.5016 32.6034 46.6752C32.5923 46.8489 32.6065 47.0151 32.6454 47.1644C32.6843 47.3137 32.7469 47.4432 32.8299 47.5454C32.9128 47.6477 33.0143 47.7206 33.1287 47.7602Z" fill="#403A29"/>
<path d="M9.42223 47.1398L10.4544 44.4692C10.4817 44.4009 10.5323 44.3668 10.606 44.3668H11.3863C11.4709 44.3668 11.5133 44.4098 11.5133 44.4958V47.0845C11.5123 47.0951 11.5153 47.1057 11.5217 47.1142C11.5281 47.1227 11.5374 47.1285 11.5479 47.1305C11.5583 47.1326 11.5691 47.1307 11.5782 47.1252C11.5874 47.1197 11.5941 47.1111 11.5972 47.1009L12.5373 44.4917C12.5687 44.4071 12.6294 44.3647 12.7196 44.3647L13.4323 44.3688C13.4496 44.3692 13.4666 44.3737 13.4818 44.3822C13.497 44.3906 13.5099 44.4026 13.5194 44.4171C13.5289 44.4316 13.5347 44.4483 13.5363 44.4656C13.5379 44.4829 13.5352 44.5003 13.5285 44.5163L11.8164 48.4546C11.7986 48.4942 11.7679 48.514 11.7242 48.514H10.8804C10.8487 48.514 10.8183 48.5016 10.7957 48.4794C10.7731 48.4572 10.7601 48.4269 10.7596 48.3953L10.7125 46.3104C10.7125 46.2588 10.7201 46.2077 10.735 46.1588C10.7637 46.0687 10.7644 45.9827 10.7371 45.9008C10.7152 45.8311 10.6906 45.8305 10.6633 45.8987L9.68233 48.4055C9.65366 48.4765 9.60177 48.512 9.52668 48.512L8.71566 48.5161C8.62282 48.5161 8.57367 48.4697 8.5682 48.3768L8.32859 44.504C8.32313 44.4125 8.36613 44.3668 8.45761 44.3668H9.22972C9.26557 44.3668 9.29995 44.381 9.32529 44.4064C9.35064 44.4317 9.36489 44.4661 9.36489 44.502L9.35669 47.1275C9.35669 47.2518 9.37854 47.2559 9.42223 47.1398Z" fill="#403A29"/>
<path d="M14.5702 46.8591L14.4146 47.5596C14.4109 47.5758 14.4109 47.5927 14.4146 47.609C14.4184 47.6252 14.4258 47.6404 14.4362 47.6534C14.4466 47.6664 14.4599 47.6769 14.4749 47.684C14.49 47.6912 14.5065 47.6948 14.5231 47.6947H15.926C15.9418 47.6946 15.9575 47.6979 15.972 47.7043C15.9864 47.7107 15.9993 47.7202 16.0098 47.732C16.0203 47.7439 16.0281 47.7578 16.0327 47.7729C16.0373 47.788 16.0387 47.804 16.0366 47.8197L15.9527 48.4177C15.9492 48.4441 15.9363 48.4684 15.9164 48.4861C15.8964 48.5038 15.8708 48.5137 15.8441 48.5139H13.407C13.3909 48.5139 13.3751 48.5103 13.3606 48.5035C13.346 48.4967 13.3332 48.4868 13.3228 48.4746C13.3125 48.4623 13.305 48.4479 13.3008 48.4324C13.2965 48.4169 13.2957 48.4007 13.2984 48.3849L13.9927 44.4589C13.997 44.4332 14.0103 44.4098 14.0302 44.393C14.05 44.3761 14.0752 44.3668 14.1012 44.3667H16.4339C16.45 44.3668 16.4658 44.3703 16.4803 44.3771C16.4949 44.3839 16.5077 44.3938 16.5181 44.4061C16.5284 44.4184 16.5359 44.4327 16.5401 44.4482C16.5444 44.4637 16.5452 44.4799 16.5425 44.4957L16.438 45.0937C16.4337 45.1194 16.4204 45.1428 16.4006 45.1596C16.3807 45.1765 16.3555 45.1858 16.3295 45.1859H14.9409C14.9152 45.1859 14.8902 45.195 14.8704 45.2114C14.8506 45.2279 14.8372 45.2507 14.8324 45.276L14.7238 45.874C14.7208 45.89 14.7214 45.9064 14.7254 45.9222C14.7295 45.9379 14.737 45.9525 14.7473 45.9651C14.7577 45.9776 14.7707 45.9877 14.7854 45.9946C14.8001 46.0015 14.8161 46.0051 14.8324 46.0051H16.0264C16.0414 46.0051 16.0563 46.0081 16.0702 46.0141C16.084 46.02 16.0965 46.0287 16.1068 46.0396C16.1172 46.0506 16.1252 46.0635 16.1304 46.0776C16.1356 46.0918 16.1378 46.1068 16.137 46.1219L16.1042 46.6687C16.1026 46.6969 16.0903 46.7235 16.0697 46.7429C16.0492 46.7624 16.0219 46.7732 15.9936 46.7731H14.6767C14.6519 46.7734 14.6279 46.7821 14.6086 46.7977C14.5893 46.8133 14.5758 46.8349 14.5702 46.8591Z" fill="#403A29"/>
<path d="M16.8294 45.1183L16.9359 44.4527C16.9399 44.4285 16.9524 44.4065 16.9712 44.3907C16.99 44.3749 17.0138 44.3664 17.0383 44.3667H20.0059C20.0207 44.3668 20.0353 44.3701 20.0487 44.3764C20.062 44.3827 20.0739 44.3917 20.0834 44.403C20.093 44.4143 20.0999 44.4275 20.1039 44.4418C20.1078 44.456 20.1086 44.4709 20.1063 44.4855L20.0018 45.1511C19.9979 45.1753 19.9854 45.1973 19.9666 45.2131C19.9478 45.2289 19.924 45.2374 19.8994 45.2371H18.9512C18.9273 45.2372 18.9042 45.2456 18.8859 45.261C18.8675 45.2763 18.8551 45.2976 18.8508 45.3211L18.302 48.43C18.2977 48.4535 18.2853 48.4748 18.267 48.4901C18.2486 48.5054 18.2255 48.5139 18.2016 48.514H17.4295C17.4144 48.5142 17.3994 48.5111 17.3856 48.5048C17.3718 48.4986 17.3595 48.4893 17.3497 48.4778C17.3399 48.4662 17.3328 48.4526 17.3289 48.438C17.325 48.4233 17.3244 48.408 17.3271 48.3931L17.8698 45.3579C17.8726 45.343 17.872 45.3277 17.8681 45.3131C17.8641 45.2984 17.857 45.2849 17.8472 45.2733C17.8374 45.2617 17.8252 45.2525 17.8114 45.2462C17.7976 45.24 17.7826 45.2369 17.7674 45.2371H16.9318C16.9169 45.2373 16.9021 45.2342 16.8885 45.2281C16.8748 45.222 16.8627 45.2129 16.853 45.2016C16.8432 45.1903 16.836 45.1769 16.832 45.1626C16.8279 45.1482 16.8271 45.1331 16.8294 45.1183Z" fill="#403A29"/>
<path d="M22.2988 46.9574L22.0633 48.432C22.0594 48.4552 22.0473 48.4761 22.0293 48.4912C22.0113 48.5062 21.9885 48.5143 21.965 48.5139H21.1601C21.1459 48.5138 21.1318 48.5107 21.119 48.5046C21.1061 48.4985 21.0947 48.4897 21.0855 48.4788C21.0764 48.4679 21.0697 48.4552 21.0659 48.4414C21.0622 48.4277 21.0615 48.4133 21.0639 48.3993L21.7663 44.4486C21.7702 44.4258 21.782 44.4051 21.7996 44.3901C21.8172 44.3752 21.8395 44.3669 21.8626 44.3667H24.1994C24.2134 44.3668 24.2273 44.37 24.24 44.3759C24.2527 44.3819 24.264 44.3905 24.2731 44.4011C24.2823 44.4118 24.289 44.4243 24.2929 44.4378C24.2968 44.4513 24.2977 44.4655 24.2957 44.4793L24.2055 45.1019C24.2021 45.1255 24.1902 45.1469 24.1721 45.1624C24.1541 45.1778 24.131 45.1862 24.1072 45.1859H22.6859C22.6628 45.1861 22.6405 45.1944 22.6229 45.2093C22.6053 45.2243 22.5935 45.245 22.5897 45.2678L22.4811 45.9416C22.4787 45.9557 22.4794 45.9701 22.4832 45.9838C22.4869 45.9975 22.4936 46.0103 22.5027 46.0212C22.5119 46.0321 22.5233 46.0409 22.5362 46.047C22.5491 46.053 22.5631 46.0562 22.5774 46.0563H23.8041C23.8187 46.0561 23.8332 46.0591 23.8465 46.0651C23.8599 46.0712 23.8717 46.0801 23.8811 46.0913C23.8905 46.1025 23.8973 46.1156 23.901 46.1298C23.9047 46.1439 23.9052 46.1587 23.9024 46.1731L23.7857 46.7957C23.7814 46.8181 23.7695 46.8383 23.7519 46.8529C23.7343 46.8674 23.7123 46.8755 23.6894 46.8755H22.3971C22.3737 46.8752 22.3509 46.8833 22.3328 46.8983C22.3148 46.9133 22.3027 46.9343 22.2988 46.9574Z" fill="#403A29"/>
<path d="M25.4882 47.6947H26.8358C26.8516 47.6948 26.8671 47.6983 26.8814 47.705C26.8957 47.7117 26.9084 47.7214 26.9185 47.7335C26.9286 47.7456 26.936 47.7598 26.9401 47.775C26.9442 47.7902 26.945 47.8062 26.9423 47.8217L26.8419 48.4238C26.8376 48.449 26.8246 48.4718 26.8051 48.4883C26.7856 48.5047 26.761 48.5138 26.7354 48.5139H24.3659C24.3501 48.5139 24.3345 48.5104 24.3203 48.5037C24.306 48.497 24.2933 48.4872 24.2832 48.4752C24.2731 48.4631 24.2657 48.4489 24.2616 48.4337C24.2574 48.4185 24.2567 48.4025 24.2594 48.387L24.9516 44.4568C24.9559 44.4317 24.969 44.4089 24.9885 44.3924C25.0079 44.3759 25.0326 44.3668 25.0581 44.3667H25.8118C25.8276 44.3668 25.8431 44.3703 25.8574 44.377C25.8717 44.3837 25.8843 44.3934 25.8945 44.4055C25.9046 44.4176 25.912 44.4317 25.9161 44.447C25.9202 44.4622 25.921 44.4781 25.9183 44.4937L25.3817 47.5678C25.379 47.5833 25.3798 47.5992 25.3839 47.6145C25.388 47.6297 25.3954 47.6439 25.4055 47.6559C25.4156 47.668 25.4283 47.6778 25.4426 47.6845C25.4569 47.6912 25.4724 47.6947 25.4882 47.6947Z" fill="#403A29"/>
<path d="M38.544 46.6115C38.7297 47.1822 38.8273 47.7693 38.8369 48.3728C38.8382 48.467 38.7918 48.5141 38.6976 48.5141H37.9951C37.8968 48.5141 37.8436 48.4657 37.8354 48.3687L37.7371 47.2505C37.727 47.1521 37.6817 47.0606 37.6095 46.993C37.5372 46.9254 37.4429 46.8863 37.3441 46.8828C37.2452 46.8793 37.1484 46.9117 37.0716 46.974C36.9947 47.0363 36.943 47.1244 36.9261 47.2218L36.7397 48.3974C36.7274 48.4752 36.6823 48.5141 36.6045 48.5141H35.8631C35.7812 48.5141 35.7471 48.4739 35.7607 48.3933L36.4448 44.5676C36.4543 44.5089 36.4885 44.4727 36.5472 44.4591C37.2217 44.3007 37.8798 44.3055 38.5215 44.4734C39.7052 44.7847 39.2895 45.9254 38.5891 46.4702C38.5413 46.5071 38.5263 46.5542 38.544 46.6115ZM38.1426 45.2086L37.4811 45.0591C37.4603 45.0546 37.4388 45.0544 37.418 45.0585C37.3971 45.0625 37.3773 45.0707 37.3599 45.0826C37.3424 45.0945 37.3276 45.1099 37.3164 45.1277C37.3052 45.1454 37.2978 45.1653 37.2947 45.1861L37.1554 46.0934C37.1472 46.1521 37.1725 46.1842 37.2312 46.1896C37.8552 46.2579 38.202 45.9923 38.2716 45.393C38.2763 45.3518 38.2657 45.3103 38.242 45.2764C38.2182 45.2425 38.1829 45.2184 38.1426 45.2086Z" fill="#403A29"/>
<path d="M38.1449 45.2087C38.1852 45.2184 38.2205 45.2425 38.2443 45.2765C38.268 45.3104 38.2786 45.3519 38.2739 45.393C38.2043 45.9924 37.8575 46.258 37.2335 46.1897C37.1748 46.1842 37.1496 46.1522 37.1578 46.0934L37.297 45.1862C37.3001 45.1654 37.3075 45.1455 37.3187 45.1277C37.3299 45.1099 37.3447 45.0946 37.3622 45.0827C37.3796 45.0708 37.3994 45.0626 37.4203 45.0585C37.4411 45.0545 37.4626 45.0547 37.4834 45.0592L38.1449 45.2087Z" fill="#FFDE16"/>
<path d="M28.3699 46.1525C28.1203 46.8693 28.3076 47.586 28.7883 47.7534C29.269 47.9208 29.861 47.4755 30.1106 46.7587C30.3602 46.042 30.1728 45.3252 29.6922 45.1579C29.2115 44.9905 28.6195 45.4358 28.3699 46.1525Z" fill="#FFDE16"/>
<path d="M32.7043 46.1524C32.4545 46.8739 32.6419 47.5937 33.1229 47.7603C33.6038 47.9268 34.1963 47.477 34.4461 46.7555C34.6959 46.0341 34.5085 45.3142 34.0276 45.1477C33.5466 44.9811 32.9542 45.4309 32.7043 46.1524Z" fill="#FFDE16"/>
<path d="M42.623 50.1567L52.5661 50.1588C52.6371 50.1588 52.687 50.1909 52.7156 50.255L54.5138 54.2876C50.3713 54.0473 46.1975 53.9797 41.9922 54.0849L42.623 50.1567Z" fill="white"/>
<path d="M13.3876 53.5871L12.2038 56.481L10.4036 60.7347C10.3736 60.8044 10.321 60.8392 10.2459 60.8392L8.64844 60.8474L9.04576 60.8003C9.10447 60.7921 9.14133 60.7593 9.15635 60.702C9.24373 60.3565 9.39733 59.9087 9.61715 59.3585C10.4801 57.2026 11.2385 55.4194 11.8925 54.009C12.1342 53.4888 12.937 53.5789 13.3876 53.5871Z" fill="#F2CB1C"/>
<path d="M13.3869 53.5869L24.6305 53.5931L24.9009 54.9816C20.615 55.323 16.3825 55.8227 12.2031 56.4808L13.3869 53.5869Z" fill="white"/>
<path d="M31.9774 53.6424C31.7112 54.7129 31.5869 55.8208 31.6047 56.9664L25.3787 56.9623C25.3356 56.9623 25.2938 56.9469 25.2608 56.9188C25.2278 56.8907 25.2057 56.8516 25.1985 56.8087L24.8953 54.9818L24.625 53.5933L31.9774 53.6424Z" fill="#E0C216"/>
<path d="M31.9838 53.6423C32.1749 53.6082 32.3483 53.6505 32.504 53.7693C32.531 53.7893 32.5534 53.815 32.5697 53.8447C32.5859 53.8744 32.5956 53.9073 32.5982 53.9413L32.8153 56.9355L31.611 56.9662C31.5933 55.8207 31.7175 54.7127 31.9838 53.6423Z" fill="#F2CB1C"/>
<path d="M41.9951 54.0846C46.2004 53.9795 50.3743 54.0471 54.5167 54.2874L55.5919 56.7737C55.6162 56.8296 55.6561 56.8773 55.7067 56.9107C55.7573 56.9442 55.8163 56.9621 55.8766 56.9621H62.0002L63.1573 56.8925C63.2434 56.887 63.2782 56.8413 63.2618 56.7552L62.9771 55.3667C63.81 55.4199 64.5787 55.6473 65.2832 56.0487C68.9102 58.1172 57.6174 60.1795 57.1321 60.2635C49.8588 61.5387 42.5378 62.3825 35.1691 62.7949C28.1894 63.184 21.2343 63.4154 14.2424 63.2167C10.7826 63.1184 7.34326 62.801 3.92443 62.2644C2.78709 62.0869 1.70096 61.7592 0.666027 61.2814C-0.208479 60.88 -0.204383 60.0157 0.575913 59.5303C1.37464 59.0333 2.21706 58.7227 3.10317 58.5985L2.70995 60.456C2.7018 60.4947 2.7023 60.5347 2.71142 60.5732C2.72054 60.6117 2.73806 60.6477 2.76272 60.6786C2.78738 60.7095 2.81857 60.7346 2.85406 60.7521C2.88955 60.7695 2.92846 60.7789 2.968 60.7796L8.64512 60.8472L10.2426 60.839C10.3177 60.839 10.3702 60.8042 10.4003 60.7345L12.2005 56.4808C16.3798 55.8227 20.6124 55.323 24.8982 54.9816L25.2013 56.8085C25.2086 56.8515 25.2307 56.8905 25.2637 56.9186C25.2967 56.9467 25.3385 56.9621 25.3816 56.9621L31.6075 56.9662L32.8118 56.9355L33.0985 60.6895C33.101 60.7223 33.1104 60.7542 33.1263 60.783C33.1422 60.8119 33.1641 60.837 33.1905 60.8566C33.2169 60.8762 33.2472 60.8899 33.2794 60.8968C33.3116 60.9036 33.3449 60.9035 33.377 60.8963C34.1512 60.7263 35.0441 60.8615 35.5991 60.8554C36.888 60.8417 38.1455 60.8281 39.3716 60.8144L40.6946 60.8451C40.7752 60.8465 40.8223 60.8076 40.8359 60.7284L41.9951 54.0846Z" fill="#D1D2D3"/>
</svg>
