<svg width="112" height="66" viewBox="0 0 112 66" fill="none" xmlns="http://www.w3.org/2000/svg">
<path d="M76.3595 25.7899C76.3359 25.8139 76.3098 25.828 76.2811 25.8322C75.4553 25.9462 74.6298 26.0625 73.8048 26.1811C73.7949 26.1828 73.7851 26.1812 73.7769 26.1767C73.7588 26.1674 73.7418 26.1677 73.7257 26.1773C73.1266 20.7476 71.0355 16.0207 67.4526 11.9968C64.956 9.19274 61.7338 6.95215 58.3099 5.54508C54.041 3.79054 49.5956 3.26452 44.9736 3.96701C34.07 5.62458 25.6062 14.3459 24.0349 25.1968C22.5192 35.6647 27.9694 46.0038 37.3548 50.8371C45.0457 54.7977 54.1649 54.5113 61.615 50.1115C61.7818 50.0131 62.0245 49.8332 62.2495 49.7234L62.6692 52.5843C52.0033 58.8423 38.2662 57.0093 29.4611 48.4015C22.3593 41.4583 19.5201 31.3381 22.0136 21.6829C23.4894 15.9682 26.8374 10.9172 31.3705 7.18814C35.6274 3.68559 40.8943 1.60527 46.373 1.10238C54.912 0.318709 63.4612 3.67991 69.235 10.0035C73.2896 14.4437 75.7028 19.79 76.3595 25.7899Z" fill="#454547"/>
<path d="M73.7313 26.1771L72.2883 26.3935C71.3529 16.9687 64.892 9.00324 55.793 6.17206C43.8661 2.46129 31.0897 8.77167 26.7393 20.4308C22.7985 30.9915 26.9037 42.9131 36.6126 48.7597C44.4179 53.4592 54.1502 53.3072 61.7861 48.3023C61.8796 48.2409 61.9616 48.1967 62.032 48.1698L62.2551 49.7232C62.0301 49.833 61.7874 50.0128 61.6205 50.1113C54.1705 54.5111 45.0512 54.7975 37.3604 50.8369C27.975 46.0036 22.5248 35.6645 24.0404 25.1966C25.6117 14.3457 34.0756 5.62437 44.9791 3.9668C49.6011 3.26431 54.0466 3.79034 58.3155 5.54487C61.7393 6.95194 64.9615 9.19254 67.4581 11.9966C71.0411 16.0205 73.1321 20.7474 73.7313 26.1771Z" fill="#808183"/>
<path d="M72.2847 26.3937L71.4769 26.5331L71.3972 26.0119L71.64 25.9987C71.6512 25.998 71.6622 25.995 71.6722 25.9899C71.6822 25.9848 71.691 25.9776 71.6981 25.9689C71.7051 25.9601 71.7103 25.95 71.7133 25.9392C71.7162 25.9284 71.7169 25.917 71.7152 25.9059L71.5439 24.7405C71.543 24.7348 71.5411 24.7294 71.5381 24.7245C71.5351 24.7196 71.5312 24.7154 71.5265 24.712C71.5219 24.7087 71.5166 24.7063 71.511 24.705C71.5054 24.7037 71.4996 24.7036 71.494 24.7045L70.671 24.8396L69.5169 25.0087L68.5372 25.1355C68.5304 25.1364 68.5239 25.1387 68.518 25.1421C68.5121 25.1455 68.507 25.1501 68.5029 25.1555C68.4988 25.1609 68.4958 25.167 68.4941 25.1736C68.4924 25.1801 68.492 25.1869 68.493 25.1936L68.6535 26.3161C68.6636 26.3859 68.7032 26.4136 68.7723 26.3993L69.0656 26.3381L69.144 26.8637L64.0749 27.6026C64.0117 27.2411 63.9915 26.6927 63.8461 26.424C63.5541 25.8857 62.8911 26.0731 62.3405 26.1709C61.3166 26.352 61.6636 27.2348 61.7603 27.9351L59.1727 28.3068C59.1504 28.3101 59.1409 28.323 59.1442 28.3453L60.56 38.0389L61.443 44.1083L60.7143 44.6768C60.6957 44.6915 60.6938 44.7079 60.7086 44.726L61.706 45.9716L62.0283 48.1699C61.9579 48.1968 61.876 48.241 61.7824 48.3024C54.1466 53.3073 44.4142 53.4593 36.609 48.7598C26.9 42.9132 22.7948 30.9916 26.7357 20.4309C31.0861 8.77179 43.8624 2.46141 55.7893 6.17218C64.8884 9.00336 71.3492 16.9688 72.2847 26.3937ZM46.1417 5.81874C46.14 5.80748 46.134 5.79732 46.1249 5.7905C46.1157 5.78369 46.1043 5.78077 46.093 5.78239L44.9106 5.95248C44.905 5.95329 44.8997 5.95518 44.8948 5.95806C44.8899 5.96094 44.8857 5.96474 44.8823 5.96925C44.879 5.97376 44.8765 5.9789 44.8751 5.98436C44.8737 5.98982 44.8734 5.9955 44.8742 6.00107L45.3035 8.97505C45.3051 8.98632 45.3112 8.99648 45.3203 9.00329C45.3294 9.01011 45.3409 9.01303 45.3522 9.01141L46.5345 8.84131C46.5401 8.84051 46.5455 8.83862 46.5504 8.83574C46.5552 8.83286 46.5594 8.82906 46.5628 8.82455C46.5662 8.82003 46.5687 8.8149 46.5701 8.80944C46.5714 8.80398 46.5718 8.7983 46.5709 8.79272L46.1417 5.81874ZM57.9354 7.52375C57.9369 7.51998 57.9377 7.51595 57.9376 7.51189C57.9376 7.50783 57.9367 7.50382 57.9351 7.50009C57.9335 7.49636 57.9312 7.49298 57.9282 7.49015C57.9253 7.48732 57.9219 7.48509 57.9181 7.48359L56.7882 7.03472C56.7806 7.03169 56.7721 7.03181 56.7645 7.03505C56.757 7.03829 56.751 7.0444 56.748 7.05201L55.6253 9.8684C55.6238 9.87217 55.623 9.87621 55.6231 9.88027C55.6232 9.88433 55.624 9.88834 55.6256 9.89207C55.6272 9.8958 55.6296 9.89917 55.6325 9.902C55.6354 9.90483 55.6388 9.90706 55.6426 9.90856L56.7725 10.3574C56.7801 10.3605 56.7887 10.3603 56.7962 10.3571C56.8038 10.3539 56.8097 10.3478 56.8127 10.3401L57.9354 7.52375ZM35.0611 10.2092C35.0576 10.2048 35.0532 10.2011 35.0483 10.1983C35.0434 10.1956 35.038 10.1938 35.0324 10.1932C35.0267 10.1925 35.0211 10.193 35.0156 10.1945C35.0102 10.196 35.0051 10.1986 35.0007 10.2021L34.0622 10.942C34.0578 10.9455 34.0541 10.9498 34.0513 10.9548C34.0486 10.9597 34.0468 10.9651 34.0462 10.9707C34.0455 10.9763 34.046 10.9819 34.0475 10.9874C34.049 10.9928 34.0516 10.9979 34.0551 11.0023L35.9245 13.3652C35.928 13.3697 35.9323 13.3734 35.9373 13.3761C35.9422 13.3789 35.9476 13.3806 35.9532 13.3813C35.9588 13.3819 35.9645 13.3815 35.9699 13.3799C35.9754 13.3784 35.9804 13.3758 35.9849 13.3723L36.9233 12.6324C36.9278 12.6289 36.9315 12.6246 36.9342 12.6197C36.937 12.6148 36.9387 12.6094 36.9394 12.6038C36.94 12.5982 36.9396 12.5925 36.9381 12.5871C36.9365 12.5817 36.9339 12.5766 36.9304 12.5722L35.0611 10.2092ZM46.9437 26.6114L46.9273 26.7666C46.9252 26.7866 46.9165 26.8055 46.9026 26.8202C46.6304 27.0987 46.4322 27.4222 46.3079 27.7906C46.3015 27.8092 46.2902 27.8237 46.2737 27.8342C46.2598 27.843 46.252 27.8527 46.2503 27.8632L35.6249 30.6023C35.6216 30.6033 35.6187 30.6054 35.6169 30.6083C35.615 30.6112 35.6142 30.6147 35.6147 30.6181C35.6151 30.6215 35.6168 30.6246 35.6194 30.6269C35.6219 30.6292 35.6252 30.6306 35.6287 30.6307L46.6574 30.2294C46.6831 30.2378 46.7088 30.2582 46.7345 30.2906C48.1238 32.0314 50.9572 31.3847 51.4104 29.2091C51.6519 28.0519 51.1589 26.9723 50.1457 26.3489C50.1213 26.3337 50.0878 26.2883 50.0452 26.2126C48.9218 21.8479 47.7976 17.483 46.6726 13.1179C46.6009 12.8407 46.5468 12.6443 46.5101 12.5286C46.4119 12.2207 46.3797 12.2274 46.4134 12.5488C46.432 12.7267 46.4454 12.9291 46.4539 13.1558C46.6165 17.6412 46.7798 22.1264 46.9437 26.6114ZM66.5635 13.9312C66.5536 13.9187 66.5392 13.9107 66.5234 13.9088C66.5076 13.907 66.4917 13.9115 66.4792 13.9213L64.1409 15.7648C64.1284 15.7746 64.1204 15.789 64.1185 15.8048C64.1166 15.8206 64.1211 15.8365 64.131 15.849L64.8502 16.7581C64.8601 16.7706 64.8745 16.7786 64.8903 16.7805C64.9062 16.7824 64.9221 16.7779 64.9346 16.768L67.2728 14.9245C67.2853 14.9147 67.2934 14.9003 67.2952 14.8845C67.2971 14.8687 67.2926 14.8528 67.2827 14.8403L66.5635 13.9312ZM30.488 20.7279C30.4908 20.7211 30.4921 20.7138 30.492 20.7064C30.4919 20.699 30.4904 20.6917 30.4875 20.685C30.4846 20.6782 30.4804 20.6721 30.4751 20.6669C30.4698 20.6618 30.4635 20.6577 30.4567 20.655L27.6867 19.5489C27.6799 19.5462 27.6725 19.5448 27.6652 19.5449C27.6578 19.545 27.6505 19.5466 27.6437 19.5495C27.6369 19.5524 27.6307 19.5566 27.6256 19.5619C27.6204 19.5671 27.6163 19.5734 27.6136 19.5802L27.1789 20.6652C27.1762 20.6721 27.1748 20.6794 27.1749 20.6868C27.175 20.6941 27.1765 20.7014 27.1794 20.7082C27.1823 20.715 27.1866 20.7211 27.1918 20.7263C27.1971 20.7314 27.2034 20.7355 27.2102 20.7382L29.9802 21.8442C29.987 21.847 29.9944 21.8483 30.0018 21.8482C30.0092 21.8482 30.0164 21.8466 30.0232 21.8437C30.03 21.8408 30.0362 21.8366 30.0413 21.8313C30.0465 21.826 30.0506 21.8198 30.0533 21.813L30.488 20.7279ZM28.9742 30.9227C28.9726 30.9114 28.9665 30.9013 28.9573 30.8945C28.9482 30.8877 28.9367 30.8848 28.9254 30.8865L25.9516 31.3249C25.946 31.3257 25.9407 31.3276 25.9358 31.3305C25.931 31.3334 25.9268 31.3372 25.9234 31.3418C25.92 31.3463 25.9176 31.3514 25.9162 31.3569C25.9148 31.3624 25.9146 31.368 25.9154 31.3736L26.0899 32.5534C26.0916 32.5646 26.0976 32.5748 26.1068 32.5815C26.1159 32.5883 26.1274 32.5912 26.1387 32.5895L29.1125 32.1512C29.1181 32.1503 29.1234 32.1484 29.1283 32.1455C29.1331 32.1426 29.1374 32.1388 29.1407 32.1343C29.1441 32.1298 29.1465 32.1246 29.1479 32.1192C29.1493 32.1137 29.1496 32.108 29.1487 32.1024L28.9742 30.9227ZM32.7589 40.5028C32.7575 40.5011 32.7559 40.4997 32.754 40.4986C32.7521 40.4976 32.75 40.4969 32.7479 40.4966C32.7457 40.4964 32.7436 40.4966 32.7415 40.4971C32.7394 40.4977 32.7375 40.4987 32.7358 40.5001L30.3301 42.3967C30.3266 42.3994 30.3244 42.4034 30.3239 42.4077C30.3234 42.412 30.3247 42.4163 30.3273 42.4198L31.1022 43.3992C31.1035 43.4009 31.1052 43.4023 31.1071 43.4034C31.109 43.4044 31.111 43.4051 31.1132 43.4053C31.1153 43.4056 31.1175 43.4054 31.1196 43.4048C31.1216 43.4042 31.1236 43.4033 31.1253 43.4019L33.531 41.5053C33.5344 41.5026 33.5366 41.4986 33.5371 41.4943C33.5376 41.49 33.5364 41.4856 33.5337 41.4822L32.7589 40.5028ZM42.0108 47.4389C42.0128 47.434 42.0138 47.4287 42.0137 47.4234C42.0137 47.4181 42.0126 47.4129 42.0105 47.408C42.0084 47.4032 42.0053 47.3987 42.0015 47.395C41.9977 47.3913 41.9932 47.3884 41.9883 47.3864L40.8721 46.9408C40.8621 46.9368 40.851 46.9369 40.8412 46.9411C40.8313 46.9454 40.8235 46.9533 40.8195 46.9633L39.6994 49.7589C39.6974 49.7639 39.6965 49.7691 39.6965 49.7744C39.6966 49.7797 39.6977 49.785 39.6998 49.7898C39.7019 49.7947 39.7049 49.7991 39.7087 49.8028C39.7125 49.8065 39.717 49.8095 39.722 49.8114L40.8382 50.2571C40.8481 50.2611 40.8592 50.261 40.8691 50.2567C40.879 50.2525 40.8867 50.2446 40.8907 50.2346L42.0108 47.4389ZM52.3307 48.3224C52.3299 48.3167 52.3279 48.3113 52.325 48.3064C52.3221 48.3015 52.3182 48.2972 52.3136 48.2938C52.309 48.2903 52.3038 48.2879 52.2982 48.2865C52.2927 48.2851 52.2869 48.2848 52.2812 48.2856L51.1004 48.4575C51.089 48.4592 51.0787 48.4653 51.0717 48.4746C51.0648 48.4839 51.0619 48.4955 51.0636 48.5069L51.4977 51.4776C51.4985 51.4833 51.5004 51.4887 51.5034 51.4937C51.5063 51.4986 51.5102 51.5028 51.5148 51.5063C51.5194 51.5097 51.5246 51.5122 51.5301 51.5136C51.5357 51.515 51.5415 51.5153 51.5471 51.5144L52.7279 51.3425C52.7394 51.3408 52.7497 51.3347 52.7566 51.3254C52.7635 51.3162 52.7665 51.3045 52.7648 51.2931L52.3307 48.3224Z" fill="#E7E8EA"/>
<path d="M46.0921 5.78229L44.9097 5.95238C44.8862 5.95576 44.8699 5.97751 44.8733 6.00096L45.3026 8.97495C45.306 8.9984 45.3278 9.01468 45.3513 9.0113L46.5336 8.8412C46.5571 8.83783 46.5734 8.81607 46.5701 8.79262L46.1408 5.81863C46.1374 5.79518 46.1156 5.77891 46.0921 5.78229Z" fill="#5C5D61"/>
<path d="M57.9165 7.48374L56.7866 7.03487C56.7707 7.02856 56.7527 7.0363 56.7464 7.05216L55.6237 9.86855C55.6173 9.88442 55.6251 9.9024 55.641 9.90871L56.7709 10.3576C56.7868 10.3639 56.8048 10.3562 56.8111 10.3403L57.9338 7.5239C57.9401 7.50803 57.9324 7.49005 57.9165 7.48374Z" fill="#5C5D61"/>
<path d="M35.0035 10.2023L34.065 10.9422C34.0464 10.9568 34.0432 10.9838 34.0579 11.0024L35.9272 13.3654C35.942 13.384 35.969 13.3872 35.9876 13.3725L36.9261 12.6326C36.9447 12.6179 36.9479 12.5909 36.9332 12.5723L35.0638 10.2093C35.0491 10.1907 35.0221 10.1876 35.0035 10.2023Z" fill="#5C5D61"/>
<path d="M50.0431 26.2127C49.9795 26.2299 49.9298 26.2316 49.894 26.2177C48.8701 25.8307 47.9342 25.9675 47.0864 26.6279C47.07 26.6405 47.0512 26.646 47.0301 26.6443C46.9994 26.6409 46.9699 26.63 46.9417 26.6115C46.7777 22.1265 46.6145 17.6413 46.4518 13.1559C46.4434 12.9292 46.4299 12.7269 46.4114 12.5489C46.3777 12.2275 46.4099 12.2208 46.5081 12.5287C46.5447 12.6444 46.5989 12.8409 46.6705 13.1181C47.7956 17.4831 48.9198 21.848 50.0431 26.2127Z" fill="#454547"/>
<path d="M66.4791 13.9211L64.1409 15.7646C64.1148 15.7851 64.1104 15.8228 64.131 15.8488L64.8502 16.7579C64.8707 16.7839 64.9085 16.7883 64.9345 16.7678L67.2728 14.9243C67.2988 14.9038 67.3032 14.8661 67.2827 14.8402L66.5635 13.931C66.5429 13.905 66.5051 13.9006 66.4791 13.9211Z" fill="#5C5D61"/>
<path d="M30.455 20.6552L27.685 19.5492C27.6562 19.5377 27.6235 19.5517 27.6119 19.5805L27.1772 20.6655C27.1657 20.6943 27.1797 20.7269 27.2086 20.7385L29.9785 21.8445C30.0073 21.856 30.0401 21.842 30.0516 21.8132L30.4863 20.7282C30.4979 20.6994 30.4838 20.6667 30.455 20.6552Z" fill="#5C5D61"/>
<path d="M93.6656 23.3323L94.0183 25.7193C94.0612 26.0718 94.1046 26.4041 94.1485 26.7162C94.285 27.6993 93.5613 27.7327 92.7371 27.8103C92.2074 27.8595 91.9217 27.616 91.8459 27.1181C91.7949 26.7841 91.7416 26.4302 91.686 26.0562L91.3447 23.6339C91.2604 23.1283 91.2138 22.801 91.205 22.6521C91.1576 21.8539 92.0229 21.847 92.5709 21.7807C93.6371 21.6514 93.5569 22.6237 93.6656 23.3323Z" fill="#454547"/>
<path d="M86.2536 24.3738L86.6202 26.7778C86.6644 27.2151 86.8402 27.8725 86.7561 28.2246C86.6177 28.8064 86.0495 28.7774 85.5697 28.8562C85.0066 28.949 84.5382 28.8644 84.4491 28.1918C84.3914 27.7577 84.3341 27.3972 84.2772 27.1103L83.946 24.7297C83.8891 24.3473 83.7387 23.7359 83.8562 23.404C84.0269 22.9232 84.6343 22.9181 85.1507 22.8569C86.2321 22.7288 86.1525 23.6355 86.2536 24.3738Z" fill="#454547"/>
<path d="M97.6665 32.6529L60.5649 38.0389L59.1491 28.3452C59.1457 28.3229 59.1552 28.3101 59.1775 28.3067L61.7652 27.9351L62.1096 30.3517C61.3556 31.6206 62.7626 33.1009 64.0658 32.4529C64.9912 31.9935 65.2168 30.753 64.4444 30.035L64.0798 27.6026L69.1488 26.8637L69.4984 29.2683C69.3568 29.5211 69.2881 29.7607 69.2923 29.987C69.3226 31.6673 71.5677 32.1481 72.2029 30.5587C72.4288 29.9929 72.3061 29.4496 71.8351 28.9289L71.4817 26.5331L72.2895 26.3936L73.7325 26.1772C73.7485 26.1675 73.7656 26.1673 73.7837 26.1766C73.7919 26.1811 73.8017 26.1826 73.8115 26.181C74.6365 26.0624 75.462 25.946 76.2879 25.832C76.3165 25.8278 76.3427 25.8137 76.3663 25.7898L76.5603 25.7904L76.9003 28.1963C76.274 29.197 77.1058 30.5379 78.2776 30.4565C79.5859 30.3662 80.2142 28.7591 79.225 27.8632L78.8667 25.4673L83.9515 24.7297L84.2827 27.1104C83.6102 28.3654 84.8149 29.8438 86.1814 29.2545C87.2142 28.809 87.3868 27.5761 86.6258 26.7779L86.2592 24.3739L91.3485 23.6337L91.6898 26.056C91.4247 26.491 91.3961 26.9392 91.6038 27.4007C92.1777 28.6759 93.9639 28.5907 94.4215 27.2637C94.6107 26.7139 94.4776 26.1991 94.0221 25.7191L93.6694 23.3321C93.7789 23.2934 93.8857 23.2663 93.9898 23.2507C94.7466 23.1393 95.4985 23.0303 96.2456 22.9239C96.2667 22.9209 96.2789 22.93 96.2823 22.951C96.7508 26.1681 97.2188 29.3811 97.6861 32.5898C97.6878 32.6037 97.6812 32.6247 97.6665 32.6529Z" fill="#DE292E"/>
<path d="M78.8662 25.4672L79.2245 27.863C79.2783 28.2896 79.4477 28.954 79.3731 29.2903C79.2486 29.8481 78.6879 29.8557 78.2246 29.9257C77.5022 30.0349 77.1508 29.9017 77.0452 29.1521C77.0018 28.8438 76.9534 28.5251 76.8998 28.1962L76.5598 25.7903C76.4435 24.9902 76.1016 24.1687 77.262 23.9983C77.7424 23.9276 78.3397 23.7535 78.631 24.257C78.7903 24.5309 78.8181 25.0981 78.8662 25.4672Z" fill="#454547"/>
<path d="M71.3981 26.0121C71.3526 25.7488 71.3178 25.5761 71.2938 25.4941C71.2062 25.1984 70.9989 24.9803 70.6719 24.8398L71.4948 24.7047C71.5005 24.7038 71.5063 24.7039 71.5118 24.7052C71.5174 24.7065 71.5227 24.7089 71.5274 24.7122C71.532 24.7156 71.536 24.7198 71.5389 24.7247C71.5419 24.7296 71.5439 24.735 71.5447 24.7407L71.716 25.9061C71.7177 25.9172 71.7171 25.9286 71.7141 25.9394C71.7112 25.9502 71.706 25.9603 71.6989 25.9691C71.6918 25.9778 71.683 25.985 71.673 25.9901C71.663 25.9952 71.652 25.9982 71.6408 25.9989L71.3981 26.0121Z" fill="#5C5D61"/>
<path d="M70.6731 24.8398C71.0001 24.9803 71.2074 25.1984 71.2951 25.4942C71.3191 25.5762 71.3539 25.7489 71.3994 26.0122L71.479 26.5334L71.8323 28.9292C71.8816 29.2884 71.9305 29.6296 71.979 29.9526C72.1224 30.9048 71.3829 30.9262 70.6763 31.019C69.8041 31.1338 69.7118 30.6909 69.6062 29.9842C69.5721 29.7558 69.5352 29.5173 69.4956 29.2687L69.1461 26.864L69.0677 26.3384C69.0319 26.0456 69.0422 25.7503 69.0987 25.4525C69.1005 25.4431 69.1044 25.4342 69.1102 25.4266C69.116 25.4189 69.1235 25.4127 69.1322 25.4084C69.2552 25.3474 69.3254 25.25 69.3427 25.1162C69.3456 25.0935 69.3585 25.0796 69.3812 25.0746C69.4461 25.0607 69.492 25.0388 69.519 25.0089L70.6731 24.8398Z" fill="#454547"/>
<path d="M69.5166 25.0088C69.4897 25.0387 69.4437 25.0605 69.3788 25.0744C69.3561 25.0795 69.3432 25.0933 69.3403 25.1161C69.323 25.2498 69.2529 25.3472 69.1298 25.4082C69.1212 25.4125 69.1136 25.4187 69.1078 25.4264C69.102 25.4341 69.0981 25.443 69.0963 25.4524C69.0399 25.7502 69.0295 26.0455 69.0654 26.3383L68.7721 26.3995C68.703 26.4138 68.6634 26.386 68.6533 26.3162L68.4927 25.1937C68.4917 25.187 68.4921 25.1802 68.4938 25.1737C68.4955 25.1671 68.4985 25.161 68.5026 25.1556C68.5067 25.1502 68.5119 25.1457 68.5178 25.1422C68.5237 25.1388 68.5302 25.1366 68.537 25.1356L69.5166 25.0088Z" fill="#5C5D61"/>
<path d="M91.6838 26.0562C91.7394 26.4301 91.7927 26.7841 91.8437 27.1181C91.9196 27.616 92.2053 27.8595 92.7349 27.8103C93.5591 27.7327 94.2828 27.6992 94.1463 26.7162C94.1025 26.4041 94.0591 26.0717 94.0161 25.7192C94.4716 26.1992 94.6047 26.7141 94.4155 27.2639C93.9579 28.5908 92.1718 28.676 91.5979 27.4008C91.3901 26.9393 91.4188 26.4911 91.6838 26.0562Z" fill="white"/>
<path d="M50.0474 26.2124C50.09 26.2881 50.1235 26.3335 50.1479 26.3487C51.1611 26.9721 51.6541 28.0517 51.4127 29.2089C50.9595 31.3845 48.126 32.0312 46.7367 30.2904C46.711 30.258 46.6853 30.2376 46.6596 30.2291C46.6643 30.2069 46.663 30.1907 46.6558 30.1806C46.3112 29.6745 46.1477 29.1176 46.1654 28.5097C46.171 28.3104 46.2431 28.0851 46.2526 27.863C46.2543 27.8525 46.2621 27.8428 46.276 27.834C46.2924 27.8235 46.3038 27.8089 46.3101 27.7904C46.4344 27.4219 46.6327 27.0985 46.9049 26.82C46.9188 26.8053 46.9274 26.7864 46.9295 26.7664L46.9459 26.6111C46.9742 26.6296 47.0037 26.6406 47.0344 26.6439C47.0555 26.6456 47.0743 26.6402 47.0907 26.6275C47.9385 25.9671 48.8743 25.8304 49.8983 26.2174C49.9341 26.2313 49.9838 26.2296 50.0474 26.2124ZM51.0113 28.6486C51.0113 28.069 50.7807 27.5133 50.3702 27.1035C49.9598 26.6937 49.403 26.4635 48.8225 26.4635C48.242 26.4635 47.6853 26.6937 47.2748 27.1035C46.8643 27.5133 46.6337 28.069 46.6337 28.6486C46.6337 29.2281 46.8643 29.7839 47.2748 30.1936C47.6853 30.6034 48.242 30.8336 48.8225 30.8336C49.403 30.8336 49.9598 30.6034 50.3702 30.1936C50.7807 29.7839 51.0113 29.2281 51.0113 28.6486Z" fill="#808183"/>
<path d="M64.0745 27.6024L64.4392 30.0348C64.4708 30.2893 64.5197 30.6267 64.5858 31.0469C64.6851 31.6741 64.3444 31.9328 63.7806 32.0212C63.0405 32.1373 62.3825 32.3051 62.2416 31.3189C62.1961 31.0017 62.1503 30.6793 62.1044 30.3516L61.7599 27.935C61.6632 27.2346 61.3162 26.3518 62.3402 26.1708C62.8907 26.073 63.5537 25.8856 63.8457 26.4238C63.9911 26.6926 64.0113 27.2409 64.0745 27.6024Z" fill="#454547"/>
<path d="M48.8216 30.834C50.0305 30.834 51.0104 29.8557 51.0104 28.6489C51.0104 27.4422 50.0305 26.4639 48.8216 26.4639C47.6128 26.4639 46.6328 27.4422 46.6328 28.6489C46.6328 29.8557 47.6128 30.834 48.8216 30.834Z" fill="#C6A96F"/>
<path d="M86.621 26.7778C87.382 27.576 87.2094 28.8089 86.1766 29.2544C84.8101 29.8437 83.6054 28.3654 84.2779 27.1104C84.3348 27.3972 84.3921 27.7577 84.4499 28.1918C84.539 28.8645 85.0073 28.949 85.5705 28.8563C86.0502 28.7774 86.6184 28.8064 86.7569 28.2247C86.8409 27.8726 86.6652 27.2151 86.621 26.7778Z" fill="white"/>
<path d="M46.253 27.8633C46.2435 28.0854 46.1714 28.3106 46.1657 28.51C46.148 29.1179 46.3115 29.6748 46.6562 30.1809C46.6634 30.1909 46.6646 30.2071 46.66 30.2294L35.6313 30.6307C35.6278 30.6306 35.6246 30.6293 35.622 30.627C35.6194 30.6247 35.6178 30.6216 35.6173 30.6181C35.6169 30.6147 35.6176 30.6113 35.6195 30.6084C35.6214 30.6055 35.6242 30.6033 35.6275 30.6023L46.253 27.8633Z" fill="#454547"/>
<path d="M79.2189 27.8633C80.2081 28.7593 79.5798 30.3664 78.2715 30.4566C77.0996 30.538 76.2678 29.1972 76.8942 28.1964C76.9477 28.5254 76.9962 28.844 77.0396 29.1524C77.1451 29.902 77.4966 30.0351 78.219 29.9259C78.6823 29.8559 79.2429 29.8483 79.3674 29.2905C79.442 28.9542 79.2726 28.2898 79.2189 27.8633Z" fill="white"/>
<path d="M71.832 28.9287C72.3031 29.4495 72.4257 29.9927 72.1999 30.5585C71.5646 32.1479 69.3196 31.6671 69.2892 29.9869C69.285 29.7605 69.3537 29.521 69.4953 29.2682C69.5349 29.5168 69.5718 29.7553 69.6059 29.9837C69.7115 30.6904 69.8037 31.1333 70.676 31.0185C71.3826 30.9257 72.1221 30.9043 71.9786 29.9522C71.9302 29.6291 71.8813 29.2879 71.832 28.9287Z" fill="#E7E8EA"/>
<path d="M64.4446 30.0352C65.217 30.7532 64.9914 31.9937 64.066 32.4531C62.7627 33.1011 61.3558 31.6208 62.1098 30.3519C62.1558 30.6796 62.2015 31.002 62.247 31.3192C62.3879 32.3054 63.0459 32.1376 63.786 32.0215C64.3498 31.9331 64.6905 31.6744 64.5913 31.0472C64.5251 30.627 64.4762 30.2896 64.4446 30.0352Z" fill="#E7E8EA"/>
<path d="M28.9304 30.8864L25.9566 31.3248C25.9331 31.3282 25.9169 31.3501 25.9203 31.3735L26.0948 32.5533C26.0983 32.5767 26.1202 32.5929 26.1436 32.5894L29.1174 32.151C29.1409 32.1476 29.1572 32.1258 29.1537 32.1023L28.9792 30.9226C28.9757 30.8991 28.9539 30.8829 28.9304 30.8864Z" fill="#5C5D61"/>
<path d="M97.6641 32.6528C98.8789 40.9939 100.094 49.335 101.31 57.676C101.363 58.0374 101.377 58.3083 101.353 58.4887C101.246 59.2977 100.517 59.9513 99.772 60.1911C99.6182 60.2403 99.204 60.3142 98.5294 60.4126C88.869 61.8176 79.2081 63.2192 69.5465 64.6174C68.7267 64.736 67.4968 64.955 66.5253 65.0124C65.6859 65.0616 64.8055 64.6199 64.4414 63.8691C64.3614 63.7042 64.299 63.4682 64.2543 63.1611C63.7474 59.6851 63.2437 56.2084 62.7304 52.7336C62.7224 52.6777 62.7035 52.6278 62.6736 52.5841L62.2539 49.7232L62.0308 48.1698L61.7084 45.9715L61.4455 44.1082L60.5625 38.0388L97.6641 32.6528ZM96.319 36.0512C96.3175 36.0413 96.3121 36.0324 96.3041 36.0264C96.296 36.0204 96.2858 36.0179 96.2759 36.0194L92.8928 36.5241C92.8829 36.5256 92.8739 36.531 92.8679 36.539C92.8619 36.5471 92.8594 36.5572 92.8609 36.5672L93.1462 38.473C93.1477 38.4829 93.1531 38.4919 93.1612 38.4978C93.1692 38.5038 93.1794 38.5063 93.1893 38.5048L96.5724 38.0001C96.5824 37.9986 96.5913 37.9932 96.5973 37.9852C96.6033 37.9771 96.6058 37.967 96.6043 37.9571L96.319 36.0512ZM91.4355 36.7702C91.4338 36.7587 91.4276 36.7484 91.4184 36.7415C91.4091 36.7346 91.3975 36.7317 91.386 36.7334L88.0099 37.225C87.9985 37.2267 87.9882 37.2329 87.9812 37.2421C87.9743 37.2514 87.9714 37.263 87.9731 37.2744L88.2506 39.1737C88.2523 39.1852 88.2584 39.1955 88.2677 39.2024C88.277 39.2093 88.2886 39.2122 88.3001 39.2105L91.6762 38.7189C91.6876 38.7172 91.6979 38.7111 91.7048 38.7018C91.7117 38.6925 91.7147 38.6809 91.713 38.6695L91.4355 36.7702ZM86.5484 37.4793C86.5476 37.4739 86.5458 37.4687 86.543 37.464C86.5402 37.4593 86.5365 37.4552 86.5321 37.4519C86.5277 37.4486 86.5227 37.4463 86.5174 37.4449C86.5121 37.4436 86.5065 37.4433 86.5011 37.4441L83.12 37.9365C83.1091 37.9381 83.0992 37.944 83.0926 37.9528C83.086 37.9617 83.0832 37.9728 83.0848 37.9837L83.3623 39.883C83.3631 39.8885 83.365 39.8937 83.3678 39.8984C83.3706 39.9031 83.3743 39.9072 83.3787 39.9104C83.3831 39.9137 83.3881 39.9161 83.3934 39.9174C83.3987 39.9187 83.4042 39.919 83.4096 39.9182L86.7907 39.4258C86.8017 39.4242 86.8115 39.4184 86.8181 39.4095C86.8247 39.4007 86.8276 39.3895 86.826 39.3786L86.5484 37.4793ZM81.6604 38.1828C81.659 38.1735 81.654 38.1652 81.6465 38.1596C81.639 38.154 81.6295 38.1516 81.6202 38.1529L78.2254 38.6474C78.2161 38.6487 78.2077 38.6537 78.2021 38.6612C78.1965 38.6687 78.1941 38.6781 78.1955 38.6874L78.475 40.6005C78.4764 40.6098 78.4814 40.6181 78.4889 40.6237C78.4964 40.6293 78.5059 40.6317 78.5151 40.6303L81.91 40.1359C81.9193 40.1346 81.9277 40.1296 81.9333 40.1221C81.9389 40.1146 81.9413 40.1051 81.9399 40.0959L81.6604 38.1828ZM76.7672 38.8813C76.7663 38.875 76.7629 38.8694 76.7578 38.8656C76.7527 38.8618 76.7463 38.8601 76.74 38.8611L73.3214 39.3589C73.3183 39.3594 73.3153 39.3605 73.3126 39.3621C73.3099 39.3637 73.3075 39.3658 73.3056 39.3683C73.3037 39.3709 73.3023 39.3737 73.3016 39.3768C73.3008 39.3798 73.3006 39.383 73.3011 39.3861L73.5839 41.3217C73.5849 41.328 73.5882 41.3336 73.5934 41.3374C73.5985 41.3412 73.6049 41.3428 73.6112 41.3419L77.0298 40.8441C77.0329 40.8436 77.0359 40.8425 77.0386 40.8409C77.0413 40.8393 77.0437 40.8372 77.0456 40.8347C77.0475 40.8321 77.0488 40.8293 77.0496 40.8262C77.0504 40.8232 77.0506 40.82 77.0501 40.8169L76.7672 38.8813ZM96.7645 39.0424C96.764 39.0387 96.7627 39.035 96.7607 39.0317C96.7588 39.0285 96.7562 39.0256 96.7531 39.0233C96.7501 39.021 96.7466 39.0194 96.7429 39.0184C96.7392 39.0175 96.7354 39.0173 96.7316 39.0178L93.3221 39.5083C93.3183 39.5089 93.3147 39.5101 93.3114 39.5121C93.3081 39.514 93.3053 39.5166 93.303 39.5197C93.3007 39.5227 93.299 39.5262 93.2981 39.5299C93.2971 39.5336 93.2969 39.5374 93.2975 39.5412L93.5755 41.4672C93.576 41.471 93.5773 41.4746 93.5793 41.4779C93.5812 41.4812 93.5838 41.484 93.5868 41.4863C93.5899 41.4886 93.5934 41.4903 93.5971 41.4912C93.6008 41.4921 93.6046 41.4923 93.6084 41.4918L97.0179 41.0013C97.0217 41.0008 97.0253 40.9995 97.0286 40.9976C97.0319 40.9956 97.0347 40.993 97.037 40.99C97.0393 40.9869 97.041 40.9835 97.0419 40.9798C97.0429 40.9761 97.0431 40.9722 97.0425 40.9685L96.7645 39.0424ZM71.8781 39.599C71.8775 39.5952 71.8762 39.5915 71.8742 39.5881C71.8722 39.5848 71.8696 39.5819 71.8664 39.5795C71.8633 39.5772 71.8597 39.5755 71.856 39.5746C71.8522 39.5736 71.8483 39.5734 71.8444 39.574L68.442 40.0695C68.4342 40.0706 68.4272 40.0748 68.4225 40.0811C68.4178 40.0874 68.4158 40.0953 68.4169 40.1031L68.6978 42.0249C68.6983 42.0288 68.6996 42.0325 68.7016 42.0358C68.7036 42.0392 68.7063 42.0421 68.7094 42.0444C68.7125 42.0467 68.7161 42.0484 68.7199 42.0494C68.7236 42.0503 68.7276 42.0505 68.7314 42.05L72.1338 41.5545C72.1416 41.5533 72.1486 41.5491 72.1533 41.5428C72.158 41.5365 72.1601 41.5286 72.1589 41.5208L71.8781 39.599ZM91.8697 39.7372C91.8691 39.7327 91.8667 39.7287 91.863 39.726C91.8594 39.7233 91.8549 39.7221 91.8504 39.7228L88.4205 40.2223C88.416 40.223 88.412 40.2254 88.4093 40.229C88.4066 40.2326 88.4054 40.2372 88.4061 40.2416L88.6911 42.1921C88.6918 42.1966 88.6942 42.2006 88.6978 42.2033C88.7014 42.206 88.706 42.2072 88.7105 42.2065L92.1403 41.707C92.1448 41.7064 92.1489 41.704 92.1516 41.7004C92.1543 41.6967 92.1554 41.6922 92.1548 41.6877L91.8697 39.7372ZM66.9905 40.3115C66.9898 40.3068 66.9882 40.3022 66.9857 40.2981C66.9833 40.294 66.98 40.2904 66.9761 40.2875C66.9723 40.2846 66.9679 40.2826 66.9632 40.2814C66.9585 40.2802 66.9537 40.28 66.9489 40.2807L63.5587 40.7805C63.5539 40.7812 63.5493 40.7828 63.5452 40.7853C63.5411 40.7877 63.5375 40.791 63.5346 40.7948C63.5317 40.7987 63.5297 40.8031 63.5285 40.8077C63.5273 40.8124 63.5271 40.8172 63.5278 40.822L63.8099 42.7296C63.8106 42.7343 63.8123 42.7389 63.8148 42.743C63.8172 42.7471 63.8205 42.7507 63.8244 42.7536C63.8282 42.7565 63.8326 42.7586 63.8373 42.7597C63.8419 42.7609 63.8468 42.7611 63.8516 42.7604L67.2418 42.2607C67.2466 42.26 67.2511 42.2583 67.2553 42.2559C67.2594 42.2534 67.263 42.2501 67.2659 42.2463C67.2687 42.2424 67.2708 42.238 67.272 42.2334C67.2732 42.2287 67.2734 42.2239 67.2727 42.2191L66.9905 40.3115ZM86.9824 40.4538C86.9815 40.4477 86.9782 40.4422 86.9733 40.4385C86.9683 40.4348 86.962 40.4332 86.9559 40.4341L83.5373 40.932C83.5311 40.9329 83.5256 40.9361 83.5219 40.9411C83.5182 40.9461 83.5166 40.9523 83.5175 40.9584L83.8005 42.8952C83.8014 42.9013 83.8047 42.9069 83.8097 42.9106C83.8147 42.9143 83.8209 42.9158 83.8271 42.9149L87.2457 42.4171C87.2518 42.4162 87.2574 42.4129 87.2611 42.4079C87.2648 42.403 87.2663 42.3967 87.2654 42.3906L86.9824 40.4538ZM82.0932 41.1555C82.0929 41.1533 82.0921 41.1512 82.091 41.1493C82.0898 41.1473 82.0883 41.1457 82.0865 41.1443C82.0847 41.143 82.0827 41.142 82.0805 41.1415C82.0783 41.1409 82.0761 41.1408 82.0738 41.1411L78.6427 41.6408C78.6405 41.6411 78.6384 41.6419 78.6364 41.643C78.6345 41.6442 78.6328 41.6457 78.6315 41.6475C78.6302 41.6493 78.6292 41.6513 78.6286 41.6535C78.6281 41.6557 78.628 41.6579 78.6283 41.6601L78.9132 43.6094C78.9135 43.6116 78.9142 43.6138 78.9154 43.6157C78.9165 43.6176 78.918 43.6193 78.9198 43.6206C78.9216 43.622 78.9237 43.6229 78.9259 43.6235C78.928 43.624 78.9303 43.6241 78.9325 43.6238L82.3636 43.1241C82.3659 43.1238 82.368 43.123 82.3699 43.1219C82.3718 43.1207 82.3735 43.1192 82.3749 43.1174C82.3762 43.1156 82.3772 43.1136 82.3777 43.1114C82.3783 43.1093 82.3784 43.107 82.3781 43.1048L82.0932 41.1555ZM77.2059 41.8726C77.205 41.8663 77.2016 41.8606 77.1965 41.8568C77.1914 41.853 77.1849 41.8514 77.1786 41.8523L73.7575 42.3506C73.7512 42.3515 73.7455 42.3549 73.7417 42.36C73.7379 42.3651 73.7363 42.3715 73.7372 42.3778L74.0201 44.3133C74.021 44.3196 74.0244 44.3253 74.0295 44.3291C74.0346 44.3329 74.041 44.3345 74.0473 44.3336L77.4684 43.8353C77.4747 43.8344 77.4804 43.831 77.4842 43.8259C77.488 43.8208 77.4896 43.8144 77.4887 43.8081L77.2059 41.8726ZM97.2 42.0361C97.1991 42.0298 97.1957 42.0241 97.1906 42.0203C97.1855 42.0165 97.1791 42.0149 97.1728 42.0158L93.7571 42.5072C93.7508 42.5081 93.7451 42.5114 93.7413 42.5165C93.7375 42.5216 93.7358 42.528 93.7367 42.5343L94.016 44.4691C94.0169 44.4754 94.0203 44.481 94.0254 44.4849C94.0305 44.4887 94.0369 44.4903 94.0432 44.4894L97.4589 43.998C97.4652 43.9971 97.4709 43.9937 97.4747 43.9886C97.4786 43.9836 97.4802 43.9772 97.4793 43.9709L97.2 42.0361ZM72.3184 42.5894C72.3179 42.5857 72.3166 42.5822 72.3147 42.579C72.3128 42.5758 72.3102 42.573 72.3073 42.5708C72.3043 42.5685 72.3009 42.5669 72.2972 42.566C72.2936 42.5651 72.2898 42.5649 72.2862 42.5654L68.875 43.0622C68.8713 43.0627 68.8678 43.064 68.8646 43.0659C68.8614 43.0678 68.8586 43.0703 68.8563 43.0733C68.8541 43.0763 68.8525 43.0797 68.8516 43.0833C68.8506 43.0869 68.8505 43.0907 68.851 43.0944L69.1322 45.0187C69.1327 45.0224 69.134 45.0259 69.1359 45.0291C69.1378 45.0323 69.1404 45.0351 69.1433 45.0374C69.1463 45.0396 69.1497 45.0412 69.1534 45.0421C69.157 45.043 69.1608 45.0432 69.1645 45.0427L72.5756 44.5459C72.5793 44.5454 72.5828 44.5441 72.586 44.5422C72.5892 44.5403 72.592 44.5378 72.5943 44.5348C72.5965 44.5318 72.5981 44.5284 72.599 44.5248C72.6 44.5212 72.6001 44.5174 72.5996 44.5137L72.3184 42.5894ZM92.3095 42.7571C92.3078 42.746 92.3018 42.7361 92.2928 42.7294C92.2838 42.7227 92.2725 42.7199 92.2614 42.7215L88.8824 43.2196C88.8713 43.2212 88.8613 43.2272 88.8546 43.2362C88.8479 43.2452 88.8451 43.2565 88.8467 43.2676L89.1274 45.1652C89.129 45.1763 89.135 45.1863 89.144 45.193C89.1531 45.1996 89.1644 45.2025 89.1755 45.2008L92.5545 44.7027C92.5656 44.7011 92.5756 44.6951 92.5823 44.6861C92.589 44.6771 92.5918 44.6658 92.5902 44.6547L92.3095 42.7571ZM64.3137 45.7462L67.6605 45.2622C67.6681 45.2612 67.6754 45.2586 67.682 45.2547C67.6886 45.2507 67.6944 45.2455 67.699 45.2394C67.7036 45.2332 67.7069 45.2262 67.7087 45.2188C67.7106 45.2113 67.7109 45.2036 67.7098 45.196L67.4222 43.298C67.4197 43.2808 67.4095 43.2734 67.3918 43.2759L64.0186 43.7656C64.0106 43.7667 64.0029 43.7694 63.996 43.7736C63.9891 43.7777 63.9831 43.7831 63.9783 43.7896C63.9734 43.796 63.9699 43.8033 63.968 43.8111C63.966 43.8189 63.9656 43.827 63.9667 43.835L64.2423 45.7096C64.2441 45.7215 64.2483 45.7326 64.2548 45.7418C64.2612 45.751 64.2695 45.7579 64.279 45.762C64.2849 45.7645 64.2906 45.7626 64.296 45.7563C64.3007 45.7508 64.3066 45.7475 64.3137 45.7462ZM87.4201 43.4794C87.4181 43.4658 87.4108 43.4536 87.3997 43.4454C87.3887 43.4372 87.3749 43.4337 87.3613 43.4357L84.004 43.9246C83.9904 43.9266 83.9781 43.9339 83.9699 43.9449C83.9617 43.9559 83.9582 43.9697 83.9601 43.9833L84.2352 45.8651C84.2371 45.8787 84.2444 45.8909 84.2555 45.8992C84.2665 45.9074 84.2803 45.9108 84.2939 45.9089L87.6512 45.4199C87.6648 45.4179 87.6771 45.4106 87.6853 45.3996C87.6935 45.3886 87.697 45.3748 87.695 45.3613L87.4201 43.4794ZM79.3459 46.5961C79.347 46.6036 79.351 46.6103 79.357 46.6148C79.3631 46.6193 79.3707 46.6212 79.3781 46.6201L82.7874 46.1242C82.7948 46.1231 82.8014 46.1191 82.8059 46.1133C82.8103 46.1074 82.8123 46.0999 82.8114 46.0926L82.5365 44.1662C82.5354 44.1588 82.5314 44.1521 82.5254 44.1476C82.5193 44.1431 82.5117 44.1412 82.5043 44.1423L79.0924 44.6382C79.0851 44.6393 79.0785 44.6432 79.074 44.6491C79.0695 44.655 79.0675 44.6624 79.0684 44.6698L79.3459 46.5961ZM77.644 44.8853C77.6426 44.8755 77.6373 44.8667 77.6294 44.8608C77.6215 44.8549 77.6115 44.8524 77.6017 44.8538L74.2056 45.3484C74.1958 45.3498 74.187 45.3551 74.1811 45.363C74.1752 45.3709 74.1727 45.3808 74.1741 45.3906L74.4529 47.2987C74.4543 47.3084 74.4596 47.3172 74.4675 47.3231C74.4755 47.329 74.4854 47.3316 74.4952 47.3301L77.8913 46.8355C77.9011 46.8341 77.9099 46.8289 77.9158 46.821C77.9217 46.813 77.9243 46.8031 77.9228 46.7933L77.644 44.8853ZM97.6349 45.0463C97.6331 45.0344 97.6267 45.0236 97.617 45.0165C97.6073 45.0093 97.5952 45.0062 97.5832 45.008L94.2105 45.5052C94.2046 45.506 94.1989 45.5081 94.1938 45.5111C94.1887 45.5142 94.1842 45.5182 94.1806 45.523C94.1771 45.5278 94.1745 45.5333 94.173 45.5391C94.1716 45.5448 94.1713 45.5509 94.1721 45.5568L94.4521 47.4493C94.4538 47.4613 94.4603 47.472 94.47 47.4792C94.4797 47.4864 94.4918 47.4894 94.5037 47.4877L97.8765 46.9905C97.8824 46.9896 97.8881 46.9876 97.8932 46.9845C97.8983 46.9814 97.9028 46.9774 97.9064 46.9726C97.9099 46.9678 97.9125 46.9624 97.914 46.9566C97.9154 46.9508 97.9157 46.9448 97.9149 46.9389L97.6349 45.0463ZM72.7564 45.5882C72.7554 45.5812 72.7516 45.5749 72.746 45.5707C72.7404 45.5665 72.7333 45.5647 72.7263 45.5657L69.3118 46.0569C69.3049 46.0579 69.2986 46.0616 69.2944 46.0673C69.2901 46.0729 69.2883 46.08 69.2893 46.0869L69.5677 48.0155C69.5687 48.0224 69.5725 48.0287 69.5781 48.0329C69.5837 48.0371 69.5908 48.0389 69.5978 48.0379L73.0123 47.5467C73.0192 47.5457 73.0255 47.542 73.0297 47.5364C73.034 47.5307 73.0358 47.5237 73.0348 47.5167L72.7564 45.5882ZM92.7491 45.7434C92.7485 45.7394 92.7472 45.7357 92.7451 45.7322C92.7431 45.7288 92.7404 45.7258 92.7372 45.7235C92.734 45.7211 92.7304 45.7193 92.7265 45.7184C92.7227 45.7174 92.7186 45.7172 92.7147 45.7177L89.3077 46.2078C89.3038 46.2084 89.3 46.2097 89.2966 46.2118C89.2931 46.2138 89.2901 46.2165 89.2878 46.2197C89.2854 46.2229 89.2836 46.2265 89.2827 46.2303C89.2817 46.2342 89.2815 46.2382 89.282 46.2421L89.56 48.1682C89.5606 48.1721 89.562 48.1759 89.564 48.1793C89.566 48.1827 89.5687 48.1857 89.5719 48.1881C89.5751 48.1905 89.5787 48.1922 89.5826 48.1932C89.5864 48.1942 89.5905 48.1944 89.5944 48.1938L93.0014 47.7037C93.0053 47.7031 93.0091 47.7018 93.0125 47.6998C93.016 47.6977 93.019 47.6951 93.0213 47.6919C93.0237 47.6887 93.0255 47.6851 93.0264 47.6812C93.0274 47.6774 93.0276 47.6734 93.0271 47.6694L92.7491 45.7434ZM67.8664 46.3191C67.8644 46.3051 67.8569 46.2926 67.8456 46.2842C67.8343 46.2758 67.8202 46.2722 67.8062 46.2743L64.4464 46.7636C64.4395 46.7646 64.4329 46.7669 64.4269 46.7705C64.4209 46.774 64.4157 46.7788 64.4115 46.7843C64.4073 46.7899 64.4043 46.7963 64.4026 46.803C64.4009 46.8098 64.4005 46.8168 64.4015 46.8237L64.676 48.7018C64.678 48.7157 64.6855 48.7282 64.6968 48.7366C64.7081 48.745 64.7223 48.7486 64.7362 48.7466L68.096 48.2572C68.1029 48.2562 68.1096 48.2539 68.1155 48.2503C68.1215 48.2468 68.1268 48.2421 68.1309 48.2365C68.1351 48.2309 68.1381 48.2245 68.1398 48.2178C68.1415 48.2111 68.1419 48.204 68.1409 48.1971L67.8664 46.3191ZM87.8592 46.4514C87.8587 46.4478 87.8575 46.4444 87.8557 46.4414C87.8539 46.4383 87.8515 46.4356 87.8486 46.4335C87.8457 46.4314 87.8425 46.4298 87.839 46.4289C87.8356 46.4281 87.832 46.4279 87.8284 46.4284L84.4152 46.9194C84.4081 46.9204 84.4016 46.9242 84.3973 46.93C84.393 46.9358 84.3912 46.943 84.3922 46.9501L84.6707 48.8799C84.6713 48.8834 84.6725 48.8868 84.6743 48.8899C84.6761 48.8929 84.6785 48.8956 84.6814 48.8978C84.6842 48.8999 84.6875 48.9014 84.6909 48.9023C84.6944 48.9032 84.698 48.9034 84.7015 48.9029L88.1148 48.4119C88.1219 48.4108 88.1283 48.407 88.1326 48.4013C88.137 48.3955 88.1388 48.3883 88.1378 48.3811L87.8592 46.4514ZM82.9714 47.1818C82.9695 47.1689 82.9626 47.1572 82.9521 47.1494C82.9416 47.1416 82.9285 47.1383 82.9155 47.1401L79.5461 47.6248C79.5331 47.6267 79.5215 47.6336 79.5137 47.6441C79.5058 47.6545 79.5025 47.6676 79.5043 47.6806L79.7769 49.5691C79.7788 49.582 79.7857 49.5937 79.7962 49.6015C79.8067 49.6093 79.8198 49.6127 79.8328 49.6108L83.2022 49.1261C83.2151 49.1242 83.2268 49.1173 83.2346 49.1069C83.2425 49.0964 83.2458 49.0833 83.244 49.0704L82.9714 47.1818ZM78.0737 47.8826C78.072 47.8714 78.066 47.8612 78.0568 47.8544C78.0477 47.8476 78.0362 47.8447 78.025 47.8464L74.6526 48.3375C74.6413 48.3392 74.6312 48.3452 74.6244 48.3543C74.6175 48.3635 74.6146 48.3749 74.6163 48.3862L74.8942 50.288C74.8959 50.2992 74.9019 50.3094 74.9111 50.3162C74.9202 50.323 74.9317 50.3259 74.9429 50.3242L78.3153 49.8331C78.3266 49.8315 78.3367 49.8254 78.3435 49.8163C78.3503 49.8072 78.3532 49.7957 78.3516 49.7845L78.0737 47.8826ZM98.0743 48.0428C98.0726 48.0312 98.0663 48.0207 98.0569 48.0137C98.0475 48.0067 98.0357 48.0038 98.0241 48.0054L94.6443 48.4977C94.6326 48.4994 94.6222 48.5056 94.6152 48.515C94.6082 48.5244 94.6052 48.5362 94.6069 48.5478L94.8837 50.4421C94.8854 50.4537 94.8916 50.4641 94.901 50.4711C94.9104 50.4781 94.9222 50.4811 94.9338 50.4794L98.3137 49.9872C98.3253 49.9855 98.3358 49.9793 98.3428 49.9699C98.3498 49.9605 98.3528 49.9487 98.3511 49.9371L98.0743 48.0428ZM73.1893 48.5859C73.1877 48.5753 73.182 48.5658 73.1734 48.5594C73.1648 48.553 73.154 48.5503 73.1433 48.5519L69.7581 49.0509C69.7529 49.0517 69.7478 49.0535 69.7432 49.0562C69.7387 49.059 69.7347 49.0625 69.7315 49.0668C69.7284 49.0711 69.7261 49.0759 69.7248 49.081C69.7235 49.0862 69.7232 49.0915 69.724 49.0968L70.0058 51.0019C70.0074 51.0125 70.0131 51.022 70.0217 51.0284C70.0303 51.0348 70.0411 51.0375 70.0517 51.0359L73.437 50.5369C73.4422 50.5361 73.4473 50.5343 73.4518 50.5316C73.4564 50.5289 73.4604 50.5253 73.4635 50.521C73.4667 50.5167 73.469 50.5119 73.4703 50.5068C73.4716 50.5016 73.4718 50.4963 73.4711 50.491L73.1893 48.5859ZM93.1841 48.7387C93.1829 48.7307 93.1787 48.7236 93.1722 48.7188C93.1658 48.714 93.1577 48.7119 93.1497 48.713L89.744 49.203C89.7401 49.2035 89.7363 49.2049 89.7329 49.2069C89.7294 49.2089 89.7264 49.2116 89.724 49.2148C89.7217 49.218 89.7199 49.2216 89.7189 49.2255C89.718 49.2293 89.7177 49.2333 89.7183 49.2373L89.996 51.1608C89.9971 51.1688 90.0014 51.1759 90.0078 51.1807C90.0143 51.1855 90.0224 51.1876 90.0303 51.1865L93.4361 50.6965C93.44 50.696 93.4438 50.6946 93.4472 50.6926C93.4506 50.6906 93.4536 50.6879 93.456 50.6847C93.4584 50.6815 93.4601 50.6779 93.4611 50.674C93.4621 50.6702 93.4623 50.6662 93.4618 50.6622L93.1841 48.7387ZM65.1228 51.7316C65.1232 51.7345 65.1241 51.7372 65.1256 51.7396C65.127 51.7421 65.1289 51.7442 65.1312 51.7459C65.1335 51.7477 65.1362 51.7489 65.1389 51.7496C65.1417 51.7502 65.1446 51.7504 65.1474 51.7499L68.5649 51.242C68.5678 51.2416 68.5705 51.2407 68.573 51.2392C68.5754 51.2378 68.5776 51.2358 68.5793 51.2335C68.581 51.2312 68.5822 51.2286 68.5829 51.2259C68.5836 51.2231 68.5837 51.2202 68.5833 51.2174L68.2932 49.2803C68.2928 49.2775 68.2918 49.2747 68.2904 49.2723C68.2889 49.2698 68.287 49.2677 68.2847 49.266C68.2824 49.2643 68.2798 49.263 68.277 49.2623C68.2742 49.2617 68.2713 49.2615 68.2685 49.262L64.8504 49.7617C64.8475 49.7621 64.8448 49.7631 64.8423 49.7645C64.8399 49.766 64.8377 49.7679 64.836 49.7702C64.8343 49.7725 64.8331 49.7751 64.8324 49.7779C64.8317 49.7806 64.8316 49.7835 64.832 49.7863L65.1228 51.7316ZM88.2955 49.4536C88.2943 49.4451 88.2898 49.4375 88.2829 49.4324C88.2761 49.4273 88.2675 49.4251 88.259 49.4263L84.8571 49.9157C84.8529 49.9163 84.8488 49.9177 84.8452 49.9199C84.8415 49.922 84.8384 49.9249 84.8358 49.9283C84.8333 49.9317 84.8314 49.9355 84.8304 49.9396C84.8294 49.9437 84.8291 49.948 84.8297 49.9521L85.1067 51.8707C85.1079 51.8791 85.1124 51.8867 85.1193 51.8919C85.1261 51.897 85.1347 51.8992 85.1432 51.8979L88.5452 51.4085C88.5493 51.4079 88.5534 51.4065 88.557 51.4044C88.5606 51.4022 88.5638 51.3994 88.5664 51.396C88.5689 51.3926 88.5707 51.3887 88.5718 51.3846C88.5728 51.3805 88.5731 51.3763 88.5725 51.3721L88.2955 49.4536ZM83.4046 50.1686C83.4038 50.1632 83.402 50.1581 83.3992 50.1535C83.3964 50.1489 83.3928 50.1448 83.3885 50.1416C83.3841 50.1384 83.3792 50.136 83.374 50.1347C83.3688 50.1334 83.3633 50.1331 83.358 50.1339L79.9719 50.627C79.9665 50.6278 79.9614 50.6296 79.9568 50.6324C79.9521 50.6351 79.9481 50.6388 79.9449 50.6431C79.9416 50.6474 79.9393 50.6523 79.938 50.6576C79.9367 50.6628 79.9364 50.6682 79.9372 50.6735L80.2147 52.5729C80.2155 52.5782 80.2173 52.5833 80.2201 52.5879C80.2228 52.5926 80.2265 52.5966 80.2308 52.5998C80.2351 52.603 80.2401 52.6054 80.2453 52.6067C80.2505 52.608 80.256 52.6083 80.2613 52.6075L83.6474 52.1144C83.6527 52.1136 83.6579 52.1118 83.6625 52.109C83.6671 52.1063 83.6712 52.1026 83.6744 52.0983C83.6776 52.094 83.68 52.0891 83.6813 52.0839C83.6826 52.0786 83.6829 52.0732 83.6821 52.0679L83.4046 50.1686ZM78.5153 50.8909C78.5142 50.8834 78.5116 50.8762 78.5078 50.8698C78.5039 50.8633 78.4988 50.8577 78.4927 50.8532C78.4866 50.8487 78.4797 50.8454 78.4724 50.8436C78.4651 50.8417 78.4575 50.8414 78.45 50.8425L75.101 51.3361C75.0936 51.3372 75.0864 51.3398 75.0799 51.3437C75.0734 51.3476 75.0678 51.3527 75.0633 51.3587C75.0588 51.3648 75.0555 51.3716 75.0537 51.379C75.0518 51.3863 75.0514 51.3939 75.0525 51.4013L75.3286 53.2677C75.3297 53.2752 75.3323 53.2823 75.3362 53.2888C75.34 53.2953 75.3452 53.3009 75.3512 53.3054C75.3573 53.3099 75.3642 53.3132 75.3715 53.315C75.3788 53.3169 75.3864 53.3172 75.3939 53.3161L78.7429 52.8224C78.7504 52.8213 78.7575 52.8188 78.764 52.8149C78.7705 52.811 78.7762 52.8059 78.7807 52.7999C78.7852 52.7938 78.7884 52.7869 78.7903 52.7796C78.7921 52.7723 78.7925 52.7647 78.7914 52.7572L78.5153 50.8909ZM98.5101 51.0228C98.5091 51.0154 98.5051 51.0087 98.499 51.0042C98.493 50.9997 98.4854 50.9977 98.4779 50.9988L95.0685 51.4893C95.0648 51.4898 95.0612 51.4911 95.058 51.493C95.0548 51.4949 95.052 51.4974 95.0497 51.5004C95.0475 51.5034 95.0459 51.5067 95.045 51.5104C95.044 51.514 95.0438 51.5177 95.0444 51.5214L95.3226 53.4487C95.3237 53.4562 95.3276 53.4629 95.3337 53.4674C95.3397 53.4719 95.3473 53.4738 95.3548 53.4728L98.7643 52.9823C98.7679 52.9818 98.7715 52.9805 98.7747 52.9786C98.7779 52.9767 98.7807 52.9742 98.783 52.9712C98.7852 52.9682 98.7868 52.9648 98.7878 52.9612C98.7887 52.9576 98.7889 52.9538 98.7884 52.9501L98.5101 51.0228ZM73.6278 51.5619C73.6272 51.5576 73.6249 51.5538 73.6214 51.5512C73.6179 51.5486 73.6135 51.5475 73.6092 51.5481L70.173 52.0485C70.1709 52.0488 70.1688 52.0495 70.167 52.0506C70.1651 52.0517 70.1635 52.0532 70.1622 52.0549C70.1609 52.0567 70.16 52.0586 70.1595 52.0607C70.159 52.0628 70.1588 52.065 70.1591 52.0671L70.4446 54.0201C70.4452 54.0244 70.4475 54.0283 70.451 54.0309C70.4545 54.0335 70.4589 54.0346 70.4632 54.034L73.8993 53.5336C73.9015 53.5333 73.9035 53.5325 73.9054 53.5314C73.9072 53.5303 73.9088 53.5289 73.9101 53.5271C73.9114 53.5254 73.9124 53.5234 73.9129 53.5214C73.9134 53.5193 73.9135 53.5171 73.9132 53.515L73.6278 51.5619ZM93.6183 51.7395C93.6176 51.7349 93.6161 51.7305 93.6137 51.7265C93.6113 51.7225 93.6082 51.719 93.6044 51.7163C93.6007 51.7135 93.5965 51.7115 93.592 51.7103C93.5874 51.7092 93.5828 51.709 93.5782 51.7096L90.1858 52.2037C90.1765 52.205 90.1682 52.21 90.1625 52.2175C90.1569 52.225 90.1545 52.2345 90.1559 52.2437L90.4353 54.1555C90.4359 54.1601 90.4375 54.1646 90.4399 54.1685C90.4423 54.1725 90.4454 54.176 90.4492 54.1788C90.4529 54.1815 90.4571 54.1836 90.4616 54.1847C90.4661 54.1858 90.4708 54.1861 90.4754 54.1854L93.8678 53.6914C93.8771 53.69 93.8854 53.685 93.891 53.6775C93.8966 53.67 93.899 53.6606 93.8977 53.6513L93.6183 51.7395ZM68.7356 52.2815C68.7344 52.2734 68.73 52.2661 68.7234 52.2612C68.7168 52.2563 68.7085 52.2542 68.7004 52.2554L65.2939 52.7576C65.2858 52.7588 65.2785 52.7632 65.2736 52.7697C65.2687 52.7763 65.2666 52.7846 65.2678 52.7927L65.5526 54.7177C65.5538 54.7259 65.5582 54.7332 65.5648 54.7381C65.5713 54.7429 65.5796 54.745 65.5877 54.7438L68.9942 54.2416C69.0024 54.2404 69.0097 54.2361 69.0146 54.2295C69.0195 54.2229 69.0215 54.2147 69.0203 54.2065L68.7356 52.2815ZM88.7255 52.4426C88.7249 52.4384 88.7234 52.4343 88.7212 52.4306C88.719 52.4269 88.7161 52.4236 88.7126 52.4211C88.7091 52.4185 88.7052 52.4166 88.701 52.4156C88.6968 52.4145 88.6925 52.4143 88.6882 52.415L85.2892 52.916C85.2849 52.9167 85.2808 52.9181 85.2771 52.9203C85.2734 52.9225 85.2702 52.9255 85.2676 52.9289C85.265 52.9324 85.2632 52.9363 85.2621 52.9405C85.2611 52.9447 85.2609 52.949 85.2615 52.9533L85.5451 54.8708C85.5458 54.8751 85.5472 54.8792 85.5495 54.8829C85.5517 54.8866 85.5546 54.8898 85.5581 54.8924C85.5615 54.895 85.5655 54.8968 85.5696 54.8979C85.5738 54.8989 85.5782 54.8991 85.5825 54.8985L88.9814 54.3974C88.9857 54.3968 88.9898 54.3953 88.9935 54.3931C88.9972 54.3909 89.0005 54.388 89.003 54.3845C89.0056 54.3811 89.0075 54.3772 89.0085 54.373C89.0096 54.3688 89.0098 54.3645 89.0092 54.3602L88.7255 52.4426ZM83.8405 53.1768C83.8395 53.1698 83.8371 53.1631 83.8335 53.157C83.8299 53.151 83.8251 53.1457 83.8195 53.1415C83.8138 53.1373 83.8074 53.1342 83.8006 53.1325C83.7937 53.1308 83.7866 53.1304 83.7796 53.1314L80.4248 53.62C80.4178 53.621 80.4111 53.6234 80.405 53.627C80.399 53.6306 80.3937 53.6354 80.3895 53.641C80.3853 53.6467 80.3822 53.6531 80.3805 53.6599C80.3787 53.6667 80.3784 53.6738 80.3794 53.6808L80.6535 55.5564C80.6545 55.5634 80.6569 55.5701 80.6605 55.5761C80.6641 55.5822 80.6689 55.5875 80.6745 55.5917C80.6802 55.5959 80.6866 55.5989 80.6935 55.6007C80.7003 55.6024 80.7074 55.6028 80.7144 55.6017L84.0692 55.1132C84.0762 55.1121 84.0829 55.1098 84.089 55.1062C84.095 55.1025 84.1003 55.0978 84.1045 55.0921C84.1088 55.0865 84.1118 55.0801 84.1136 55.0732C84.1153 55.0664 84.1156 55.0593 84.1146 55.0523L83.8405 53.1768ZM78.9543 53.8748C78.9527 53.8636 78.9466 53.8534 78.9375 53.8466C78.9284 53.8398 78.9169 53.8369 78.9056 53.8385L75.522 54.3313C75.5164 54.3321 75.5111 54.334 75.5062 54.3369C75.5014 54.3398 75.4971 54.3436 75.4938 54.3481C75.4904 54.3526 75.4879 54.3578 75.4866 54.3632C75.4852 54.3687 75.4849 54.3744 75.4857 54.38L75.7631 56.278C75.7647 56.2893 75.7708 56.2994 75.7799 56.3063C75.789 56.3131 75.8005 56.3159 75.8118 56.3143L79.1954 55.8215C79.201 55.8207 79.2063 55.8188 79.2112 55.8159C79.216 55.813 79.2203 55.8092 79.2237 55.8047C79.227 55.8002 79.2295 55.7951 79.2309 55.7896C79.2322 55.7841 79.2325 55.7785 79.2317 55.7729L78.9543 53.8748ZM98.942 54.0147C98.9408 54.0068 98.9365 53.9996 98.9301 53.9948C98.9236 53.99 98.9156 53.988 98.9076 53.9892L95.504 54.4848C95.496 54.486 95.4888 54.4903 95.484 54.4967C95.4792 54.5031 95.4772 54.5112 95.4783 54.5192L95.7592 56.441C95.7603 56.4489 95.7646 56.4561 95.7711 56.4609C95.7775 56.4657 95.7856 56.4677 95.7936 56.4666L99.1972 55.9709C99.2051 55.9697 99.2123 55.9655 99.2171 55.959C99.2219 55.9526 99.224 55.9445 99.2228 55.9365L98.942 54.0147ZM74.0659 54.5835C74.0651 54.5783 74.0633 54.5732 74.0606 54.5687C74.0579 54.5641 74.0543 54.5601 74.05 54.557C74.0458 54.5538 74.0409 54.5515 74.0358 54.5502C74.0306 54.5489 74.0253 54.5486 74.02 54.5494L70.6326 55.0427C70.6274 55.0435 70.6223 55.0452 70.6178 55.048C70.6132 55.0507 70.6092 55.0543 70.6061 55.0585C70.6029 55.0628 70.6006 55.0676 70.5993 55.0727C70.598 55.0779 70.5977 55.0832 70.5985 55.0885L70.8762 56.989C70.877 56.9943 70.8788 56.9993 70.8815 57.0039C70.8842 57.0084 70.8878 57.0124 70.8921 57.0156C70.8963 57.0188 70.9012 57.0211 70.9063 57.0224C70.9115 57.0237 70.9168 57.0239 70.9221 57.0232L74.3094 56.5299C74.3147 56.5291 74.3197 56.5273 74.3243 56.5246C74.3289 56.5219 74.3328 56.5183 74.336 56.514C74.3392 56.5098 74.3415 56.5049 74.3428 56.4998C74.3441 56.4947 74.3444 56.4893 74.3436 56.4841L74.0659 54.5835ZM94.0533 54.7156C94.0526 54.7111 94.0502 54.7071 94.0466 54.7044C94.043 54.7017 94.0384 54.7006 94.0339 54.7012L90.6003 55.2013C90.5958 55.2019 90.5918 55.2043 90.5891 55.2079C90.5864 55.2116 90.5852 55.2161 90.5859 55.2206L90.87 57.1649C90.8707 57.1693 90.8731 57.1734 90.8767 57.1761C90.8803 57.1788 90.8849 57.1799 90.8894 57.1793L94.323 56.6792C94.3275 56.6785 94.3315 56.6761 94.3342 56.6725C94.3369 56.6689 94.3381 56.6644 94.3374 56.6599L94.0533 54.7156ZM69.1719 55.2839C69.1713 55.2795 69.1698 55.2754 69.1675 55.2716C69.1653 55.2678 69.1623 55.2645 69.1588 55.2619C69.1552 55.2593 69.1512 55.2574 69.147 55.2563C69.1427 55.2552 69.1383 55.255 69.1339 55.2556L65.7403 55.7499C65.736 55.7505 65.7318 55.752 65.728 55.7542C65.7242 55.7565 65.7209 55.7594 65.7183 55.763C65.7157 55.7665 65.7138 55.7705 65.7127 55.7747C65.7116 55.779 65.7114 55.7834 65.712 55.7878L65.9923 57.7058C65.9929 57.7102 65.9944 57.7144 65.9967 57.7181C65.9989 57.7219 66.0019 57.7252 66.0054 57.7278C66.0089 57.7304 66.013 57.7323 66.0172 57.7334C66.0215 57.7345 66.0259 57.7347 66.0303 57.7341L69.4239 57.2399C69.4282 57.2392 69.4324 57.2377 69.4362 57.2355C69.44 57.2332 69.4433 57.2303 69.4459 57.2268C69.4485 57.2232 69.4504 57.2192 69.4515 57.215C69.4526 57.2107 69.4528 57.2063 69.4522 57.2019L69.1719 55.2839ZM89.1687 55.4543C89.1669 55.4415 89.16 55.43 89.1497 55.4223C89.1393 55.4146 89.1263 55.4113 89.1135 55.4132L85.7437 55.904C85.7374 55.9049 85.7313 55.907 85.7258 55.9103C85.7203 55.9136 85.7155 55.9179 85.7117 55.923C85.7079 55.9281 85.7051 55.9339 85.7036 55.9401C85.702 55.9463 85.7017 55.9527 85.7026 55.959L85.9779 57.8434C85.9798 57.8561 85.9867 57.8676 85.997 57.8753C86.0074 57.883 86.0204 57.8863 86.0331 57.8844L89.403 57.3937C89.4093 57.3928 89.4154 57.3906 89.4209 57.3873C89.4263 57.3841 89.4311 57.3798 89.435 57.3746C89.4388 57.3695 89.4416 57.3637 89.4431 57.3575C89.4447 57.3513 89.445 57.3449 89.4441 57.3386L89.1687 55.4543ZM84.2762 56.1485C84.2755 56.1443 84.2741 56.1403 84.2719 56.1367C84.2698 56.133 84.2669 56.1299 84.2635 56.1273C84.2601 56.1248 84.2563 56.123 84.2522 56.1219C84.2481 56.1209 84.2438 56.1207 84.2396 56.1213L80.8372 56.6168C80.8288 56.618 80.8212 56.6226 80.8161 56.6294C80.8109 56.6363 80.8088 56.6448 80.81 56.6533L81.0901 58.5701C81.0907 58.5743 81.0921 58.5783 81.0943 58.5819C81.0965 58.5856 81.0993 58.5887 81.1027 58.5913C81.1061 58.5938 81.11 58.5956 81.1141 58.5966C81.1182 58.5977 81.1225 58.5979 81.1267 58.5973L84.529 58.1018C84.5375 58.1006 84.5451 58.096 84.5502 58.0892C84.5553 58.0823 84.5575 58.0737 84.5563 58.0653L84.2762 56.1485ZM79.3847 56.846C79.384 56.841 79.3813 56.8365 79.3772 56.8335C79.3732 56.8305 79.3682 56.8292 79.3632 56.83L75.9358 57.3291C75.9308 57.3298 75.9263 57.3325 75.9233 57.3365C75.9203 57.3405 75.9191 57.3456 75.9198 57.3506L76.2037 59.2936C76.2044 59.2986 76.2071 59.303 76.2111 59.306C76.2152 59.309 76.2202 59.3103 76.2252 59.3096L79.6526 58.8104C79.6576 58.8097 79.662 58.807 79.6651 58.803C79.6681 58.799 79.6693 58.7939 79.6686 58.789L79.3847 56.846ZM71.3801 60.0132L74.7035 59.5299C74.7557 59.5223 74.778 59.4924 74.7704 59.4402L74.5031 57.5997C74.5019 57.5917 74.4992 57.5839 74.495 57.5769C74.4909 57.57 74.4854 57.5639 74.4789 57.559C74.4724 57.5541 74.4649 57.5506 74.4571 57.5486C74.4492 57.5466 74.441 57.5462 74.4329 57.5473L71.0552 58.0332C71.0342 58.0361 71.0251 58.0483 71.0281 58.0698L71.3194 59.9942C71.3205 60.0015 71.3247 60.0084 71.3313 60.0137C71.338 60.0191 71.3466 60.0227 71.3561 60.0239C71.362 60.0243 71.3677 60.0218 71.3732 60.0163C71.3752 60.0147 71.3776 60.0136 71.3801 60.0132ZM69.6084 58.263C69.6077 58.2582 69.6051 58.2538 69.6012 58.2509C69.5973 58.248 69.5924 58.2468 69.5876 58.2475L66.1565 58.7472C66.1517 58.7479 66.1473 58.7505 66.1444 58.7544C66.1415 58.7582 66.1403 58.7631 66.141 58.7679L66.4255 60.7147C66.4262 60.7195 66.4288 60.7238 66.4327 60.7267C66.4366 60.7296 66.4415 60.7309 66.4463 60.7302L69.8774 60.2305C69.8822 60.2298 69.8865 60.2272 69.8895 60.2233C69.8924 60.2194 69.8936 60.2145 69.8929 60.2097L69.6084 58.263Z" fill="#CDD2CC"/>
<path d="M96.2722 36.0194L92.8891 36.5242C92.8684 36.5273 92.8541 36.5465 92.8572 36.5672L93.1425 38.4731C93.1456 38.4937 93.1649 38.508 93.1856 38.5049L96.5687 38.0002C96.5894 37.9971 96.6037 37.9778 96.6006 37.9571L96.3153 36.0513C96.3122 36.0306 96.2929 36.0164 96.2722 36.0194Z" fill="#939496"/>
<path d="M91.388 36.7335L88.0119 37.2252C87.9881 37.2286 87.9716 37.2507 87.975 37.2745L88.2526 39.1738C88.2561 39.1976 88.2782 39.2141 88.3021 39.2106L91.6781 38.719C91.702 38.7155 91.7185 38.6934 91.715 38.6696L91.4374 36.7703C91.434 36.7465 91.4118 36.73 91.388 36.7335Z" fill="#939496"/>
<path d="M86.5005 37.4445L83.1194 37.9369C83.0966 37.9402 83.0808 37.9613 83.0841 37.9841L83.3617 39.8834C83.365 39.9062 83.3862 39.9219 83.409 39.9186L86.7901 39.4262C86.8129 39.4229 86.8287 39.4017 86.8254 39.379L86.5478 37.4796C86.5445 37.4569 86.5233 37.4411 86.5005 37.4445Z" fill="#939496"/>
<path d="M81.6174 38.1533L78.2225 38.6477C78.2032 38.6505 78.1898 38.6685 78.1926 38.6878L78.4722 40.6009C78.475 40.6202 78.493 40.6335 78.5123 40.6307L81.9072 40.1363C81.9265 40.1335 81.9399 40.1156 81.9371 40.0962L81.6575 38.1832C81.6547 38.1639 81.6367 38.1505 81.6174 38.1533Z" fill="#939496"/>
<path d="M76.7393 38.861L73.3206 39.3588C73.3075 39.3608 73.2984 39.3729 73.3003 39.386L73.5832 41.3216C73.5851 41.3347 73.5973 41.3437 73.6104 41.3418L77.029 40.844C77.0422 40.842 77.0513 40.8299 77.0493 40.8168L76.7665 38.8812C76.7646 38.8681 76.7524 38.8591 76.7393 38.861Z" fill="#939496"/>
<path d="M96.7273 39.0181L93.3178 39.5086C93.3019 39.5108 93.2909 39.5256 93.2932 39.5414L93.5712 41.4675C93.5735 41.4833 93.5883 41.4943 93.6042 41.492L97.0136 41.0016C97.0295 40.9993 97.0406 40.9846 97.0383 40.9687L96.7602 39.0427C96.758 39.0268 96.7432 39.0158 96.7273 39.0181Z" fill="#939496"/>
<path d="M71.8458 39.5739L68.4435 40.0694C68.4272 40.0718 68.416 40.0869 68.4184 40.1031L68.6992 42.0249C68.7016 42.0411 68.7166 42.0523 68.7329 42.0499L72.1352 41.5544C72.1515 41.5521 72.1627 41.537 72.1603 41.5208L71.8795 39.599C71.8771 39.5828 71.8621 39.5716 71.8458 39.5739Z" fill="#939496"/>
<path d="M91.853 39.7231L88.4231 40.2226C88.4138 40.224 88.4074 40.2326 88.4087 40.242L88.6938 42.1925C88.6951 42.2018 88.7038 42.2082 88.7131 42.2069L92.143 41.7074C92.1523 41.706 92.1588 41.6974 92.1574 41.688L91.8724 39.7375C91.871 39.7282 91.8623 39.7218 91.853 39.7231Z" fill="#939496"/>
<path d="M66.9499 40.281L63.5597 40.7808C63.5397 40.7837 63.5258 40.8023 63.5288 40.8223L63.811 42.7299C63.8139 42.7499 63.8326 42.7637 63.8526 42.7608L67.2428 42.261C67.2628 42.258 67.2767 42.2394 67.2737 42.2194L66.9916 40.3119C66.9886 40.2919 66.97 40.2781 66.9499 40.281Z" fill="#939496"/>
<path d="M86.9574 40.4343L83.5388 40.9322C83.526 40.934 83.5171 40.9459 83.519 40.9586L83.802 42.8954C83.8039 42.9082 83.8158 42.917 83.8285 42.9152L87.2472 42.4173C87.2599 42.4154 87.2688 42.4036 87.2669 42.3908L86.9839 40.454C86.982 40.4413 86.9702 40.4324 86.9574 40.4343Z" fill="#939496"/>
<path d="M32.7389 40.4999L30.3332 42.3966C30.3261 42.4022 30.3249 42.4125 30.3305 42.4196L31.1053 43.3991C31.111 43.4062 31.1213 43.4074 31.1284 43.4018L33.5341 41.5051C33.5413 41.4995 33.5425 41.4892 33.5368 41.4821L32.762 40.5026C32.7564 40.4955 32.746 40.4943 32.7389 40.4999Z" fill="#5C5D61"/>
<path d="M82.073 41.1414L78.6419 41.6411C78.6326 41.6425 78.6261 41.6511 78.6275 41.6604L78.9123 43.6097C78.9137 43.619 78.9223 43.6254 78.9317 43.6241L82.3628 43.1244C82.3721 43.123 82.3786 43.1144 82.3772 43.1051L82.0924 41.1558C82.091 41.1465 82.0823 41.14 82.073 41.1414Z" fill="#939496"/>
<path d="M77.1793 41.8523L73.7581 42.3505C73.745 42.3525 73.7359 42.3646 73.7378 42.3777L74.0207 44.3133C74.0226 44.3264 74.0348 44.3354 74.0479 44.3335L77.469 43.8353C77.4822 43.8334 77.4913 43.8212 77.4893 43.8081L77.2065 41.8726C77.2046 41.8595 77.1924 41.8504 77.1793 41.8523Z" fill="#939496"/>
<path d="M97.1739 42.0159L93.7581 42.5073C93.745 42.5092 93.7359 42.5214 93.7378 42.5345L94.0171 44.4693C94.019 44.4824 94.0312 44.4915 94.0443 44.4896L97.46 43.9982C97.4731 43.9963 97.4823 43.9841 97.4804 43.971L97.2011 42.0363C97.1992 42.0232 97.187 42.0141 97.1739 42.0159Z" fill="#939496"/>
<path d="M72.283 42.5655L68.8719 43.0623C68.8564 43.0646 68.8456 43.079 68.8479 43.0945L69.1291 45.0188C69.1313 45.0343 69.1458 45.0451 69.1613 45.0428L72.5724 44.546C72.588 44.5438 72.5987 44.5293 72.5965 44.5138L72.3153 42.5895C72.313 42.574 72.2986 42.5633 72.283 42.5655Z" fill="#939496"/>
<path d="M92.2568 42.7218L88.8778 43.2199C88.8547 43.2233 88.8387 43.2448 88.8421 43.2679L89.1228 45.1655C89.1262 45.1886 89.1478 45.2045 89.1709 45.2011L92.5499 44.703C92.573 44.6996 92.589 44.6781 92.5856 44.655L92.3049 42.7574C92.3015 42.7343 92.2799 42.7184 92.2568 42.7218Z" fill="#939496"/>
<path d="M64.2987 45.7562C64.2932 45.7625 64.2875 45.7644 64.2816 45.7619C64.2722 45.7579 64.2638 45.7509 64.2574 45.7417C64.251 45.7325 64.2467 45.7215 64.245 45.7095L63.9694 43.8349C63.9682 43.827 63.9686 43.8189 63.9706 43.8111C63.9726 43.8033 63.9761 43.7959 63.9809 43.7895C63.9857 43.7831 63.9918 43.7776 63.9987 43.7735C64.0056 43.7694 64.0133 43.7667 64.0212 43.7655L67.3945 43.2759C67.4122 43.2733 67.4223 43.2807 67.4248 43.298L67.7124 45.1959C67.7136 45.2035 67.7132 45.2113 67.7114 45.2187C67.7095 45.2262 67.7062 45.2332 67.7016 45.2393C67.697 45.2455 67.6913 45.2507 67.6847 45.2546C67.678 45.2585 67.6707 45.2611 67.6631 45.2622L64.3164 45.7461C64.3092 45.7474 64.3033 45.7508 64.2987 45.7562Z" fill="#939496"/>
<path d="M87.3617 43.4357L84.0044 43.9247C83.9761 43.9288 83.9565 43.9551 83.9606 43.9833L84.2356 45.8652C84.2397 45.8934 84.2661 45.913 84.2944 45.9089L87.6517 45.42C87.68 45.4158 87.6996 45.3896 87.6955 45.3613L87.4205 43.4794C87.4164 43.4512 87.3901 43.4316 87.3617 43.4357Z" fill="#939496"/>
<path d="M61.4474 44.1084L61.7103 45.9717L60.7129 44.7261C60.6982 44.708 60.7001 44.6916 60.7186 44.6769L61.4474 44.1084Z" fill="#5C5D61"/>
<path d="M79.348 46.5962L79.0705 44.6699C79.0696 44.6625 79.0716 44.6551 79.0761 44.6492C79.0806 44.6433 79.0872 44.6394 79.0945 44.6383L82.5064 44.1424C82.5138 44.1413 82.5214 44.1432 82.5275 44.1477C82.5335 44.1522 82.5375 44.1589 82.5386 44.1664L82.8136 46.0927C82.8145 46.1001 82.8125 46.1075 82.808 46.1134C82.8035 46.1193 82.7969 46.1232 82.7895 46.1243L79.3802 46.6202C79.3728 46.6213 79.3652 46.6194 79.3591 46.6149C79.3531 46.6104 79.3491 46.6037 79.348 46.5962Z" fill="#939496"/>
<path d="M77.5971 44.854L74.201 45.3486C74.1806 45.3516 74.1665 45.3705 74.1694 45.3908L74.4483 47.2989C74.4513 47.3192 74.4702 47.3333 74.4906 47.3304L77.8867 46.8358C77.907 46.8328 77.9212 46.8139 77.9182 46.7936L77.6394 44.8855C77.6364 44.8652 77.6174 44.8511 77.5971 44.854Z" fill="#939496"/>
<path d="M97.5818 45.0079L94.2091 45.5051C94.1842 45.5087 94.167 45.5318 94.1707 45.5567L94.4507 47.4493C94.4543 47.4741 94.4775 47.4912 94.5023 47.4876L97.8751 46.9904C97.8999 46.9867 97.9171 46.9636 97.9134 46.9388L97.6335 45.0462C97.6298 45.0214 97.6067 45.0042 97.5818 45.0079Z" fill="#939496"/>
<path d="M72.722 45.5661L69.3075 46.0573C69.293 46.0593 69.2829 46.0728 69.285 46.0873L69.5634 48.0158C69.5655 48.0303 69.579 48.0403 69.5935 48.0382L73.008 47.5471C73.0225 47.545 73.0325 47.5315 73.0304 47.517L72.7521 45.5885C72.75 45.574 72.7365 45.564 72.722 45.5661Z" fill="#939496"/>
<path d="M92.7104 45.718L89.3035 46.2081C89.2869 46.2105 89.2754 46.2258 89.2778 46.2424L89.5558 48.1684C89.5582 48.185 89.5736 48.1965 89.5901 48.1941L92.9971 47.704C93.0137 47.7016 93.0252 47.6862 93.0228 47.6697L92.7448 45.7436C92.7424 45.7271 92.727 45.7156 92.7104 45.718Z" fill="#939496"/>
<path d="M67.803 46.2745L64.4432 46.7638C64.4141 46.7681 64.3941 46.795 64.3983 46.8239L64.6727 48.702C64.677 48.731 64.7039 48.751 64.7329 48.7468L68.0928 48.2575C68.1218 48.2533 68.1419 48.2264 68.1376 48.1974L67.8632 46.3193C67.859 46.2904 67.832 46.2703 67.803 46.2745Z" fill="#939496"/>
<path d="M87.8308 46.4285L84.4175 46.9195C84.4027 46.9216 84.3924 46.9354 84.3945 46.9502L84.6731 48.88C84.6752 48.8948 84.689 48.9051 84.7038 48.903L88.1171 48.4119C88.1319 48.4098 88.1422 48.3961 88.1401 48.3812L87.8615 46.4514C87.8594 46.4366 87.8456 46.4263 87.8308 46.4285Z" fill="#939496"/>
<path d="M41.9897 47.3865L40.8735 46.9408C40.8528 46.9325 40.8292 46.9426 40.8209 46.9633L39.7008 49.759C39.6925 49.7797 39.7026 49.8032 39.7233 49.8115L40.8395 50.2571C40.8603 50.2654 40.8838 50.2553 40.8921 50.2346L42.0122 47.439C42.0205 47.4182 42.0104 47.3947 41.9897 47.3865Z" fill="#5C5D61"/>
<path d="M82.9182 47.1401L79.5488 47.6248C79.5218 47.6287 79.5031 47.6536 79.507 47.6805L79.7796 49.5691C79.7835 49.596 79.8085 49.6147 79.8355 49.6108L83.2049 49.1261C83.2319 49.1222 83.2506 49.0973 83.2467 49.0704L82.9741 47.1818C82.9702 47.1549 82.9452 47.1362 82.9182 47.1401Z" fill="#939496"/>
<path d="M78.0242 47.8464L74.6519 48.3376C74.6284 48.341 74.6122 48.3628 74.6156 48.3862L74.8935 50.288C74.8969 50.3115 74.9187 50.3277 74.9422 50.3243L78.3146 49.8332C78.3381 49.8297 78.3543 49.808 78.3509 49.7845L78.073 47.8827C78.0696 47.8592 78.0477 47.843 78.0242 47.8464Z" fill="#939496"/>
<path d="M98.0252 48.0058L94.6453 48.498C94.6212 48.5015 94.6044 48.524 94.6079 48.5481L94.8848 50.4424C94.8883 50.4666 94.9108 50.4833 94.9349 50.4798L98.3148 49.9875C98.339 49.984 98.3557 49.9616 98.3522 49.9375L98.0754 48.0431C98.0718 48.019 98.0494 48.0023 98.0252 48.0058Z" fill="#939496"/>
<path d="M52.2865 48.2856L51.1057 48.4576C51.0818 48.4611 51.0653 48.4832 51.0688 48.5069L51.5029 51.4777C51.5064 51.5015 51.5285 51.5179 51.5524 51.5145L52.7332 51.3425C52.757 51.339 52.7735 51.3169 52.77 51.2931L52.3359 48.3224C52.3324 48.2986 52.3103 48.2821 52.2865 48.2856Z" fill="#5C5D61"/>
<path d="M73.144 48.5522L69.7588 49.0512C69.7367 49.0545 69.7214 49.075 69.7247 49.0971L70.0065 51.0022C70.0097 51.0242 70.0303 51.0395 70.0524 51.0362L73.4376 50.5372C73.4597 50.5339 73.475 50.5134 73.4717 50.4913L73.1899 48.5862C73.1867 48.5642 73.1661 48.5489 73.144 48.5522Z" fill="#939496"/>
<path d="M93.1467 48.7133L89.741 49.2032C89.7244 49.2056 89.7129 49.2209 89.7153 49.2375L89.9929 51.161C89.9953 51.1776 90.0107 51.1891 90.0273 51.1867L93.433 50.6968C93.4496 50.6944 93.4611 50.679 93.4587 50.6625L93.181 48.7389C93.1787 48.7224 93.1633 48.7109 93.1467 48.7133Z" fill="#939496"/>
<path d="M65.1191 51.7316L64.8284 49.7863C64.8279 49.7835 64.8281 49.7806 64.8288 49.7778C64.8294 49.7751 64.8307 49.7725 64.8324 49.7702C64.8341 49.7679 64.8362 49.7659 64.8387 49.7645C64.8412 49.763 64.8439 49.7621 64.8467 49.7617L68.2649 49.262C68.2677 49.2615 68.2706 49.2617 68.2734 49.2623C68.2761 49.263 68.2787 49.2643 68.281 49.266C68.2833 49.2677 68.2853 49.2698 68.2867 49.2723C68.2882 49.2747 68.2891 49.2775 68.2895 49.2803L68.5796 51.2174C68.5801 51.2202 68.58 51.2231 68.5793 51.2259C68.5786 51.2286 68.5774 51.2312 68.5756 51.2335C68.5739 51.2358 68.5718 51.2377 68.5693 51.2392C68.5669 51.2407 68.5641 51.2416 68.5613 51.242L65.1438 51.7499C65.141 51.7504 65.1381 51.7502 65.1353 51.7496C65.1325 51.7489 65.1299 51.7476 65.1276 51.7459C65.1253 51.7442 65.1234 51.7421 65.1219 51.7396C65.1205 51.7372 65.1195 51.7344 65.1191 51.7316Z" fill="#939496"/>
<path d="M88.2542 49.4264L84.8522 49.9158C84.8346 49.9184 84.8224 49.9347 84.8249 49.9523L85.1018 51.8708C85.1044 51.8884 85.1207 51.9006 85.1384 51.8981L88.5403 51.4087C88.5579 51.4061 88.5702 51.3898 88.5676 51.3722L88.2907 49.4537C88.2882 49.4361 88.2718 49.4239 88.2542 49.4264Z" fill="#939496"/>
<path d="M83.3564 50.1342L79.9703 50.6274C79.9479 50.6307 79.9323 50.6515 79.9356 50.6739L80.2132 52.5732C80.2164 52.5956 80.2373 52.6111 80.2598 52.6079L83.6459 52.1147C83.6683 52.1115 83.6839 52.0906 83.6806 52.0682L83.403 50.1689C83.3997 50.1465 83.3789 50.131 83.3564 50.1342Z" fill="#939496"/>
<path d="M78.4527 50.8427L75.1038 51.3363C75.0723 51.341 75.0506 51.3702 75.0553 51.4015L75.3314 53.2679C75.336 53.2993 75.3652 53.321 75.3967 53.3163L78.7456 52.8226C78.777 52.818 78.7988 52.7888 78.7941 52.7574L78.518 50.8911C78.5134 50.8597 78.4842 50.838 78.4527 50.8427Z" fill="#939496"/>
<path d="M98.4767 50.9991L95.0672 51.4896C95.0517 51.4918 95.0409 51.5062 95.0431 51.5218L95.3213 53.449C95.3236 53.4646 95.338 53.4753 95.3535 53.4731L98.763 52.9826C98.7786 52.9804 98.7893 52.966 98.7871 52.9505L98.5089 51.0232C98.5067 51.0077 98.4922 50.9969 98.4767 50.9991Z" fill="#939496"/>
<path d="M73.6086 51.548L70.1725 52.0484C70.1635 52.0497 70.1573 52.058 70.1586 52.067L70.444 54.02C70.4453 54.029 70.4537 54.0352 70.4627 54.0339L73.8988 53.5335C73.9078 53.5322 73.914 53.5238 73.9127 53.5149L73.6273 51.5619C73.626 51.5529 73.6176 51.5467 73.6086 51.548Z" fill="#939496"/>
<path d="M93.5758 51.7098L90.1835 52.2039C90.1641 52.2067 90.1507 52.2246 90.1535 52.2439L90.4329 54.1558C90.4357 54.1751 90.4537 54.1884 90.4731 54.1856L93.8654 53.6916C93.8848 53.6888 93.8982 53.6708 93.8953 53.6515L93.6159 51.7397C93.6131 51.7204 93.5952 51.707 93.5758 51.7098Z" fill="#939496"/>
<path d="M68.7028 52.2555L65.2963 52.7577C65.2793 52.7602 65.2677 52.7759 65.2701 52.7928L65.5549 54.7178C65.5574 54.7347 65.5731 54.7464 65.5901 54.7439L68.9966 54.2417C69.0135 54.2393 69.0252 54.2235 69.0227 54.2066L68.7379 52.2816C68.7354 52.2647 68.7197 52.253 68.7028 52.2555Z" fill="#939496"/>
<path d="M88.6893 52.415L85.2903 52.9161C85.2724 52.9188 85.26 52.9354 85.2626 52.9534L85.5463 54.8709C85.5489 54.8888 85.5656 54.9012 85.5836 54.8986L88.9826 54.3975C89.0005 54.3949 89.0129 54.3782 89.0103 54.3603L88.7266 52.4427C88.724 52.4248 88.7073 52.4124 88.6893 52.415Z" fill="#939496"/>
<path d="M83.7752 53.1316L80.4203 53.6202C80.391 53.6245 80.3707 53.6517 80.3749 53.681L80.649 55.5566C80.6533 55.5859 80.6806 55.6062 80.7099 55.6019L84.0648 55.1133C84.0941 55.1091 84.1145 55.0818 84.1102 55.0525L83.8361 53.1769C83.8318 53.1476 83.8045 53.1273 83.7752 53.1316Z" fill="#939496"/>
<path d="M78.9027 53.8389L75.5191 54.3317C75.4956 54.3351 75.4793 54.3569 75.4828 54.3803L75.7601 56.2784C75.7636 56.3019 75.7854 56.3181 75.8089 56.3147L79.1925 55.8219C79.216 55.8185 79.2322 55.7967 79.2288 55.7733L78.9514 53.8752C78.948 53.8517 78.9262 53.8355 78.9027 53.8389Z" fill="#939496"/>
<path d="M98.9102 53.9892L95.5066 54.4849C95.49 54.4873 95.4785 54.5027 95.4809 54.5192L95.7618 56.441C95.7642 56.4576 95.7796 56.469 95.7962 56.4666L99.1998 55.9709C99.2164 55.9685 99.2279 55.9531 99.2254 55.9366L98.9446 54.0148C98.9422 53.9982 98.9268 53.9868 98.9102 53.9892Z" fill="#939496"/>
<path d="M74.0211 54.5497L70.6338 55.043C70.6117 55.0462 70.5964 55.0667 70.5996 55.0888L70.8773 56.9894C70.8806 57.0114 70.9011 57.0267 70.9232 57.0235L74.3105 56.5302C74.3327 56.527 74.348 56.5065 74.3447 56.4844L74.067 54.5838C74.0638 54.5617 74.0432 54.5465 74.0211 54.5497Z" fill="#939496"/>
<path d="M94.0365 54.7011L90.6028 55.2012C90.5935 55.2025 90.587 55.2112 90.5884 55.2205L90.8725 57.1647C90.8739 57.1741 90.8825 57.1805 90.8919 57.1791L94.3255 56.6791C94.3348 56.6777 94.3413 56.6691 94.3399 56.6598L94.0558 54.7155C94.0544 54.7062 94.0458 54.6997 94.0365 54.7011Z" fill="#939496"/>
<path d="M69.1299 55.2558L65.7363 55.7501C65.718 55.7527 65.7053 55.7697 65.708 55.788L65.9883 57.706C65.9909 57.7243 66.0079 57.737 66.0262 57.7343L69.4198 57.2401C69.4381 57.2374 69.4508 57.2204 69.4482 57.2021L69.1679 55.2841C69.1652 55.2658 69.1482 55.2532 69.1299 55.2558Z" fill="#939496"/>
<path d="M89.1133 55.4134L85.7435 55.9041C85.7169 55.908 85.6985 55.9327 85.7023 55.9592L85.9777 57.8435C85.9816 57.8701 86.0063 57.8885 86.0329 57.8846L89.4027 57.3938C89.4293 57.39 89.4477 57.3653 89.4439 57.3388L89.1685 55.4544C89.1646 55.4279 89.1399 55.4095 89.1133 55.4134Z" fill="#939496"/>
<path d="M84.2389 56.1214L80.8366 56.6169C80.819 56.6195 80.8068 56.6358 80.8093 56.6534L81.0895 58.5702C81.092 58.5878 81.1084 58.6 81.126 58.5974L84.5284 58.1019C84.546 58.0994 84.5582 58.083 84.5556 58.0654L84.2755 56.1486C84.2729 56.131 84.2566 56.1189 84.2389 56.1214Z" fill="#939496"/>
<path d="M79.3602 56.8302L75.9328 57.3293C75.9225 57.3308 75.9153 57.3404 75.9168 57.3508L76.2007 59.2938C76.2023 59.3041 76.2119 59.3113 76.2222 59.3098L79.6496 58.8106C79.66 58.8091 79.6672 58.7995 79.6656 58.7892L79.3817 56.8462C79.3802 56.8358 79.3706 56.8286 79.3602 56.8302Z" fill="#939496"/>
<path d="M71.3691 60.0165C71.3636 60.022 71.3579 60.0245 71.352 60.0241C71.3426 60.0229 71.3339 60.0193 71.3273 60.0139C71.3206 60.0086 71.3165 60.0017 71.3154 59.9944L71.024 58.07C71.021 58.0485 71.0301 58.0363 71.0512 58.0334L74.4289 57.5475C74.4369 57.5463 74.4451 57.5468 74.453 57.5488C74.4609 57.5508 74.4683 57.5543 74.4748 57.5592C74.4813 57.5641 74.4868 57.5702 74.491 57.5771C74.4951 57.5841 74.4979 57.5918 74.499 57.5999L74.7664 59.4404C74.774 59.4926 74.7516 59.5225 74.6994 59.53L71.376 60.0134C71.3735 60.0138 71.3711 60.0149 71.3691 60.0165Z" fill="#939496"/>
<path d="M69.5899 58.2477L66.1588 58.7474C66.1487 58.7488 66.1418 58.7581 66.1433 58.7681L66.4278 60.7149C66.4292 60.7249 66.4385 60.7318 66.4485 60.7303L69.8797 60.2307C69.8897 60.2292 69.8966 60.2199 69.8952 60.2099L69.6107 58.2631C69.6092 58.2531 69.5999 58.2462 69.5899 58.2477Z" fill="#939496"/>
</svg>
