<svg width="45" height="68" viewBox="0 0 45 68" fill="none" xmlns="http://www.w3.org/2000/svg">
<path d="M26.5095 35.2212H20.2425C20.1301 35.2212 20.0391 35.3123 20.0391 35.4246V36.3841C20.0391 36.4965 20.1301 36.5875 20.2425 36.5875H26.5095C26.6218 36.5875 26.7129 36.4965 26.7129 36.3841V35.4246C26.7129 35.3123 26.6218 35.2212 26.5095 35.2212Z" fill="#A6BAC4"/>
<path d="M35.9098 11.0607L35.9402 12.093C35.9422 12.2185 35.8805 12.2813 35.755 12.2813L9.05967 12.2205C8.97527 12.2206 8.89408 12.1882 8.833 12.1299C8.77192 12.0717 8.73565 11.9921 8.73175 11.9078L8.69531 11.0698L8.69835 4.25931C8.69835 4.15405 8.75098 4.09332 8.85624 4.07713C10.8177 3.77046 13.7447 3.23 15.6363 3.76135C16.529 4.01235 17.445 4.11458 18.3842 4.06802C18.4874 4.06195 18.5563 4.01033 18.5907 3.91317C18.7364 3.49112 18.706 2.95977 18.8457 2.58326C20.3365 -1.50969 25.8384 -0.486455 25.9871 3.87673C25.9912 3.99211 26.0509 4.05081 26.1663 4.05284C27.569 4.08016 29.0538 3.60954 30.1712 3.56399C32.0537 3.48505 33.9129 3.6814 35.7489 4.15304C35.7921 4.16329 35.8306 4.18805 35.8581 4.22331C35.8857 4.25858 35.9007 4.30228 35.9007 4.34736L35.9098 11.0607ZM23.7615 3.64597C23.7615 3.26346 23.6096 2.89662 23.3391 2.62615C23.0686 2.35567 22.7018 2.20372 22.3193 2.20372C21.9368 2.20372 21.5699 2.35567 21.2994 2.62615C21.029 2.89662 20.877 3.26346 20.877 3.64597C20.877 4.02848 21.029 4.39532 21.2994 4.6658C21.5699 4.93627 21.9368 5.08822 22.3193 5.08822C22.7018 5.08822 23.0686 4.93627 23.3391 4.6658C23.6096 4.39532 23.7615 4.02848 23.7615 3.64597Z" fill="#5FA8B7"/>
<path d="M8.69297 11.0699L8.72941 11.9079C8.73332 11.9922 8.76958 12.0718 8.83066 12.13C8.89174 12.1883 8.97293 12.2207 9.05733 12.2207L35.7526 12.2814C35.8781 12.2814 35.9399 12.2186 35.9378 12.0931L35.9075 11.0608C37.7475 11.0881 40.2646 10.8513 41.8344 11.6438C43.1157 12.2895 44.0418 13.3431 44.6126 14.8046C44.6511 30.723 44.649 46.4804 44.6065 62.077C44.5974 65.8693 42.5023 67.4998 39.0197 67.5272C28.8177 67.6061 18.5165 67.6021 8.11607 67.515C7.32056 67.5211 6.41675 67.5261 5.40464 67.5302C4.39051 67.5342 3.58892 67.4077 2.99988 67.1506C0.321848 65.9877 0.00303632 63.8289 0.00303632 60.9414C-0.00101211 46.0817 -0.00101211 31.2219 0.00303632 16.3622C0.00303632 14.089 0.957452 12.503 2.86628 11.6043C4.78523 10.7025 6.75277 11.3067 8.69297 11.0699ZM41.3318 17.6767C41.3324 17.2967 41.2582 16.9203 41.1134 16.569C40.9686 16.2176 40.756 15.8983 40.4878 15.6291C40.2196 15.3599 39.901 15.1462 39.5501 15.0002C39.1993 14.8542 38.8232 14.7787 38.4432 14.778L6.27652 14.7219C5.50909 14.7205 4.77257 15.0241 4.22896 15.5658C3.68536 16.1075 3.37921 16.843 3.37787 17.6104L3.30209 61.0297C3.30142 61.4097 3.37561 61.7861 3.52042 62.1374C3.66522 62.4887 3.87781 62.8081 4.14604 63.0773C4.41427 63.3464 4.73288 63.5601 5.0837 63.7061C5.43451 63.8522 5.81066 63.9277 6.19065 63.9283L38.3573 63.9845C39.1248 63.9858 39.8613 63.6822 40.4049 63.1405C40.9485 62.5988 41.2546 61.8634 41.256 61.0959L41.3318 17.6767Z" fill="#375265"/>
<path d="M17.8715 30.1712C17.8715 30.652 17.6805 31.1131 17.3406 31.453C17.0006 31.7929 16.5396 31.9839 16.0588 31.9839H8.38299C7.90224 31.9839 7.44118 31.7929 7.10124 31.453C6.76129 31.1131 6.57031 30.652 6.57031 30.1712V22.8112C6.57031 22.3305 6.76129 21.8694 7.10124 21.5295C7.44118 21.1895 7.90224 20.9985 8.38299 20.9985H16.0588C16.5396 20.9985 17.0006 21.1895 17.3406 21.5295C17.6805 21.8694 17.8715 22.3305 17.8715 22.8112V30.1712ZM16.8359 22.8456C16.8357 22.7316 16.813 22.6187 16.7692 22.5134C16.7253 22.4082 16.6612 22.3125 16.5804 22.232C16.4997 22.1516 16.4038 22.0878 16.2984 22.0443C16.1929 22.0008 16.08 21.9786 15.9659 21.9788L8.44803 21.9919C8.33399 21.9921 8.22111 22.0148 8.11583 22.0586C8.01055 22.1024 7.91493 22.1665 7.83444 22.2473C7.75394 22.3281 7.69014 22.4239 7.64669 22.5294C7.60323 22.6348 7.58097 22.7478 7.58117 22.8618L7.59379 30.1004C7.59399 30.2144 7.61665 30.3273 7.66048 30.4326C7.7043 30.5379 7.76844 30.6335 7.84922 30.714C7.92999 30.7945 8.02583 30.8583 8.13127 30.9017C8.2367 30.9452 8.34966 30.9674 8.4637 30.9672L15.9816 30.9541C16.0957 30.9539 16.2085 30.9313 16.3138 30.8874C16.4191 30.8436 16.5147 30.7795 16.5952 30.6987C16.6757 30.6179 16.7395 30.5221 16.783 30.4167C16.8264 30.3112 16.8487 30.1983 16.8485 30.0842L16.8359 22.8456Z" fill="#A6BAC4"/>
<path d="M26.5363 22.0979L20.0507 22.1092C20.0055 22.1093 19.9688 22.1461 19.9689 22.1914L19.9709 23.3512C19.971 23.3965 20.0078 23.4331 20.053 23.4331L26.5386 23.4217C26.5839 23.4217 26.6205 23.3849 26.6204 23.3396L26.6184 22.1797C26.6183 22.1345 26.5816 22.0978 26.5363 22.0979Z" fill="#A6BAC4"/>
<path d="M12.1552 26.7125L14.9334 23.9343C14.9864 23.8812 15.0582 23.8512 15.1332 23.8506C15.2082 23.85 15.2804 23.879 15.3342 23.9313L15.9506 24.5294C15.9773 24.5557 15.9986 24.587 16.0132 24.6216C16.0279 24.6561 16.0355 24.6932 16.0358 24.7307C16.0361 24.7682 16.029 24.8054 16.0149 24.8402C16.0008 24.8749 15.98 24.9065 15.9536 24.9332L12.1248 28.8076C12.0983 28.8346 12.0666 28.856 12.0317 28.8706C11.9968 28.8853 11.9593 28.8928 11.9214 28.8928C11.8835 28.8928 11.8461 28.8853 11.8111 28.8706C11.7762 28.856 11.7445 28.8346 11.718 28.8076L8.82437 25.8958C8.77171 25.8424 8.74219 25.7704 8.74219 25.6954C8.74219 25.6204 8.77171 25.5484 8.82437 25.495L9.4286 24.8877C9.48121 24.8342 9.55275 24.8036 9.62775 24.8025C9.70276 24.8013 9.77519 24.8298 9.82939 24.8816L11.7575 26.7186C11.8115 26.7695 11.8833 26.7974 11.9576 26.7963C12.0318 26.7951 12.1027 26.7651 12.1552 26.7125Z" fill="#F39C32"/>
<path d="M37.4591 24.812L20.0672 24.8727C20.0085 24.8729 19.9611 24.9206 19.9613 24.9793L19.9651 26.0785C19.9654 26.1371 20.0131 26.1846 20.0718 26.1844L37.4637 26.1236C37.5224 26.1234 37.5698 26.0757 37.5696 26.017L37.5658 24.9179C37.5656 24.8592 37.5178 24.8118 37.4591 24.812Z" fill="#A6BAC4"/>
<path d="M37.3759 27.4443H20.16C20.0544 27.4443 19.9688 27.53 19.9688 27.6356V28.6255C19.9688 28.7311 20.0544 28.8168 20.16 28.8168H37.3759C37.4816 28.8168 37.5672 28.7311 37.5672 28.6255V27.6356C37.5672 27.53 37.4816 27.4443 37.3759 27.4443Z" fill="#A6BAC4"/>
<path d="M37.4822 29.9497H20.0598C20.0095 29.9497 19.9688 29.9905 19.9688 30.0408V31.225C19.9688 31.2753 20.0095 31.316 20.0598 31.316H37.4822C37.5325 31.316 37.5733 31.2753 37.5733 31.225V30.0408C37.5733 29.9905 37.5325 29.9497 37.4822 29.9497Z" fill="#A6BAC4"/>
<path d="M17.8445 43.3565C17.8437 43.5921 17.7965 43.8253 17.7055 44.0427C17.6146 44.2601 17.4817 44.4574 17.3145 44.6235C17.1473 44.7895 16.949 44.921 16.731 45.0105C16.513 45.0999 16.2794 45.1455 16.0438 45.1447L8.37413 45.1179C7.89821 45.1162 7.44245 44.9256 7.1071 44.5879C6.77175 44.2502 6.58429 43.7931 6.58595 43.3172L6.61179 35.9147C6.61261 35.679 6.65984 35.4458 6.75077 35.2284C6.84171 35.011 6.97458 34.8137 7.14179 34.6476C7.30901 34.4816 7.50729 34.3501 7.72532 34.2607C7.94335 34.1713 8.17685 34.1257 8.41251 34.1265L16.0822 34.1533C16.5581 34.1549 17.0139 34.3456 17.3492 34.6833C17.6846 35.021 17.872 35.4781 17.8704 35.954L17.8445 43.3565ZM16.84 35.99C16.8396 35.7742 16.7535 35.5674 16.6006 35.415C16.4478 35.2627 16.2407 35.1773 16.0249 35.1777L8.39155 35.191C8.17574 35.1914 7.96892 35.2775 7.81659 35.4303C7.66425 35.5832 7.57888 35.7903 7.57925 36.0061L7.59203 43.3297C7.59241 43.5455 7.6785 43.7524 7.83137 43.9047C7.98423 44.057 8.19135 44.1424 8.40716 44.142L16.0405 44.1287C16.2563 44.1283 16.4631 44.0422 16.6154 43.8894C16.7678 43.7365 16.8531 43.5294 16.8528 43.3136L16.84 35.99Z" fill="#A6BAC4"/>
<path d="M12.1551 39.8874L14.909 37.1C14.965 37.0439 15.0405 37.0115 15.1198 37.0098C15.199 37.0081 15.2758 37.0372 15.3341 37.0909L15.9444 37.6496C15.975 37.6776 15.9995 37.7115 16.0166 37.7493C16.0337 37.787 16.0429 37.8279 16.0437 37.8693C16.0446 37.9107 16.037 37.9519 16.0215 37.9903C16.006 38.0288 15.9829 38.0637 15.9535 38.0929L12.0974 41.952C12.0689 41.9806 12.0351 42.0033 11.9978 42.0187C11.9606 42.0342 11.9207 42.0421 11.8803 42.0421C11.84 42.0421 11.8001 42.0342 11.7628 42.0187C11.7255 42.0033 11.6917 41.9806 11.6632 41.952L8.81516 39.0979C8.75893 39.041 8.72714 38.9644 8.72657 38.8845C8.726 38.8045 8.7567 38.7275 8.81212 38.6698L9.41939 38.0291C9.44752 37.9997 9.48123 37.9762 9.51854 37.96C9.55586 37.9437 9.59603 37.935 9.63673 37.9345C9.67742 37.9339 9.71783 37.9415 9.75558 37.9567C9.79333 37.9719 9.82768 37.9944 9.85662 38.0231L11.7209 39.8874C11.7494 39.9159 11.7832 39.9386 11.8205 39.954C11.8577 39.9695 11.8977 39.9774 11.938 39.9774C11.9783 39.9774 12.0183 39.9695 12.0555 39.954C12.0928 39.9386 12.1266 39.9159 12.1551 39.8874Z" fill="#F39C32"/>
<path d="M37.4196 37.9654L20.0945 38.0259C20.0208 38.0262 19.9611 38.0862 19.9614 38.16L19.9651 39.2287C19.9654 39.3025 20.0254 39.3621 20.0992 39.3619L37.4243 39.3014C37.4981 39.3011 37.5577 39.2411 37.5574 39.1673L37.5537 38.0986C37.5535 38.0248 37.4934 37.9652 37.4196 37.9654Z" fill="#A6BAC4"/>
<path d="M37.4306 40.6255H20.0507C20.0055 40.6255 19.9688 40.6622 19.9688 40.7075V41.8916C19.9688 41.9369 20.0055 41.9736 20.0507 41.9736H37.4306C37.4759 41.9736 37.5126 41.9369 37.5126 41.8916V40.7075C37.5126 40.6622 37.4759 40.6255 37.4306 40.6255Z" fill="#A6BAC4"/>
<path d="M37.4366 43.0847L20.0872 43.115C20.0218 43.1151 19.9688 43.1683 19.969 43.2337L19.9709 44.3753C19.9711 44.4407 20.0242 44.4936 20.0896 44.4935L37.4391 44.4632C37.5045 44.4631 37.5574 44.41 37.5573 44.3446L37.5553 43.203C37.5552 43.1376 37.502 43.0846 37.4366 43.0847Z" fill="#A6BAC4"/>
<path d="M17.8281 56.2477C17.8273 56.7212 17.6384 57.175 17.303 57.5092C16.9676 57.8435 16.5131 58.0308 16.0396 58.0299L8.37598 58.0166C7.90248 58.0157 7.4487 57.8268 7.11447 57.4914C6.78024 57.156 6.59293 56.7016 6.59375 56.2281L6.60672 48.8013C6.60754 48.3278 6.79644 47.874 7.13184 47.5398C7.46723 47.2055 7.92167 47.0182 8.39517 47.019L16.0588 47.0324C16.5323 47.0333 16.9861 47.2222 17.3203 47.5576C17.6546 47.893 17.8419 48.3474 17.8411 48.8209L17.8281 56.2477ZM16.8354 48.8637C16.8352 48.7513 16.8128 48.64 16.7696 48.5362C16.7264 48.4324 16.6632 48.3381 16.5835 48.2587C16.5039 48.1793 16.4094 48.1164 16.3054 48.0736C16.2014 48.0307 16.0901 48.0088 15.9776 48.009L8.43543 48.0222C8.32299 48.0223 8.21168 48.0447 8.10788 48.0879C8.00407 48.1311 7.90978 48.1943 7.83041 48.274C7.75104 48.3536 7.68813 48.4481 7.64528 48.5521C7.60243 48.6561 7.58048 48.7674 7.58068 48.8799L7.59337 56.161C7.59357 56.2734 7.61591 56.3847 7.65912 56.4885C7.70233 56.5923 7.76557 56.6866 7.84522 56.766C7.92487 56.8454 8.01937 56.9083 8.12334 56.9511C8.2273 56.994 8.33868 57.0159 8.45113 57.0157L15.9933 57.0025C16.1058 57.0023 16.2171 56.98 16.3209 56.9368C16.4247 56.8936 16.519 56.8304 16.5983 56.7507C16.6777 56.6711 16.7406 56.5766 16.7835 56.4726C16.8263 56.3686 16.8483 56.2573 16.8481 56.1448L16.8354 48.8637Z" fill="#A6BAC4"/>
<path d="M26.4384 48.064L20.111 48.1192C20.0238 48.12 19.9537 48.1913 19.9545 48.2785L19.964 49.3654C19.9647 49.4526 20.0361 49.5227 20.1232 49.522L26.4507 49.4667C26.5379 49.466 26.608 49.3947 26.6072 49.3075L26.5977 48.2205C26.5969 48.1333 26.5256 48.0632 26.4384 48.064Z" fill="#A6BAC4"/>
<path d="M11.8665 52.8556C11.8916 52.8805 11.9254 52.8944 11.9607 52.8944C11.9959 52.8944 12.0297 52.8805 12.0548 52.8556L14.9727 49.9377C15.0557 49.8527 15.1447 49.8456 15.2399 49.9165L15.8198 50.3476C15.8759 50.3897 15.9224 50.4432 15.9561 50.5046C15.9898 50.566 16.0099 50.6339 16.0151 50.7036C16.0203 50.7733 16.0104 50.8432 15.9861 50.9085C15.9619 50.9739 15.9238 51.0332 15.8745 51.0824L12.0548 54.9021C12.0377 54.9194 12.0173 54.9332 11.9948 54.9426C11.9723 54.952 11.9481 54.9568 11.9236 54.9568C11.8991 54.9568 11.8747 54.952 11.8519 54.9426C11.8291 54.9332 11.8082 54.9194 11.7906 54.9021L8.81199 51.9235C8.7628 51.874 8.73495 51.8072 8.73438 51.7374C8.73382 51.6676 8.76058 51.6003 8.80895 51.55L9.48909 50.8638C9.51373 50.8385 9.54313 50.8184 9.57559 50.8046C9.60806 50.7907 9.64294 50.7835 9.67822 50.7832C9.71351 50.7829 9.7485 50.7896 9.78118 50.8029C9.81386 50.8162 9.84359 50.8359 9.86863 50.8608L11.8665 52.8556Z" fill="#F39C32"/>
<path d="M37.441 50.8242H20.0915C20.0194 50.8242 19.9609 50.8827 19.9609 50.9548V52.06C19.9609 52.1321 20.0194 52.1906 20.0915 52.1906H37.441C37.5131 52.1906 37.5716 52.1321 37.5716 52.06V50.9548C37.5716 50.8827 37.5131 50.8242 37.441 50.8242Z" fill="#A6BAC4"/>
<path d="M37.3894 53.481H20.1431C20.0425 53.481 19.9609 53.5625 19.9609 53.6631V54.6651C19.9609 54.7657 20.0425 54.8473 20.1431 54.8473H37.3894C37.49 54.8473 37.5716 54.7657 37.5716 54.6651V53.6631C37.5716 53.5625 37.49 53.481 37.3894 53.481Z" fill="#A6BAC4"/>
<path d="M37.4137 55.9858H20.1188C20.0316 55.9858 19.9609 56.0565 19.9609 56.1437V57.1943C19.9609 57.2815 20.0316 57.3522 20.1188 57.3522H37.4137C37.5009 57.3522 37.5716 57.2815 37.5716 57.1943V56.1437C37.5716 56.0565 37.5009 55.9858 37.4137 55.9858Z" fill="#A6BAC4"/>
</svg>
