<svg width="20" height="19" viewBox="0 0 20 19" fill="none" xmlns="http://www.w3.org/2000/svg">
<path d="M8.87637 13.0244V14.8514C8.87637 16.3994 7.43637 17.6504 5.66339 17.6504C3.89041 17.6504 2.44141 16.3994 2.44141 14.8514V13.0244C2.44141 14.5724 3.88141 15.6704 5.66339 15.6704C7.43637 15.6704 8.87637 14.5634 8.87637 13.0244Z" stroke="#29325B" stroke-width="2" stroke-linecap="round" stroke-linejoin="round"/>
<path d="M8.87558 10.5488C8.87558 10.9988 8.74958 11.4127 8.53358 11.7727C8.00255 12.6457 6.91355 13.1947 5.65356 13.1947C4.39357 13.1947 3.30458 12.6367 2.77358 11.7727C2.55759 11.4127 2.43164 10.9988 2.43164 10.5488C2.43164 9.77477 2.79162 9.08177 3.36761 8.57778C3.95261 8.06479 4.75356 7.75879 5.64455 7.75879C6.53554 7.75879 7.33656 8.07379 7.92155 8.57778C8.51558 9.07277 8.87558 9.77477 8.87558 10.5488Z" stroke="#29325B" stroke-width="2" stroke-linecap="round" stroke-linejoin="round"/>
<path d="M8.87637 10.549V13.0239C8.87637 14.5719 7.43637 15.6699 5.66339 15.6699C3.89041 15.6699 2.44141 14.5629 2.44141 13.0239V10.549C2.44141 9.00099 3.88141 7.75 5.66339 7.75C6.55438 7.75 7.3554 8.065 7.94039 8.56899C8.51637 9.07299 8.87637 9.77498 8.87637 10.549Z" stroke="#29325B" stroke-width="2" stroke-linecap="round" stroke-linejoin="round"/>
<path d="M19 7.72263V9.5767C19 10.0717 18.604 10.4766 18.1 10.4946H16.3359C15.3639 10.4946 14.473 9.78361 14.392 8.81162C14.338 8.24463 14.5539 7.71363 14.9319 7.34464C15.2649 7.00264 15.724 6.80469 16.228 6.80469H18.1C18.604 6.82269 19 7.22764 19 7.72263Z" stroke="#29325B" stroke-width="2" stroke-linecap="round" stroke-linejoin="round"/>
<path d="M1 7.29993V5.49995C1 3.05198 2.47598 1.342 4.77096 1.054C5.00496 1.018 5.24795 1 5.49995 1H13.5999C13.8339 1 14.0589 1.00899 14.2749 1.04499C16.5968 1.31499 18.0998 3.03398 18.0998 5.49995V6.80494H16.2278C15.7238 6.80494 15.2648 7.00293 14.9318 7.34493C14.5538 7.71393 14.3379 8.24492 14.3918 8.81191C14.4728 9.7839 15.3638 10.4949 16.3358 10.4949H18.0998V11.7999C18.0998 14.4998 16.2998 16.2998 13.5999 16.2998H11.3499" stroke="#29325B" stroke-width="2" stroke-linecap="round" stroke-linejoin="round"/>
</svg>
