<svg width="20" height="21" viewBox="0 0 20 21" fill="none" xmlns="http://www.w3.org/2000/svg">
<path d="M18.9998 9.9999V7.29993C18.9998 2.79998 17.1998 1 12.6999 1H7.29993C2.79998 1 1 2.79998 1 7.29993V12.6999C1 17.1998 2.79998 18.9998 7.29993 18.9998H9.9999" stroke="#29325B" stroke-width="2" stroke-linecap="round" stroke-linejoin="round"/>
<path d="M18.064 15.2556L16.597 15.7506C16.192 15.8856 15.8681 16.2006 15.7331 16.6146L15.2381 18.0816C14.8151 19.3506 13.0331 19.3236 12.6371 18.0546L10.9721 12.6996C10.6481 11.6376 11.6291 10.6477 12.6821 10.9806L18.046 12.6456C19.306 13.0416 19.324 14.8326 18.064 15.2556Z" stroke="#29325B" stroke-width="2" stroke-linecap="round" stroke-linejoin="round"/>
</svg>
