<svg width="24" height="24" viewBox="0 0 24 24" fill="none" xmlns="http://www.w3.org/2000/svg">
<path d="M12.7442 18.4036L15.3089 15.8389C15.6515 15.4963 16.1906 15.4486 16.588 15.7258L20.1388 18.2023C20.6493 18.5584 20.714 19.2894 20.2738 19.7296L19.8876 20.1159C19.1773 20.8261 18.1581 21.1338 17.202 20.826C15.137 20.1613 11.3801 18.6179 8.26517 15.503C5.1502 12.388 3.60682 8.63109 2.94213 6.56614C2.63435 5.60999 2.94201 4.59084 3.65227 3.88058L4.03854 3.49432C4.47871 3.05415 5.20975 3.11879 5.56586 3.62937L8.0423 7.18011C8.31952 7.57758 8.27185 8.11661 7.9292 8.45927L5.36455 11.0239" stroke="black" stroke-linecap="round"/>
</svg>
