<svg width="59" height="59" viewBox="0 0 59 59" fill="none" xmlns="http://www.w3.org/2000/svg">
<path d="M35.6723 28.3207L46.131 28.3173C46.1725 28.3173 46.2094 28.3046 46.2416 28.2792C47.0944 27.6074 47.8883 27.3712 49.028 27.37C50.5007 27.3685 51.9726 27.3666 53.4438 27.3643C55.2795 27.362 56.2359 28.5028 56.2359 30.2762C56.2344 36.7785 56.234 43.2812 56.2348 49.7843C56.2359 51.023 55.6989 52.0256 54.4936 52.4462C54.1917 52.5514 53.7526 52.6044 53.1764 52.6052C51.766 52.606 50.3559 52.6075 48.9462 52.6098C47.8737 52.6114 46.9376 52.2664 46.1379 51.575C46.1087 51.5504 46.0749 51.5381 46.0365 51.5381C36.9422 51.5389 27.8487 51.5385 18.7559 51.537C17.672 51.537 16.9041 51.5186 16.4524 51.4817C9.4012 50.9124 3.78238 45.5425 2.87779 38.5328C2.80404 37.9651 2.76716 37.1991 2.76716 36.235C2.76563 30.8682 2.76524 25.5021 2.76601 20.1368C2.76601 19.0843 2.81902 18.3203 2.92503 17.8448C3.68673 14.4246 7.18755 12.0416 10.2032 10.7555C16.3268 8.14548 23.3549 7.70759 29.9314 8.6721C35.004 9.41652 43.3608 12.045 44.6791 17.869C44.7735 18.2884 44.8219 18.9065 44.8242 19.7231C44.8281 21.5691 44.8285 23.4148 44.8254 25.2601C44.8246 25.5728 44.7739 25.8094 44.6733 25.9699C44.3622 26.4666 43.6823 26.515 43.2674 26.122C42.8226 25.6991 42.9932 24.4362 42.9747 23.8496C42.9732 23.7935 42.9536 23.7859 42.916 23.8266C40.9489 25.9434 38.3999 27.3862 35.6631 28.2677C35.6567 28.2693 35.6511 28.2732 35.6476 28.2787C35.644 28.2841 35.6427 28.2908 35.6439 28.2973C35.645 28.3039 35.6485 28.3099 35.6538 28.3142C35.659 28.3185 35.6656 28.3208 35.6723 28.3207ZM29.3921 10.479C23.575 9.61587 17.4941 10.0238 11.9778 12.0611C8.97023 13.172 3.86995 15.986 4.71693 19.9824C5.56159 23.9626 11.094 26.2119 14.49 27.1131C21.6771 29.0179 30.3439 28.7909 37.1831 25.66C40.4638 24.1584 44.7609 20.8316 42.2004 16.6682C41.4617 15.4686 40.2206 14.4281 39.0556 13.7205C36.154 11.9586 32.8076 10.9849 29.3921 10.479ZM24.5188 30.1875C17.8686 30.2682 9.50146 28.943 4.65585 23.86C4.65215 23.8564 4.64748 23.854 4.64242 23.853C4.63736 23.852 4.63212 23.8525 4.62735 23.8545C4.62258 23.8565 4.61848 23.8598 4.61556 23.864C4.61264 23.8683 4.61103 23.8733 4.61091 23.8784C4.60937 27.9815 4.60937 32.09 4.61091 36.2039C4.61091 37.1734 4.6524 37.9397 4.73536 38.5028C5.72177 45.2095 11.4155 49.8742 18.1878 49.684C18.2008 49.6837 18.2131 49.6784 18.2221 49.6691C18.2312 49.6598 18.2362 49.6474 18.2362 49.6345C18.2362 47.9428 18.2362 46.2508 18.2362 44.5584C18.2355 44.1835 18.2862 43.9112 18.3883 43.7414C18.7456 43.1479 19.6536 43.1883 19.974 43.8243C20.0423 43.9596 20.0769 44.177 20.0777 44.4766C20.0807 46.2005 20.0811 47.9213 20.0788 49.6391C20.0788 49.6537 20.0848 49.6678 20.0954 49.6782C20.1059 49.6886 20.1203 49.6944 20.1353 49.6944H24.6548C24.6781 49.6944 24.7005 49.6852 24.7171 49.6688C24.7337 49.6524 24.7432 49.6301 24.7435 49.6068C24.7481 46.8051 24.7489 43.9987 24.7458 41.1878C24.7447 39.7335 26.5826 39.813 26.585 41.167C26.5903 43.9419 26.5911 46.7632 26.5873 49.631C26.5873 49.6478 26.5939 49.6639 26.6058 49.6758C26.6177 49.6877 26.6338 49.6944 26.6506 49.6944H30.9431C30.9504 49.6944 30.9576 49.693 30.9643 49.6902C30.971 49.6874 30.9771 49.6833 30.9822 49.6782C30.9874 49.6731 30.9914 49.667 30.9942 49.6602C30.997 49.6535 30.9984 49.6463 30.9984 49.6391C30.9977 47.9444 30.998 46.2535 30.9996 44.5665C30.9996 44.1908 31.0495 43.9181 31.1494 43.7483C31.5032 43.1479 32.4204 43.186 32.7385 43.822C32.8053 43.9565 32.8391 44.175 32.8399 44.4777C32.8429 46.2016 32.8433 47.9221 32.841 49.6391C32.841 49.6537 32.847 49.6678 32.8576 49.6782C32.8682 49.6886 32.8825 49.6944 32.8975 49.6944H37.425C37.4361 49.6944 37.447 49.6922 37.4572 49.688C37.4674 49.6838 37.4767 49.6776 37.4845 49.6698C37.4923 49.6619 37.4985 49.6527 37.5028 49.6425C37.507 49.6323 37.5092 49.6213 37.5092 49.6103C37.5099 46.817 37.5096 44.026 37.508 41.2373C37.5069 39.7024 39.3483 39.8614 39.3495 41.0875C39.3541 43.9162 39.3545 46.7647 39.3506 49.6333C39.3506 49.6495 39.357 49.665 39.3685 49.6765C39.38 49.688 39.3955 49.6944 39.4117 49.6944H44.8853C44.8951 49.6943 44.9048 49.6919 44.9136 49.6874C44.9223 49.683 44.9298 49.6765 44.9356 49.6687C44.9413 49.6608 44.9451 49.6517 44.9465 49.6422C44.948 49.6326 44.9472 49.6229 44.9441 49.6137C44.8458 49.3187 44.7974 49.0191 44.7989 48.7149C44.8173 42.8326 44.8266 36.9499 44.8266 31.0668C44.8266 30.7821 44.9003 30.5275 44.9556 30.2382C44.9648 30.1883 44.9441 30.1633 44.8934 30.1633C38.1038 30.1599 31.3061 30.1057 24.5188 30.1875ZM49.2193 35.993C51.2993 36.5346 52.084 38.2839 51.9987 40.3143C51.9273 42.0509 51.0123 43.4314 49.3069 43.935C48.5532 44.1574 47.5887 44.0767 46.7475 44.0767C46.7272 44.0767 46.7078 44.0848 46.6933 44.0993C46.6789 44.1137 46.6706 44.1333 46.6703 44.1539C46.6695 45.3854 46.6699 46.613 46.6715 47.8368C46.6726 49.0963 46.8316 50.1473 48.045 50.5967C48.36 50.7134 48.9277 50.7691 49.7482 50.7638C50.9697 50.7561 52.1908 50.7515 53.4115 50.7499C53.7872 50.7492 54.0902 50.6286 54.3207 50.3881C54.3658 50.3416 54.391 50.2792 54.391 50.2141V29.7323C54.391 29.6993 54.3814 29.6693 54.3622 29.6425C54.1625 29.3567 53.9289 29.2138 53.6616 29.2138C52.1305 29.2138 50.5979 29.2115 49.0637 29.2069C48.0393 29.2034 47.235 29.5514 46.8512 30.5228C46.7329 30.8217 46.6726 31.321 46.6703 32.0209C46.6665 33.2739 46.6672 34.5334 46.6726 35.7994C46.6734 35.844 46.696 35.8663 46.7406 35.8663C47.5691 35.8651 48.491 35.8029 49.2193 35.993ZM46.6784 37.7561L46.6622 42.1834C46.6622 42.1987 46.6683 42.2133 46.6791 42.2242C46.6899 42.235 46.7046 42.241 46.7199 42.241L48.234 42.2456C48.4855 42.2466 48.7348 42.1986 48.9675 42.1045C49.2002 42.0105 49.4119 41.8721 49.5903 41.6974C49.7688 41.5226 49.9107 41.3149 50.0077 41.0861C50.1048 40.8573 50.1552 40.6119 50.1561 40.3639L50.1584 39.5987C50.1603 39.0978 49.9602 38.6167 49.6024 38.2612C49.2445 37.9057 48.7581 37.705 48.2502 37.7031L46.736 37.6985C46.7207 37.6985 46.7061 37.7046 46.6952 37.7154C46.6844 37.7262 46.6784 37.7408 46.6784 37.7561Z" fill="black"/>
<path d="M31.8567 19.4761C32.2013 18.5001 30.6064 17.6278 29.8551 17.2901C28.6451 16.7439 29.3988 15.1375 30.5672 15.61C31.7184 16.0744 32.9146 16.8856 33.4585 17.9838C34.2271 19.5337 33.432 21.0329 32.01 21.9905C30.7205 22.8605 29.068 23.3779 27.5135 23.6511C23.8779 24.2883 19.5624 24.112 16.2494 22.3904C14.4298 21.4443 12.9467 19.4554 14.4448 17.4699C16.4752 14.7792 21.806 14.2422 24.8839 14.4277C25.2342 14.4484 25.4827 14.5091 25.6294 14.6098C26.2321 15.02 26.0892 15.958 25.4255 16.2046C25.2826 16.2584 25.0391 16.2768 24.6949 16.2599C22.215 16.1424 19.5912 16.4282 17.3095 17.5102C16.7437 17.7787 15.8391 18.3722 15.6962 19.0094C15.3793 20.4314 18.8548 21.5261 19.8193 21.7289C23.1634 22.4307 27.2151 22.3351 30.2699 20.8785C30.868 20.5939 31.6458 20.0753 31.8567 19.4761Z" fill="black"/>
</svg>
