<svg width="59" height="59" viewBox="0 0 59 59" fill="none" xmlns="http://www.w3.org/2000/svg">
<path d="M59 28.8156V30.2561C58.6743 37.2623 56.1153 43.2138 51.3231 48.1105C46.3081 53.2338 39.5012 55.9038 32.3244 55.9349C29.6717 55.9464 27.1469 55.9914 25.3596 55.9072C15.8793 55.4578 7.4983 50.1985 3.05256 41.8267C2.88048 41.5026 2.80365 41.2364 2.82209 41.0282C2.8751 40.4543 3.64486 40.1017 4.13807 40.4336C4.26636 40.5204 4.39734 40.689 4.53102 40.9394C7.00971 45.5949 10.832 49.3804 15.5785 51.6874C26.5777 57.0331 40.0347 53.5691 46.8831 43.3467C52.8119 34.4955 52.5457 22.7048 45.8932 14.2892C40.2871 7.19766 31.5304 3.72796 22.5986 5.10385C13.0941 6.56733 5.1118 13.6381 2.61582 22.9444C1.296 27.8626 1.45579 32.7551 3.0952 37.6218C3.49852 38.8191 1.87371 39.3411 1.4773 38.2199C0.573099 35.6617 0.0806641 32.9449 0 30.0694V29.0611C0.305371 14.9403 11.3656 3.68301 25.4461 3.09532C27.0616 3.02771 29.6513 3.03232 33.2152 3.10915C47.4155 3.41567 58.4999 14.7513 59 28.8156ZM46.8543 9.34794C43.8643 7.2499 40.5702 5.86325 36.9718 5.18797C36.9638 5.18671 36.9555 5.18839 36.9485 5.19269C36.9415 5.197 36.9363 5.20363 36.9339 5.21132C36.9315 5.21901 36.932 5.22722 36.9354 5.23439C36.9388 5.24156 36.9448 5.24719 36.9522 5.2502C39.3752 6.30421 41.59 7.6901 43.5966 9.40786C43.6516 9.45471 43.7219 9.48045 43.7948 9.48045L46.8151 9.47239C46.9595 9.47239 46.9726 9.4309 46.8543 9.34794ZM49.1843 11.2263C49.1502 11.1951 49.1063 11.1778 49.061 11.1779H45.5833C45.5738 11.1779 45.5646 11.1808 45.5568 11.186C45.5489 11.1913 45.5428 11.1987 45.5391 11.2074C45.5354 11.2161 45.5344 11.2257 45.5361 11.235C45.5378 11.2443 45.5422 11.2528 45.5487 11.2597C46.8747 12.6448 48.0362 14.1567 49.0334 15.7953C49.0526 15.8268 49.081 15.8425 49.1187 15.8425L53.0885 15.8483C53.0956 15.8483 53.1025 15.8463 53.1086 15.8426C53.1146 15.839 53.1196 15.8337 53.1229 15.8274C53.1262 15.8212 53.1278 15.8141 53.1274 15.807C53.127 15.8 53.1247 15.7931 53.1207 15.7872C51.9884 14.1125 50.6762 12.5922 49.1843 11.2263ZM50.0993 17.6517C50.2552 18.0527 50.4185 18.4422 50.589 18.8202C51.118 19.9979 51.4844 21.0223 51.8382 22.185C51.8431 22.2011 51.853 22.2151 51.8665 22.225C51.88 22.235 51.8963 22.2404 51.9131 22.2404H56.141C56.1457 22.2404 56.1502 22.2393 56.1543 22.2372C56.1585 22.2352 56.1621 22.2322 56.1649 22.2285C56.1677 22.2248 56.1696 22.2205 56.1704 22.216C56.1713 22.2115 56.1711 22.2068 56.1698 22.2023C55.6713 20.6175 55.026 19.0952 54.2339 17.6356C54.2116 17.5941 54.1767 17.5734 54.129 17.5734H50.1535C50.0974 17.5734 50.0793 17.5995 50.0993 17.6517ZM57.1862 28.637C57.1941 28.637 57.202 28.6354 57.2092 28.6323C57.2165 28.6292 57.2231 28.6247 57.2286 28.619C57.2341 28.6133 57.2384 28.6065 57.2412 28.5991C57.244 28.5917 57.2453 28.5839 57.245 28.5759C57.1858 27.0349 56.9892 25.5115 56.655 24.0057C56.6526 23.9953 56.6468 23.9859 56.6384 23.9792C56.63 23.9725 56.6196 23.9689 56.6089 23.9689H52.3279C52.3218 23.969 52.3158 23.9703 52.3103 23.9729C52.3048 23.9755 52.3 23.9793 52.2961 23.9839C52.2923 23.9885 52.2895 23.9939 52.288 23.9997C52.2866 24.0055 52.2864 24.0115 52.2876 24.0173C52.5964 25.5238 52.7808 27.046 52.8407 28.584C52.8423 28.6178 52.8599 28.6347 52.8937 28.6347L57.1862 28.637ZM52.828 30.7896C52.7505 32.2001 52.5711 33.5906 52.2899 34.9611C52.288 34.9695 52.2881 34.9783 52.2901 34.9867C52.2921 34.9951 52.296 35.003 52.3015 35.0097C52.3071 35.0165 52.3141 35.0219 52.322 35.0257C52.33 35.0294 52.3387 35.0314 52.3475 35.0314H56.5513C56.5768 35.0315 56.6015 35.0228 56.6214 35.0069C56.6414 34.991 56.6552 34.9687 56.6607 34.9438C56.9942 33.4557 57.1889 31.9496 57.245 30.4255C57.2465 30.3847 57.2269 30.3644 57.1862 30.3644H52.8983C52.8522 30.3644 52.8307 30.387 52.8338 30.4324C52.8384 30.51 52.8365 30.629 52.828 30.7896ZM51.8209 36.8498C51.3738 38.4039 50.7865 39.9035 50.059 41.3485C50.0546 41.357 50.0525 41.3664 50.0528 41.3759C50.0532 41.3855 50.056 41.3947 50.061 41.4028C50.066 41.4109 50.073 41.4176 50.0813 41.4222C50.0896 41.4269 50.099 41.4293 50.1085 41.4292L54.1406 41.4257C54.1844 41.4257 54.2166 41.4065 54.2374 41.3681C55.0217 39.9223 55.662 38.4162 56.1583 36.8498C56.1775 36.7899 56.156 36.7599 56.0938 36.7599H51.9396C51.9127 36.7599 51.8866 36.7687 51.8651 36.7849C51.8437 36.8011 51.8282 36.8239 51.8209 36.8498ZM45.5982 47.8017L49.0991 47.7901C49.1421 47.7901 49.1793 47.7755 49.2108 47.7463C50.6943 46.385 51.9984 44.8701 53.123 43.2015C53.1262 43.1966 53.128 43.191 53.1283 43.1852C53.1286 43.1794 53.1274 43.1737 53.1248 43.1686C53.1222 43.1636 53.1183 43.1593 53.1136 43.1564C53.1088 43.1535 53.1033 43.1519 53.0977 43.1519L49.1175 43.1566C49.0799 43.1566 49.051 43.1727 49.0311 43.2049C48.0385 44.8367 46.8827 46.342 45.5637 47.721C45.5573 47.728 45.5531 47.7366 45.5515 47.7459C45.5499 47.7552 45.5511 47.7647 45.5547 47.7733C45.5584 47.7819 45.5645 47.7891 45.5722 47.7942C45.5799 47.7992 45.589 47.8018 45.5982 47.8017ZM37.117 53.8169C40.6985 53.1116 43.9742 51.7023 46.9442 49.5889C46.9505 49.5844 46.9552 49.578 46.9576 49.5707C46.9601 49.5634 46.9602 49.5554 46.9579 49.548C46.9556 49.5406 46.951 49.5342 46.9449 49.5295C46.9387 49.5248 46.9312 49.5223 46.9234 49.5221H43.7361C43.7007 49.5221 43.6692 49.5336 43.6416 49.5567C41.8378 51.0939 39.8684 52.3772 37.7335 53.4066C37.4808 53.5288 37.2153 53.6364 36.9372 53.7293C36.9291 53.732 36.9219 53.7372 36.9168 53.7442C36.9117 53.7511 36.9089 53.7595 36.9088 53.7681C36.9087 53.7767 36.9112 53.7851 36.9161 53.7922C36.921 53.7993 36.928 53.8047 36.9361 53.8077C36.9898 53.8269 37.0502 53.8299 37.117 53.8169Z" fill="black"/>
<path d="M6.72492 28.6079C6.07269 42.4764 19.8086 52.7392 32.9834 48.0998C45.1855 43.8016 49.8813 29.2544 42.8186 18.5076C42.1249 17.4532 43.5411 16.5049 44.2602 17.5788C48.4179 23.7877 49.0413 31.8725 45.8816 38.5377C40.4344 50.03 26.5372 54.3951 15.553 47.9731C5.34326 42.0039 1.90005 28.6655 8.02822 18.4857C10.0091 15.1946 12.9361 12.3656 16.3677 10.5668C24.9043 6.09228 35.0242 7.67676 41.8195 14.5597C42.7311 15.4816 41.5534 16.7008 40.6061 15.7731C40.0999 15.2768 39.6881 14.8908 39.3708 14.615C34.7084 10.5599 28.5261 8.97084 22.5282 10.1681C13.6586 11.9381 7.14668 19.63 6.72492 28.6079Z" fill="black"/>
<path d="M29.6371 15.7641C35.1914 16.6791 38.6196 22.3728 36.6675 27.6782C35.6615 30.4127 33.2393 32.5088 30.4264 33.2509C29.8457 33.4038 29.0859 33.4972 28.1471 33.531C26.9425 33.5747 25.7372 33.5813 24.531 33.5505C24.4826 33.549 24.4584 33.5724 24.4584 33.6208V34.144C24.4584 34.197 24.4853 34.2235 24.5391 34.2235C26.6533 34.2258 28.7663 34.2258 30.8782 34.2235C31.4497 34.2235 31.8872 34.275 32.1907 34.3779C33.6611 34.878 34.3628 36.5939 33.5954 38.009C32.7599 39.5473 31.4405 39.4321 29.9309 39.4033C29.039 39.386 28.676 38.2786 29.4412 37.8246C30.0934 37.4374 31.0487 37.9064 31.7113 37.5837C32.314 37.2887 32.352 36.4245 31.7827 36.0869C31.6352 35.9993 31.4055 35.9551 31.0936 35.9543C28.633 35.952 26.1716 35.952 23.7094 35.9543C22.8867 35.9555 22.7334 35.4116 22.7311 34.6798C22.7288 34.0576 22.7295 33.4353 22.7334 32.813C22.738 32.0663 23.1874 31.8336 23.8892 31.8359C26.3514 31.8451 27.9597 31.8305 28.7141 31.7921C31.5177 31.6492 34.0794 29.6349 35.0566 27.0329C36.6042 22.911 33.9457 18.4491 29.7396 17.5399C29.2341 17.4308 28.4701 17.3751 27.4476 17.3728C25.683 17.3705 23.9184 17.3701 22.1538 17.3716C21.3356 17.3728 21.0037 17.6459 21.0026 18.456C21.0003 24.0003 21.0003 29.5446 21.0026 35.0889C21.0026 36.5904 18.5273 35.5798 17.7103 36.1145C17.2263 36.4303 17.2667 37.2991 17.8002 37.5688C18.7313 38.0389 20.9887 36.9684 20.998 38.6612C21.0026 39.3326 21.0037 40.0044 21.0014 40.6766C20.998 41.9096 22.7219 41.9938 22.7276 40.6455C22.7307 39.9741 22.7319 39.3034 22.7311 38.6335C22.7311 37.8834 23.2312 37.6828 23.9168 37.6817C24.5322 37.6805 26.3725 37.5307 26.8415 37.7912C27.4269 38.1161 27.4292 38.9723 26.8542 39.2823C26.3725 39.5427 25.1095 39.4079 24.5264 39.4125C24.4826 39.4133 24.4604 39.4352 24.4596 39.4782C24.4538 40.1293 24.5184 40.8852 24.3674 41.451C23.8143 43.5195 21.0959 44.0472 19.7938 42.3037C19.1807 41.4821 19.2499 40.4738 19.2867 39.4863C19.289 39.4417 19.2679 39.4183 19.2233 39.416C18.8753 39.3952 18.4582 39.4333 18.177 39.4079C15.0957 39.1383 14.6935 35.0866 17.655 34.2973C18.1148 34.1751 18.6933 34.2339 19.1934 34.2212C19.2146 34.2209 19.2348 34.2123 19.2497 34.1972C19.2646 34.1821 19.2729 34.1617 19.2729 34.1405C19.2744 29.2093 19.2737 24.3053 19.2706 19.4286C19.2706 18.3968 19.3309 17.7043 19.4515 17.3509C19.8675 16.1363 20.9277 15.6362 22.1676 15.6397C23.8915 15.6435 25.6154 15.6447 27.3393 15.6431C28.3818 15.6424 29.1477 15.6827 29.6371 15.7641Z" fill="black"/>
<path d="M22.7622 19.9974C22.7624 19.8759 22.7865 19.7556 22.8331 19.6434C22.8797 19.5312 22.948 19.4293 23.0341 19.3435C23.1201 19.2576 23.2222 19.1896 23.3345 19.1432C23.4468 19.0969 23.5672 19.0731 23.6887 19.0732L27.9558 19.0813C29.4979 19.0839 30.9758 19.6675 32.0646 20.7037C33.1533 21.7399 33.7636 23.1439 33.7613 24.6068C33.7602 25.3312 33.6087 26.0484 33.3154 26.7172C33.0221 27.386 32.5928 27.9935 32.0519 28.5049C31.5111 29.0163 30.8694 29.4216 30.1634 29.6976C29.4575 29.9737 28.7011 30.1151 27.9374 30.1138L23.6703 30.1058C23.5488 30.1056 23.4285 30.0815 23.3163 30.0349C23.204 29.9883 23.1021 29.92 23.0163 29.8339C22.9305 29.7479 22.8625 29.6458 22.8161 29.5335C22.7697 29.4212 22.7459 29.3008 22.7461 29.1793L22.7622 19.9974ZM24.4735 20.8813L24.4988 28.3185C24.4988 28.3344 24.5051 28.3496 24.5164 28.3609C24.5276 28.3721 24.5428 28.3784 24.5587 28.3784L28.0411 28.3669C28.5675 28.3651 29.0883 28.2656 29.574 28.0741C30.0596 27.8825 30.5005 27.6027 30.8715 27.2505C31.2425 26.8984 31.5363 26.4808 31.7362 26.0216C31.936 25.5625 32.038 25.0708 32.0363 24.5745C32.0328 23.5725 31.6073 22.6129 30.8533 21.9069C30.0994 21.2008 29.0787 20.8062 28.0158 20.8098L24.5334 20.8213C24.5255 20.8213 24.5177 20.8229 24.5104 20.8259C24.5032 20.8289 24.4966 20.8333 24.491 20.8389C24.4854 20.8445 24.481 20.8511 24.478 20.8583C24.475 20.8656 24.4735 20.8734 24.4735 20.8813Z" fill="black"/>
</svg>
