<svg width="48" height="48" viewBox="0 0 48 48" fill="none" xmlns="http://www.w3.org/2000/svg">
<rect x="1" y="1" width="46" height="46" rx="4" stroke="white" stroke-width="2"/>
<path d="M37.3653 16.5706C37.0503 17.535 36.6256 18.3745 36.0936 19.1367L36.1158 19.1027C35.5931 19.9508 34.9689 20.9308 34.2433 22.0425C33.621 22.9203 33.2916 23.3746 33.2551 23.4057C33.0941 23.6022 32.9821 23.843 32.9436 24.1077L32.9424 24.1157C32.9739 24.3565 33.0883 24.5667 33.2551 24.7234L33.7218 25.2301C36.2184 27.7284 37.6227 29.4505 37.9346 30.3964C37.9754 30.5009 37.9988 30.6213 37.9988 30.7474C37.9988 30.9678 37.9264 31.1712 37.8039 31.3381L37.8063 31.3347C37.6009 31.5403 37.3139 31.6676 36.9966 31.6676C36.9616 31.6676 36.9254 31.6664 36.8916 31.663H36.8963H33.8268C33.8256 31.663 33.8233 31.663 33.8209 31.663C33.4278 31.663 33.0661 31.529 32.7826 31.3063L32.7861 31.3086C32.3731 30.978 32.0056 30.6202 31.6766 30.2317L31.6661 30.2181C31.1286 29.6266 30.6519 29.1287 30.2358 28.7243C28.8498 27.4414 27.827 26.8 27.1674 26.8C27.1429 26.7977 27.1149 26.7966 27.0858 26.7966C26.8933 26.7966 26.7136 26.8545 26.5654 26.9533L26.5689 26.951C26.4476 27.0987 26.3741 27.2896 26.3741 27.4952C26.3741 27.5361 26.3764 27.5747 26.3823 27.6144V27.6099C26.3508 27.9666 26.3321 28.3812 26.3321 28.8004C26.3321 28.9356 26.3344 29.0696 26.3379 29.2037V29.1844V30.5009C26.3496 30.5543 26.3566 30.6157 26.3566 30.6781C26.3566 30.953 26.2283 31.1984 26.0276 31.3609L26.0264 31.362C25.5749 31.5631 25.0476 31.6812 24.4911 31.6812C24.3721 31.6812 24.2554 31.6755 24.1399 31.6653L24.1551 31.6664C22.3188 31.6324 20.6154 31.1087 19.1676 30.226L19.2084 30.2488C17.4456 29.2059 15.9849 27.8485 14.8719 26.2445L14.8404 26.1968C13.7834 24.8313 12.7976 23.2887 11.9576 21.662L11.8759 21.4871C11.3848 20.576 10.8761 19.4559 10.4374 18.3041L10.3674 18.0939C10.1889 17.5759 10.0594 16.9739 10.0058 16.3502L10.0034 16.3218C10.0034 15.7478 10.3503 15.4608 11.0441 15.4608H14.1124C14.1404 15.4585 14.1731 15.4573 14.2069 15.4573C14.4963 15.4573 14.7634 15.5539 14.9746 15.7164L14.9723 15.7141C15.2056 15.9629 15.3783 16.2684 15.4634 16.6092L15.4669 16.6228C16.0316 18.1757 16.6301 19.4798 17.3184 20.7294L17.2403 20.5737C17.8026 21.6756 18.4244 22.6242 19.1338 23.5L19.1069 23.4648C19.7291 24.2084 20.2145 24.5803 20.5629 24.5803C20.5734 24.5814 20.5863 24.5814 20.6003 24.5814C20.7729 24.5814 20.9234 24.4905 21.0051 24.3542L21.0063 24.352C21.0926 24.1361 21.1428 23.8851 21.1428 23.6238C21.1428 23.5681 21.1404 23.5125 21.1358 23.458V23.4648V19.0584C21.1113 18.5392 20.9806 18.0542 20.7624 17.6191L20.7718 17.6407C20.6271 17.3408 20.4533 17.0818 20.2468 16.8512L20.2503 16.8557C20.0589 16.6694 19.9283 16.4252 19.8874 16.1526L19.8863 16.1457C19.8863 15.9526 19.9773 15.7788 20.1196 15.6652L20.1208 15.6641C20.2619 15.538 20.4509 15.4619 20.6574 15.4619H20.6668H25.5038C25.5294 15.4585 25.5586 15.4573 25.5889 15.4573C25.8164 15.4573 26.0206 15.5573 26.1559 15.7141L26.1571 15.7152C26.2773 15.9288 26.3484 16.1844 26.3484 16.4547C26.3484 16.4979 26.3461 16.5399 26.3426 16.582V16.5763V22.4526C26.3403 22.4799 26.3391 22.5117 26.3391 22.5435C26.3391 22.7525 26.3986 22.949 26.5013 23.116L26.4989 23.1115C26.5841 23.2342 26.7264 23.3137 26.8874 23.3137C27.0928 23.3001 27.2806 23.2342 27.4381 23.1297L27.4346 23.1319C27.7519 22.9195 28.0249 22.6775 28.2618 22.4038L28.2664 22.3981C28.9746 21.6188 29.6279 20.7578 30.1973 19.8422L30.2428 19.7627C30.6441 19.1152 31.0781 18.3177 31.4713 17.4987L31.5436 17.3317L32.0639 16.3184C32.2448 15.8118 32.7301 15.4551 33.3006 15.4551C33.3228 15.4551 33.3449 15.4551 33.3671 15.4562H33.3636H36.4331C37.2622 15.4562 37.5733 15.8277 37.3664 16.5706H37.3653Z" fill="white"/>
</svg>
