<svg width="48" height="48" viewBox="0 0 48 48" fill="none" xmlns="http://www.w3.org/2000/svg">
<rect x="1" y="1" width="46" height="46" rx="4" stroke="white" stroke-width="2"/>
<path d="M23.3212 10.0162C15.9264 10.3683 10.0909 16.5267 10.1133 23.9298C10.1202 26.1847 10.6645 28.3129 11.6248 30.1934L10.1504 37.35C10.0707 37.7372 10.4198 38.0761 10.8044 37.9851L17.8171 36.3236C19.6188 37.2211 21.6424 37.7394 23.7841 37.7721C31.3423 37.8876 37.6445 31.8862 37.88 24.3308C38.1326 16.232 31.4484 9.62914 23.3212 10.0162ZM31.6888 31.5756C29.6351 33.6293 26.9045 34.7603 24.0001 34.7603C22.2995 34.7603 20.6714 34.3788 19.1607 33.6263L18.1841 33.1398L13.8846 34.1585L14.7896 29.7652L14.3085 28.823C13.5243 27.2871 13.1267 25.6264 13.1267 23.8869C13.1267 20.9824 14.2577 18.2519 16.3114 16.1981C18.3468 14.1627 21.1219 13.0133 24.0003 13.0133C26.9047 13.0134 29.6352 14.1444 31.6889 16.198C33.7426 18.2518 34.8736 20.9823 34.8737 23.8867C34.8736 26.7652 33.7242 29.5403 31.6888 31.5756Z" fill="white"/>
<path d="M30.7399 26.8987L28.05 26.1264C27.6963 26.0248 27.3155 26.1251 27.0578 26.3877L26.4001 27.0579C26.1227 27.3405 25.7018 27.4313 25.3347 27.2828C24.0623 26.7678 21.3856 24.3879 20.702 23.1975C20.5048 22.8541 20.5374 22.4248 20.7796 22.1115L21.3538 21.3685C21.5788 21.0774 21.6263 20.6865 21.4775 20.35L20.3458 17.7904C20.0748 17.1773 19.2914 16.9989 18.7795 17.4317C18.0288 18.0667 17.1381 19.0316 17.0298 20.1005C16.8389 21.9852 17.6471 24.3609 20.7036 27.2136C24.2346 30.5092 27.0622 30.9446 28.9032 30.4986C29.9475 30.2457 30.782 29.2317 31.3086 28.4015C31.6677 27.8355 31.3842 27.0837 30.7399 26.8987Z" fill="white"/>
</svg>
