<svg width="100" height="100" viewBox="0 0 100 100" fill="none" xmlns="http://www.w3.org/2000/svg">
<path d="M16.888 69.0734L10.4206 69.063C10.3115 69.063 10.2069 69.0197 10.1297 68.9426C10.0526 68.8655 10.0093 68.7609 10.0093 68.6518C9.99537 61.803 9.99711 54.9298 10.0145 48.0324C10.0249 45.0868 10.4415 43.234 12.7795 41.6415C12.848 41.5955 12.904 41.5333 12.9422 41.4606C12.9804 41.3879 12.9996 41.3069 12.9982 41.2252C12.9947 37.3254 12.9965 33.4395 13.0034 29.5675C13.0086 25.1907 14.1698 23.1766 18.6585 23.1402C39.3937 22.9771 60.1307 22.9563 80.8693 23.0777C84.6081 23.0986 87.1389 24.41 87.0503 28.4798C86.9462 33.4343 86.9636 37.7279 87.1024 41.3605C87.1094 41.5409 87.1875 41.6797 87.3367 41.7768C89.2947 43.0675 89.8831 44.5039 89.9091 46.9447C89.9924 54.2203 90.0185 61.489 89.9872 68.7507C89.9872 69.0005 89.8623 69.1254 89.6123 69.1254L83.1345 69.1619C83.1043 69.1622 83.0746 69.1699 83.048 69.1842C83.0215 69.1985 82.9989 69.219 82.9824 69.2438C82.9659 69.2685 82.9559 69.2969 82.9533 69.3262C82.9508 69.3555 82.9558 69.3849 82.9679 69.4117C84.2037 72.2983 85.4326 75.211 86.6546 78.1497C86.8212 78.5522 86.915 78.9251 86.9358 79.2686C86.945 79.4311 86.8966 79.5916 86.7992 79.722C86.7018 79.8524 86.5615 79.9443 86.403 79.9816C86.2444 80.0189 86.0779 79.9991 85.9325 79.9259C85.7871 79.8526 85.6722 79.7304 85.6079 79.5809L81.2391 69.3805C81.18 69.2486 81.0794 69.1827 80.937 69.1827L19.2052 69.1306C18.9796 69.1306 18.8216 69.2347 18.7314 69.4429L14.3261 79.7474C14.2393 79.9452 14.09 80.0233 13.8782 79.9816L13.5502 79.914C13.4493 79.8942 13.354 79.8521 13.2714 79.791C13.1888 79.7298 13.1208 79.651 13.0725 79.5603C13.0241 79.4696 12.9965 79.3693 12.9918 79.2666C12.9871 79.164 13.0053 79.0615 13.0451 78.9668L17.0807 69.3596C17.1605 69.1688 17.0963 69.0734 16.888 69.0734ZM43.95 40.4601L43.9604 49.3126C43.9604 49.3679 43.9818 49.4208 44.0199 49.4598C44.058 49.4989 44.1097 49.5208 44.1635 49.5208H48.949C49.1364 49.5208 49.2302 49.4341 49.2302 49.2606L49.1833 24.9149C49.1833 24.7483 49.1 24.6651 48.9334 24.6651C40.2164 24.6651 31.4631 24.8368 22.7566 24.5089C20.2259 24.4118 18.3061 24.4916 16.9974 24.7483C15.2061 25.0918 14.5864 26.7104 14.576 28.485C14.5552 32.4923 14.5517 36.5083 14.5656 40.533C14.5656 40.7099 14.6524 40.8019 14.826 40.8088C19.8735 41.0656 22.0605 43.7492 21.3871 48.8599C21.3759 48.9422 21.3827 49.026 21.4069 49.1055C21.4311 49.1851 21.4722 49.2587 21.5275 49.3213C21.5827 49.3838 21.6508 49.434 21.7271 49.4685C21.8035 49.5029 21.8864 49.5207 21.9703 49.5208L26.688 49.5156C26.7452 49.5156 26.8019 49.5043 26.8546 49.4822C26.9074 49.4602 26.9553 49.4279 26.9955 49.3873C27.0357 49.3466 27.0674 49.2984 27.0888 49.2454C27.1103 49.1923 27.1209 49.1356 27.1202 49.0785L27.063 40.736C27.0623 40.6597 27.0769 40.584 27.1059 40.5133C27.1349 40.4426 27.1777 40.3783 27.2319 40.3241C27.2862 40.2699 27.3507 40.2269 27.4218 40.1976C27.4929 40.1682 27.5691 40.1531 27.6462 40.1531H43.6376C43.8459 40.1531 43.95 40.2554 43.95 40.4601ZM85.3944 27.7044C85.3632 26.3565 84.1968 24.6807 82.7752 24.6755C72.1941 24.6581 61.606 24.6599 51.011 24.6807C50.834 24.6807 50.7455 24.7674 50.7455 24.9409L50.7611 49.2034C50.7611 49.415 50.8687 49.5208 51.0839 49.5208H55.8277C55.9978 49.5208 56.0829 49.4341 56.0829 49.2606L56.0933 41.043C56.0968 40.4497 56.3953 40.1531 56.989 40.1531H72.0847C72.6159 40.1531 72.8814 40.4185 72.8814 40.9493V49.2606C72.8814 49.4341 72.9682 49.5208 73.1418 49.5208L78.323 49.5156C78.3508 49.5156 78.3783 49.5101 78.4039 49.4993C78.4296 49.4885 78.4528 49.4727 78.4722 49.4528C78.4916 49.4329 78.5068 49.4094 78.517 49.3835C78.5271 49.3576 78.532 49.33 78.5313 49.3022C78.3438 44.5819 79.5155 40.5642 85.233 40.9181C85.4205 40.9285 85.5142 40.8418 85.5142 40.6579C85.5316 36.3175 85.4916 31.9997 85.3944 27.7044ZM28.9115 41.7144C28.8903 41.7144 28.8693 41.7185 28.8498 41.7266C28.8302 41.7348 28.8124 41.7466 28.7974 41.7616C28.7824 41.7766 28.7705 41.7944 28.7624 41.814C28.7543 41.8335 28.7501 41.8545 28.7501 41.8757V49.2294C28.7501 49.2506 28.7543 49.2715 28.7624 49.2911C28.7705 49.3107 28.7824 49.3285 28.7974 49.3435C28.8124 49.3584 28.8302 49.3703 28.8498 49.3784C28.8693 49.3865 28.8903 49.3907 28.9115 49.3907H42.2004C42.2432 49.3907 42.2843 49.3737 42.3145 49.3435C42.3448 49.3132 42.3618 49.2722 42.3618 49.2294L42.4451 41.8757C42.4451 41.8329 42.4281 41.7919 42.3979 41.7616C42.3676 41.7314 42.3265 41.7144 42.2837 41.7144H28.9115ZM71.3245 41.8549C71.3245 41.8176 71.3097 41.7819 71.2833 41.7555C71.2569 41.7292 71.2212 41.7144 71.1839 41.7144H57.7909C57.7536 41.7144 57.7178 41.7292 57.6915 41.7555C57.6651 41.7819 57.6503 41.8176 57.6503 41.8549V49.2554C57.6503 49.2739 57.6539 49.2921 57.661 49.3092C57.668 49.3262 57.6784 49.3417 57.6915 49.3548C57.7045 49.3678 57.72 49.3782 57.7371 49.3852C57.7541 49.3923 57.7724 49.3959 57.7909 49.3959H71.1839C71.2212 49.3959 71.2569 49.3811 71.2833 49.3548C71.3097 49.3284 71.3245 49.2927 71.3245 49.2554V41.8549ZM88.5032 46.8198C88.4875 41.0586 80.0518 41.3969 80.1455 46.2681C80.2219 50.4038 80.2046 54.3799 80.0935 58.1964C80.0796 58.7307 79.8019 58.9979 79.2603 58.9979L20.5852 59.0187C20.3969 59.0187 20.2162 58.9443 20.0825 58.8117C19.9489 58.6791 19.8731 58.4991 19.8718 58.3109C19.8371 54.9524 19.8423 51.5193 19.8874 48.0116C19.9082 46.4607 19.7346 45.3314 19.3667 44.6236C17.9191 41.8289 13.821 41.7612 12.1755 44.4726C11.7693 45.1353 11.5662 46.1987 11.5662 47.6629C11.5662 54.1891 11.5627 60.776 11.5558 67.4236C11.5558 67.4719 11.575 67.5183 11.6092 67.5524C11.6434 67.5866 11.6897 67.6058 11.7381 67.6058H88.2376C88.3044 67.6058 88.3685 67.5791 88.4162 67.5314C88.4639 67.4837 88.4914 67.4189 88.4927 67.3508C88.517 60.5123 88.5205 53.6687 88.5032 46.8198ZM78.474 51.2226C78.474 51.1854 78.4592 51.1496 78.4328 51.1233C78.4065 51.0969 78.3707 51.0821 78.3334 51.0821H21.7307C21.6935 51.0821 21.6577 51.0969 21.6313 51.1233C21.605 51.1496 21.5902 51.1854 21.5902 51.2226V57.0723C21.5902 57.1095 21.605 57.1453 21.6313 57.1716C21.6577 57.198 21.6935 57.2128 21.7307 57.2128H78.3334C78.3707 57.2128 78.4065 57.198 78.4328 57.1716C78.4592 57.1453 78.474 57.1095 78.474 57.0723V51.2226Z" fill="white"/>
</svg>
