<svg width="100" height="100" viewBox="0 0 100 100" fill="none" xmlns="http://www.w3.org/2000/svg">
<path d="M57.4364 19.497C57.735 19.6215 58.0446 19.7149 58.3652 19.777C58.4579 19.7947 58.5375 19.8561 58.6502 19.8778C58.797 19.906 58.8992 20.0214 59.0405 20.0355C59.2168 20.0531 59.344 20.1493 59.5449 20.1483C60.2479 20.413 61.0237 20.75 61.8723 21.1594C61.9654 21.2042 62.0541 21.2642 62.1147 21.2954C64.2878 22.4173 66.4353 23.9271 68.1009 25.7361C68.2556 25.9765 68.4419 26.191 68.66 26.3794C68.6677 26.3861 68.6764 26.3884 68.686 26.3864C68.69 26.3858 68.6944 26.3848 68.6991 26.3834C71.1041 29.0413 72.7547 32.422 73.1078 36.0209C73.0881 36.1549 73.0993 36.2851 73.1414 36.4113C73.1775 36.8365 73.1609 37.2531 73.1815 37.7463C73.2058 38.3209 73.1382 38.9632 72.9786 39.6732C72.7892 40.5155 72.4867 41.2557 72.0709 41.8938C71.6274 42.5749 71.0762 43.2508 70.4173 43.9215C69.6018 44.7513 68.7739 45.5832 67.9336 46.4171C67.8615 46.489 67.8728 46.5068 67.9677 46.4705C68.8393 46.1395 69.6779 45.729 70.527 45.3088C71.3248 44.9135 72.0627 44.5631 72.7406 44.2575C74.2157 43.5918 75.7561 43.0807 77.3618 42.724C78.016 42.5784 78.6763 42.4963 79.3425 42.4333C80.9585 42.2817 82.6402 42.4132 84.1676 42.9955C86.1403 43.7477 87.5299 45.1778 88.426 47.077C88.4972 47.2277 88.5909 47.539 88.5648 47.7264C88.5067 48.1405 87.9682 48.7042 87.6366 49.0594C87.6253 49.0714 87.6188 49.0872 87.618 49.1037C87.6173 49.1202 87.6225 49.1365 87.6326 49.1495C87.9106 49.5067 88.2878 49.9163 88.5152 50.1853C88.8138 50.5384 89.1093 50.8956 89.4204 51.2371C89.5557 51.3857 89.6468 51.5454 89.7906 51.7147C89.8865 51.8275 89.9563 51.961 90 52.1152V52.3494L89.8632 52.6255C89.741 52.6547 89.6964 52.7464 89.5887 52.7897C89.4234 52.8566 89.309 52.8915 89.2456 52.8945C88.7206 52.9177 87.7298 51.5661 87.3856 51.1812C87.3375 51.1275 87.2822 51.083 87.2198 51.0477L86.6487 50.4099C86.6421 50.4025 86.6339 50.3965 86.6248 50.3925C86.6156 50.3884 86.6058 50.3864 86.5958 50.3866C86.5858 50.3867 86.576 50.389 86.567 50.3933C86.5579 50.3976 86.5499 50.4038 86.5435 50.4115L85.3708 51.8109C85.3612 51.8223 85.3561 51.8368 85.3564 51.8518C85.3567 51.8667 85.3623 51.881 85.3723 51.892L86.5871 53.231C86.6228 53.3459 86.7025 53.4408 86.826 53.5157L87.2799 54.0668C87.4118 54.2982 87.534 54.5272 87.6466 54.7539C87.6887 54.8385 87.705 54.9173 87.6957 54.9902C87.6551 55.303 87.4152 55.4818 87.1051 55.4818C86.7544 55.4818 86.4804 55.1977 86.1838 54.9514C85.8262 54.6552 85.5071 54.3035 85.1694 53.9751L84.379 53.1303C84.3735 53.1244 84.3669 53.1197 84.3595 53.1165C84.3521 53.1134 84.3442 53.1118 84.3362 53.1119C84.3281 53.112 84.3202 53.1137 84.313 53.1171C84.3057 53.1204 84.2991 53.1253 84.2938 53.1313C83.845 53.632 83.415 54.1489 83.0039 54.6819C82.9929 54.6963 82.9937 54.7101 83.0064 54.7232C83.6431 55.3776 84.3524 55.9811 85.0117 56.6163C85.1409 56.7406 85.2399 56.8494 85.3087 56.9428C85.4102 57.0791 85.4989 57.2195 85.5747 57.3639C85.6659 57.5382 85.6298 57.783 85.6293 57.976C85.629 57.9899 85.6254 58.0034 85.6188 58.0153L85.5291 58.172C85.4597 58.2623 85.372 58.332 85.2661 58.381C85.0364 58.3535 84.8041 58.2883 84.5693 58.1856C84.5052 58.1513 84.4444 58.1105 84.387 58.0631C83.6185 57.4284 82.826 56.7402 82.006 56.033C81.996 56.0244 81.9831 56.0201 81.97 56.0209C81.9569 56.0216 81.9447 56.0274 81.9359 56.037L81.4179 56.5982C81.3645 56.6234 81.3287 56.6617 81.3107 56.7131C81.2937 56.7322 81.2833 56.7488 81.2797 56.7629C81.1361 56.8717 81.0242 57.0066 80.944 57.1674L80.6945 57.4707C80.6825 57.4855 80.6835 57.4996 80.6976 57.513L82.7364 59.448C82.8521 59.6555 82.9959 59.7311 83.1216 59.8858C83.2348 60.0243 83.3801 60.1709 83.4537 60.2988C83.602 60.5563 83.4753 60.721 83.3746 60.9381C83.1882 61.3406 82.7765 61.3245 82.4393 61.1477C82.3408 61.0963 82.2401 61.0496 82.1373 61.0076L79.6501 58.7422C79.6374 58.7305 79.6254 58.7311 79.614 58.7442C79.2841 59.113 78.9683 59.4937 78.6668 59.8863C78.4984 60.1059 78.4948 60.3151 78.6557 60.514C78.8264 60.7249 79.1176 61.007 79.5294 61.3603C80.1051 61.8543 80.6488 62.3819 81.1604 62.9431C81.5066 63.3229 81.2276 63.8841 80.8569 64.0987C80.4711 64.3224 79.86 63.7466 79.5464 63.4726C78.814 62.8331 78.088 62.1792 77.3683 61.5109C77.3622 61.5051 77.354 61.5019 77.3456 61.5021C77.3371 61.5023 77.3291 61.5058 77.3232 61.5119L76.9976 61.8494C76.9245 61.8867 76.8898 61.9304 76.8934 61.9804C76.6453 62.2189 76.4099 62.5243 76.1871 62.8968C76.0108 63.1915 76.151 63.2474 76.3745 63.4323C77.2808 64.1832 78.1054 65.0161 78.8481 65.9309C78.978 66.0908 79.0516 66.188 79.069 66.2226C79.2018 66.4881 78.9498 66.8196 78.7624 66.9742C78.5373 67.1599 78.3031 67.1631 78.0596 66.9838C77.5552 66.6115 77.1158 66.2538 76.6209 65.7894C76.1684 65.3642 75.7057 64.9504 75.2328 64.5481C75.1881 64.5098 75.1138 64.4621 75.0099 64.405C74.9945 64.3966 74.9802 64.398 74.9668 64.4091C74.6489 64.6724 74.3657 64.9686 74.1172 65.2977C73.9915 65.4644 73.8412 65.6277 73.713 65.805C73.6997 65.8231 73.6936 65.8454 73.6959 65.8678C73.6981 65.8901 73.7085 65.9108 73.725 65.9259L74.28 66.4372C74.3118 66.5218 74.3527 66.5905 74.4028 66.6432C74.6305 66.884 74.8903 67.1018 75.1822 67.2966C75.5536 67.617 75.9204 67.9455 76.2828 68.282C76.379 68.3712 76.4491 68.4724 76.5267 68.5767C76.5318 68.6566 76.5496 68.7327 76.5803 68.8049C76.7777 69.2694 76.6625 69.7389 76.1335 69.8296C76.1181 69.8322 76.103 69.8322 76.0879 69.8296L75.7858 69.7752C75.6212 69.6828 75.5138 69.6181 75.4637 69.5812C74.6507 68.9822 73.9153 68.2382 73.184 67.5354C73.0653 67.4216 72.8704 67.275 72.7256 67.1148C72.7194 67.1079 72.7118 67.1024 72.7034 67.0986C72.6949 67.0948 72.6858 67.0928 72.6766 67.0927C72.6674 67.0926 72.6582 67.0944 72.6498 67.098C72.6413 67.1017 72.6337 67.107 72.6274 67.1138C72.2173 67.5524 71.8406 68.0259 71.4973 68.5344C71.4743 68.5683 71.4564 68.6014 71.4437 68.6336C71.437 68.6501 71.439 68.6654 71.4497 68.6795C71.5987 68.8793 71.7194 69.0227 71.8119 69.1097C72.5887 69.8398 73.3561 70.5661 74.1142 71.2885C74.1914 71.4537 74.268 71.6104 74.3441 71.7585C74.511 72.0839 74.3632 72.4451 74.0781 72.6305C73.9093 72.7398 73.7044 72.7559 73.5477 72.628C73.4077 72.5141 73.281 72.4389 73.1674 72.4023C72.1125 71.565 71.311 70.7681 70.3967 69.9152C70.3909 69.9098 70.3841 69.9055 70.3766 69.9028C70.3692 69.9 70.3613 69.8988 70.3533 69.8992C70.3454 69.8996 70.3376 69.9015 70.3304 69.905C70.3233 69.9084 70.3169 69.9133 70.3116 69.9192L69.0427 71.358C69.0305 71.3717 69.0241 71.3897 69.0248 71.4082C69.0256 71.4266 69.0334 71.444 69.0467 71.4567C69.8275 72.2036 70.6061 72.9547 71.3826 73.7101C71.4921 73.8169 71.6357 73.9813 71.8134 74.2032C71.8635 74.3245 71.9274 74.4361 72.0053 74.5382C72.3103 74.9413 72.126 75.2012 71.7874 75.4863C71.6057 75.531 71.4364 75.5236 71.2794 75.4642C71.1328 75.3204 70.9601 75.2163 70.7614 75.1518C70.0802 74.6121 69.4234 74.041 68.7912 73.4385C68.5518 73.2108 68.3178 73.029 68.0644 72.8406C67.9912 72.7865 67.9194 72.7935 67.849 72.8617C67.4469 73.253 67.1031 73.6818 66.8175 74.1483C66.8001 74.1765 66.7924 74.2098 66.7959 74.2429C66.7993 74.2761 66.8136 74.3071 66.8366 74.3312C67.5008 75.0264 68.1976 75.7013 68.927 76.3558C69.1594 76.5644 69.3984 76.8342 69.6438 77.1654C69.8101 77.4519 69.8293 77.7236 69.7014 77.9805C69.5071 78.3699 69.0091 78.3734 68.6885 78.1422C68.4701 77.985 68.3103 77.8777 68.2091 77.8203C67.3495 77.0599 66.5048 76.2799 65.6749 75.4803C65.6609 75.4669 65.6472 75.4674 65.6338 75.4818C65.3115 75.8324 65.0008 76.2 64.7016 76.5845C64.4075 76.9634 64.645 77.2893 64.916 77.5634C65.4894 78.1437 66.0761 78.7099 66.6763 79.262C67.1552 79.7023 68.0453 80.5023 67.2468 81.1728C66.9924 81.199 66.8441 81.3159 66.6051 81.134C66.3654 80.9513 66.1984 80.8311 66.1042 80.7733C65.8968 80.6111 65.6918 80.438 65.489 80.254C64.7891 79.6185 64.0819 78.971 63.3676 78.3114C63.3573 78.3019 63.3438 78.2967 63.3298 78.2969C63.3158 78.2971 63.3024 78.3026 63.2924 78.3125C62.8331 78.7653 62.4218 79.3164 62.0045 79.8142C61.9981 79.822 61.9948 79.832 61.9954 79.8421C61.996 79.8522 62.0003 79.8617 62.0075 79.8686C62.7765 80.6182 63.5795 81.3315 64.3544 82.0756C64.5234 82.2378 64.6521 82.3817 64.7406 82.5073C64.8849 82.7175 65.0262 82.9234 65.1644 83.1249C65.1965 83.1719 65.2207 83.2742 65.2371 83.4317C65.2387 83.4492 65.2334 83.4638 65.221 83.4755C65.185 83.5108 65.1668 83.5545 65.1664 83.6065C65.1661 83.6236 65.1598 83.6377 65.1474 83.6488C65.0773 83.7123 65.026 83.7911 64.9936 83.8851C64.5172 84.2292 63.9522 83.7229 63.5344 83.3848C62.6693 82.6836 61.8502 81.8892 61.0367 81.13C61.028 81.122 61.0165 81.1177 61.0047 81.118C60.9929 81.1184 60.9817 81.1234 60.9736 81.132L59.9186 82.2685C59.7954 82.3149 59.697 82.4007 59.6235 82.5259C59.4698 82.6529 59.2914 82.8584 59.0745 82.7249C58.8481 82.5852 58.6577 82.407 58.5034 82.1904C58.0581 81.5663 57.6233 80.9356 57.1474 80.3396C56.0248 78.9326 54.4799 77.8087 52.8498 77.0697C52.7577 77.0279 52.6119 77.0047 52.5052 76.9185C52.3362 76.8138 52.1549 76.7449 51.9612 76.712C51.2514 76.4893 50.5651 76.247 49.8011 76.1624C49.5677 76.1365 49.2987 76.1206 48.9941 76.1145C47.2303 76.0808 45.8668 76.0878 44.2497 76.512C44.1772 76.5117 44.1063 76.5301 44.0368 76.5674C43.6598 76.6705 43.3297 76.7724 43.0465 76.8732C42.1054 77.207 41.1138 77.5887 40.0719 78.0183C39.8061 78.0844 39.5247 78.1776 39.2278 78.2978C39.0057 78.3878 38.809 78.4861 38.6377 78.5925C37.2948 79.1678 35.9284 79.6798 34.5385 80.1285C34.1297 80.2605 33.6814 80.3602 33.2531 80.4711C33.1123 80.5073 32.948 80.5104 32.7972 80.5537C32.684 80.5018 32.6164 80.5461 32.5152 80.5618C31.6609 80.6961 30.8017 80.7725 29.9374 80.791L29.0232 80.7532C28.9487 80.7364 28.8737 80.7256 28.7982 80.7209C28.663 80.7129 28.5157 80.6686 28.3745 80.6721C28.2046 80.6771 28.0749 80.6116 27.9101 80.601C27.619 80.5819 27.341 80.5154 27.054 80.4681C27.0072 80.46 26.9665 80.4724 26.9317 80.5053L26.7564 80.4383C26.6606 80.3799 26.5562 80.3561 26.4433 80.3668C25.0332 80.0378 23.603 79.3971 22.3376 78.6978C22.1553 78.5444 21.9542 78.4332 21.7345 78.3643C19.0009 76.7659 16.4696 74.705 14.5044 72.2441C14.4807 72.1578 14.4278 72.1019 14.3456 72.0763L14.1207 71.759C13.9714 71.4906 13.7963 71.2482 13.5952 71.0315L13.3879 70.7595C13.3969 70.7306 13.394 70.7049 13.3793 70.6824C12.9916 70.088 12.6034 69.4862 12.2147 68.8769L11.856 68.2286C11.878 68.1253 11.7874 68.0382 11.7518 67.954C11.7054 67.8422 11.6424 67.7396 11.5629 67.6462C11.2026 66.905 10.882 66.1454 10.6011 65.3672C10.5617 65.2587 10.5343 65.1489 10.519 65.0378C10.4695 64.8379 10.4243 64.6383 10.3832 64.4388C10.3291 64.1763 10.2039 63.7375 10.1788 63.3622C10.1705 63.237 10.1443 63.1151 10.1002 62.9965L10.0852 62.2197C10.0849 62.2066 10.0802 62.1941 10.072 62.184C10.0637 62.174 10.0523 62.167 10.0396 62.1643C10.0319 62.1623 10.0187 62.1661 10 62.1759V60.5134L10.0296 60.5049C10.0463 60.4998 10.0554 60.4886 10.0571 60.4711C10.0665 60.3754 10.0726 60.2226 10.0756 60.0127C10.0882 59.1311 10.3517 58.1427 10.6637 57.304C10.7382 57.2569 10.7633 57.1978 10.7389 57.1266C10.9443 56.6454 11.1638 56.1708 11.3976 55.703C11.841 54.8149 12.4396 54.1559 13.1514 53.4592C16.6574 50.0287 19.984 46.8312 23.5214 43.4912C24.6334 42.4409 25.7004 41.3739 26.8115 40.3392C32.0951 35.4233 37.2707 30.3858 42.5155 25.4278C43.5157 24.482 44.5211 23.5427 45.5316 22.6097C45.5967 22.5886 45.6357 22.5486 45.6483 22.4898C46.6048 21.6112 47.2091 21.064 47.4612 20.848C47.8359 20.5266 48.3003 20.241 48.8544 19.9911C49.8526 19.5411 50.8918 19.2362 51.9722 19.0763C52.6184 18.9811 53.2085 19.0053 53.8983 19.0002C55.091 18.9917 56.2828 19.2143 57.4364 19.497ZM23.3871 51.2734C23.5634 51.3802 23.6857 51.3313 23.8314 51.4129C23.8455 51.421 23.8603 51.4223 23.876 51.417C23.892 51.4113 23.9036 51.4098 23.9106 51.4124C24.0255 51.4548 24.143 51.4806 24.2632 51.49C24.9966 51.6764 25.715 51.911 26.4183 52.1938C26.443 52.2253 26.4776 52.2381 26.522 52.2321C29.1865 53.223 31.6711 54.8758 33.7616 56.8088C36.4676 59.3105 38.6878 62.5577 39.4162 66.2216C39.6336 67.3141 39.7595 68.2461 39.7939 69.0175C39.8189 69.58 39.8122 69.9844 39.7738 70.2306C39.7324 70.4979 39.7032 70.7701 39.6862 71.0472C39.6848 71.0687 39.693 71.0735 39.7107 71.0618C40.0033 70.8633 40.2342 70.622 40.4867 70.3862C41.7049 69.2481 42.9162 68.1023 44.1205 66.949C44.2693 66.8065 44.4496 66.6024 44.6309 66.4412C45.0142 66.1017 45.3884 65.7722 45.7275 65.4105C46.0711 65.0438 46.4423 64.7159 46.8015 64.3612C46.9338 64.2309 47.0693 64.1041 47.2083 63.9809C47.2173 63.9728 47.2281 63.9679 47.2408 63.9662C47.2519 63.9649 47.2624 63.96 47.2709 63.9521C48.3005 62.9664 49.3311 61.9818 50.3627 60.9981C50.6056 60.7663 50.8862 60.5039 51.0925 60.3019C53.2045 58.2349 55.3851 56.238 57.474 54.1489C57.5118 54.1109 57.5682 54.0629 57.6433 54.0048C57.7891 53.892 57.9459 53.7051 58.0406 53.6194C59.4632 52.3303 60.8238 50.9585 62.2054 49.6246C63.3651 48.5047 64.5388 47.3995 65.6984 46.2786C66.9017 45.1159 68.1235 43.9693 69.3117 42.7915C69.6954 42.4113 69.9305 42.1732 70.017 42.0772C70.6071 41.4236 71.0523 40.6769 71.3525 39.8369C71.4347 39.6062 71.4607 39.3422 71.4968 39.0954C71.5299 38.9903 71.5396 38.8806 71.5259 38.7664L71.5529 38.1136C71.603 37.6833 71.5977 37.2575 71.5369 36.836C71.5334 36.4129 71.5143 36.0945 71.5013 35.5645C71.4896 35.0836 71.4175 34.6107 71.2849 34.1459C71.0815 33.4349 70.9172 32.9381 70.792 32.6553C70.6101 32.2467 70.4719 31.8271 70.254 31.4377C70.0275 31.0337 69.9374 30.7858 69.7365 30.4422C69.2195 29.5566 68.6882 28.7724 68.1425 28.0897C66.621 26.1851 64.8268 24.5902 62.7599 23.3049C61.9714 22.8149 61.0661 22.3436 60.0438 21.8908C58.5596 21.2334 56.9696 20.7448 55.3435 20.6521C53.9244 20.571 52.5327 20.5644 51.2013 20.8052C49.8507 21.0496 48.6219 21.6964 47.6225 22.6414C42.7394 27.261 37.8858 31.9127 33.0252 36.5569C28.0423 41.3185 23.0615 46.0831 18.1032 50.8709C18.0658 50.9068 18.0725 50.9298 18.1232 50.9399C18.1884 50.953 18.2692 50.9604 18.3657 50.9621C20.0503 50.9913 21.6308 50.9827 23.3871 51.2734ZM76.5999 44.4484C76.5027 44.4306 76.424 44.4593 76.3639 44.5345C75.8954 44.6706 75.4347 44.8294 74.9818 45.0111C74.005 45.403 73.042 45.8245 72.0929 46.2756C71.9607 46.269 71.5599 46.5078 71.4622 46.5703C69.744 47.3798 68.0038 48.1324 66.2399 48.8382C66.0493 48.9144 65.7497 48.9949 65.3413 49.0795C65.2625 49.0956 65.1639 49.1598 65.0457 49.2719C64.7869 49.4281 64.5737 49.6264 64.406 49.8669L63.1241 51.0578C62.9458 51.1186 62.8125 51.2425 62.7244 51.4296L62.5996 51.5414C62.4691 51.5908 62.3669 51.6814 62.2931 51.8134L62.0581 52.0386C62.001 52.0544 61.9591 52.0959 61.9324 52.163L58.7664 55.1534C58.7133 55.1742 58.6674 55.2065 58.6287 55.2501L58.3887 55.4914C58.2044 55.6459 58.0207 55.8012 57.8377 55.9574C57.5707 56.1851 57.3528 56.437 57.1264 56.6984L55.5729 58.1634C55.4774 58.1919 55.4115 58.2546 55.3751 58.3513C51.9169 61.6614 49.1027 64.3395 46.9323 66.3858C46.5019 66.7919 46.0461 67.2442 45.729 67.5435C42.3266 70.7514 40.1425 72.8033 39.1767 73.699C37.9113 74.8727 36.9507 75.7456 36.2948 76.3175C36.0093 76.5667 35.6518 76.7956 35.2223 77.0042C35.1368 76.9934 35.0707 77.0221 35.0239 77.0903L34.5525 77.31C34.4727 77.3247 34.3966 77.3469 34.3241 77.3765C34.1122 77.4631 33.9224 77.4908 33.732 77.6354L33.1684 77.8228C32.9555 77.8087 32.7456 77.8868 32.5708 77.9019C32.4008 77.9167 32.2309 77.9331 32.0609 77.9513C31.8094 77.978 31.5063 77.9649 31.2273 78.0047L28.8644 77.991C28.7472 77.9507 28.6331 77.945 28.5222 77.9739C27.2604 77.8611 26.2369 77.6424 25.0783 77.1548C25.0782 77.1547 25.0784 77.1549 25.0783 77.1548C25.0782 77.1547 25.0777 77.1543 25.0777 77.1542C25.0776 77.1541 25.0777 77.1543 25.0777 77.1542C25.0776 77.1541 25.0774 77.1535 25.0774 77.1535C25.0774 77.1535 25.0778 77.1531 25.0779 77.1531C25.0778 77.1531 25.078 77.1532 25.0779 77.1531C25.0823 77.1518 25.087 77.1504 25.0913 77.1488C25.0918 77.1485 25.0922 77.148 25.0925 77.1475C25.0928 77.147 25.0929 77.1464 25.0929 77.1458C25.0928 77.1452 25.0926 77.1447 25.0922 77.1442C25.0919 77.1437 25.0914 77.1434 25.0908 77.1432C25.0467 77.1388 25.0048 77.1286 24.9651 77.1125C24.647 76.982 24.2903 76.8515 24.0013 76.6641C23.8997 76.5886 23.787 76.5382 23.6631 76.513C23.6254 76.508 23.5624 76.4831 23.4743 76.4384C19.9301 74.644 16.8619 71.8441 14.9488 68.3465C14.9762 68.3236 14.983 68.2998 14.9693 68.2749C14.7666 67.9106 14.5789 67.5386 14.4063 67.1591C14.1813 66.6634 13.9865 66.0856 13.7881 65.542C13.7824 65.5266 13.7721 65.5153 13.757 65.5083L13.6959 65.4791C13.4044 64.4297 13.1414 63.4998 13.0582 62.3315L13.0412 61.863C13.0482 61.2531 13.0965 60.6503 13.186 60.0545C13.2571 59.8298 13.3161 59.6031 13.3628 59.3744C13.3828 59.2767 13.4525 59.1447 13.4349 59.0011C13.6266 58.401 13.8975 57.8401 14.2475 57.3186C14.3987 57.1661 14.5317 57.001 14.6462 56.8234C14.7093 56.7246 14.796 56.6435 14.8591 56.5387C16.4095 54.9136 18.4338 54.3484 20.5322 54.1685C21.8487 54.0562 23.0966 54.2325 24.4771 54.4859C24.5803 54.5561 24.7019 54.59 24.8418 54.5877L26.0696 54.9373C26.1224 55.0273 26.201 55.056 26.3056 55.0234C30.6507 56.5423 34.004 59.7553 35.8004 64.005C35.787 64.1185 35.8256 64.2106 35.9161 64.2811C36.2046 64.9597 36.3719 65.6901 36.5478 66.4045C36.5384 66.4629 36.5478 66.5487 36.5758 66.6619C36.663 67.0145 36.6349 67.4034 36.688 67.7752C36.7084 67.9159 36.7229 68.0572 36.7316 68.1989L36.7386 68.3233C36.6976 68.7243 36.7051 69.1233 36.641 69.5172C36.6116 69.6982 36.5852 69.8815 36.5618 70.0668C36.4115 70.5971 36.3073 70.9358 36.2492 71.0829C35.946 71.8507 35.4683 72.5541 34.816 73.1932C34.6683 73.2809 34.5661 73.4143 34.4328 73.5111C34.2979 73.6088 34.1783 73.725 34.0741 73.8597C33.5598 74.2304 33.0076 74.5302 32.4175 74.7589C32.1848 74.8126 31.9588 74.8924 31.7398 74.9982C31.092 75.168 30.6347 75.2143 29.7891 75.3105C29.3934 75.2622 28.9958 75.2519 28.5964 75.2798L28.4095 75.2496C28.2669 75.1663 28.1407 75.1545 28.0308 75.2143C27.1669 75.0484 26.3281 74.7921 25.5146 74.4456C25.4324 74.3609 25.3326 74.3194 25.215 74.3211L24.2733 73.8677C24.0552 73.7059 23.8184 73.5801 23.5629 73.4904C23.5075 73.4649 23.4537 73.4374 23.4016 73.4078C22.0822 72.6607 20.91 71.829 19.7808 70.7283C19.6973 70.6074 19.599 70.5007 19.4858 70.4084C19.3891 70.3298 19.3195 70.2134 19.2048 70.1404C17.9755 68.8432 17.0006 67.2357 16.5282 65.5027C16.3913 65.0013 16.2976 64.4307 16.2472 63.7909C16.2312 63.2774 16.227 62.7639 16.2347 62.2504C16.2367 62.1169 16.2758 61.9628 16.2738 61.8132C16.8113 57.2848 21.4745 56.0088 25.2281 57.1664C28.4917 58.1735 31.3906 60.5412 32.7977 63.8005C32.8505 64.0386 32.94 64.2621 33.0662 64.471L33.2436 65.0272C33.2245 65.0896 33.2406 65.131 33.2917 65.1511L33.3082 65.2393C33.3055 65.2433 33.3029 65.2473 33.3002 65.2514C33.2948 65.2597 33.2925 65.269 33.2932 65.2791C33.3217 65.5979 33.4134 65.9007 33.4354 66.2166C33.451 66.4352 33.5201 66.6342 33.5181 66.8488C33.5154 67.1594 33.5268 67.4726 33.5522 67.7883L33.5046 68.288C33.4228 68.3498 33.4061 68.4377 33.4545 68.5515C33.3162 69.3337 33.0073 70.039 32.5277 70.6673C32.4573 70.6714 32.4245 70.7085 32.4296 70.7787C31.6897 71.6018 30.6587 72.0507 29.5652 72.1877C29.4273 72.1558 29.2903 72.1459 29.1544 72.158C28.3985 72.2234 27.7358 72.227 26.9027 72.0582C26.8633 72.0502 26.8316 72.0617 26.8075 72.093L26.0817 71.8617C25.8135 71.7395 25.5991 71.6488 25.4384 71.5897C25.4184 71.5823 25.3944 71.5862 25.3663 71.6013L25.3162 71.5721C25.2458 71.5096 25.1703 71.4827 25.0898 71.4915C24.1691 71.0915 23.3223 70.5728 22.5495 69.9353C22.2204 69.6638 21.9003 69.3112 21.5857 68.9908C21.5199 68.924 21.4546 68.8413 21.3899 68.7429C21.3107 68.5569 21.1883 68.4037 21.0227 68.2835C20.2753 67.1818 19.7067 66.0317 19.4983 64.7012C19.4242 64.2272 19.4036 63.6993 19.4718 63.1874C19.5649 62.8544 19.593 62.4877 19.7237 62.1794C19.8817 61.8049 20.0684 61.4437 20.2838 61.0958C20.8539 60.3648 21.5782 60.0077 22.4709 59.8183L23.7508 59.7628C25.0673 59.92 26.2625 60.3679 27.3365 61.1064C28.6855 62.0343 29.5847 63.3839 30.1478 64.9083C30.0912 65.068 30.1773 65.1627 30.1944 65.2952C30.2147 65.455 30.2431 65.6159 30.2795 65.7778L30.29 66.0327C30.2764 66.1193 30.2834 66.2033 30.3111 66.2846C30.3742 67.3682 30.0065 68.3283 28.9661 68.7787C28.9634 68.7797 28.9621 68.7814 28.9621 68.7837C28.9621 68.7848 28.9621 68.7859 28.9621 68.7873C28.9621 68.7923 28.9601 68.7957 28.956 68.7974C28.6358 68.932 28.3042 69.0125 27.9612 69.0387C27.8224 69.0497 27.6611 69.085 27.5058 69.0855C27.3622 69.024 27.218 68.9928 27.073 68.9918C26.8065 68.9903 26.5616 68.8795 26.2815 68.8795C26.0326 68.7636 25.7726 68.682 25.5346 68.5596C25.2688 68.4222 24.9961 68.2951 24.7166 68.1782L24.6139 68.1142C24.5097 67.9769 24.3821 67.886 24.2312 67.8417C23.9129 67.5945 23.6309 67.317 23.3851 67.009C23.1597 66.6993 22.9758 66.3707 22.8336 66.0231C22.6903 65.6735 22.5105 64.8922 22.7123 64.5577C22.7207 64.5436 22.7245 64.5283 22.7239 64.5118C22.7088 64.2342 22.8807 64.0332 22.9388 63.7642C23.4943 62.9194 24.4791 62.5723 25.4074 63.058C26.013 63.3753 26.7815 63.9501 26.9929 64.6101C27.08 64.8808 27.0882 65.166 27.0174 65.466C26.9187 65.6231 26.8586 65.8468 26.7138 65.9531C26.288 66.2649 25.7004 66.0705 25.5692 65.5481C25.5482 65.4655 25.5877 65.3954 25.5456 65.3058C25.5446 65.3036 25.544 65.3012 25.5441 65.2988C25.5442 65.2964 25.5449 65.2941 25.5461 65.2922L25.5567 65.274C25.5657 65.2586 25.571 65.2419 25.5727 65.2241C25.5954 64.9545 25.4902 64.761 25.2571 64.6438C24.8483 64.3783 23.611 64.0836 24.0734 65.1395C24.3175 65.696 24.6558 66.188 25.0883 66.6155C25.8597 67.3782 27.1992 67.7173 28.2217 67.4054C28.6425 67.2768 28.8926 67.0073 28.9721 66.5969L29.0357 66.4004C29.0373 66.3955 29.038 66.39 29.0377 66.3843C29.0334 66.298 29.0335 66.2117 29.0382 66.1254C29.0432 66.0246 29.0011 65.9284 29.0177 65.8191C29.02 65.803 29.0183 65.7872 29.0126 65.7717C28.9235 65.5345 28.8684 65.2917 28.7607 65.0504C28.6037 64.6984 28.4062 64.3839 28.1681 64.1068C28.1036 64.0275 28.0363 63.9446 27.9662 63.8579C27.2368 62.9557 26.4138 62.2101 25.3162 61.7487C24.7328 61.4683 24.1143 61.3264 23.4607 61.323C22.3947 61.2602 21.5876 61.6787 21.0392 62.5784C20.7747 62.9072 20.6755 63.2991 20.7416 63.7542L20.7456 63.8499C20.6875 64.1683 20.7622 64.6327 20.8639 64.8997L20.91 65.1007C20.916 65.1575 20.9343 65.2082 20.9651 65.2529C21.9709 68.2301 25.0312 70.2341 28.0123 70.7545C28.2497 70.7963 28.5092 70.7812 28.7537 70.7792C30.0456 70.7691 31.3736 70.0961 31.885 68.8487C32.0874 68.355 32.1899 67.8199 32.1926 67.2432C32.2678 66.993 32.2557 66.7415 32.1565 66.4886L32.131 66.272C32.158 66.2196 32.1497 66.1776 32.106 66.146L31.9376 65.4211C31.8658 65.0322 31.7242 64.6672 31.5128 64.3259C31.3395 63.9582 31.1418 63.6045 30.9197 63.265C30.8603 63.0776 30.7536 62.913 30.5996 62.7713C30.3967 62.5381 30.1999 62.264 30.008 62.056C28.4291 60.3467 26.3487 58.9241 24.0368 58.4762C23.9136 58.4017 23.7807 58.3771 23.6381 58.4027L23.0119 58.3231C22.8326 58.2915 22.6531 58.2873 22.4734 58.3105C21.4986 58.3219 20.575 58.5567 19.7027 59.0147C18.8033 59.4866 18.1775 60.1971 17.8252 61.1462C17.7841 61.2164 17.7604 61.2919 17.754 61.3729L17.6604 61.7215C17.5869 61.8558 17.562 62.0004 17.5857 62.1552L17.5747 62.4308L17.5572 62.4368C17.5451 62.4412 17.5378 62.4496 17.5351 62.462C17.4733 62.7616 17.487 63.0578 17.5762 63.3507L17.6013 63.4378C17.5797 63.8081 17.6759 63.9945 17.7215 64.3229C17.7302 64.384 17.7619 64.4504 17.8167 64.5219C18.5009 66.941 19.886 68.9651 21.8567 70.5061C23.3051 71.6386 24.8811 72.5459 26.5846 73.228C27.6055 73.6365 28.7071 73.7257 29.725 73.7075C30.1197 73.7005 30.5235 73.64 30.9262 73.6023C31.2041 73.5764 31.4036 73.5495 31.5249 73.5217C32.9039 73.2053 34.1683 72.0305 34.6978 70.758C35.2569 69.415 35.324 68.1591 35.076 66.6906C35.068 66.6427 35.048 66.6216 35.0354 66.5742C34.983 66.3761 34.9348 66.1791 34.8907 65.9833C34.8746 65.8372 34.8524 65.6918 34.824 65.5471C34.795 65.3995 34.7008 65.2559 34.6733 65.0881C34.6709 65.0734 34.6581 65.0549 34.6347 65.0327C34.623 65.0216 34.6162 65.008 34.6142 64.9919C34.6001 64.8796 34.539 64.7869 34.5125 64.6866C34.453 64.4633 34.348 64.2638 34.1974 64.0882L34.1042 63.8831C34.0721 63.7357 33.9945 63.5572 33.8713 63.3476C33.6769 63.0175 33.5188 62.7785 33.3969 62.6308C33.272 62.4461 33.1452 62.2612 33.0167 62.0761C31.3881 59.7351 29.2451 57.8843 26.6592 56.6561C26.6332 56.6215 26.5975 56.6063 26.552 56.6103L26.291 56.4974C26.2627 56.4491 26.2313 56.4185 26.1969 56.4058C25.9568 56.3174 25.7173 56.2271 25.4785 56.1347C25.4465 56.1223 25.4216 56.1354 25.4039 56.174C24.3775 55.8345 23.3961 55.6536 22.3101 55.5448C21.4354 55.4572 20.5608 55.5544 19.6556 55.6698C19.5962 55.6587 19.5496 55.6731 19.5158 55.7131L19.2173 55.7705C19.1575 55.7588 19.1086 55.7722 19.0705 55.8108C16.8313 56.3161 15.2033 57.9191 14.6888 60.1734C14.64 60.3373 14.5968 60.5024 14.559 60.6686C14.4724 61.049 14.4879 61.4701 14.4659 61.8681C14.4534 62.0872 14.4944 62.3436 14.4954 62.6076C14.4958 62.8101 14.5459 63.0642 14.6457 63.3698L14.7108 63.6776C14.7025 63.8183 14.7345 63.9484 14.807 64.068C14.808 64.0717 14.8088 64.0754 14.8095 64.0791C14.8733 64.5133 14.998 64.9325 15.1837 65.3365L15.4327 65.9692C15.4594 66.1036 15.5138 66.2255 15.596 66.3349L15.7247 66.6095C15.7321 66.6253 15.7438 66.6365 15.7598 66.6432C15.7835 66.6533 15.7927 66.672 15.7874 66.6992C15.7843 66.7156 15.7865 66.7314 15.7939 66.7465C17.3969 70.0205 19.9116 72.6244 23.0645 74.4163C24.2654 75.0988 25.4211 75.6331 26.5315 76.0193C27.0094 76.1852 27.6045 76.3449 28.3168 76.4984C28.648 76.5694 29.0036 76.5881 29.3488 76.6264C29.4096 76.6233 29.4628 76.6366 29.5086 76.6661C29.5209 76.6742 29.5345 76.6786 29.5492 76.6792L30.241 76.712C30.2566 76.7127 30.2715 76.7169 30.2855 76.7246C30.3492 76.7593 30.4168 76.716 30.4639 76.7115C30.8291 76.6762 31.1722 76.6672 31.5559 76.6072C33.9274 76.3503 35.9932 75.2214 37.2266 73.1257C37.6223 72.4527 38.1302 71.6068 38.1638 70.894C38.1752 70.6522 38.1827 70.0593 38.1863 69.1152C38.1914 67.9273 38.0005 66.7531 37.7971 65.8977C37.6615 65.3281 37.4343 64.6737 37.1153 63.9345C37.124 63.8724 37.1092 63.8 37.0708 63.7174C36.7806 63.0944 36.4965 62.5522 36.2187 62.0907C36.1781 62.0227 36.1095 61.9688 36.0744 61.8943C35.8359 61.391 35.4347 60.8757 35.075 60.4515C34.8456 60.1452 34.5788 59.8171 34.2745 59.4671C32.0614 56.9201 29.2877 54.9136 26.1678 53.6633C26.088 53.5884 25.992 53.5519 25.8798 53.5539L25.3062 53.3373C25.2127 53.2833 25.1165 53.2421 25.0177 53.2139C24.8253 53.159 24.6359 53.0613 24.413 53.0784C23.7388 52.8502 23.1997 52.7726 22.5726 52.6562C22.3091 52.6069 22.0361 52.5781 21.7691 52.5373C21.5446 52.4477 21.31 52.4258 21.0652 52.4719C20.4334 52.4665 20.0346 52.4667 19.869 52.4724C19.13 52.4992 18.358 52.6143 17.5532 52.8174C17.443 52.8451 17.3378 52.9051 17.2215 52.9373C16.9741 53.0069 16.6179 53.088 16.397 53.2109C16.3264 53.2502 16.2372 53.2527 16.1771 53.2809C15.604 53.5523 15.076 53.8941 14.5931 54.3066C14.5497 54.3002 14.5133 54.3215 14.4839 54.3705C14.4629 54.4018 14.4346 54.4233 14.3992 54.435C14.3341 54.4629 14.2957 54.5044 14.284 54.5595C12.5568 56.0415 11.6401 57.8843 11.5183 60.1749C11.4546 60.2985 11.4238 60.3914 11.4262 60.4535C11.4382 60.7573 11.4452 61.0268 11.4292 61.3578C11.4185 61.57 11.4232 61.7137 11.4432 61.789C11.5239 62.0912 11.4362 62.3426 11.5975 62.6449C11.9236 64.8352 12.7847 66.95 13.9554 68.8185C15.1607 70.7424 16.5438 72.3227 18.1568 73.8244C19.8319 75.3836 21.7786 76.5946 23.8254 77.718C25.0397 78.3845 26.3617 78.8651 27.7252 79.0243C29.1723 79.1929 30.6203 79.2014 32.0694 79.05C33.4991 78.9003 34.9398 78.3643 35.9892 77.9618C36.7937 77.6532 38.3363 77.0428 40.6169 76.1306C41.0163 75.9708 41.9107 75.6393 43.2999 75.1362C43.4452 75.1503 43.5746 75.1139 43.6882 75.0269C43.7708 75.0022 43.8615 75.0042 43.9376 74.9856C44.2435 74.9104 44.553 74.8538 44.8659 74.8158C45.4243 74.7483 45.9831 74.6882 46.5425 74.6355C47.1406 74.6773 47.7182 74.639 48.3259 74.6506C48.5459 74.6546 48.7659 74.6444 48.9856 74.6199L49.0342 74.6229C49.3718 74.7028 49.712 74.7352 50.0546 74.7201C51.2876 74.935 52.4815 75.2941 53.6363 75.7971C53.8076 75.8717 53.9805 75.974 54.1553 76.0616C54.178 76.1056 54.2169 76.1239 54.272 76.1165C55.337 76.6717 56.2312 77.3145 57.1439 78.1175C57.9389 78.8167 58.6277 79.6847 59.2764 80.5199C59.2801 80.5247 59.2848 80.5286 59.2902 80.5314C59.2955 80.5342 59.3014 80.5358 59.3074 80.5361C59.3134 80.5364 59.3194 80.5355 59.3251 80.5333C59.3307 80.5311 59.3358 80.5278 59.34 80.5235C59.4733 80.3895 59.607 80.2434 59.7413 80.0852C60.7375 78.9118 61.7297 77.735 62.7178 76.5548C65.9295 72.7181 69.1345 68.8761 72.3329 65.0287C73.1227 64.0789 73.644 63.4564 73.8968 63.1612C74.0377 63.0685 74.1373 62.9433 74.1954 62.7854L74.9117 61.9426C75.1729 61.7163 75.3911 61.4516 75.5664 61.1487L76.2477 60.3386C76.4364 60.1925 76.5785 60.0166 76.674 59.8107L78.0651 58.1342C78.2124 58.0888 78.2585 57.9377 78.3386 57.8329C78.3862 57.7715 78.4764 57.7332 78.4889 57.6198C80.3634 55.3979 82.2264 53.1659 84.0779 50.9238C84.2182 50.754 84.4246 50.5273 84.5889 50.3168C85.0958 49.6664 85.6308 49.0377 86.1478 48.3944C86.1902 48.3417 86.2304 48.2916 86.2685 48.2443C86.374 48.1915 86.4457 48.114 86.4834 48.0115C86.4894 47.9944 86.4996 47.9801 86.514 47.9687C86.5878 47.9093 86.6432 47.8355 86.6803 47.7476C86.6826 47.742 86.6864 47.7371 86.6913 47.7334C86.9713 47.5289 86.8536 47.2393 86.6973 46.9743C86.5828 46.7798 86.4353 46.6168 86.255 46.4851C85.7981 45.9575 85.451 45.5978 85.2135 45.4061C84.4977 44.8282 83.5474 44.3935 82.7354 44.1718C81.7385 43.8993 80.7021 43.9396 79.6802 43.9648C78.6402 43.99 77.6038 44.1794 76.5999 44.4484Z" fill="white"/>
</svg>
