<svg width="100" height="100" viewBox="0 0 100 100" fill="none" xmlns="http://www.w3.org/2000/svg">
<path d="M48.4361 80.4958C35.2603 76.0716 22.0896 71.6347 8.9206 67.1928C8.10617 66.9183 8.00931 66.3043 8.00931 65.4713C8.00987 62.5988 8.00987 59.7259 8.00931 56.8528C8.00931 55.987 7.89645 55.4842 8.45653 55.0227C8.59803 54.9059 8.83862 54.7939 9.17832 54.6866C22.2176 50.5721 35.2564 46.4564 48.2946 42.3396C49.7258 41.8876 51.148 41.8868 52.5613 42.3371C65.2822 46.3938 78.0018 50.455 90.72 54.5207C91.8662 54.8871 92.3951 54.9949 92.396 56.2565C92.3977 59.4559 92.3993 62.6538 92.401 65.8503C92.401 66.7001 91.937 67.0446 91.163 67.3082C78.5302 71.6148 65.8965 75.9197 53.262 80.2229C51.858 80.7013 51.1312 80.996 49.9352 80.8756C49.5826 80.8397 49.0829 80.7131 48.4361 80.4958ZM13.664 56.019C25.6489 59.809 37.6346 63.5923 49.6228 67.3697C50.5913 67.6746 51.1219 67.4286 52.1798 67.0901C63.7143 63.4011 75.248 59.713 86.7809 56.0258C86.7855 56.0242 86.7896 56.0212 86.7924 56.0172C86.7953 56.0132 86.7968 56.0084 86.7968 56.0035C86.7968 55.9985 86.7953 55.9937 86.7924 55.9897C86.7896 55.9857 86.7855 55.9827 86.7809 55.9811C75.1958 52.2753 63.6057 48.5715 52.0105 44.8697C50.9383 44.5269 50.1045 44.4831 48.997 44.8335C37.2148 48.5522 25.4372 52.2692 13.664 55.9845C13.6603 55.9858 13.6571 55.9883 13.6548 55.9915C13.6526 55.9947 13.6513 55.9985 13.6513 56.0024C13.6513 56.0062 13.6526 56.0099 13.6548 56.0129C13.6571 56.0159 13.6603 56.0181 13.664 56.019ZM10.6379 65.0409C23.454 69.3641 36.2735 73.6763 49.093 77.9868C49.5955 78.1552 49.8743 78.2456 49.9293 78.258C50.6857 78.4289 51.1278 78.2167 52.0383 77.9068C64.6183 73.6226 77.1947 69.3368 89.7674 65.0494C89.78 65.045 89.7909 65.0368 89.7986 65.0259C89.8063 65.015 89.8104 65.002 89.8103 64.9887V57.8281C89.8103 57.7922 89.7932 57.7796 89.759 57.7902C77.2076 61.8043 64.8187 65.7669 52.5925 69.6782C51.3628 70.0715 50.2696 70.2897 49.088 69.9166C36.3002 65.8801 23.4905 61.8366 10.6589 57.786C10.6191 57.7737 10.5992 57.7883 10.5992 57.8298V64.9862C10.5992 65.0137 10.6121 65.032 10.6379 65.0409Z" fill="#3385FF"/>
<path d="M48.9349 50.7351C49.6777 50.7351 50.2799 50.3599 50.2799 49.8971C50.2799 49.4343 49.6777 49.0591 48.9349 49.0591C48.192 49.0591 47.5898 49.4343 47.5898 49.8971C47.5898 50.3599 48.192 50.7351 48.9349 50.7351Z" fill="#3385FF"/>
<path d="M59.9855 54.1813C60.7288 54.18 61.3307 53.8041 61.3299 53.3417C61.3291 52.8794 60.7259 52.5056 59.9826 52.5069C59.2393 52.5082 58.6374 52.8841 58.6382 53.3464C58.639 53.8088 59.2422 54.1826 59.9855 54.1813Z" fill="#3385FF"/>
<path d="M31.3467 55.5987C32.0905 55.5987 32.6934 55.2238 32.6934 54.7615C32.6934 54.2991 32.0905 53.9243 31.3467 53.9243C30.6029 53.9243 30 54.2991 30 54.7615C30 55.2238 30.6029 55.5987 31.3467 55.5987Z" fill="#3385FF"/>
<path d="M70.6691 57.7381C71.4124 57.7368 72.0143 57.3606 72.0135 56.8978C72.0127 56.4349 71.4095 56.0608 70.6662 56.0621C69.9229 56.0634 69.321 56.4396 69.3218 56.9025C69.3226 57.3653 69.9258 57.7394 70.6691 57.7381Z" fill="#3385FF"/>
<path d="M42.6974 59.2862C43.4407 59.2862 44.0433 58.9113 44.0433 58.449C44.0433 57.9866 43.4407 57.6118 42.6974 57.6118C41.9541 57.6118 41.3516 57.9866 41.3516 58.449C41.3516 58.9113 41.9541 59.2862 42.6974 59.2862Z" fill="#3385FF"/>
<path d="M53.9248 62.8582C54.6686 62.8582 55.2716 62.483 55.2716 62.0201C55.2716 61.5573 54.6686 61.1821 53.9248 61.1821C53.1811 61.1821 52.5781 61.5573 52.5781 62.0201C52.5781 62.483 53.1811 62.8582 53.9248 62.8582Z" fill="#3385FF"/>
</svg>
