<svg width="100" height="100" viewBox="0 0 100 100" fill="none" xmlns="http://www.w3.org/2000/svg">
<path d="M39.9842 68.9216C39.9799 69.9987 39.9786 71.0759 39.9803 72.153C39.9803 72.3811 40.0243 72.6006 40.1122 72.8113C42.8847 79.5004 45.6598 86.1891 48.4375 92.8774C48.4549 92.921 48.4449 92.9562 48.4075 92.9832C48.1332 93.1852 47.6016 93.5745 46.8127 94.1509C43.3632 96.6704 39.8654 97.01 36.0214 95.1161C36.0017 95.1067 35.9798 95.1026 35.9579 95.1045C35.9361 95.1063 35.9152 95.1139 35.8973 95.1266C34.2568 96.2982 32.7247 97.5377 30.712 98.115C28.6431 98.7089 26.572 98.5609 24.4987 97.6709C23.0802 97.0623 22.0954 96.5385 21.0361 96.2577C20.0552 95.9965 19.6164 96.2969 18.5584 96.7854C17.7817 97.1441 17.0063 97.5064 16.2322 97.8721C16.2264 97.8749 16.22 97.8763 16.2136 97.8759C16.2072 97.8755 16.201 97.8735 16.1955 97.8699C16.19 97.8664 16.1855 97.8615 16.1823 97.8557C16.1791 97.8499 16.1774 97.8434 16.1773 97.8368V31.7738C16.1773 31.7033 16.142 31.6733 16.0715 31.6837C10.7281 32.4779 7.79846 25.7147 11.9977 22.3266C13.1375 21.4062 14.5129 21.0453 16.1238 21.2438C16.1305 21.2445 16.1374 21.2439 16.1439 21.2418C16.1504 21.2398 16.1564 21.2365 16.1614 21.232C16.1665 21.2276 16.1705 21.2221 16.1733 21.2161C16.176 21.21 16.1774 21.2034 16.1773 21.1968V16.1081C16.1773 16.0445 16.2082 16.0197 16.27 16.0336C17.4743 16.3001 18.8013 16.8643 19.969 16.9518C21.9308 17.0981 24.0272 16.3497 25.7356 15.7959C26.8998 15.418 28.3148 15.1672 29.9805 15.0436C32.672 14.8442 35.2255 15.3292 37.641 16.4986C38.3063 16.8199 38.9711 17.1425 39.6355 17.4665C39.6545 17.4755 39.6751 17.4806 39.6962 17.4815C39.7173 17.4824 39.7384 17.4791 39.7583 17.4717C43.4677 16.0284 46.7147 15.5987 50.6031 16.8748C52.268 17.4216 53.7396 17.998 55.0178 18.6041C55.057 18.6224 55.0966 18.6237 55.1367 18.608C56.1511 18.2153 56.8904 17.9541 57.3545 17.8243C62.0683 16.5064 66.3982 17.6989 70.6105 19.8906C70.6514 19.9115 70.6714 19.9446 70.6705 19.9899L70.5713 23.5439C70.5704 23.59 70.593 23.6131 70.6392 23.6131H81.198C81.2433 23.6131 81.2838 23.5988 81.3195 23.57C83.1428 22.115 85.5226 21.9138 87.5001 23.1155C89.5586 24.3655 90.5146 26.9634 89.7231 29.2896C88.5045 32.871 84.27 33.9773 81.3378 31.6602C81.242 31.5845 81.0831 31.5566 80.861 31.5766C80.6076 31.6001 80.45 31.6119 80.3882 31.6119C76.8129 31.6128 73.2371 31.6132 69.6609 31.6132C69.6414 31.6132 69.6225 31.6199 69.6075 31.6323C69.5925 31.6447 69.5823 31.662 69.5786 31.6811C67.8937 40.1331 64.4377 48.0065 58.9049 54.6286C54.0652 60.4191 48.2238 64.9584 41.3805 68.2463C40.9407 68.4579 40.4945 68.6547 40.0417 68.8367C40.0034 68.8524 39.9842 68.8807 39.9842 68.9216ZM19.0312 19.9233C19.0556 21.3174 19.0604 22.7115 19.0456 24.1055C19.0456 24.1482 19.0669 24.1695 19.1096 24.1695L24.9794 24.18C25.0133 24.18 25.0416 24.1674 25.0642 24.1421C27.1266 21.8877 30.8909 22.9039 31.3089 26.0099C31.4761 27.2546 30.917 28.5738 29.9074 29.3196C28.3688 30.4573 26.3691 30.1608 25.0564 28.7815C25.0441 28.7683 25.0291 28.7578 25.0125 28.7506C24.9959 28.7434 24.9779 28.7397 24.9598 28.7397H19.0887C19.0486 28.7397 19.0286 28.7597 19.0286 28.7998L19.0168 66.598C19.0168 66.6295 19.0295 66.6598 19.052 66.682C19.0746 66.7043 19.1051 66.7169 19.137 66.7169L26.5271 66.7156C26.5436 66.7155 26.5598 66.7109 26.5738 66.7021C26.5879 66.6934 26.5993 66.6808 26.6068 66.6659C28.229 63.337 29.607 60.012 30.7407 56.691C34.8172 44.7451 36.988 32.201 37.1094 19.5092C37.1094 19.4674 37.0907 19.4378 37.0533 19.4204C33.8075 17.8687 30.6049 17.3149 27.1136 18.386C24.3407 19.2363 22.0183 20.1767 19.1109 19.747C19.0908 19.7441 19.0703 19.7488 19.0534 19.7601C19.0365 19.7714 19.0244 19.7886 19.0195 19.8084C19.0142 19.831 19.0151 19.8523 19.0221 19.8724C19.0282 19.8889 19.0312 19.9059 19.0312 19.9233ZM38.264 21.1706L38.1256 24.692C38.1239 24.7347 38.1443 24.756 38.187 24.756H42.142C42.1855 24.756 42.2221 24.7403 42.2517 24.709C43.166 23.7389 44.2335 23.3441 45.4543 23.5243C48.4375 23.9658 49.5399 27.5772 47.3835 29.6488C45.9023 31.0698 43.6192 30.8243 42.2621 29.3588C42.2404 29.3344 42.2129 29.3227 42.1798 29.3235L37.8605 29.3301C37.8195 29.3301 37.7973 29.3501 37.7938 29.3902C36.5817 42.1707 33.3425 55.0087 27.8999 66.6659C27.8975 66.6712 27.8965 66.677 27.8969 66.6828C27.8973 66.6886 27.8992 66.6942 27.9023 66.6991C27.9054 66.704 27.9096 66.7081 27.9147 66.711C27.9197 66.7138 27.9254 66.7154 27.9312 66.7156H32.0495C32.095 66.7156 32.1389 66.6999 32.1735 66.6711C37.3106 62.4249 41.3962 57.0397 44.5152 51.1726C49.5786 41.65 52.2162 31.4782 52.4278 20.6573C52.4286 20.6138 52.409 20.5825 52.369 20.5633C49.4001 19.1422 46.0904 18.5127 42.91 19.3917C41.6273 19.7457 39.8575 20.5515 38.3228 21.0923C38.2854 21.1053 38.2658 21.1315 38.264 21.1706ZM53.5458 22.3057L53.3773 25.2811C53.3747 25.3228 53.3943 25.3437 53.4361 25.3437H57.4786C57.5195 25.3437 57.5539 25.3285 57.5818 25.298C59.0904 23.6693 61.4923 23.6131 62.9852 25.2941C64.5683 27.0757 63.8917 30.0066 61.589 30.9027C60.1192 31.4747 58.7808 31.1513 57.5739 29.9322C57.5408 29.8991 57.5004 29.8826 57.4525 29.8826H52.8823C52.8396 29.8826 52.8148 29.9039 52.8078 29.9466C50.769 43.7798 44.3415 57.1181 33.9943 66.6529C33.956 66.6886 33.9629 66.7068 34.0152 66.7077C35.1002 66.726 36.1869 66.7269 37.2753 66.7103C37.5217 66.7068 37.7568 66.6581 37.9806 66.564C40.0652 65.6846 42.1611 64.5957 44.2683 63.2974C59.0433 54.1936 67.3412 39.0738 67.7344 21.7832C67.7361 21.7414 67.7178 21.7118 67.6795 21.6944C64.2287 20.0879 60.6695 19.5419 57.0476 20.9538C55.8912 21.404 54.7357 21.8385 53.5811 22.2574C53.5711 22.2608 53.5624 22.2672 53.5561 22.2759C53.5498 22.2845 53.5462 22.2949 53.5458 22.3057ZM27.8346 27.5629C29.2491 27.559 29.1538 25.3464 27.8659 25.3451C24.4073 25.3424 20.9451 25.3424 17.4795 25.3451C17.459 25.345 17.4388 25.3399 17.4206 25.3301C17.4024 25.3203 17.3867 25.3062 17.375 25.2889C16.7751 24.3694 15.9714 23.971 14.9639 24.0938C13.3574 24.2884 12.3895 26.0242 13.0792 27.4649C13.9321 29.2491 16.4072 29.3823 17.3737 27.6243C17.3955 27.5851 17.429 27.5655 17.4743 27.5655C20.9277 27.5707 24.3811 27.5698 27.8346 27.5629ZM85.8544 25.4848C84.6253 24.8553 83.3623 25.2889 82.6295 26.4318C82.6188 26.4485 82.6039 26.4624 82.5864 26.4719C82.5688 26.4815 82.549 26.4866 82.5289 26.4866H68.6643C68.6269 26.4866 68.606 26.5049 68.6016 26.5415L68.3391 28.6561C68.3339 28.697 68.3522 28.7175 68.394 28.7175L82.5002 28.7306C82.5437 28.7306 82.579 28.7475 82.606 28.7815C82.7784 28.9996 82.9325 29.2556 83.1337 29.4176C84.4477 30.4755 86.1718 30.0929 86.9058 28.6208C87.4648 27.5028 86.9711 26.0556 85.8544 25.4848ZM37.9728 25.955L37.9702 28.1154C37.9702 28.1247 37.9739 28.1337 37.9805 28.1403C37.9871 28.1469 37.9961 28.1506 38.0054 28.1506L44.9227 28.1624C45.0718 28.1626 45.2194 28.1343 45.3572 28.0791C45.495 28.0239 45.6202 27.943 45.7257 27.8408C45.8312 27.7387 45.915 27.6174 45.9722 27.4839C46.0294 27.3504 46.0589 27.2072 46.0591 27.0626V27.0339C46.0594 26.7419 45.9401 26.4617 45.7275 26.255C45.5149 26.0482 45.2263 25.9319 44.9253 25.9315L38.008 25.9198C37.9987 25.9198 37.9897 25.9235 37.9831 25.9301C37.9765 25.9367 37.9728 25.9457 37.9728 25.955ZM53.2506 26.5859L53.0077 28.6731C53.0069 28.6785 53.0074 28.6839 53.009 28.6891C53.0107 28.6944 53.0134 28.6992 53.0171 28.7033C53.0208 28.7073 53.0254 28.7106 53.0306 28.7128C53.0357 28.7151 53.0413 28.7162 53.0469 28.7162C55.2908 28.6979 57.4895 28.7023 59.6429 28.7292C60.134 28.7362 60.4705 28.7088 60.6525 28.647C61.8515 28.2434 61.4923 26.4657 60.2502 26.4827C57.934 26.5158 55.6426 26.5132 53.376 26.4749C53.3011 26.474 53.2593 26.511 53.2506 26.5859ZM37.1081 67.9211C37.1081 67.9121 37.1045 67.9035 37.0982 67.8971C37.0918 67.8907 37.0832 67.8872 37.0742 67.8872H19.0808C19.0718 67.8872 19.0632 67.8907 19.0568 67.8971C19.0505 67.9035 19.0469 67.9121 19.0469 67.9211V72.362C19.0469 72.371 19.0505 72.3796 19.0568 72.386C19.0632 72.3924 19.0718 72.3959 19.0808 72.3959H37.0742C37.0832 72.3959 37.0918 72.3924 37.0982 72.386C37.1045 72.3796 37.1081 72.371 37.1081 72.362V67.9211ZM19.0926 93.4534C21.9491 92.6502 24.197 94.787 26.855 95.4479C28.8821 95.9521 30.7956 95.265 32.44 94.0817C32.4569 94.0697 32.4698 94.0528 32.4771 94.0333C32.4843 94.0137 32.4855 93.9923 32.4805 93.972L27.6399 73.642C27.6234 73.5741 27.5807 73.5401 27.5119 73.5401H23.8482C23.8038 73.5401 23.7842 73.5623 23.7895 73.6067L24.9376 82.8123C24.9445 82.8672 24.9206 82.8986 24.8657 82.9064L24.1957 82.9926C24.1295 83.0004 24.0925 82.9717 24.0846 82.9064L22.9013 73.6002C22.8991 73.5835 22.8909 73.5682 22.8784 73.5571C22.8659 73.546 22.8499 73.54 22.8334 73.5401H19.1305C19.0756 73.5401 19.0478 73.568 19.0469 73.6237L19.0077 93.3894C19.0077 93.3997 19.0101 93.4099 19.0147 93.4191C19.0193 93.4283 19.026 93.4364 19.0342 93.4426C19.0424 93.4488 19.052 93.453 19.0621 93.4549C19.0723 93.4567 19.0827 93.4563 19.0926 93.4534ZM36.6144 82.8293L35.9313 83.067C35.8947 83.0801 35.8699 83.0679 35.8568 83.0305L32.6333 73.608C32.6265 73.5882 32.6136 73.5709 32.5965 73.5588C32.5794 73.5466 32.5589 73.5401 32.538 73.5401H28.9069C28.8425 73.5401 28.8176 73.571 28.8324 73.6328L32.9703 91.0462C32.9825 91.0976 33.0147 91.1259 33.0669 91.1311C35.431 91.3532 37.1891 92.786 39.4252 93.3307C41.3687 93.8035 43.3227 93.1504 44.8848 91.9814C44.9223 91.9536 44.9323 91.9183 44.9149 91.8756L37.3223 73.595C37.3067 73.5584 37.2792 73.5401 37.24 73.5401H33.6207C33.5633 73.5401 33.5437 73.5671 33.562 73.6211L36.6614 82.7327C36.678 82.7806 36.6623 82.8128 36.6144 82.8293Z" fill="#3385FF"/>
<path d="M83.3327 89.499L83.3471 34.0066C83.3471 33.9544 83.3728 33.9326 83.4242 33.9413C84.3193 34.0815 85.2158 34.0824 86.1135 33.9439C86.1605 33.937 86.184 33.9574 86.184 34.0053V92.3543C86.184 92.4222 86.1501 92.4561 86.0821 92.4561H51.3155C51.2954 92.4561 51.2757 92.4502 51.259 92.439C51.2422 92.4279 51.2292 92.412 51.2214 92.3934L50.123 89.7433C50.0812 89.644 50.1143 89.5944 50.2222 89.5944L83.2544 89.5774C83.3066 89.5774 83.3327 89.5513 83.3327 89.499Z" fill="#3385FF"/>
<path d="M79.5298 36.553L70.588 36.5295C70.5357 36.5295 70.5166 36.5042 70.5305 36.4537L70.8205 35.4441C70.8327 35.3996 70.8618 35.3774 70.908 35.3774H80.6988C80.7157 35.3774 80.732 35.3842 80.744 35.3962C80.756 35.4082 80.7628 35.4245 80.7628 35.4414L80.7588 86.9371C80.7588 86.9737 80.7397 86.992 80.7014 86.992C67.1777 87.0599 58.4701 87.0716 54.5787 87.0272C52.1841 87.0002 50.3464 86.9941 49.0655 87.0089C49.015 87.0098 48.9802 86.9872 48.961 86.941L48.5404 85.9366C48.5187 85.8852 48.5356 85.8595 48.5914 85.8595H79.5259C79.5694 85.8595 79.5912 85.8378 79.5912 85.7942V36.6144C79.5912 36.5734 79.5707 36.553 79.5298 36.553Z" fill="#3385FF"/>
</svg>
