<svg width="117" height="93" viewBox="0 0 117 93" fill="none" xmlns="http://www.w3.org/2000/svg">
<path d="M28.0235 11.9442L26.0274 11.1246C25.9648 11.099 25.8932 11.1287 25.8674 11.191L25.4671 12.1583C25.4413 12.2206 25.4711 12.292 25.5337 12.3177L27.5299 13.1372C27.5925 13.1629 27.6641 13.1332 27.6899 13.0709L28.0901 12.1035C28.1159 12.0412 28.0861 11.9699 28.0235 11.9442Z" fill="white"/>
<path d="M34.0417 14.4148L31.2403 13.2532C31.1852 13.2304 31.1221 13.2564 31.0991 13.3112L30.6843 14.3039C30.6614 14.3588 30.6874 14.4217 30.7425 14.4445L33.5439 15.6061C33.5989 15.6289 33.6621 15.6029 33.685 15.5481L34.0999 14.5554C34.1228 14.5005 34.0967 14.4376 34.0417 14.4148Z" fill="white"/>
<path d="M69.2224 15.7286C76.0148 15.7082 78.4394 20.0676 78.2235 26.2608C78.2216 26.3558 78.1768 26.4216 78.0893 26.4585C75.3914 27.6035 72.6964 28.7389 70.0043 29.8646C69.5375 30.0603 69.0502 30.1572 68.5426 30.1552C65.8213 30.1513 63.1477 30.1504 60.5218 30.1523C60.3448 30.1523 60.2582 30.0641 60.2621 29.8878C60.3146 27.5512 59.8244 24.3485 56.6821 24.645C56.6371 24.6492 56.5941 24.6655 56.5576 24.6921C56.5212 24.7187 56.4926 24.7546 56.4749 24.7961C54.3771 29.7018 50.7533 33.0789 45.9099 35.2557C45.8224 35.2964 45.7446 35.2828 45.6765 35.215L44.8829 34.4216C44.8012 34.3402 44.8109 34.2734 44.9121 34.2211C48.3287 32.4134 49.8196 28.5451 49.9101 24.7002C49.9782 21.7804 49.9937 18.8576 49.9568 15.932C49.9548 15.8293 50.0054 15.778 50.1085 15.778C56.4885 15.7625 62.8598 15.746 69.2224 15.7286Z" fill="white"/>
<path d="M40.0428 16.8374L37.2618 15.7182C37.2035 15.6948 37.1372 15.7228 37.1136 15.7809L36.7158 16.7617C36.6922 16.8198 36.7204 16.8858 36.7787 16.9093L39.5596 18.0285C39.6179 18.0519 39.6842 18.0239 39.7078 17.9658L40.1056 16.985C40.1292 16.9269 40.101 16.8609 40.0428 16.8374Z" fill="white"/>
<path d="M42.8125 21.8314L42.8154 16.8995C42.8152 16.8711 42.8255 16.8435 42.8443 16.8221C42.8631 16.8006 42.8892 16.7868 42.9175 16.7833L48.1577 16.0742C48.1742 16.0721 48.191 16.0735 48.2069 16.0785C48.2228 16.0834 48.2374 16.0916 48.2499 16.1026C48.2623 16.1136 48.2722 16.1271 48.279 16.1423C48.2857 16.1574 48.2892 16.1738 48.289 16.1904V22.5464C48.2892 22.5629 48.2857 22.5793 48.279 22.5945C48.2722 22.6096 48.2623 22.6232 48.2499 22.6342C48.2374 22.6452 48.2228 22.6534 48.2069 22.6583C48.191 22.6632 48.1742 22.6647 48.1577 22.6626L42.9146 21.9477C42.8863 21.9441 42.8602 21.9303 42.8414 21.9089C42.8226 21.8875 42.8123 21.8599 42.8125 21.8314Z" fill="white"/>
<path d="M28.1515 18.5996H25.2455C25.1617 18.5996 25.0938 18.6673 25.0938 18.7507V19.7563C25.0938 19.8398 25.1617 19.9074 25.2455 19.9074H28.1515C28.2353 19.9074 28.3032 19.8398 28.3032 19.7563V18.7507C28.3032 18.6673 28.2353 18.5996 28.1515 18.5996Z" fill="white"/>
<path d="M34.6875 18.5971L31.7172 18.6023C31.6447 18.6024 31.586 18.6611 31.5862 18.7333L31.588 19.7796C31.5881 19.8518 31.647 19.9102 31.7195 19.9101L34.6897 19.905C34.7623 19.9048 34.8209 19.8462 34.8208 19.7739L34.819 18.7277C34.8189 18.6555 34.76 18.597 34.6875 18.5971Z" fill="white"/>
<path d="M41.1359 18.5996H38.2298C38.1461 18.5996 38.0781 18.6673 38.0781 18.7507V19.7563C38.0781 19.8398 38.1461 19.9074 38.2298 19.9074H41.1359C41.2197 19.9074 41.2876 19.8398 41.2876 19.7563V18.7507C41.2876 18.6673 41.2197 18.5996 41.1359 18.5996Z" fill="white"/>
<path d="M39.5566 20.4873L36.7722 21.6135C36.7125 21.6376 36.6837 21.7054 36.708 21.7649L37.1075 22.7451C37.1318 22.8046 37.1999 22.8332 37.2596 22.8091L40.044 21.6829C40.1037 21.6587 40.1325 21.5909 40.1082 21.5314L39.7087 20.5513C39.6844 20.4918 39.6164 20.4631 39.5566 20.4873Z" fill="white"/>
<path d="M33.5133 22.9389L30.781 24.0385C30.7078 24.0679 30.6724 24.1509 30.702 24.2238L31.0802 25.1562C31.1097 25.2291 31.1931 25.2643 31.2663 25.2349L33.9986 24.1353C34.0718 24.1058 34.1072 24.0228 34.0776 23.9499L33.6994 23.0176C33.6698 22.9446 33.5865 22.9094 33.5133 22.9389Z" fill="white"/>
<path d="M27.4941 25.3663L25.5571 26.1458C25.4824 26.1758 25.4463 26.2605 25.4765 26.3349L25.8547 27.2673C25.8849 27.3417 25.9699 27.3776 26.0446 27.3476L27.9816 26.5681C28.0563 26.538 28.0924 26.4533 28.0622 26.3789L27.684 25.4465C27.6538 25.3721 27.5688 25.3362 27.4941 25.3663Z" fill="white"/>
<path d="M58.5739 37.7114C58.5522 37.7114 58.5314 37.7028 58.5161 37.6876C58.5008 37.6723 58.4922 37.6516 58.4922 37.63V33.5991C58.4922 33.0033 58.7292 32.4318 59.1511 32.0105C59.5729 31.5892 60.1451 31.3525 60.7417 31.3525H69.028C69.6246 31.3525 70.1968 31.5892 70.6187 32.0105C71.0406 32.4318 71.2776 33.0033 71.2776 33.5991V37.63C71.2776 37.6516 71.269 37.6723 71.2536 37.6876C71.2383 37.7028 71.2175 37.7114 71.1959 37.7114H58.5739Z" fill="white"/>
<path d="M49.1634 83.5607C46.3857 83.5607 44.3988 81.7995 44.3725 78.9746C44.355 77.0623 44.355 72.6797 44.3725 65.8268C44.3822 61.8258 45.6466 58.4187 48.1655 55.6055C48.1675 55.6035 48.9864 54.8237 50.6222 53.2659C54.8879 49.2001 57.0412 44.5152 59.2295 39.1619C59.2684 39.065 59.3403 39.0166 59.4454 39.0166H64.5572C64.672 39.0166 64.7323 39.0738 64.7381 39.1881C65.0279 44.4154 64.7488 50.2183 63.9007 56.5965C62.8182 64.7369 59.7459 73.7376 52.7697 78.6579C52.6802 78.7218 52.6637 78.8003 52.7201 78.8933L53.2978 79.8349C53.309 79.8531 53.3239 79.8689 53.3415 79.8812C53.359 79.8935 53.379 79.9021 53.4 79.9065C53.4211 79.9108 53.4428 79.9109 53.4638 79.9065C53.4849 79.9022 53.5048 79.8937 53.5224 79.8814C65.4938 71.7032 66.9264 52.0686 66.1911 39.1561C66.1853 39.0631 66.229 39.0166 66.3224 39.0166H70.3342C70.4354 39.0166 70.5093 39.0612 70.556 39.1503C71.3088 40.6209 71.796 41.6884 72.0178 42.353C74.4161 49.574 76.0841 56.9608 77.0216 64.5131C77.471 68.1518 78.8481 81.6339 74.457 83.3718C74.1594 83.49 73.7139 83.55 73.1207 83.552C65.1359 83.5578 57.1501 83.5607 49.1634 83.5607Z" fill="white"/>
</svg>
