<svg width="36" height="36" viewBox="0 0 36 36" fill="none" xmlns="http://www.w3.org/2000/svg">
<rect x="0.607422" y="0.5" width="34.5254" height="34.5254" rx="4.5" stroke="white"/>
<path d="M27.7618 12.2641C27.5287 12.9779 27.2144 13.5992 26.8207 14.1633L26.8371 14.1381C26.4502 14.7659 25.9883 15.4911 25.4512 16.3139C24.9907 16.9636 24.7469 17.2999 24.7198 17.3228C24.6007 17.4683 24.5178 17.6465 24.4893 17.8424L24.4884 17.8483C24.5118 18.0265 24.5964 18.1821 24.7198 18.2981L25.0652 18.6731C26.913 20.5221 27.9524 21.7967 28.1832 22.4968C28.2134 22.5741 28.2307 22.6632 28.2307 22.7566C28.2307 22.9197 28.1772 23.0701 28.0865 23.1937L28.0882 23.1912C27.9363 23.3434 27.7238 23.4376 27.489 23.4376C27.4631 23.4376 27.4363 23.4367 27.4113 23.4342H27.4147H25.1429C25.1421 23.4342 25.1404 23.4342 25.1386 23.4342C24.8476 23.4342 24.58 23.335 24.3701 23.1702L24.3727 23.1719C24.0671 22.9272 23.7951 22.6624 23.5516 22.3749L23.5438 22.3648C23.146 21.927 22.7932 21.5585 22.4852 21.2592C21.4594 20.3097 20.7024 19.835 20.2143 19.835C20.1962 19.8333 20.1754 19.8324 20.1538 19.8324C20.0114 19.8324 19.8784 19.8753 19.7687 19.9485L19.7713 19.9468C19.6815 20.0561 19.6271 20.1973 19.6271 20.3495C19.6271 20.3798 19.6289 20.4084 19.6332 20.4378V20.4344C19.6099 20.6984 19.596 21.0053 19.596 21.3155C19.596 21.4156 19.5978 21.5148 19.6004 21.614V21.5997V22.5741C19.609 22.6136 19.6142 22.659 19.6142 22.7053C19.6142 22.9087 19.5192 23.0903 19.3707 23.2106L19.3698 23.2114C19.0357 23.3602 18.6454 23.4476 18.2335 23.4476C18.1454 23.4476 18.0591 23.4434 17.9736 23.4359L17.9848 23.4367C16.6257 23.4115 15.3651 23.0239 14.2935 22.3707L14.3237 22.3875C13.019 21.6157 11.938 20.611 11.1142 19.4238L11.0909 19.3885C10.3086 18.378 9.57899 17.2362 8.95729 16.0323L8.89685 15.9028C8.53333 15.2285 8.15686 14.3996 7.8322 13.5471L7.78039 13.3915C7.64828 13.0081 7.55243 12.5625 7.51271 12.101L7.51099 12.08C7.51099 11.6551 7.76772 11.4427 8.2812 11.4427H10.5521C10.5728 11.441 10.597 11.4402 10.6221 11.4402C10.8362 11.4402 11.0339 11.5116 11.1902 11.6318L11.1885 11.6302C11.3612 11.8143 11.489 12.0404 11.552 12.2927L11.5546 12.3028C11.9725 13.4521 12.4155 14.4172 12.9249 15.342L12.8671 15.2269C13.2833 16.0424 13.7435 16.7444 14.2685 17.3926L14.2486 17.3666C14.7091 17.917 15.0683 18.1922 15.3262 18.1922C15.334 18.193 15.3435 18.193 15.3538 18.193C15.4816 18.193 15.593 18.1257 15.6535 18.0249L15.6543 18.0232C15.7182 17.8634 15.7554 17.6776 15.7554 17.4843C15.7554 17.4431 15.7536 17.4019 15.7502 17.3615V17.3666V14.1053C15.732 13.7211 15.6353 13.3621 15.4739 13.0401L15.4808 13.0561C15.3737 12.8341 15.245 12.6424 15.0922 12.4717L15.0948 12.4751C14.9532 12.3372 14.8565 12.1565 14.8263 11.9547L14.8254 11.9496C14.8254 11.8067 14.8927 11.6781 14.9981 11.594L14.999 11.5932C15.1034 11.4999 15.2433 11.4435 15.3962 11.4435H15.4031H18.983C19.002 11.441 19.0236 11.4402 19.046 11.4402C19.2144 11.4402 19.3655 11.5141 19.4657 11.6302L19.4665 11.631C19.5555 11.7891 19.6081 11.9782 19.6081 12.1783C19.6081 12.2103 19.6064 12.2414 19.6038 12.2725V12.2683V16.6174C19.6021 16.6376 19.6012 16.6612 19.6012 16.6847C19.6012 16.8394 19.6453 16.9849 19.7212 17.1084L19.7195 17.1051C19.7826 17.1959 19.8879 17.2547 20.0071 17.2547C20.159 17.2446 20.298 17.1959 20.4146 17.1185L20.412 17.1202C20.6469 16.963 20.8489 16.7839 21.0242 16.5813L21.0277 16.5771C21.5518 16.0003 22.0353 15.3631 22.4567 14.6854L22.4904 14.6266C22.7874 14.1473 23.1086 13.5571 23.3996 12.951L23.4531 12.8274L23.8382 12.0774C23.9721 11.7025 24.3313 11.4385 24.7535 11.4385C24.7699 11.4385 24.7863 11.4385 24.8027 11.4393H24.8001H27.0719C27.6856 11.4393 27.9158 11.7142 27.7627 12.2641H27.7618Z" fill="white"/>
</svg>
