<svg width="36" height="36" viewBox="0 0 36 36" fill="none" xmlns="http://www.w3.org/2000/svg">
<rect x="0.974609" y="0.5" width="34.5254" height="34.5254" rx="4.5" stroke="white"/>
<path d="M17.7348 7.41335C12.2619 7.67394 7.94292 12.2319 7.95952 17.711C7.96458 19.3798 8.36746 20.955 9.07816 22.3468L7.98698 27.6435C7.92795 27.93 8.18636 28.1809 8.47099 28.1135L13.6612 26.8838C14.9946 27.548 16.4923 27.9317 18.0774 27.9559C23.6713 28.0413 28.3357 23.5996 28.51 18.0078C28.6969 12.0137 23.7498 7.12689 17.7348 7.41335ZM23.9278 23.3697C22.4078 24.8897 20.3869 25.7268 18.2373 25.7268C16.9787 25.7268 15.7736 25.4444 14.6556 24.8875L13.9328 24.5274L10.7507 25.2814L11.4205 22.0298L11.0644 21.3325C10.484 20.1958 10.1897 18.9667 10.1897 17.6792C10.1897 15.5296 11.0268 13.5087 12.5468 11.9887C14.0532 10.4823 16.1071 9.63155 18.2375 9.63155C20.387 9.6316 22.4079 10.4687 23.9279 11.9886C25.4478 13.5086 26.2849 15.5295 26.285 17.6791C26.2849 19.8095 25.4342 21.8634 23.9278 23.3697Z" fill="white"/>
<path d="M23.2256 19.9082L21.2348 19.3365C20.9731 19.2614 20.6912 19.3356 20.5005 19.53L20.0137 20.026C19.8084 20.2351 19.4969 20.3023 19.2252 20.1924C18.2834 19.8113 16.3024 18.0499 15.7965 17.1688C15.6505 16.9147 15.6746 16.5969 15.8539 16.365L16.2789 15.8152C16.4454 15.5997 16.4806 15.3104 16.3704 15.0613L15.5328 13.167C15.3322 12.7132 14.7524 12.5812 14.3736 12.9015C13.818 13.3715 13.1587 14.0856 13.0786 14.8767C12.9373 16.2716 13.5355 18.0299 15.7976 20.1412C18.4109 22.5803 20.5037 22.9026 21.8663 22.5725C22.6391 22.3853 23.2568 21.6349 23.6466 21.0204C23.9123 20.6015 23.7025 20.0451 23.2256 19.9082Z" fill="white"/>
</svg>
