<svg width="135" height="56" viewBox="0 0 135 56" fill="none" xmlns="http://www.w3.org/2000/svg">
<path d="M48.5806 20.0241C48.5806 15.9638 53.5419 15.6298 54.3379 19.0262H56.9852C56.6483 16.0322 54.275 14 51.5204 14C50.0563 14 48.6521 14.6321 47.6169 15.7574C46.5816 16.8826 46 18.4087 46 20C46 21.5913 46.5816 23.1174 47.6169 24.2426C48.6521 25.3679 50.0563 26 51.5204 26C54.3046 26 56.6038 23.9879 57 20.9417H54.3527C53.6011 24.3863 48.5806 24.0966 48.5806 20.0241Z" fill="#1D1D1B"/>
<path d="M67 23.1689H61.9454V14H59V26H67V23.1689Z" fill="#1D1D1B"/>
<path d="M77 23.1689H71.9806V21.4197H76.8786V18.5762H71.9806V16.8269H76.9833V14H69V26H77V23.1689Z" fill="#1D1D1B"/>
<path d="M82.4948 24.2535H86.3013L86.9209 26H90L85.3814 14H83.457L79 26H81.8635L82.4948 24.2535ZM83.5801 21.2894L84.4076 18.7803L85.2659 21.355L85.3275 21.56H83.4839L83.5801 21.2894Z" fill="#1D1D1B"/>
<path d="M101 26V14H98.199V19.9979L94.1879 14H92V26H94.817V20.1513L98.7801 26H101Z" fill="#1D1D1B"/>
<path d="M109.475 25.9997C112.724 26.0267 116 24.1585 116 20.3756V9H111.881V20.3486C111.881 22.8152 107.115 22.8653 107.115 20.3486V9H103V20.3756C103 24.1585 106.226 25.9997 109.475 25.9997Z" fill="#3385FF"/>
<path d="M121.998 20.9493H124.26C131.902 20.9493 131.925 9 124.26 9H118V26H121.998V20.9493ZM121.998 13.0327H124.26C126.735 13.0327 126.735 17.038 124.26 17.038H121.998V13.0327Z" fill="#3385FF"/>
<path d="M48.5806 34.0241C48.5806 29.9638 53.5419 29.6298 54.3379 33.0262H56.9852C56.6483 30.0322 54.275 28 51.5204 28C50.0563 28 48.6521 28.6321 47.6169 29.7574C46.5816 30.8826 46 32.4087 46 34C46 35.5913 46.5816 37.1174 47.6169 38.2426C48.6521 39.3679 50.0563 40 51.5204 40C54.3046 40 56.6038 37.9879 57 34.9417H54.3527C53.6011 38.3823 48.5806 38.1006 48.5806 34.0241Z" fill="#1D1D1B"/>
<path d="M64.4665 28.0005C63.3816 28.0077 62.3229 28.3647 61.4236 29.0267C60.5242 29.6887 59.8244 30.6261 59.4123 31.721C59.0002 32.8158 58.894 34.0191 59.1073 35.1796C59.3206 36.3401 59.8437 37.4058 60.6109 38.2427C61.378 39.0796 62.3549 39.6503 63.4187 39.8829C64.4825 40.1156 65.5855 39.9998 66.5891 39.5502C67.5927 39.1006 68.452 38.3372 69.0588 37.3561C69.6657 36.375 69.993 35.2201 69.9995 34.0365C70.009 33.241 69.8723 32.4515 69.5975 31.7145C69.3228 30.9776 68.9156 30.3081 68.3999 29.7455C67.8843 29.183 67.2706 28.7387 66.595 28.439C65.9195 28.1393 65.1957 27.9902 64.4665 28.0005ZM61.5377 34.0365C61.5377 29.6101 67.3806 29.6423 67.3806 34.0365C67.3806 38.4307 61.5377 38.4187 61.5377 34.0244V34.0365Z" fill="#1D1D1B"/>
<path d="M77.0171 32.6482L74.1334 28H72V40H74.679V34.0332L76.263 36.6247H77.7522L79.3361 34.0705V40H82V28H79.8969L77.0171 32.6482Z" fill="#1D1D1B"/>
<path d="M88.6986 28H84V40H86.9954V36.434H88.6901C94.4267 36.434 94.4437 28 88.6986 28ZM88.6986 33.6724H87.0039V30.8487H88.6986C90.5543 30.8487 90.5543 33.6724 88.6986 33.6724Z" fill="#1D1D1B"/>
<path d="M96.4414 28L92 40H94.9034L95.5209 38.2535H99.3141L99.9317 40H103L98.3975 28H96.4414ZM96.5066 35.56L96.6025 35.2894L97.4271 32.7803L98.2824 35.355L98.3476 35.56H96.5066Z" fill="#1D1D1B"/>
<path d="M111.198 34L107.189 28H105V40H107.818V34.1534L111.779 40H114V28H111.198V34Z" fill="#1D1D1B"/>
<path d="M122.866 29.7664L121.51 32.3704L120.217 29.9198L119.075 28H116V28.2737L120.103 35.1652V40H122.897V35.1486L127 28.3068V28H123.913L122.866 29.7664Z" fill="#1D1D1B"/>
<path d="M46.7772 46.226C36.5901 56.2856 20.0758 56.2856 9.8901 46.226C7.4679 43.8325 5.5465 40.9911 4.2356 37.8638C2.92471 34.7366 2.25 31.3848 2.25 27.9999C2.25 24.6149 2.92471 21.2632 4.2356 18.1359C5.5465 15.0087 7.4679 12.1672 9.8901 9.77374C20.0701 -0.285908 36.5901 -0.285908 46.7772 9.77374" stroke="url(#paint0_linear_582_343)" stroke-linecap="round" stroke-linejoin="round"/>
<path d="M44.0486 11.9686L28.0094 27.8182C27.998 27.8293 27.989 27.8426 27.9829 27.8572C27.9767 27.8719 27.9735 27.8875 27.9735 27.9034C27.9735 27.9192 27.9767 27.9349 27.9829 27.9495C27.989 27.9642 27.998 27.9774 28.0094 27.9886L28.3346 28.31C38.7267 38.5792 23.8102 54.5195 12.7818 44.9168C12.2813 44.4809 11.7958 44.0198 11.3255 43.5336C3.1376 35.0527 3.1376 20.7596 11.3255 12.2732C13.4273 10.0933 15.9478 8.3493 18.7395 7.14301C21.5313 5.93672 24.5383 5.29237 27.585 5.24762C30.6316 5.20287 33.6567 5.75862 36.4835 6.88239C39.3103 8.00616 41.8821 9.6754 44.0486 11.7926C44.0605 11.804 44.07 11.8177 44.0764 11.8328C44.0829 11.848 44.0862 11.8642 44.0862 11.8806C44.0862 11.897 44.0829 11.9132 44.0764 11.9284C44.07 11.9435 44.0605 11.9572 44.0486 11.9686ZM45.2844 41.3666C45.2844 40.3753 44.9869 39.4064 44.4296 38.5822C43.8724 37.7581 43.0803 37.1157 42.1536 36.7364C41.2268 36.3571 40.2071 36.2578 39.2233 36.4512C38.2395 36.6446 37.3358 37.1219 36.6265 37.8228C35.9173 38.5237 35.4342 39.4167 35.2385 40.3888C35.0429 41.361 35.1433 42.3687 35.5272 43.2844C35.911 44.2002 36.5611 44.9829 37.3951 45.5336C38.2291 46.0843 39.2097 46.3782 40.2127 46.3782C41.5577 46.3778 42.8475 45.8497 43.7985 44.9099C44.7495 43.9701 45.284 42.6956 45.2844 41.3666Z" fill="url(#paint1_linear_582_343)"/>
<path d="M15.9857 27.2191C18.7867 27.2191 21.0573 24.9753 21.0573 22.2075C21.0573 19.4396 18.7867 17.1958 15.9857 17.1958C13.1847 17.1958 10.9141 19.4396 10.9141 22.2075C10.9141 24.9753 13.1847 27.2191 15.9857 27.2191Z" fill="url(#paint2_linear_582_343)"/>
<path d="M20.8028 34.4062C21.3348 33.144 20.7305 31.6946 19.4532 31.1689C18.1758 30.6432 16.7091 31.2403 16.1771 32.5026C15.6451 33.7648 16.2494 35.2142 17.5267 35.7399C18.8041 36.2656 20.2708 35.6685 20.8028 34.4062Z" fill="url(#paint3_linear_582_343)"/>
<path d="M44.2821 12.4747C44.408 12.3462 44.4419 12.3043 44.555 12.1827L42.9403 10.7758C42.9158 10.7567 42.8887 10.7412 42.8598 10.7296H42.847C42.8151 10.7252 42.7828 10.7252 42.7509 10.7296L42.7113 10.7394L33.8745 13.9431L33.1491 13.4597C33.3337 13.2392 33.4511 12.9715 33.4876 12.6877C33.5241 12.4038 33.4783 12.1156 33.3555 11.8565C33.2327 11.5973 33.038 11.378 32.7939 11.2241C32.5499 11.0701 32.2666 10.9878 31.977 10.9867C31.8875 10.9866 31.7982 10.9937 31.7098 11.0077C31.4 11.0602 31.1143 11.2067 30.8926 11.4268L30.8445 11.4729L26.1009 6.14552C25.8534 5.86261 25.5504 5.63237 25.2101 5.4688C24.8698 5.30524 24.4994 5.21176 24.1214 5.19404C23.9587 5.18804 23.7957 5.19834 23.635 5.22478C23.1892 5.29667 22.7768 5.50312 22.4544 5.81579L21.9384 6.32156C21.722 6.53593 21.5528 6.79216 21.4414 7.07418C21.33 7.3562 21.2787 7.65793 21.2908 7.96045C21.3046 8.3343 21.3952 8.70148 21.5571 9.03966C21.719 9.37784 21.9487 9.67997 22.2325 9.92767L27.5643 14.6781L27.5176 14.7242C27.2295 15.0066 27.0666 15.3904 27.0644 15.7914C27.0623 16.1924 27.2212 16.5778 27.5063 16.8632C27.7735 17.1284 28.1304 17.2867 28.5085 17.3079C28.8866 17.329 29.2592 17.2115 29.555 16.9778L30.0357 17.696L26.4232 26.6742C26.4137 26.6977 26.4089 26.7229 26.4091 26.7482C26.4091 26.7482 26.4091 26.7622 26.4091 26.7692C26.4101 26.7878 26.414 26.8062 26.4204 26.8237C26.4236 26.8323 26.4274 26.8407 26.4317 26.8488C26.4393 26.8644 26.4488 26.8789 26.46 26.8921C26.463 26.8975 26.4663 26.9026 26.4699 26.9075H26.4798L26.4911 26.9187C26.4911 26.9187 28.1015 28.1761 28.1736 28.2223C28.308 28.0979 28.3348 28.0644 28.5073 27.8925L44.2821 12.4747ZM22.5265 9.60492C22.2872 9.39698 22.0932 9.14308 21.9564 8.85869C21.8195 8.57429 21.7427 8.26535 21.7305 7.95067C21.72 7.70723 21.7606 7.46427 21.8496 7.23706C21.9387 7.00984 22.0743 6.80328 22.248 6.63034L22.7697 6.12456C22.9469 5.95518 23.1574 5.82371 23.3883 5.73837C23.6192 5.65303 23.8654 5.61565 24.1115 5.62856C24.4298 5.64424 24.7416 5.72365 25.0279 5.86199C25.3142 6.00033 25.5691 6.19471 25.7771 6.43334L30.5377 11.7719L27.8838 14.3665L22.5265 9.60492ZM29.3599 16.56C29.2021 16.7159 28.9989 16.819 28.7788 16.8549C28.7158 16.8663 28.6519 16.8714 28.5879 16.8702C28.3719 16.87 28.1609 16.8062 27.9817 16.6871C27.8024 16.568 27.6631 16.3989 27.5814 16.2014C27.4997 16.0038 27.4793 15.7867 27.5228 15.5776C27.5664 15.3685 27.6718 15.177 27.8258 15.0273L31.2008 11.7286C31.3029 11.629 31.4239 11.5502 31.5568 11.4968C31.6897 11.4434 31.832 11.4163 31.9755 11.4172C32.119 11.4181 32.2609 11.447 32.3932 11.5021C32.5254 11.5572 32.6454 11.6375 32.7462 11.7384C32.847 11.8393 32.9267 11.9589 32.9808 12.0902C33.0348 12.2216 33.0622 12.3622 33.0613 12.504C33.0604 12.6458 33.0312 12.786 32.9754 12.9167C32.9197 13.0474 32.8384 13.1659 32.7363 13.2655L29.3599 16.56ZM30.491 17.7463C30.5041 17.7137 30.509 17.6786 30.5053 17.6438C30.5016 17.609 30.4894 17.5756 30.4698 17.5465L29.883 16.6662L32.8437 13.7727L33.726 14.3637C33.773 14.3945 33.8301 14.4065 33.8858 14.3972L33.9239 14.3874L41.8729 11.5414L27.2178 25.8652L30.491 17.7463ZM28.1397 27.6466L26.9619 26.7329L42.7481 11.2913L43.9131 12.2246L36.0504 19.9091L28.1397 27.6466Z" fill="#1F284E"/>
<path d="M42.7478 11.291L26.9561 26.7326L28.1352 27.6463L36.0516 19.9088L43.9129 12.2243L42.7478 11.291Z" fill="#1F284E"/>
<path d="M33.7193 14.3638L32.837 13.7728L29.8763 16.6663L30.4631 17.5466C30.4827 17.5757 30.4949 17.6091 30.4986 17.6439C30.5023 17.6787 30.4974 17.7138 30.4843 17.7464L27.2168 25.8653L41.8662 11.5415L33.9172 14.3875L33.8791 14.3973C33.8234 14.4066 33.7663 14.3946 33.7193 14.3638Z" fill="url(#paint4_linear_582_343)"/>
<path d="M27.878 14.3666L30.5318 11.7721L25.7713 6.43346C25.5633 6.19483 25.3084 6.00045 25.0221 5.86211C24.7358 5.72377 24.424 5.64436 24.1057 5.62868C23.8605 5.61655 23.6154 5.65431 23.3855 5.73963C23.1557 5.82495 22.946 5.95601 22.7696 6.12468L22.2535 6.63046C22.0798 6.8034 21.9442 7.00996 21.8551 7.23718C21.766 7.46439 21.7255 7.70735 21.736 7.95079C21.7482 8.26547 21.825 8.57441 21.9619 8.85881C22.0987 9.1432 22.2927 9.3971 22.532 9.60504L27.878 14.3666Z" fill="#3385FF"/>
<path d="M32.736 13.2612C32.9404 13.059 33.0552 12.7849 33.0552 12.4991C33.0552 12.2133 32.9404 11.9391 32.736 11.7369C32.5321 11.5345 32.2555 11.42 31.9665 11.4185C31.6775 11.4169 31.3996 11.5284 31.1935 11.7285L27.8185 15.0272C27.6645 15.1769 27.559 15.3684 27.5155 15.5775C27.472 15.7866 27.4924 16.0037 27.5741 16.2013C27.6558 16.3988 27.7951 16.5679 27.9743 16.687C28.1536 16.8061 28.3646 16.8699 28.5806 16.8701C28.6446 16.8713 28.7085 16.8662 28.7715 16.8547C28.9916 16.8189 29.1948 16.7158 29.3526 16.5599L32.736 13.2612Z" fill="#1F284E"/>
<path d="M27.7021 27.3114L28.1348 27.6467L36.0512 19.9092L43.9124 12.2247L43.4741 11.874L27.7021 27.3114Z" fill="#3385FF"/>
<path d="M41.8662 11.5415L40.3589 12.0808L27.8347 24.3298L27.2168 25.8653L41.8662 11.5415Z" fill="white"/>
<path d="M27.8253 15.0271C27.6713 15.1768 27.5659 15.3683 27.5223 15.5773C27.4788 15.7864 27.4992 16.0035 27.5809 16.2011C27.6626 16.3987 27.8019 16.5678 27.9812 16.6869C28.1604 16.806 28.3714 16.8697 28.5874 16.87C28.6514 16.8712 28.7153 16.866 28.7783 16.8546C28.9984 16.8187 29.2016 16.7157 29.3594 16.5598L29.5206 16.4033C29.0851 16.6031 28.4856 16.7484 28.0982 16.3083C27.7391 15.9003 27.7801 15.3694 27.9399 14.9111L27.8253 15.0271Z" fill="#3385FF"/>
<path d="M28.1816 14.0686C27.3262 13.3001 23.5228 9.8631 22.7056 8.89905C22.1655 8.26054 22.0637 7.39849 22.2121 6.66357C22.0498 6.83515 21.9236 7.03688 21.8408 7.25707C21.758 7.47725 21.7204 7.71149 21.73 7.94618C21.7421 8.26086 21.819 8.5698 21.9558 8.8542C22.0927 9.13859 22.2867 9.39249 22.526 9.60043L27.8776 14.362L28.1816 14.0686Z" fill="url(#paint5_linear_582_343)"/>
<defs>
<linearGradient id="paint0_linear_582_343" x1="9.72844" y1="46.385" x2="46.4954" y2="9.17801" gradientUnits="userSpaceOnUse">
<stop stop-color="#B9DEF0"/>
<stop offset="0.32" stop-color="#83BAF6"/>
<stop offset="0.63" stop-color="#589DFB"/>
<stop offset="0.86" stop-color="#3D8CFE"/>
<stop offset="1" stop-color="#3385FF"/>
</linearGradient>
<linearGradient id="paint1_linear_582_343" x1="5.18351" y1="26.5621" x2="45.2844" y2="26.5621" gradientUnits="userSpaceOnUse">
<stop stop-color="#7CC6E0"/>
<stop offset="0.08" stop-color="#71BCE5"/>
<stop offset="0.3" stop-color="#56A4F0"/>
<stop offset="0.53" stop-color="#4293F8"/>
<stop offset="0.76" stop-color="#3788FD"/>
<stop offset="1" stop-color="#3385FF"/>
</linearGradient>
<linearGradient id="paint2_linear_582_343" x1="10.5111" y1="19.0568" x2="20.6561" y2="25.0355" gradientUnits="userSpaceOnUse">
<stop stop-color="#B6E1F1"/>
<stop offset="0.25" stop-color="#99CDF4"/>
<stop offset="0.8" stop-color="#4F99FC"/>
<stop offset="1" stop-color="#3385FF"/>
</linearGradient>
<linearGradient id="paint3_linear_582_343" x1="15.7846" y1="31.8975" x2="20.7945" y2="34.8498" gradientUnits="userSpaceOnUse">
<stop stop-color="#99D5EB"/>
<stop offset="0.32" stop-color="#7CBEF1"/>
<stop offset="1" stop-color="#3385FF"/>
</linearGradient>
<linearGradient id="paint4_linear_582_343" x1="27.2168" y1="18.7034" x2="41.8662" y2="18.7034" gradientUnits="userSpaceOnUse">
<stop stop-color="#B6E1F1"/>
<stop offset="0.25" stop-color="#99CDF4"/>
<stop offset="0.8" stop-color="#4F99FC"/>
<stop offset="1" stop-color="#3385FF"/>
</linearGradient>
<linearGradient id="paint5_linear_582_343" x1="21.7286" y1="10.517" x2="28.1816" y2="10.517" gradientUnits="userSpaceOnUse">
<stop stop-color="#B6E1F1"/>
<stop offset="0.25" stop-color="#99CDF4"/>
<stop offset="0.8" stop-color="#4F99FC"/>
<stop offset="1" stop-color="#3385FF"/>
</linearGradient>
</defs>
</svg>
