<svg width="127" height="54" viewBox="0 0 127 54" fill="none" xmlns="http://www.w3.org/2000/svg">
<path d="M47.4225 18.7179C47.4225 14.7096 52.3728 14.3799 53.1671 17.7327H55.8085C55.4723 14.7771 53.1043 12.771 50.3558 12.771C48.8949 12.771 47.4939 13.395 46.4609 14.5058C45.428 15.6166 44.8477 17.1232 44.8477 18.6941C44.8477 20.265 45.428 21.7715 46.4609 22.8823C47.4939 23.9931 48.8949 24.6172 50.3558 24.6172C53.1339 24.6172 55.428 22.6309 55.8233 19.6237H53.1819C52.4319 23.0242 47.4225 22.7381 47.4225 18.7179Z" fill="white"/>
<path d="M65.7015 21.8224H60.8472V12.771H58.0186V24.6172H65.7015V21.8224Z" fill="white"/>
<path d="M74.4818 21.8224H69.6613V20.0956H74.3652V17.2885H69.6613V15.5617H74.4657V12.771H66.7988V24.6172H74.4818V21.8224Z" fill="white"/>
<path d="M80.1638 21.9729H83.9618L84.5801 23.5402H87.6524L83.044 12.771H81.1238L76.6768 23.5402H79.5339L80.1638 21.9729ZM81.2467 19.3127L82.0724 17.061L82.9288 19.3716L82.9902 19.5556H81.1507L81.2467 19.3127Z" fill="white"/>
<path d="M97.5305 24.6172V12.771H94.7978V18.692L90.8845 12.771H88.75V24.6172H91.4983V18.8434L95.3647 24.6172H97.5305Z" fill="white"/>
<path d="M106.285 24.6167C109.577 24.6441 112.896 22.7505 112.896 18.9163V7.38623H108.724V18.8889C108.724 21.3889 103.894 21.4398 103.894 18.8889V7.38623H99.7256V18.9163C99.7256 22.7505 102.994 24.6167 106.285 24.6167Z" fill="#3385FF"/>
<path d="M118.017 18.7408H120.292C127.981 18.7408 128.004 7.38623 120.292 7.38623H113.994V23.5401H118.017V18.7408ZM118.017 11.2182H120.292C122.783 11.2182 122.783 15.0241 120.292 15.0241H118.017V11.2182Z" fill="#3385FF"/>
<path d="M47.4225 32.7179C47.4225 28.7096 52.3728 28.3799 53.1671 31.7327H55.8085C55.4723 28.7771 53.1043 26.771 50.3558 26.771C48.8949 26.771 47.4939 27.395 46.4609 28.5058C45.428 29.6166 44.8477 31.1232 44.8477 32.6941C44.8477 34.265 45.428 35.7715 46.4609 36.8823C47.4939 37.9931 48.8949 38.6172 50.3558 38.6172C53.1339 38.6172 55.428 36.6309 55.8233 33.6237H53.1819C52.4319 37.0202 47.4225 36.7421 47.4225 32.7179Z" fill="white"/>
<path d="M63.473 26.7715C62.3905 26.7786 61.3341 27.131 60.4367 27.7845C59.5394 28.4381 58.8412 29.3635 58.4299 30.4442C58.0187 31.525 57.9128 32.713 58.1256 33.8585C58.3384 35.0041 58.8604 36.0562 59.6258 36.8824C60.3913 37.7085 61.3661 38.2719 62.4275 38.5016C63.4888 38.7313 64.5895 38.617 65.5909 38.1731C66.5922 37.7293 67.4496 36.9757 68.0551 36.0072C68.6606 35.0387 68.9872 33.8985 68.9937 32.7301C69.0031 31.9448 68.8667 31.1654 68.5926 30.4379C68.3185 29.7104 67.9122 29.0495 67.3977 28.4941C66.8831 27.9388 66.2708 27.5003 65.5967 27.2044C64.9227 26.9085 64.2006 26.7613 63.473 26.7715ZM60.5506 32.7301C60.5506 28.3605 66.3806 28.3922 66.3806 32.7301C66.3806 37.068 60.5506 37.0561 60.5506 32.7182V32.7301Z" fill="white"/>
<path d="M76.1453 31.3596L73.2968 26.771H71.1895V38.6172H73.8358V32.7268L75.4004 35.2852H76.8715L78.4361 32.7637V38.6172H81.0675V26.771H78.9901L76.1453 31.3596Z" fill="white"/>
<path d="M86.749 26.771H82.165V38.6172H85.0874V35.0969H86.7408C92.3375 35.0969 92.354 26.771 86.749 26.771ZM86.749 32.3707H85.0957V29.5831H86.749C88.5595 29.5831 88.5595 32.3707 86.749 32.3707Z" fill="white"/>
<path d="M96.4745 26.771L92.043 38.6172H94.9399L95.5561 36.893H99.3409L99.957 38.6172H103.019L98.4263 26.771H96.4745ZM96.5396 34.234L96.6353 33.9669L97.4581 31.49L98.3115 34.0317L98.3765 34.234H96.5396Z" fill="white"/>
<path d="M110.163 32.6941L106.252 26.771H104.116V38.6172H106.866V32.8455L110.73 38.6172H112.897V26.771H110.163V32.6941Z" fill="white"/>
<path d="M120.845 28.5148L119.492 31.0854L118.202 28.6662L117.062 26.771H113.994V27.0412L118.088 33.8443V38.6172H120.876V33.8279L124.97 27.0739V26.771H121.89L120.845 28.5148Z" fill="white"/>
<path d="M45.5272 44.997C35.3401 55.0566 18.8258 55.0566 8.6401 44.997C6.2179 42.6035 4.2965 39.7621 2.9856 36.6348C1.67471 33.5076 1 30.1558 1 26.7709C1 23.3859 1.67471 20.0342 2.9856 16.9069C4.2965 13.7797 6.2179 10.9382 8.6401 8.54474C18.8201 -1.51491 35.3401 -1.51491 45.5272 8.54474" stroke="url(#paint0_linear_373_71)" stroke-linecap="round" stroke-linejoin="round"/>
<path d="M42.7986 10.7396L26.7594 26.5892C26.748 26.6003 26.739 26.6136 26.7329 26.6282C26.7267 26.6429 26.7235 26.6585 26.7235 26.6744C26.7235 26.6902 26.7267 26.7059 26.7329 26.7205C26.739 26.7352 26.748 26.7484 26.7594 26.7596L27.0846 27.081C37.4767 37.3502 22.5602 53.2905 11.5318 43.6878C11.0313 43.2518 10.5458 42.7908 10.0755 42.3046C1.88761 33.8237 1.88761 19.5306 10.0755 11.0442C12.1773 8.86434 14.6978 7.12029 17.4895 5.914C20.2813 4.70771 23.2883 4.06336 26.335 4.01862C29.3816 3.97387 32.4067 4.52962 35.2335 5.65338C38.0603 6.77715 40.6321 8.4464 42.7986 10.5636C42.8105 10.575 42.82 10.5887 42.8264 10.6038C42.8329 10.619 42.8362 10.6352 42.8362 10.6516C42.8362 10.668 42.8329 10.6842 42.8264 10.6994C42.82 10.7145 42.8105 10.7282 42.7986 10.7396ZM44.0344 40.1376C44.0344 39.1463 43.7369 38.1774 43.1796 37.3532C42.6224 36.5291 41.8303 35.8867 40.9036 35.5074C39.9768 35.1281 38.9571 35.0288 37.9733 35.2222C36.9895 35.4156 36.0858 35.8929 35.3765 36.5938C34.6673 37.2947 34.1842 38.1877 33.9885 39.1598C33.7929 40.132 33.8933 41.1397 34.2772 42.0554C34.661 42.9712 35.3111 43.7539 36.1451 44.3046C36.9791 44.8553 37.9597 45.1492 38.9627 45.1492C40.3077 45.1488 41.5975 44.6207 42.5485 43.6809C43.4995 42.7411 44.034 41.4666 44.0344 40.1376Z" fill="url(#paint1_linear_373_71)"/>
<path d="M14.7357 25.9901C17.5367 25.9901 19.8073 23.7463 19.8073 20.9785C19.8073 18.2106 17.5367 15.9668 14.7357 15.9668C11.9347 15.9668 9.66406 18.2106 9.66406 20.9785C9.66406 23.7463 11.9347 25.9901 14.7357 25.9901Z" fill="url(#paint2_linear_373_71)"/>
<path d="M19.5528 33.1772C20.0848 31.915 19.4805 30.4656 18.2032 29.9399C16.9258 29.4142 15.4591 30.0113 14.9271 31.2736C14.3951 32.5358 14.9994 33.9852 16.2767 34.5109C17.5541 35.0366 19.0208 34.4395 19.5528 33.1772Z" fill="url(#paint3_linear_373_71)"/>
<path d="M43.0321 11.2452C43.158 11.1167 43.1919 11.0748 43.305 10.9532L41.6903 9.54626C41.6658 9.52723 41.6387 9.51171 41.6098 9.50015H41.597C41.5651 9.49575 41.5328 9.49575 41.5009 9.50015L41.4613 9.50993L32.6245 12.7137L31.8991 12.2302C32.0837 12.0098 32.2011 11.742 32.2376 11.4582C32.2741 11.1743 32.2283 10.8861 32.1055 10.627C31.9827 10.3678 31.788 10.1485 31.5439 9.99456C31.2999 9.84058 31.0166 9.75828 30.727 9.75723C30.6375 9.75715 30.5482 9.76416 30.4598 9.77819C30.15 9.8307 29.8643 9.97719 29.6426 10.1973L29.5945 10.2435L24.8509 4.91603C24.6034 4.63311 24.3004 4.40288 23.9601 4.23931C23.6198 4.07574 23.2494 3.98226 22.8714 3.96455C22.7087 3.95854 22.5457 3.96884 22.385 3.99529C21.9392 4.06718 21.5268 4.27362 21.2044 4.58629L20.6884 5.09207C20.472 5.30644 20.3028 5.56267 20.1914 5.84469C20.08 6.12671 20.0287 6.42844 20.0408 6.73096C20.0546 7.10481 20.1452 7.47199 20.3071 7.81017C20.469 8.14835 20.6987 8.45047 20.9825 8.69818L26.3143 13.4486L26.2676 13.4947C25.9795 13.7771 25.8166 14.1609 25.8144 14.5619C25.8123 14.9629 25.9712 15.3484 26.2563 15.6337C26.5235 15.8989 26.8804 16.0572 27.2585 16.0784C27.6366 16.0995 28.0092 15.982 28.305 15.7483L28.7857 16.4665L25.1732 25.4447C25.1637 25.4682 25.1589 25.4934 25.1591 25.5187C25.1591 25.5187 25.1591 25.5327 25.1591 25.5397C25.1601 25.5583 25.164 25.5767 25.1704 25.5942C25.1736 25.6028 25.1774 25.6112 25.1817 25.6193C25.1893 25.6349 25.1988 25.6494 25.21 25.6627C25.213 25.668 25.2163 25.6731 25.2199 25.678H25.2298L25.2411 25.6892C25.2411 25.6892 26.8515 26.9467 26.9236 26.9928C27.058 26.8684 27.0848 26.8349 27.2573 26.663L43.0321 11.2452ZM21.2765 8.37543C21.0372 8.16749 20.8432 7.91359 20.7064 7.62919C20.5695 7.3448 20.4927 7.03586 20.4805 6.72117C20.47 6.47774 20.5106 6.23478 20.5996 6.00757C20.6887 5.78035 20.8243 5.57379 20.998 5.40085L21.5197 4.89507C21.6969 4.72569 21.9074 4.59422 22.1383 4.50888C22.3692 4.42354 22.6154 4.38616 22.8615 4.39907C23.1798 4.41474 23.4916 4.49416 23.7779 4.6325C24.0642 4.77084 24.3191 4.96522 24.5271 5.20384L29.2877 10.5424L26.6338 13.137L21.2765 8.37543ZM28.1099 15.3306C27.9521 15.4864 27.7489 15.5895 27.5288 15.6254C27.4658 15.6368 27.4019 15.6419 27.3379 15.6407C27.1219 15.6405 26.9109 15.5767 26.7317 15.4576C26.5524 15.3385 26.4131 15.1694 26.3314 14.9719C26.2497 14.7743 26.2293 14.5572 26.2728 14.3481C26.3164 14.1391 26.4218 13.9475 26.5758 13.7979L29.9508 10.4991C30.0529 10.3995 30.1739 10.3207 30.3068 10.2673C30.4397 10.2139 30.582 10.1868 30.7255 10.1877C30.869 10.1887 31.0109 10.2175 31.1432 10.2726C31.2754 10.3277 31.3954 10.408 31.4962 10.5089C31.597 10.6098 31.6767 10.7294 31.7308 10.8607C31.7848 10.9921 31.8122 11.1327 31.8113 11.2745C31.8104 11.4163 31.7812 11.5565 31.7254 11.6872C31.6697 11.8179 31.5884 11.9364 31.4863 12.036L28.1099 15.3306ZM29.241 16.5168C29.2541 16.4842 29.259 16.4491 29.2553 16.4143C29.2516 16.3795 29.2394 16.3461 29.2198 16.317L28.633 15.4367L31.5937 12.5432L32.476 13.1342C32.523 13.165 32.5801 13.177 32.6358 13.1677L32.6739 13.158L40.6229 10.3119L25.9678 24.6357L29.241 16.5168ZM26.8897 26.4171L25.7119 25.5034L41.4981 10.0618L42.6631 10.9951L34.8004 18.6796L26.8897 26.4171Z" fill="#1F284E"/>
<path d="M41.4978 10.062L25.7061 25.5036L26.8852 26.4173L34.8016 18.6798L42.6629 10.9953L41.4978 10.062Z" fill="#1F284E"/>
<path d="M32.4693 13.1343L31.587 12.5433L28.6263 15.4368L29.2131 16.3171C29.2327 16.3462 29.2449 16.3796 29.2486 16.4144C29.2523 16.4492 29.2474 16.4843 29.2343 16.5169L25.9668 24.6358L40.6162 10.312L32.6672 13.1581L32.6291 13.1678C32.5734 13.1771 32.5163 13.1651 32.4693 13.1343Z" fill="url(#paint4_linear_373_71)"/>
<path d="M26.628 13.1371L29.2818 10.5426L24.5213 5.20396C24.3133 4.96534 24.0584 4.77096 23.7721 4.63262C23.4858 4.49428 23.174 4.41486 22.8557 4.39919C22.6105 4.38705 22.3654 4.42481 22.1355 4.51013C21.9057 4.59545 21.696 4.72651 21.5196 4.89519L21.0035 5.40097C20.8298 5.57391 20.6942 5.78047 20.6051 6.00768C20.516 6.2349 20.4755 6.47785 20.486 6.72129C20.4982 7.03597 20.575 7.34492 20.7119 7.62931C20.8487 7.91371 21.0427 8.16761 21.282 8.37555L26.628 13.1371Z" fill="#3385FF"/>
<path d="M31.486 12.0322C31.6904 11.83 31.8052 11.5559 31.8052 11.2701C31.8052 10.9843 31.6904 10.7101 31.486 10.5079C31.2821 10.3055 31.0055 10.191 30.7165 10.1895C30.4275 10.1879 30.1496 10.2994 29.9435 10.4995L26.5685 13.7982C26.4145 13.9479 26.309 14.1394 26.2655 14.3485C26.222 14.5575 26.2424 14.7747 26.3241 14.9723C26.4058 15.1698 26.5451 15.3389 26.7243 15.458C26.9036 15.5771 27.1146 15.6409 27.3306 15.6411C27.3946 15.6423 27.4585 15.6372 27.5215 15.6257C27.7416 15.5899 27.9448 15.4868 28.1026 15.3309L31.486 12.0322Z" fill="#1F284E"/>
<path d="M26.4521 26.0819L26.8848 26.4172L34.8012 18.6797L42.6624 10.9952L42.2241 10.6445L26.4521 26.0819Z" fill="#3385FF"/>
<path d="M40.6162 10.312L39.1089 10.8513L26.5847 23.1003L25.9668 24.6358L40.6162 10.312Z" fill="white"/>
<path d="M26.5753 13.7981C26.4213 13.9477 26.3159 14.1393 26.2723 14.3483C26.2288 14.5574 26.2492 14.7745 26.3309 14.9721C26.4126 15.1697 26.5519 15.3388 26.7312 15.4579C26.9104 15.577 27.1214 15.6407 27.3374 15.641C27.4014 15.6422 27.4653 15.637 27.5283 15.6256C27.7484 15.5897 27.9516 15.4866 28.1094 15.3308L28.2706 15.1743C27.8351 15.3741 27.2356 15.5194 26.8482 15.0793C26.4891 14.6713 26.5301 14.1404 26.6899 13.6821L26.5753 13.7981Z" fill="#3385FF"/>
<path d="M26.9316 12.8396C26.0762 12.0711 22.2728 8.6341 21.4556 7.67005C20.9155 7.03154 20.8137 6.16948 20.9621 5.43457C20.7998 5.60614 20.6736 5.80788 20.5908 6.02806C20.508 6.24825 20.4704 6.48249 20.48 6.71718C20.4921 7.03186 20.569 7.3408 20.7058 7.62519C20.8427 7.90959 21.0367 8.16349 21.276 8.37143L26.6276 13.133L26.9316 12.8396Z" fill="url(#paint5_linear_373_71)"/>
<defs>
<linearGradient id="paint0_linear_373_71" x1="8.47844" y1="45.156" x2="45.2454" y2="7.94901" gradientUnits="userSpaceOnUse">
<stop stop-color="#B9DEF0"/>
<stop offset="0.32" stop-color="#83BAF6"/>
<stop offset="0.63" stop-color="#589DFB"/>
<stop offset="0.86" stop-color="#3D8CFE"/>
<stop offset="1" stop-color="#3385FF"/>
</linearGradient>
<linearGradient id="paint1_linear_373_71" x1="3.93351" y1="25.3331" x2="44.0344" y2="25.3331" gradientUnits="userSpaceOnUse">
<stop stop-color="#7CC6E0"/>
<stop offset="0.08" stop-color="#71BCE5"/>
<stop offset="0.3" stop-color="#56A4F0"/>
<stop offset="0.53" stop-color="#4293F8"/>
<stop offset="0.76" stop-color="#3788FD"/>
<stop offset="1" stop-color="#3385FF"/>
</linearGradient>
<linearGradient id="paint2_linear_373_71" x1="9.2611" y1="17.8278" x2="19.4061" y2="23.8065" gradientUnits="userSpaceOnUse">
<stop stop-color="#B6E1F1"/>
<stop offset="0.25" stop-color="#99CDF4"/>
<stop offset="0.8" stop-color="#4F99FC"/>
<stop offset="1" stop-color="#3385FF"/>
</linearGradient>
<linearGradient id="paint3_linear_373_71" x1="14.5346" y1="30.6685" x2="19.5445" y2="33.6208" gradientUnits="userSpaceOnUse">
<stop stop-color="#99D5EB"/>
<stop offset="0.32" stop-color="#7CBEF1"/>
<stop offset="1" stop-color="#3385FF"/>
</linearGradient>
<linearGradient id="paint4_linear_373_71" x1="25.9668" y1="17.4739" x2="40.6162" y2="17.4739" gradientUnits="userSpaceOnUse">
<stop stop-color="#B6E1F1"/>
<stop offset="0.25" stop-color="#99CDF4"/>
<stop offset="0.8" stop-color="#4F99FC"/>
<stop offset="1" stop-color="#3385FF"/>
</linearGradient>
<linearGradient id="paint5_linear_373_71" x1="20.4786" y1="9.28797" x2="26.9316" y2="9.28797" gradientUnits="userSpaceOnUse">
<stop stop-color="#B6E1F1"/>
<stop offset="0.25" stop-color="#99CDF4"/>
<stop offset="0.8" stop-color="#4F99FC"/>
<stop offset="1" stop-color="#3385FF"/>
</linearGradient>
</defs>
</svg>
