<svg width="164" height="49" viewBox="0 0 164 49" fill="none" xmlns="http://www.w3.org/2000/svg">
<g clip-path="url(#clip0_204_2344)">
<path d="M26.2742 12.3398V24.9687C26.2742 25.546 25.8377 25.979 25.2558 25.979H23.728C23.6553 25.979 23.5825 26.0512 23.5825 26.1233V36.7316C23.9463 36.7316 24.31 36.8038 24.7465 36.8038C31.5849 36.8038 37.1139 31.3192 37.1139 24.5357C37.1139 18.2574 32.3852 13.0615 26.2742 12.3398ZM25.9832 31.2471C25.1103 31.2471 24.4555 30.5254 24.4555 29.7316C24.4555 28.8656 25.183 28.2161 25.9832 28.2161C26.8562 28.2161 27.511 28.9378 27.511 29.7316C27.5837 30.5254 26.8562 31.2471 25.9832 31.2471ZM29.6207 31.2471C28.7477 31.2471 28.093 30.5254 28.093 29.7316C28.093 28.8656 28.8205 28.2161 29.6207 28.2161C30.4937 28.2161 31.1484 28.9378 31.1484 29.7316C31.1484 30.5254 30.4937 31.2471 29.6207 31.2471ZM33.2582 31.2471C32.3852 31.2471 31.7304 30.5254 31.7304 29.7316C31.7304 28.8656 32.4579 28.2161 33.2582 28.2161C34.1312 28.2161 34.7859 28.9378 34.7859 29.7316C34.7859 30.5254 34.1312 31.2471 33.2582 31.2471Z" fill="#747474"/>
<path d="M24.7463 12.2676C17.9079 12.2676 12.3789 17.7521 12.3789 24.5356C12.3789 30.4531 16.5256 35.3604 22.1273 36.515V25.4738C22.1273 24.9686 22.5638 24.5356 23.0731 24.4635H24.6008C24.6735 24.4635 24.7463 24.3913 24.7463 24.3191V12.2676ZM22.3456 22.3707C21.4726 22.3707 20.8178 21.649 20.8178 20.8552C20.8178 19.9892 21.5453 19.3397 22.3456 19.3397C23.2186 19.3397 23.8733 20.0614 23.8733 20.8552C23.8733 21.649 23.2186 22.3707 22.3456 22.3707ZM148.566 18.9789V23.5975H142.309V18.9789H139.181V31.247H142.309V26.2676H148.566V31.247H151.621V18.9789H148.566ZM97.0591 20.3501C96.5499 19.2676 95.5314 18.6903 94.5129 18.6903C93.4944 18.6903 92.4759 19.2676 91.9667 20.3501L86.947 31.247H90.2207L91.3119 28.649H97.7139L98.8051 31.247H102.079L97.0591 20.3501ZM92.3304 26.1954L94.2219 21.7212C94.2947 21.5769 94.3674 21.5769 94.4402 21.5769C94.5129 21.5769 94.6584 21.5769 94.6584 21.7212L96.5499 26.1954H92.3304ZM60.248 16.7418C58.793 16.7418 57.8472 17.5356 57.1925 19.0511L53.1913 28.2882L49.1901 19.0511C48.5353 17.5356 47.5896 16.7418 46.1346 16.7418C44.7524 16.7418 43.3701 17.6799 43.3701 19.7727V31.1748H46.4256V20.1336L50.4996 29.2985C51.0088 30.5975 51.9545 31.3913 53.1913 31.3913C54.5008 31.3913 55.3738 30.5975 55.883 29.2985L59.957 20.1336V31.247H63.0124V19.8449C63.0124 17.7521 61.6302 16.7418 60.248 16.7418ZM68.4686 28.649C68.3231 28.649 68.1776 28.5047 68.1776 28.3604V26.1954H75.8891V23.6696H68.1776V21.7934C68.1776 21.649 68.3231 21.5047 68.4686 21.5047H76.1073V18.9068H66.9409C65.8497 18.9068 65.1222 19.7727 65.1222 20.7109V29.2985C65.1222 30.2366 65.9224 31.1026 66.9409 31.1026H76.1073V28.5047H68.4686V28.649ZM81.2725 31.247V21.8655C81.2725 21.7212 81.418 21.5769 81.5635 21.5769H89.2022V18.9789H80.0358C78.9445 18.9789 78.2171 19.8449 78.2171 20.783V31.1748H81.2725V31.247ZM137.144 25.1129C137.144 20.8552 135.253 18.8346 130.597 18.8346H129.505C124.849 18.8346 122.958 20.8552 122.958 25.1129C122.958 29.2985 124.849 31.3913 129.505 31.3913H130.524C135.253 31.3191 137.144 29.2985 137.144 25.1129ZM130.524 28.7934H129.505C126.959 28.7934 125.941 27.6387 125.941 25.1129C125.941 22.6593 126.814 21.4325 129.505 21.4325H130.524C133.143 21.4325 134.089 22.6593 134.089 25.1129C134.089 27.6387 133.143 28.7934 130.524 28.7934ZM114.373 17.0305H108.263C103.679 17.0305 101.861 19.3397 101.861 23.3088C101.861 23.9583 101.933 24.5356 102.006 25.0408C102.515 27.8552 104.189 29.5872 108.481 29.5872H109.863V31.1748H112.918V29.5872H114.228C118.52 29.5872 120.193 27.8552 120.703 25.0408C120.775 24.5356 120.848 23.9583 120.848 23.3088C120.775 19.3397 118.884 17.0305 114.373 17.0305ZM109.718 27.0614H108.335C106.226 27.0614 105.498 26.2676 105.062 25.0408C104.916 24.6078 104.916 23.9583 104.916 23.3088C104.916 20.7109 106.153 19.6284 107.899 19.6284H109.79V27.0614H109.718ZM117.574 25.1129C117.138 26.3397 116.338 27.1336 114.301 27.1336H112.918V19.6284H114.81C116.556 19.6284 117.793 20.7109 117.793 23.3088C117.72 24.0305 117.72 24.6078 117.574 25.1129Z" fill="#747474"/>
</g>
<defs>
<clipPath id="clip0_204_2344">
<rect width="164" height="49" fill="white"/>
</clipPath>
</defs>
</svg>
