<svg width="168" height="75" viewBox="0 0 168 75" fill="none" xmlns="http://www.w3.org/2000/svg">
<path d="M85.9859 11.7995C85.9855 11.7527 85.9943 11.7064 86.0119 11.6631C86.0295 11.6198 86.0556 11.5804 86.0885 11.5472C86.1214 11.514 86.1605 11.4877 86.2037 11.4697C86.2468 11.4517 86.2931 11.4425 86.3399 11.4425L88.1969 11.4395C89.0488 11.4381 89.8661 11.6573 90.4692 12.0488C91.0723 12.4404 91.4117 12.9722 91.4129 13.5275V13.5635C91.4134 13.8385 91.3308 14.111 91.1698 14.3654C91.0088 14.6199 90.7724 14.8512 90.4744 15.0462C90.1763 15.2412 89.8222 15.3961 89.4325 15.502C89.0427 15.6079 88.6249 15.6628 88.2029 15.6635L86.3459 15.6665C86.2525 15.6665 86.1629 15.6296 86.0966 15.5638C86.0303 15.4981 85.9926 15.4088 85.9919 15.3155L85.9859 11.7995Z" fill="#747474"/>
<path d="M91.83 15.0454C92.022 17.4994 92.22 19.2034 89.772 20.3704C85.992 22.1744 82.483 21.6954 79.245 18.9334C79.165 18.8654 79.125 18.7784 79.125 18.6724V14.7064C79.125 14.5664 79.173 14.5474 79.269 14.6494C82.656 18.2464 88.056 18.1234 91.674 14.9794C91.768 14.8974 91.82 14.9194 91.83 15.0454Z" fill="#C1C1C1"/>
<path d="M39.8518 28.6199C39.8511 28.6315 39.8544 28.6431 39.8611 28.6526C39.8679 28.6621 39.8777 28.669 39.8889 28.6722C39.9001 28.6753 39.9121 28.6745 39.9228 28.6699C39.9335 28.6653 39.9424 28.6572 39.9478 28.6469C41.7078 25.0529 44.6188 23.6789 48.6808 24.5249C53.8528 25.5989 55.1248 31.6469 54.2698 36.2429C53.3218 41.3459 49.1518 43.8029 44.2138 43.2359C38.8648 42.6239 36.6688 38.4629 36.3178 33.4709C35.8678 27.0329 36.8098 20.2109 43.6198 17.6999C45.6238 16.9589 48.5968 16.7309 51.0418 16.1639C51.3868 16.0829 51.7798 15.7919 52.1668 15.6779C52.2888 15.6419 52.3498 15.6879 52.3498 15.8159V19.1309C52.3499 19.2103 52.3267 19.288 52.283 19.3546C52.2393 19.4212 52.177 19.4738 52.1038 19.5059C48.0298 21.2999 43.4068 19.8509 41.0128 24.7139C40.4028 25.9539 40.0158 27.2559 39.8518 28.6199ZM50.3158 32.6039C49.8958 28.0169 43.7188 26.7359 41.5018 30.3089C39.6538 33.2909 40.6558 39.3269 44.8408 39.8219C49.4518 40.3619 50.6548 36.2939 50.3158 32.6039Z" fill="#747474"/>
<path d="M27.3238 17.5984C32.0278 18.8374 33.5038 23.1634 33.9418 27.4894C34.7158 35.1304 32.3998 43.6564 22.8958 43.2784C16.9708 43.0414 14.0248 38.2624 13.4368 32.8504C12.9508 28.3714 13.2238 22.0534 17.1838 19.0084C19.8688 16.9474 24.1138 16.7524 27.3238 17.5984ZM29.2708 25.3474C27.7348 20.1724 20.6638 19.5424 18.4348 24.4354C16.3558 28.9984 16.8088 41.1844 24.9298 39.3934C30.6268 38.1334 30.4618 29.3674 29.2708 25.3474Z" fill="#747474"/>
<path d="M71.7931 23.9824C75.2671 26.6104 75.2131 32.7874 74.2351 36.5794C72.7801 42.2194 66.8971 44.8054 61.6621 42.5104C56.5381 40.2604 55.6651 32.7094 56.9191 27.9754C58.6201 21.5464 67.1221 20.4454 71.7931 23.9824ZM68.9551 38.1904C72.1531 34.9204 71.6551 25.4704 65.2081 26.0434C62.6251 26.2744 61.0621 27.8344 60.6061 30.3754C60.1411 32.9614 60.3661 36.3874 62.3371 38.2744C64.1041 39.9664 67.3321 39.8464 68.9551 38.1904Z" fill="#747474"/>
<path d="M89.6458 28.8752C89.646 28.8592 89.6407 28.8438 89.6309 28.8313C89.6211 28.8189 89.6073 28.8101 89.5916 28.8063C89.5759 28.8026 89.5592 28.8041 89.544 28.8105C89.5289 28.817 89.5161 28.8281 89.5078 28.8422L82.0318 42.6932C81.9838 42.7812 81.9098 42.8252 81.8098 42.8252H77.3248C77.2248 42.8252 77.1748 42.7752 77.1748 42.6752V22.7252C77.1748 22.6252 77.2248 22.5752 77.3248 22.5752H80.9158C81.0098 22.5752 81.0578 22.6222 81.0598 22.7162L81.1708 36.3692C81.1714 36.3888 81.1784 36.4076 81.1907 36.4229C81.203 36.4381 81.2199 36.4489 81.2389 36.4537C81.2579 36.4584 81.278 36.4569 81.296 36.4492C81.314 36.4415 81.3291 36.4282 81.3388 36.4112L88.5628 22.7462C88.6228 22.6322 88.7188 22.5752 88.8508 22.5752H93.4858C93.6118 22.5752 93.6748 22.6382 93.6748 22.7642V42.7322C93.6748 42.7569 93.665 42.7805 93.6476 42.798C93.6301 42.8154 93.6065 42.8252 93.5818 42.8252H89.8528C89.7448 42.8252 89.6698 42.7752 89.6278 42.6752C89.5938 42.5932 89.5928 42.5052 89.6248 42.4112C89.6528 42.3332 89.6668 42.2532 89.6668 42.1712L89.6458 28.8752Z" fill="#747474"/>
<path d="M101.013 42.8252H97.227C97.1999 42.8252 97.174 42.8145 97.1549 42.7953C97.1357 42.7762 97.125 42.7503 97.125 42.7232V22.6772C97.125 22.6501 97.1357 22.6242 97.1549 22.6051C97.174 22.5859 97.1999 22.5752 97.227 22.5752H101.034C101.047 22.5752 101.061 22.5778 101.073 22.583C101.085 22.5881 101.097 22.5956 101.106 22.6051C101.116 22.6145 101.123 22.6258 101.128 22.6382C101.133 22.6505 101.136 22.6638 101.136 22.6772L101.175 31.6112C101.175 31.6326 101.181 31.6535 101.194 31.671C101.206 31.6885 101.224 31.7017 101.244 31.7087C101.264 31.7156 101.286 31.7161 101.306 31.7099C101.327 31.7037 101.345 31.6912 101.358 31.6742L108.285 22.6142C108.295 22.6019 108.307 22.5921 108.321 22.5853C108.335 22.5785 108.35 22.5751 108.366 22.5752H113.412C113.431 22.5752 113.451 22.5807 113.467 22.5912C113.483 22.6016 113.497 22.6166 113.505 22.6342C113.513 22.6519 113.516 22.6716 113.513 22.6909C113.511 22.7102 113.503 22.7283 113.49 22.7432L105.273 32.4812C105.257 32.4996 105.249 32.523 105.249 32.5472C105.249 32.5714 105.257 32.5948 105.273 32.6132L113.94 42.6572C113.953 42.6721 113.961 42.6902 113.963 42.7095C113.966 42.7288 113.963 42.7485 113.955 42.7662C113.947 42.7838 113.933 42.7988 113.917 42.8092C113.901 42.8197 113.881 42.8252 113.862 42.8252H108.549C108.533 42.8253 108.518 42.8219 108.504 42.8151C108.49 42.8083 108.478 42.7985 108.468 42.7862L101.316 33.6152C101.303 33.5982 101.285 33.5857 101.264 33.5795C101.244 33.5733 101.222 33.5738 101.202 33.5807C101.182 33.5877 101.164 33.6009 101.152 33.6184C101.139 33.6359 101.133 33.6568 101.133 33.6782L101.115 42.7232C101.115 42.7366 101.112 42.7499 101.107 42.7622C101.102 42.7746 101.095 42.7859 101.085 42.7953C101.076 42.8048 101.064 42.8123 101.052 42.8174C101.04 42.8226 101.026 42.8252 101.013 42.8252Z" fill="#747474"/>
<path d="M120.387 36.4772C120.387 36.491 120.392 36.5045 120.4 36.5156C120.408 36.5266 120.42 36.5346 120.433 36.5384C120.446 36.5421 120.461 36.5414 120.473 36.5363C120.486 36.5312 120.497 36.522 120.504 36.5102L127.77 22.6982C127.79 22.661 127.819 22.6299 127.855 22.6083C127.89 22.5866 127.93 22.5752 127.971 22.5752H132.672C132.772 22.5752 132.822 22.6252 132.822 22.7252L132.831 42.6812C132.831 42.7194 132.816 42.756 132.789 42.783C132.762 42.81 132.725 42.8252 132.687 42.8252H129.075C128.925 42.8252 128.85 42.7502 128.85 42.6002V28.8902C128.85 28.8713 128.843 28.853 128.831 28.8382C128.82 28.8234 128.803 28.8128 128.785 28.808C128.767 28.8033 128.747 28.8046 128.73 28.8119C128.712 28.8191 128.698 28.8319 128.688 28.8482L121.218 42.6842C121.168 42.7782 121.09 42.8252 120.984 42.8252H116.55C116.4 42.8252 116.325 42.7502 116.325 42.6002V22.7252C116.325 22.6854 116.341 22.6473 116.369 22.6191C116.397 22.591 116.435 22.5752 116.475 22.5752H120.15C120.25 22.5752 120.3 22.6252 120.3 22.7252V35.9312C120.3 36.0332 120.317 36.1342 120.351 36.2342C120.379 36.3122 120.391 36.3932 120.387 36.4772Z" fill="#747474"/>
<path d="M140.343 30.0752H148.623C148.65 30.0752 148.676 30.0644 148.695 30.0453C148.714 30.0262 148.725 30.0002 148.725 29.9732V22.6772C148.725 22.6501 148.736 22.6242 148.755 22.6051C148.774 22.5859 148.8 22.5752 148.827 22.5752H152.523C152.55 22.5752 152.576 22.5859 152.595 22.6051C152.614 22.6242 152.625 22.6501 152.625 22.6772V42.7232C152.625 42.7502 152.614 42.7762 152.595 42.7953C152.576 42.8145 152.55 42.8252 152.523 42.8252H148.827C148.8 42.8252 148.774 42.8145 148.755 42.7953C148.736 42.7762 148.725 42.7502 148.725 42.7232V33.9212C148.725 33.8941 148.714 33.8682 148.695 33.8491C148.676 33.8299 148.65 33.8192 148.623 33.8192L140.325 33.8252C140.298 33.8252 140.272 33.8359 140.253 33.8551C140.234 33.8742 140.223 33.9001 140.223 33.9272L140.163 42.7232C140.163 42.7502 140.152 42.7762 140.133 42.7953C140.114 42.8145 140.088 42.8252 140.061 42.8252H136.308C136.281 42.8252 136.255 42.8145 136.236 42.7953C136.217 42.7762 136.206 42.7502 136.206 42.7232L136.197 22.6772C136.197 22.6501 136.208 22.6242 136.227 22.6051C136.246 22.5859 136.272 22.5752 136.299 22.5752H140.097C140.124 22.5752 140.15 22.5859 140.169 22.6051C140.188 22.6242 140.199 22.6501 140.199 22.6772L140.241 29.9732C140.241 30.0002 140.252 30.0262 140.271 30.0453C140.29 30.0644 140.316 30.0752 140.343 30.0752Z" fill="#747474"/>
<path d="M23.2859 50.7299C25.0019 49.1219 27.6749 49.3589 28.3319 51.7739C29.0219 54.3269 27.6059 56.8829 24.6929 56.4389C21.4889 55.9529 21.7619 51.6989 22.3769 49.5239C22.9979 47.3429 25.9679 47.1929 27.8429 46.8629C27.9549 46.8429 28.0169 46.8889 28.0289 47.0009L28.1369 47.9879C28.1489 48.1099 28.0939 48.1799 27.9719 48.1979C26.2979 48.4559 23.4929 48.5369 23.1569 50.6609C23.1329 50.8089 23.1759 50.8319 23.2859 50.7299ZM25.3136 55.4579C25.7297 55.4542 26.1266 55.2004 26.417 54.7523C26.7073 54.3042 26.8673 53.6984 26.8618 53.0683C26.8591 52.7563 26.8158 52.4477 26.7345 52.1601C26.6531 51.8725 26.5353 51.6116 26.3877 51.3922C26.24 51.1729 26.0656 50.9994 25.8742 50.8817C25.6828 50.7639 25.4782 50.7042 25.2722 50.706C24.8561 50.7097 24.4592 50.9635 24.1688 51.4116C23.8785 51.8597 23.7185 52.4655 23.724 53.0956C23.7267 53.4076 23.77 53.7162 23.8513 54.0038C23.9327 54.2914 24.0505 54.5523 24.1981 54.7716C24.3458 54.991 24.5203 55.1645 24.7116 55.2822C24.903 55.4 25.1076 55.4596 25.3136 55.4579Z" fill="#747474"/>
<path d="M41.7302 46.9289C41.7592 46.9396 41.7859 46.9559 41.8086 46.977C41.8313 46.9981 41.8496 47.0234 41.8625 47.0516C41.8753 47.0798 41.8824 47.1102 41.8834 47.1412C41.8844 47.1721 41.8792 47.203 41.8682 47.2319C41.1272 49.2479 38.7812 49.1399 38.0282 47.2139C37.9782 47.0859 38.0182 46.9989 38.1482 46.9529L38.6072 46.7909C38.7332 46.7469 38.8242 46.7859 38.8802 46.9079C39.2682 47.7619 39.8562 47.9659 40.6442 47.5199C40.7322 47.4699 40.7942 47.3969 40.8302 47.3009C40.9822 46.8829 41.2822 46.7589 41.7302 46.9289Z" fill="#747474"/>
<path d="M64.0111 46.9922C64.5901 48.0842 65.6581 47.9372 66.1351 46.8842C66.1831 46.7802 66.2621 46.7452 66.3721 46.7792L66.8731 46.9442C66.9971 46.9842 67.0361 47.0652 66.9901 47.1872C66.2041 49.2392 63.8401 49.2122 63.1021 47.1452C63.0561 47.0172 63.1001 46.9442 63.2341 46.9262L63.7591 46.8602C63.8731 46.8462 63.9571 46.8902 64.0111 46.9922Z" fill="#747474"/>
<path d="M17.9346 56.529C17.0658 56.535 16.2299 56.166 15.6109 55.5031C14.9919 54.8401 14.6405 53.9375 14.6339 52.9939C14.6273 52.0503 14.9661 51.1429 15.5758 50.4714C16.1855 49.7999 17.0161 49.4192 17.885 49.4132C18.7538 49.4071 19.5896 49.7761 20.2086 50.4391C20.8277 51.102 21.1791 52.0046 21.1857 52.9482C21.1923 53.8918 20.8535 54.7992 20.2438 55.4707C19.6341 56.1422 18.8035 56.5229 17.9346 56.529ZM17.9024 55.4731C18.1077 55.4734 18.311 55.4088 18.5009 55.283C18.6907 55.1571 18.8634 54.9725 19.0089 54.7395C19.1544 54.5066 19.2701 54.23 19.3491 53.9255C19.4282 53.621 19.4692 53.2945 19.4698 52.9648C19.4704 52.6351 19.4305 52.3085 19.3525 52.0037C19.2745 51.6989 19.1598 51.4219 19.0151 51.1885C18.8704 50.955 18.6984 50.7698 18.509 50.6433C18.3196 50.5167 18.1164 50.4514 17.9112 50.4511C17.7059 50.4507 17.5026 50.5153 17.3127 50.6412C17.1229 50.767 16.9502 50.9517 16.8047 51.1846C16.6591 51.4175 16.5435 51.6941 16.4644 51.9986C16.3854 52.3031 16.3444 52.6296 16.3438 52.9593C16.3432 53.2891 16.3831 53.6157 16.4611 53.9205C16.5391 54.2253 16.6538 54.5023 16.7985 54.7357C16.9432 54.9691 17.1152 55.1544 17.3046 55.2809C17.494 55.4074 17.6972 55.4727 17.9024 55.4731Z" fill="#747474"/>
<path d="M32.4032 56.5229C31.5319 56.5229 30.6964 56.1487 30.0803 55.4826C29.4643 54.8165 29.1182 53.913 29.1182 52.9709C29.1182 52.0289 29.4643 51.1254 30.0803 50.4593C30.6964 49.7932 31.5319 49.4189 32.4032 49.4189C33.2744 49.4189 34.11 49.7932 34.726 50.4593C35.3421 51.1254 35.6882 52.0289 35.6882 52.9709C35.6882 53.913 35.3421 54.8165 34.726 55.4826C34.11 56.1487 33.2744 56.5229 32.4032 56.5229ZM32.3944 55.4729C32.8042 55.4743 33.1981 55.2112 33.4894 54.7413C33.7808 54.2714 33.9458 53.6333 33.9482 52.9673C33.9493 52.6376 33.9105 52.3109 33.8339 52.006C33.7573 51.7011 33.6445 51.4239 33.5018 51.1902C33.3592 50.9566 33.1895 50.771 33.0025 50.6442C32.8155 50.5173 32.6148 50.4517 32.4119 50.451C32.0022 50.4495 31.6083 50.7127 31.3169 51.1826C31.0255 51.6525 30.8605 52.2906 30.8582 52.9565C30.857 53.2863 30.8958 53.613 30.9724 53.9179C31.049 54.2228 31.1618 54.5 31.3045 54.7337C31.4471 54.9673 31.6168 55.1529 31.8038 55.2797C31.9908 55.4066 32.1915 55.4722 32.3944 55.4729Z" fill="#747474"/>
<path d="M38.6548 53.9851L41.3818 49.7731C41.3908 49.7588 41.4031 49.7469 41.4178 49.7385C41.4324 49.7302 41.4489 49.7256 41.4658 49.7251H42.8728C42.8999 49.7251 42.9258 49.7359 42.9449 49.755C42.9641 49.7741 42.9748 49.8001 42.9748 49.8271V56.2981C42.9748 56.3252 42.9641 56.3511 42.9449 56.3703C42.9258 56.3894 42.8999 56.4001 42.8728 56.4001H41.4898C41.4628 56.4001 41.4368 56.3894 41.4177 56.3703C41.3986 56.3511 41.3878 56.3252 41.3878 56.2981L41.4058 52.2031C41.4067 52.1806 41.4 52.1584 41.3869 52.14C41.3738 52.1216 41.355 52.1081 41.3333 52.1016C41.3117 52.0951 41.2886 52.0959 41.2675 52.104C41.2464 52.112 41.2286 52.1269 41.2168 52.1461L38.4868 56.3551C38.4775 56.3689 38.465 56.3802 38.4504 56.388C38.4358 56.3959 38.4194 56.4 38.4028 56.4001H37.0678C37.0408 56.4001 37.0148 56.3894 36.9957 56.3703C36.9766 56.3511 36.9658 56.3252 36.9658 56.2981L36.9808 49.7881C36.9813 49.764 36.9903 49.7408 37.0062 49.7227C37.0221 49.7046 37.044 49.6927 37.0678 49.6891L38.3788 49.5001C38.3934 49.498 38.4083 49.499 38.4225 49.5031C38.4366 49.5073 38.4497 49.5144 38.4609 49.5241C38.472 49.5338 38.4809 49.5458 38.4869 49.5593C38.4929 49.5728 38.496 49.5874 38.4958 49.6021L38.4688 53.9311C38.4696 53.9526 38.4771 53.9732 38.4903 53.9901C38.5035 54.007 38.5217 54.0193 38.5423 54.0253C38.5629 54.0313 38.5849 54.0306 38.6051 54.0234C38.6253 54.0162 38.6427 54.0028 38.6548 53.9851Z" fill="#747474"/>
<path d="M46.4909 52.2754H48.9329C48.9722 52.2754 49.0099 52.26 49.0379 52.2326C49.066 52.2051 49.0821 52.1677 49.0829 52.1284L49.1189 49.8214C49.1193 49.7856 49.1325 49.751 49.1562 49.724C49.1798 49.697 49.2124 49.6795 49.2479 49.6744L50.4779 49.5034C50.499 49.5004 50.5206 49.502 50.5411 49.508C50.5615 49.514 50.5805 49.5243 50.5967 49.5382C50.6129 49.5521 50.6259 49.5693 50.6349 49.5887C50.6439 49.608 50.6487 49.6291 50.6489 49.6504L50.6549 56.2534C50.6549 56.2932 50.6391 56.3314 50.611 56.3595C50.5828 56.3876 50.5447 56.4034 50.5049 56.4034L49.1909 56.3974C49.1707 56.3974 49.1507 56.3934 49.1321 56.3855C49.1135 56.3776 49.0967 56.366 49.0827 56.3514C49.0687 56.3368 49.0577 56.3196 49.0506 56.3007C49.0434 56.2818 49.0401 56.2616 49.0409 56.2414L49.1369 53.6314C49.1377 53.6112 49.1344 53.5911 49.1273 53.5722C49.1201 53.5533 49.1092 53.536 49.0952 53.5215C49.0811 53.5069 49.0643 53.4953 49.0457 53.4874C49.0271 53.4795 49.0071 53.4754 48.9869 53.4754H46.4849C46.465 53.4754 46.4452 53.4794 46.4268 53.4871C46.4084 53.4949 46.3917 53.5062 46.3778 53.5204C46.3638 53.5347 46.3528 53.5516 46.3455 53.5701C46.3381 53.5887 46.3345 53.6085 46.3349 53.6284L46.3829 56.2474C46.3833 56.2674 46.3797 56.2872 46.3724 56.3058C46.365 56.3243 46.354 56.3412 46.34 56.3554C46.3261 56.3697 46.3094 56.381 46.291 56.3887C46.2726 56.3965 46.2529 56.4004 46.2329 56.4004H44.9249C44.8851 56.4004 44.847 56.3846 44.8188 56.3565C44.7907 56.3284 44.7749 56.2902 44.7749 56.2504V49.8304C44.7746 49.794 44.7874 49.7587 44.8112 49.7312C44.8349 49.7036 44.8679 49.6855 44.9039 49.6804L46.1999 49.5094C46.2211 49.5069 46.2425 49.5089 46.2629 49.5152C46.2832 49.5216 46.3019 49.5323 46.3178 49.5465C46.3337 49.5606 46.3464 49.5781 46.355 49.5975C46.3637 49.617 46.3681 49.6381 46.3679 49.6594L46.3409 52.1224C46.3405 52.1424 46.3441 52.1622 46.3515 52.1808C46.3588 52.1993 46.3698 52.2162 46.3838 52.2304C46.3977 52.2447 46.4144 52.256 46.4328 52.2637C46.4512 52.2715 46.471 52.2754 46.4909 52.2754Z" fill="#747474"/>
<path d="M55.0049 52.0953C58.2479 51.4563 58.9919 56.0973 55.8149 56.3403C54.8289 56.4163 53.8389 56.4313 52.8449 56.3853C52.7149 56.3793 52.6499 56.3113 52.6499 56.1813V49.8633C52.6499 49.7513 52.7049 49.6873 52.8149 49.6713L54.0239 49.5003C54.1579 49.4823 54.2249 49.5403 54.2249 49.6743V55.1223C54.2249 55.2103 54.2679 55.2663 54.3539 55.2903C55.5539 55.6143 56.6579 54.9303 56.1539 53.5623C56.1219 53.4743 56.0649 53.4083 55.9829 53.3643C55.6029 53.1583 55.1929 53.0673 54.7529 53.0913C54.5689 53.1013 54.5099 53.0193 54.5759 52.8453L54.7979 52.2693C54.8339 52.1733 54.9029 52.1153 55.0049 52.0953Z" fill="#747474"/>
<path d="M60.2338 49.5736L58.8178 49.576C58.7731 49.5761 58.7369 49.6124 58.737 49.6572L58.7486 56.3172C58.7487 56.3619 58.785 56.3981 58.8297 56.398L60.2457 56.3955C60.2905 56.3955 60.3267 56.3591 60.3266 56.3144L60.315 49.6544C60.3149 49.6097 60.2785 49.5735 60.2338 49.5736Z" fill="#747474"/>
<path d="M63.7619 53.9938L66.4379 49.7908C66.4453 49.7789 66.4554 49.7689 66.4674 49.7617C66.4794 49.7544 66.4929 49.75 66.5069 49.7488L67.9169 49.6528C67.9292 49.652 67.9416 49.6537 67.9532 49.6579C67.9648 49.662 67.9755 49.6685 67.9845 49.677C67.9935 49.6854 68.0006 49.6956 68.0055 49.7069C68.0104 49.7183 68.0129 49.7305 68.0129 49.7428L68.0519 56.3098C68.0519 56.3216 68.0496 56.3334 68.0451 56.3443C68.0405 56.3552 68.0339 56.3651 68.0255 56.3735C68.0172 56.3818 68.0073 56.3885 67.9963 56.393C67.9854 56.3975 67.9737 56.3998 67.9619 56.3998H66.5639C66.5521 56.3998 66.5404 56.3975 66.5295 56.393C66.5185 56.3885 66.5086 56.3818 66.5003 56.3735C66.4919 56.3651 66.4853 56.3552 66.4808 56.3443C66.4762 56.3334 66.4739 56.3216 66.4739 56.3098L66.5249 52.0858C66.5252 52.0664 66.5191 52.0474 66.5077 52.0317C66.4963 52.0159 66.4801 52.0043 66.4615 51.9986C66.4429 51.9928 66.423 51.9933 66.4047 51.9998C66.3863 52.0063 66.3706 52.0186 66.3599 52.0348L63.5909 56.3548C63.5829 56.3675 63.5718 56.378 63.5587 56.3854C63.5456 56.3927 63.5309 56.3966 63.5159 56.3968L62.1149 56.4028C62.091 56.4028 62.0681 56.3933 62.0513 56.3765C62.0344 56.3596 62.0249 56.3367 62.0249 56.3128V49.7758C62.0254 49.7544 62.0336 49.7339 62.0479 49.718C62.0622 49.702 62.0817 49.6917 62.1029 49.6888L63.5099 49.4998C63.5224 49.4981 63.5352 49.4991 63.5473 49.5027C63.5595 49.5063 63.5707 49.5123 63.5803 49.5205C63.59 49.5288 63.5977 49.5389 63.6032 49.5503C63.6086 49.5617 63.6116 49.5742 63.6119 49.5868L63.5939 53.9428C63.5924 53.9632 63.5979 53.9835 63.6095 54.0003C63.621 54.0171 63.638 54.0295 63.6575 54.0355C63.6771 54.0414 63.698 54.0405 63.717 54.0329C63.736 54.0254 63.7518 54.0116 63.7619 53.9938Z" fill="#747474"/>
<path d="M74.6189 55.1998H76.9409C76.9791 55.1998 77.0157 55.1846 77.0427 55.1576C77.0697 55.1306 77.0849 55.094 77.0849 55.0558L77.0909 49.8208C77.0905 49.786 77.1028 49.7522 77.1254 49.7257C77.148 49.6993 77.1795 49.6819 77.2139 49.6768L78.5339 49.4908C78.5542 49.4878 78.575 49.4892 78.5948 49.4949C78.6145 49.5006 78.6328 49.5104 78.6485 49.5238C78.6641 49.5371 78.6767 49.5537 78.6854 49.5723C78.6941 49.591 78.6987 49.6112 78.6989 49.6318L78.6959 55.0558C78.6959 55.0747 78.6996 55.0934 78.7069 55.1109C78.7141 55.1284 78.7247 55.1442 78.7381 55.1576C78.7515 55.171 78.7673 55.1816 78.7848 55.1888C78.8023 55.1961 78.821 55.1998 78.8399 55.1998H79.7309C79.7691 55.1998 79.8057 55.215 79.8327 55.242C79.8597 55.269 79.8749 55.3056 79.8749 55.3438L79.8719 57.8308C79.8719 57.869 79.8567 57.9056 79.8297 57.9326C79.8027 57.9596 79.7661 57.9748 79.7279 57.9748H78.6269C78.5887 57.9748 78.5521 57.9596 78.5251 57.9326C78.4981 57.9056 78.4829 57.869 78.4829 57.8308L78.4799 56.5438C78.4799 56.5056 78.4647 56.469 78.4377 56.442C78.4107 56.415 78.3741 56.3998 78.3359 56.3998H73.0439C73.0057 56.3998 72.9691 56.3846 72.9421 56.3576C72.9151 56.3306 72.8999 56.294 72.8999 56.2558V49.8268C72.9003 49.7925 72.9128 49.7594 72.9354 49.7336C72.9579 49.7078 72.989 49.6908 73.0229 49.6858L74.3099 49.4968C74.3305 49.4938 74.3515 49.4952 74.3715 49.5011C74.3914 49.507 74.4099 49.5171 74.4256 49.5308C74.4413 49.5445 74.4538 49.5614 74.4623 49.5804C74.4708 49.5994 74.4751 49.62 74.4749 49.6408V55.0558C74.4749 55.094 74.4901 55.1306 74.5171 55.1576C74.5441 55.1846 74.5807 55.1998 74.6189 55.1998Z" fill="#747474"/>
<path d="M80.61 53.7962C79.83 48.1832 87.363 48.0362 86.304 53.0822C86.28 53.1942 86.211 53.2502 86.097 53.2502H82.503C82.337 53.2502 82.264 53.3332 82.284 53.4992C82.545 55.6352 84.093 55.5302 85.644 54.9302C85.78 54.8782 85.866 54.9222 85.902 55.0622L86.076 55.7462C86.106 55.8682 86.064 55.9572 85.95 56.0132C83.895 57.0092 80.985 56.5052 80.61 53.7962ZM82.644 52.2962L84.711 52.2272C84.7405 52.2264 84.7697 52.2198 84.7967 52.2078C84.8237 52.1958 84.848 52.1785 84.8684 52.1571C84.8887 52.1356 84.9046 52.1104 84.9152 52.0828C84.9258 52.0552 84.9308 52.0257 84.93 51.9962L84.927 51.9332C84.9206 51.745 84.8831 51.5597 84.8167 51.3878C84.7502 51.216 84.656 51.061 84.5396 50.9318C84.4231 50.8025 84.2867 50.7015 84.138 50.6345C83.9893 50.5675 83.8313 50.5358 83.673 50.5412L83.565 50.5442C83.2458 50.5557 82.945 50.7172 82.7285 50.9933C82.512 51.2695 82.3974 51.6377 82.41 52.0172V52.0802C82.4112 52.1097 82.4181 52.1388 82.4305 52.1656C82.4429 52.1925 82.4605 52.2166 82.4822 52.2367C82.5039 52.2568 82.5294 52.2724 82.5572 52.2826C82.5849 52.2928 82.6144 52.2974 82.644 52.2962Z" fill="#747474"/>
<path d="M89.6729 52.2753H92.2019C92.2195 52.2753 92.2369 52.2718 92.2531 52.265C92.2693 52.2582 92.284 52.2482 92.2963 52.2356C92.3086 52.223 92.3183 52.2081 92.3247 52.1918C92.3312 52.1754 92.3343 52.1579 92.3339 52.1403L92.3009 49.8183C92.3005 49.7867 92.3115 49.7559 92.3318 49.7317C92.3522 49.7075 92.3806 49.6914 92.4119 49.6863L93.7469 49.4973C93.7657 49.4947 93.7848 49.4962 93.8029 49.5017C93.8211 49.5072 93.8379 49.5165 93.8521 49.529C93.8663 49.5415 93.8777 49.557 93.8854 49.5743C93.8931 49.5916 93.8971 49.6104 93.8969 49.6293L93.9059 56.2683C93.9059 56.3033 93.892 56.3369 93.8672 56.3617C93.8425 56.3864 93.8089 56.4003 93.7739 56.4003H92.3669C92.349 56.4003 92.3314 56.3967 92.3149 56.3897C92.2985 56.3827 92.2837 56.3725 92.2714 56.3596C92.259 56.3467 92.2494 56.3314 92.2432 56.3147C92.2369 56.298 92.2341 56.2802 92.2349 56.2623L92.3489 53.6133C92.3497 53.5955 92.3469 53.5777 92.3406 53.561C92.3343 53.5443 92.3247 53.529 92.3124 53.5161C92.3001 53.5032 92.2852 53.4929 92.2688 53.4859C92.2524 53.4789 92.2347 53.4753 92.2169 53.4753H89.6699C89.6523 53.4753 89.6349 53.4788 89.6187 53.4857C89.6025 53.4925 89.5878 53.5025 89.5755 53.515C89.5632 53.5276 89.5535 53.5425 89.5471 53.5589C89.5406 53.5753 89.5375 53.5927 89.5379 53.6103L89.5769 56.2653C89.5773 56.2829 89.5742 56.3004 89.5677 56.3168C89.5613 56.3331 89.5516 56.348 89.5393 56.3606C89.527 56.3732 89.5123 56.3832 89.4961 56.39C89.4799 56.3968 89.4625 56.4003 89.4449 56.4003H88.1369C88.1019 56.4003 88.0683 56.3864 88.0435 56.3617C88.0188 56.3369 88.0049 56.3033 88.0049 56.2683L88.0409 49.8183C88.0405 49.7867 88.0515 49.7559 88.0718 49.7317C88.0922 49.7075 88.1206 49.6914 88.1519 49.6863L89.4209 49.5003C89.4397 49.4977 89.4588 49.4992 89.4769 49.5047C89.4951 49.5102 89.5119 49.5195 89.5261 49.532C89.5403 49.5445 89.5517 49.56 89.5594 49.5773C89.5671 49.5946 89.5711 49.6134 89.5709 49.6323L89.5409 52.1403C89.5405 52.1579 89.5436 52.1754 89.5501 52.1918C89.5565 52.2081 89.5662 52.223 89.5785 52.2356C89.5908 52.2482 89.6055 52.2582 89.6217 52.265C89.6379 52.2718 89.6553 52.2753 89.6729 52.2753Z" fill="#747474"/>
<path d="M103.401 50.1454C108.66 46.6144 110.016 57.7744 103.383 56.3344C103.255 56.3064 103.192 56.3574 103.194 56.4874L103.212 57.7894C103.214 57.9134 103.154 57.9754 103.032 57.9754H101.79C101.65 57.9754 101.58 57.9054 101.58 57.7654L101.589 49.8634C101.589 49.7314 101.655 49.6604 101.787 49.6504L103.005 49.5574C103.101 49.5494 103.158 49.5924 103.176 49.6864L103.251 50.0824C103.269 50.1784 103.319 50.1994 103.401 50.1454ZM103.275 51.3364L103.146 54.6694C103.142 54.7589 103.157 54.8481 103.187 54.9321C103.218 55.0162 103.266 55.0932 103.326 55.159C103.387 55.2248 103.46 55.2779 103.541 55.3154C103.623 55.3528 103.711 55.3739 103.8 55.3774L104.349 55.3984C104.794 55.4154 105.229 55.2299 105.557 54.8828C105.886 54.5357 106.082 54.0554 106.101 53.5474L106.134 52.6834C106.154 52.1754 105.995 51.6814 105.694 51.3101C105.393 50.9388 104.974 50.7206 104.529 50.7034L103.98 50.6824C103.8 50.6759 103.625 50.7411 103.492 50.8637C103.36 50.9863 103.282 51.1563 103.275 51.3364Z" fill="#747474"/>
<path d="M119.99 56.532C119.123 56.5244 118.296 56.142 117.689 55.4689C117.082 54.7957 116.746 53.887 116.754 52.9426C116.758 52.475 116.847 52.0127 117.015 51.5821C117.183 51.1515 117.427 50.7611 117.733 50.4331C118.039 50.1051 118.402 49.8459 118.799 49.6704C119.197 49.4949 119.623 49.4065 120.052 49.4103C120.918 49.4178 121.746 49.8002 122.353 50.4734C122.96 51.1465 123.296 52.0552 123.288 52.9996C123.284 53.4672 123.195 53.9295 123.027 54.3601C122.859 54.7907 122.615 55.1812 122.309 55.5092C122.003 55.8372 121.64 56.0963 121.242 56.2718C120.844 56.4473 120.419 56.5357 119.99 56.532ZM120.015 55.4791C120.219 55.4798 120.421 55.4155 120.609 55.2898C120.798 55.1641 120.97 54.9795 121.114 54.7466C121.259 54.5137 121.375 54.2369 121.454 53.9322C121.533 53.6274 121.574 53.3007 121.575 52.9705C121.577 52.3038 121.416 51.6638 121.127 51.1913C120.838 50.7188 120.444 50.4526 120.033 50.4512C119.829 50.4504 119.627 50.5148 119.439 50.6404C119.25 50.7661 119.078 50.9507 118.933 51.1836C118.789 51.4166 118.673 51.6933 118.594 51.9981C118.515 52.3028 118.474 52.6296 118.473 52.9597C118.471 53.6265 118.632 54.2665 118.921 54.7389C119.21 55.2114 119.604 55.4777 120.015 55.4791Z" fill="#747474"/>
<path d="M126.309 50.1838C131.724 46.4698 132.918 57.8878 126.345 56.3218C126.215 56.2918 126.15 56.3438 126.15 56.4778V57.7858C126.15 57.9118 126.088 57.9748 125.964 57.9748H124.764C124.638 57.9748 124.575 57.9128 124.575 57.7888V49.8688C124.575 49.7608 124.628 49.6988 124.734 49.6828L125.943 49.4908C126.081 49.4688 126.15 49.5278 126.15 49.6678V50.0968C126.15 50.2268 126.203 50.2558 126.309 50.1838ZM126.198 51.3478L126.093 54.6808C126.088 54.8626 126.154 55.0391 126.278 55.1718C126.403 55.3045 126.574 55.3826 126.756 55.3888L127.32 55.4068C127.542 55.4139 127.763 55.3713 127.971 55.2815C128.179 55.1917 128.37 55.0564 128.532 54.8834C128.694 54.7104 128.825 54.5031 128.918 54.2732C129.01 54.0434 129.061 53.7955 129.069 53.5438L129.096 52.6678C129.112 52.1602 128.95 51.6679 128.645 51.2989C128.34 50.93 127.917 50.7145 127.47 50.6998L126.906 50.6818C126.816 50.679 126.726 50.6941 126.642 50.726C126.557 50.758 126.48 50.8063 126.414 50.8681C126.348 50.93 126.295 51.0042 126.258 51.0865C126.221 51.1688 126.201 51.2576 126.198 51.3478Z" fill="#747474"/>
<path d="M134.891 56.5346C134.022 56.5498 133.183 56.1889 132.557 55.5313C131.931 54.8738 131.57 53.9734 131.553 53.0283C131.545 52.5604 131.622 52.0955 131.779 51.6603C131.936 51.2251 132.17 50.828 132.469 50.4918C132.767 50.1556 133.124 49.8868 133.518 49.7008C133.912 49.5148 134.336 49.4152 134.767 49.4077C135.635 49.3925 136.475 49.7534 137.101 50.411C137.727 51.0685 138.088 51.9689 138.104 52.914C138.112 53.3819 138.036 53.8468 137.879 54.282C137.722 54.7172 137.487 55.1143 137.189 55.4505C136.891 55.7867 136.534 56.0555 136.14 56.2415C135.745 56.4275 135.321 56.5271 134.891 56.5346ZM134.841 55.4911C135.257 55.4897 135.655 55.2225 135.947 54.7483C136.24 54.2741 136.403 53.6318 136.401 52.9627C136.4 52.6313 136.358 52.3034 136.278 51.9976C136.198 51.6917 136.082 51.414 135.935 51.1802C135.789 50.9465 135.615 50.7612 135.424 50.6351C135.233 50.509 135.029 50.4445 134.823 50.4452C134.407 50.4466 134.009 50.7138 133.716 51.188C133.424 51.6622 133.26 52.3045 133.263 52.9736C133.264 53.305 133.306 53.6329 133.386 53.9387C133.466 54.2445 133.582 54.5223 133.729 54.756C133.875 54.9898 134.049 55.175 134.24 55.3012C134.43 55.4273 134.635 55.4918 134.841 55.4911Z" fill="#747474"/>
<path d="M150.954 55.7461C150.95 55.7269 150.941 55.7091 150.928 55.6947C150.914 55.6802 150.897 55.6697 150.879 55.6641C150.86 55.6586 150.84 55.6582 150.821 55.6632C150.802 55.6681 150.785 55.6781 150.771 55.6921C149.565 56.8771 146.868 56.7991 146.859 54.6211C146.853 52.6081 149.034 52.3981 150.555 52.2241C150.6 52.2191 150.644 52.2048 150.683 52.1822C150.723 52.1596 150.757 52.1292 150.784 52.0929C150.811 52.0565 150.83 52.015 150.84 51.971C150.851 51.927 150.851 51.8814 150.843 51.8371C150.492 49.9711 148.89 50.6521 147.774 51.1471C147.672 51.1931 147.605 51.1621 147.573 51.0541L147.351 50.3041C147.319 50.1941 147.354 50.1121 147.456 50.0581C149.457 49.0051 152.376 48.9961 152.31 52.0801C152.28 53.4561 152.376 54.8261 152.598 56.1901C152.62 56.3301 152.56 56.4001 152.418 56.4001H151.299C151.161 56.4001 151.078 56.3331 151.05 56.1991L150.954 55.7461ZM150.669 53.1841C149.814 53.0941 148.08 53.4721 148.434 54.6571C148.803 55.8871 151.167 55.2601 150.777 54.4171C150.737 54.3291 150.724 54.2371 150.738 54.1411L150.84 53.4001C150.858 53.2681 150.801 53.1961 150.669 53.1841Z" fill="#747474"/>
<path d="M98.412 51.1442L98.442 56.2802C98.442 56.312 98.4294 56.3425 98.4069 56.365C98.3844 56.3875 98.3538 56.4002 98.322 56.4002H96.87C96.8382 56.4002 96.8077 56.3875 96.7851 56.365C96.7626 56.3425 96.75 56.312 96.75 56.2802V51.0872C96.75 51.0554 96.7374 51.0248 96.7149 51.0023C96.6923 50.9798 96.6618 50.9672 96.63 50.9672L94.995 50.9852C94.9632 50.9852 94.9327 50.9725 94.9101 50.95C94.8876 50.9275 94.875 50.897 94.875 50.8652V49.8572C94.875 49.8254 94.8876 49.7948 94.9101 49.7723C94.9327 49.7498 94.9632 49.7372 94.995 49.7372L100.32 49.7012C100.337 49.701 100.355 49.7046 100.37 49.7117C100.386 49.7188 100.4 49.7293 100.412 49.7424C100.423 49.7556 100.432 49.771 100.437 49.7877C100.441 49.8044 100.443 49.822 100.44 49.8392L100.296 50.8532C100.292 50.8808 100.278 50.9061 100.257 50.9247C100.237 50.9433 100.21 50.9541 100.182 50.9552L98.529 51.0212C98.5132 51.0216 98.4977 51.0251 98.4833 51.0315C98.4689 51.0378 98.4559 51.047 98.445 51.0584C98.4342 51.0699 98.4256 51.0833 98.42 51.098C98.4143 51.1127 98.4116 51.1284 98.412 51.1442Z" fill="#747474"/>
<path d="M112.065 49.7428L115.914 49.6768C115.938 49.6765 115.961 49.6813 115.982 49.6909C116.004 49.7005 116.023 49.7147 116.038 49.7324C116.054 49.75 116.065 49.7709 116.071 49.7934C116.078 49.8159 116.08 49.8396 116.076 49.8628L115.938 50.7808C115.932 50.8189 115.913 50.8538 115.884 50.8791C115.855 50.9044 115.818 50.9185 115.779 50.9188L113.634 50.9488C113.592 50.9496 113.551 50.967 113.522 50.9973C113.492 51.0276 113.475 51.0683 113.475 51.1108V56.2378C113.475 56.2807 113.458 56.3219 113.428 56.3523C113.397 56.3827 113.356 56.3998 113.313 56.3998H112.05C112.029 56.3998 112.008 56.3956 111.988 56.3874C111.969 56.3793 111.951 56.3674 111.936 56.3523C111.921 56.3373 111.909 56.3194 111.901 56.2998C111.892 56.2801 111.888 56.259 111.888 56.2378L111.906 49.9048C111.906 49.8623 111.923 49.8216 111.953 49.7913C111.982 49.761 112.023 49.7436 112.065 49.7428Z" fill="#747474"/>
<path d="M144.549 56.4H140.046C140.01 56.3999 139.975 56.4073 139.942 56.4216C139.909 56.436 139.879 56.4571 139.855 56.4835C139.83 56.51 139.812 56.5413 139.8 56.5754C139.788 56.6096 139.783 56.6459 139.785 56.682L139.857 57.717C139.867 57.841 139.81 57.907 139.686 57.915L138.663 57.99C138.521 58 138.45 57.934 138.45 57.792V55.434C138.45 55.34 138.496 55.285 138.588 55.269C140.034 55.02 140.259 50.754 140.256 49.836C140.256 49.75 140.3 49.707 140.388 49.707L144.831 49.734C144.929 49.734 144.978 49.783 144.978 49.881L144.972 55.02C144.972 55.14 145.032 55.2 145.152 55.2H145.839C145.963 55.2 146.025 55.263 146.025 55.389V57.774C146.025 57.904 145.961 57.969 145.833 57.969L144.924 57.978C144.888 57.9786 144.852 57.9715 144.819 57.9573C144.786 57.9432 144.756 57.9222 144.731 57.8956C144.706 57.8691 144.687 57.8377 144.675 57.8034C144.663 57.769 144.658 57.7325 144.66 57.696L144.729 56.592C144.737 56.464 144.677 56.4 144.549 56.4ZM141.525 51.213C141.552 52.353 141.231 53.7 140.73 55.011C140.68 55.137 140.723 55.2 140.859 55.2L143.187 55.197C143.307 55.197 143.366 55.138 143.364 55.02L143.307 51.141C143.307 51.047 143.26 51 143.166 51H141.735C141.593 51 141.523 51.071 141.525 51.213Z" fill="#747474"/>
</svg>
