<svg width="159" height="40" viewBox="0 0 159 40" fill="none" xmlns="http://www.w3.org/2000/svg">
<g clip-path="url(#clip0_414_65)">
<path d="M79.4904 4.56172L86.1306 1.67785C86.1439 1.67198 86.1584 1.66895 86.173 1.66895C86.1875 1.66895 86.202 1.67198 86.2153 1.67785L92.8555 4.56172C92.8769 4.57158 92.8943 4.58834 92.9048 4.60924C92.9153 4.63014 92.9184 4.65396 92.9134 4.6768C92.9085 4.69964 92.8959 4.72015 92.8777 4.73499C92.8595 4.74983 92.8367 4.75811 92.8132 4.75849H79.5327C79.5092 4.75811 79.4864 4.74983 79.4682 4.73499C79.45 4.72015 79.4374 4.69964 79.4325 4.6768C79.4275 4.65396 79.4306 4.63014 79.4411 4.60924C79.4516 4.58834 79.469 4.57158 79.4904 4.56172Z" fill="#747474"/>
<path d="M82.0121 8.95507C81.8688 9.28195 81.8948 9.56045 82.0903 9.79056C82.162 9.87658 82.2543 9.91959 82.3673 9.91959H85.3746C85.4919 9.91959 85.5473 9.97658 85.5408 10.0906L85.4267 12.3712C85.4234 12.4365 85.3948 12.4981 85.3469 12.5431C85.299 12.5881 85.2354 12.6132 85.1693 12.6131L79.4708 12.6067C79.2166 12.6067 79.0906 12.4809 79.0928 12.2293L79.1873 5.71959C79.1895 5.62066 79.2416 5.5712 79.3437 5.5712L92.9792 5.56152C93.1161 5.56152 93.1856 5.62927 93.1878 5.76475L93.2171 12.3712C93.2171 12.5239 93.1411 12.6002 92.989 12.6002L87.5055 12.626C87.4705 12.6265 87.4359 12.6199 87.4035 12.6068C87.3711 12.5937 87.3416 12.5743 87.3168 12.5497C87.2919 12.5251 87.2722 12.4958 87.2587 12.4635C87.2452 12.4312 87.2383 12.3965 87.2383 12.3615V10.0809C87.2383 9.97335 87.2926 9.91959 87.4012 9.91959H90.49C90.5856 9.91959 90.6572 9.8798 90.705 9.80023C90.881 9.51206 90.8842 9.20669 90.7148 8.8841C90.6561 8.77228 90.5627 8.71744 90.4346 8.71959L82.3086 8.76475C82.1675 8.76475 82.0686 8.82819 82.0121 8.95507ZM89.6526 8.25343C89.6527 8.22547 89.6473 8.19776 89.6365 8.1719C89.6258 8.14603 89.6101 8.1225 89.5902 8.10266C89.5703 8.08282 89.5466 8.06706 89.5206 8.05627C89.4945 8.04548 89.4666 8.03988 89.4383 8.03978L83.352 8.01875C83.3238 8.01865 83.2958 8.02406 83.2697 8.03467C83.2436 8.04528 83.2198 8.06088 83.1998 8.08058C83.1797 8.10028 83.1638 8.1237 83.1529 8.14949C83.142 8.17529 83.1364 8.20295 83.1363 8.23091L83.1362 8.24381C83.1361 8.27177 83.1416 8.29948 83.1523 8.32534C83.163 8.35121 83.1788 8.37474 83.1987 8.39458C83.2186 8.41442 83.2422 8.43018 83.2683 8.44097C83.2943 8.45176 83.3223 8.45736 83.3505 8.45746L89.4368 8.47849C89.465 8.47859 89.493 8.47318 89.5191 8.46257C89.5453 8.45196 89.569 8.43636 89.5891 8.41666C89.6091 8.39696 89.625 8.37354 89.6359 8.34775C89.6468 8.32195 89.6525 8.29429 89.6526 8.26633L89.6526 8.25343Z" fill="#747474"/>
<path d="M59.0974 11.6097C61.0523 12.4355 64.0335 12.4129 64.7634 14.7871C65.4508 17.0226 63.9879 19.1323 61.6844 19.629C59.6947 20.0591 57.8017 19.7602 56.0053 18.7323C55.8815 18.6613 55.8196 18.557 55.8196 18.4194L55.787 15.771C55.787 15.5925 55.8576 15.5581 55.9988 15.6677C57.2174 16.5839 60.4495 17.9871 61.5606 16.1871C61.6063 16.114 61.6353 16.0319 61.6456 15.9465C61.656 15.8611 61.6473 15.7745 61.6203 15.6928C61.5933 15.6111 61.5486 15.5362 61.4893 15.4734C61.43 15.4105 61.3576 15.3613 61.2771 15.329C59.7946 14.7323 58.0743 14.5968 56.7254 13.6871C55.067 12.5677 54.9399 10.0387 56.1715 8.6871C57.8136 6.88065 62.3881 6.50968 64.304 8.24839C64.3887 8.32581 64.431 8.42151 64.431 8.53548V11.2065C64.431 11.329 64.3778 11.3591 64.2714 11.2968C62.9062 10.5161 60.5473 9.83871 59.0517 10.6516C58.4045 11.0022 58.4197 11.3215 59.0974 11.6097Z" fill="#747474"/>
<path d="M69.6539 11.6032C71.6186 12.3677 74.6325 12.4419 75.346 14.8258C76.0596 17.2129 74.362 19.2935 71.9282 19.6839C70.2274 19.9548 68.5755 19.7107 66.9724 18.9516C66.0634 18.5194 66.3729 16.6258 66.3827 15.8064C66.3849 15.671 66.4446 15.6376 66.5619 15.7064C67.8489 16.4645 71.3352 18.2161 72.2181 15.9548C72.2413 15.8968 72.2523 15.8346 72.2505 15.7722C72.2487 15.7097 72.2341 15.6482 72.2077 15.5913C72.1812 15.5343 72.1434 15.4832 72.0965 15.4409C72.0496 15.3987 71.9946 15.3661 71.9347 15.3452C70.4978 14.8452 68.5787 14.5064 67.5329 13.8645C64.6396 12.0871 65.8809 7.95161 68.999 7.33548C70.9431 6.95268 72.8926 7.25806 74.8475 8.25161C74.9626 8.30967 75.0202 8.40322 75.0202 8.53225L75.0169 11.271C75.0167 11.2912 75.011 11.3109 75.0004 11.3282C74.9899 11.3455 74.9748 11.3596 74.9569 11.3692C74.9389 11.3787 74.9187 11.3833 74.8983 11.3825C74.8779 11.3817 74.8581 11.3755 74.841 11.3645C73.6746 10.6032 70.5597 9.6 69.4682 10.871C69.4198 10.9275 69.3856 10.9947 69.3686 11.0669C69.3516 11.1391 69.3522 11.2142 69.3704 11.2859C69.3886 11.3576 69.4238 11.4238 69.4731 11.479C69.5225 11.5342 69.5845 11.5768 69.6539 11.6032Z" fill="#747474"/>
<path d="M122.32 14.5922C122.325 15.9456 121.786 17.2455 120.823 18.2059C119.86 19.1663 118.551 19.7085 117.184 19.7132L115.431 19.7192C114.064 19.724 112.751 19.1908 111.781 18.2371C110.811 17.2835 110.263 15.9873 110.258 14.6339L110.25 12.3048C110.245 10.9514 110.784 9.65149 111.747 8.69111C112.71 7.73074 114.019 7.18855 115.386 7.18383L117.139 7.17777C118.506 7.17304 119.819 7.70617 120.789 8.65987C121.759 9.61356 122.307 10.9097 122.312 12.2632L122.32 14.5922ZM116.195 17.0475C116.553 17.0562 116.91 16.9769 117.246 16.8143C117.581 16.6517 117.888 16.4088 118.149 16.0996C118.411 15.7904 118.621 15.4209 118.768 15.0123C118.916 14.6036 118.997 14.1637 119.008 13.7178C119.03 12.8172 118.764 11.9465 118.268 11.2973C117.772 10.648 117.086 10.2735 116.362 10.256C116.004 10.2473 115.647 10.3265 115.311 10.4892C114.976 10.6518 114.669 10.8947 114.408 11.2039C114.146 11.5131 113.936 11.8825 113.789 12.2912C113.641 12.6999 113.56 13.1398 113.549 13.5857C113.527 14.4863 113.793 15.357 114.289 16.0062C114.785 16.6554 115.471 17.03 116.195 17.0475Z" fill="#747474"/>
<path d="M136.567 10.4031C137.01 6.37728 142.983 6.82244 145.456 8.1289C145.573 8.18911 145.632 8.28481 145.632 8.41599L145.658 11.2192C145.66 11.3569 145.601 11.3902 145.482 11.3192C144.322 10.6257 141.23 9.61922 140.106 10.8224C140.025 10.9085 139.996 11.0074 140.018 11.1192C140.334 12.816 146.537 11.5321 146.088 16.1902C145.667 20.5708 140.024 20.2999 137.206 18.7579C137.147 18.7256 137.097 18.6784 137.063 18.6211C137.029 18.5638 137.01 18.4985 137.01 18.4321L137.007 15.8063C137.007 15.6171 137.083 15.5794 137.235 15.6934C138.512 16.6504 139.9 17.0923 141.399 17.0192C142.588 16.9612 143.628 15.4063 141.894 15.0708C139.392 14.587 136.199 13.7773 136.567 10.4031Z" fill="#747474"/>
<path d="M6.91369 12.1835L12.4103 12.2802C12.446 12.2811 12.48 12.2957 12.5049 12.321C12.5299 12.3464 12.5439 12.3803 12.5438 12.4157V15.0254C12.5438 15.0613 12.5294 15.0958 12.5038 15.1212C12.4781 15.1466 12.4433 15.1609 12.407 15.1609H6.97885C6.96088 15.1609 6.94308 15.1644 6.92648 15.1712C6.90988 15.178 6.89479 15.188 6.88209 15.2006C6.86938 15.2131 6.8593 15.2281 6.85242 15.2445C6.84555 15.261 6.84201 15.2786 6.84201 15.2964V19.3802C6.84201 19.398 6.83847 19.4156 6.83159 19.4321C6.82471 19.4485 6.81463 19.4635 6.80192 19.476C6.78922 19.4886 6.77413 19.4986 6.75753 19.5054C6.74093 19.5122 6.72313 19.5157 6.70516 19.5157H3.55774C3.52145 19.5157 3.48664 19.5014 3.46098 19.476C3.43532 19.4506 3.4209 19.4162 3.4209 19.3802V7.55766C3.4209 7.52172 3.43532 7.48726 3.46098 7.46185C3.48664 7.43645 3.52145 7.42217 3.55774 7.42217L12.407 7.41895C12.425 7.41895 12.4428 7.42245 12.4594 7.42926C12.476 7.43607 12.4911 7.44605 12.5038 7.45863C12.5165 7.47121 12.5266 7.48614 12.5334 7.50258C12.5403 7.51902 12.5438 7.53664 12.5438 7.55443V10.2835C12.5438 10.3194 12.5294 10.3539 12.5038 10.3793C12.4781 10.4047 12.4433 10.4189 12.407 10.4189L7.00492 10.3738C6.96972 10.3737 6.93587 10.3871 6.91038 10.4112C6.8849 10.4352 6.86975 10.468 6.86807 10.5028L6.77684 12.0383C6.7755 12.0569 6.77804 12.0756 6.78431 12.0931C6.79059 12.1107 6.80045 12.1268 6.8133 12.1404C6.82614 12.154 6.84168 12.1649 6.85896 12.1723C6.87623 12.1797 6.89486 12.1835 6.91369 12.1835Z" fill="#747474"/>
<path d="M17.5097 7.41895H14.3362C14.2894 7.41895 14.2515 7.4565 14.2515 7.50282V19.4318C14.2515 19.4782 14.2894 19.5157 14.3362 19.5157H17.5097C17.5564 19.5157 17.5944 19.4782 17.5944 19.4318V7.50282C17.5944 7.4565 17.5564 7.41895 17.5097 7.41895Z" fill="#747474"/>
<path d="M19.383 10.2802L19.3472 7.56088C19.3468 7.5424 19.3501 7.52401 19.3569 7.50681C19.3638 7.4896 19.374 7.47393 19.3871 7.46071C19.4001 7.44748 19.4157 7.43698 19.4329 7.4298C19.4501 7.42263 19.4686 7.41894 19.4873 7.41895H29.4444C29.481 7.41894 29.5161 7.43311 29.5423 7.45843C29.5685 7.48375 29.5836 7.5182 29.5845 7.55443L29.617 10.2351C29.6171 10.2713 29.6027 10.3061 29.5772 10.332C29.5516 10.358 29.5168 10.3729 29.4802 10.3738L26.3686 10.3931C26.3502 10.3931 26.332 10.3967 26.315 10.4037C26.298 10.4107 26.2826 10.4209 26.2696 10.4338C26.2565 10.4466 26.2462 10.4619 26.2392 10.4788C26.2321 10.4956 26.2285 10.5136 26.2285 10.5318V19.377C26.2285 19.3952 26.2249 19.4133 26.2179 19.4301C26.2108 19.4469 26.2005 19.4622 26.1875 19.4751C26.1745 19.488 26.159 19.4982 26.142 19.5052C26.125 19.5121 26.1068 19.5157 26.0884 19.5157H22.9475C22.9104 19.5157 22.8747 19.5011 22.8484 19.4751C22.8222 19.4491 22.8074 19.4138 22.8074 19.377V10.5125C22.8074 10.494 22.8037 10.4757 22.7964 10.4587C22.7892 10.4416 22.7786 10.4262 22.7652 10.4133C22.7519 10.4003 22.736 10.3902 22.7187 10.3834C22.7013 10.3766 22.6827 10.3734 22.664 10.3738L19.5264 10.4157C19.508 10.4161 19.4897 10.413 19.4725 10.4064C19.4554 10.3998 19.4397 10.39 19.4264 10.3774C19.4131 10.3648 19.4024 10.3497 19.3949 10.3331C19.3875 10.3164 19.3835 10.2985 19.383 10.2802Z" fill="#747474"/>
<path d="M34.5925 19.5157H31.4679C31.4394 19.5157 31.412 19.5045 31.3918 19.4845C31.3717 19.4646 31.3604 19.4375 31.3604 19.4093V7.5254C31.3604 7.49716 31.3717 7.47009 31.3918 7.45012C31.412 7.43016 31.4394 7.41895 31.4679 7.41895H36.3128C36.3337 7.41915 36.354 7.42536 36.3714 7.43682C36.3887 7.44827 36.4023 7.46448 36.4106 7.48346L39.2322 14.2931C39.2409 14.3168 39.2578 14.3367 39.2799 14.3492C39.3021 14.3617 39.328 14.366 39.353 14.3613C39.378 14.3567 39.4006 14.3434 39.4167 14.3238C39.4327 14.3042 39.4412 14.2796 39.4407 14.2544L39.5156 7.5254C39.5156 7.49716 39.5269 7.47009 39.5471 7.45012C39.5673 7.43016 39.5946 7.41895 39.6231 7.41895H42.738C42.7521 7.41895 42.7661 7.4217 42.7791 7.42705C42.7922 7.4324 42.804 7.44024 42.814 7.45012C42.824 7.46001 42.8319 7.47174 42.8373 7.48466C42.8427 7.49757 42.8455 7.51142 42.8455 7.5254V19.4093C42.8455 19.4232 42.8427 19.4371 42.8373 19.45C42.8319 19.4629 42.824 19.4747 42.814 19.4845C42.804 19.4944 42.7922 19.5023 42.7791 19.5076C42.7661 19.513 42.7521 19.5157 42.738 19.5157H38.6783C38.6578 19.5158 38.6377 19.5101 38.6204 19.4992C38.603 19.4883 38.5892 19.4728 38.5805 19.4544L34.9053 11.5641C34.8951 11.5422 34.8778 11.5243 34.8561 11.5134C34.8344 11.5026 34.8096 11.4993 34.7858 11.5041C34.7619 11.509 34.7405 11.5217 34.7249 11.5403C34.7093 11.5588 34.7005 11.582 34.7 11.606V19.4093C34.7 19.4375 34.6887 19.4646 34.6685 19.4845C34.6483 19.5045 34.621 19.5157 34.5925 19.5157Z" fill="#747474"/>
<path d="M48.2214 15.0673V16.4512C48.2214 16.472 48.2255 16.4925 48.2336 16.5117C48.2416 16.5309 48.2533 16.5483 48.2682 16.563C48.283 16.5776 48.3006 16.5893 48.32 16.5972C48.3393 16.6052 48.3601 16.6093 48.3811 16.6093L54.008 16.6157C54.0503 16.6157 54.0909 16.6324 54.1208 16.662C54.1508 16.6917 54.1676 16.7319 54.1676 16.7738V19.3577C54.1676 19.3784 54.1635 19.399 54.1555 19.4181C54.1474 19.4373 54.1357 19.4547 54.1208 19.4694C54.106 19.4841 54.0884 19.4957 54.0691 19.5037C54.0497 19.5116 54.0289 19.5157 54.008 19.5157H44.9599C44.939 19.5157 44.9182 19.5116 44.8989 19.5037C44.8795 19.4957 44.8619 19.4841 44.8471 19.4694C44.8322 19.4547 44.8205 19.4373 44.8124 19.4181C44.8044 19.399 44.8003 19.3784 44.8003 19.3577V7.57701C44.8003 7.53509 44.8171 7.49488 44.8471 7.46524C44.877 7.4356 44.9176 7.41895 44.9599 7.41895H54.008C54.0503 7.41895 54.0909 7.4356 54.1208 7.46524C54.1508 7.49488 54.1676 7.53509 54.1676 7.57701V10.2222C54.1676 10.2641 54.1508 10.3043 54.1208 10.3339C54.0909 10.3636 54.0503 10.3802 54.008 10.3802L48.3811 10.3867C48.3601 10.3867 48.3393 10.3908 48.32 10.3987C48.3006 10.4067 48.283 10.4183 48.2682 10.433C48.2533 10.4477 48.2416 10.4651 48.2336 10.4843C48.2255 10.5034 48.2214 10.524 48.2214 10.5448V11.777C48.2214 11.7978 48.2255 11.8183 48.2336 11.8375C48.2416 11.8567 48.2533 11.8741 48.2682 11.8888C48.283 11.9035 48.3006 11.9151 48.32 11.923C48.3393 11.931 48.3601 11.9351 48.3811 11.9351H54.008C54.0289 11.9351 54.0497 11.9392 54.0691 11.9471C54.0884 11.955 54.106 11.9667 54.1208 11.9814C54.1357 11.996 54.1474 12.0135 54.1555 12.0327C54.1635 12.0518 54.1676 12.0724 54.1676 12.0931V14.7641C54.1676 14.806 54.1508 14.8462 54.1208 14.8759C54.0909 14.9055 54.0503 14.9222 54.008 14.9222L48.3811 14.9093C48.3601 14.9093 48.3393 14.9134 48.32 14.9213C48.3006 14.9292 48.283 14.9409 48.2682 14.9556C48.2533 14.9702 48.2416 14.9877 48.2336 15.0068C48.2255 15.026 48.2214 15.0466 48.2214 15.0673Z" fill="#747474"/>
<path d="M100.968 11.8546H104.875C104.908 11.8546 104.941 11.8414 104.965 11.8178C104.988 11.7942 105.002 11.7622 105.002 11.7288L104.982 7.57077C104.982 7.55425 104.985 7.53789 104.992 7.52262C104.998 7.50736 105.008 7.49349 105.019 7.48181C105.031 7.47013 105.045 7.46086 105.061 7.45454C105.076 7.44821 105.093 7.44496 105.109 7.44496L108.208 7.40625C108.242 7.40625 108.274 7.4195 108.298 7.4431C108.321 7.46669 108.335 7.49869 108.335 7.53206V19.3901C108.335 19.4235 108.321 19.4555 108.298 19.4791C108.274 19.5027 108.242 19.5159 108.208 19.5159H105.122C105.089 19.5159 105.056 19.5027 105.032 19.4791C105.009 19.4555 104.995 19.4235 104.995 19.3901V14.9643C104.995 14.9309 104.982 14.8989 104.958 14.8754C104.934 14.8518 104.902 14.8385 104.868 14.8385H100.968C100.934 14.8385 100.902 14.8518 100.878 14.8754C100.854 14.8989 100.841 14.9309 100.841 14.9643V19.3901C100.841 19.4235 100.828 19.4555 100.804 19.4791C100.78 19.5027 100.748 19.5159 100.714 19.5159H97.547C97.5133 19.5159 97.481 19.5027 97.4571 19.4791C97.4333 19.4555 97.4199 19.4235 97.4199 19.3901V7.54819C97.4199 7.51482 97.4333 7.48282 97.4571 7.45923C97.481 7.43563 97.5133 7.42238 97.547 7.42238L100.714 7.41915C100.748 7.41915 100.78 7.43241 100.804 7.456C100.828 7.47959 100.841 7.51159 100.841 7.54496V11.7288C100.841 11.7622 100.854 11.7942 100.878 11.8178C100.902 11.8414 100.934 11.8546 100.968 11.8546Z" fill="#747474"/>
<path d="M134.85 15.9031C134.782 17.258 133.837 18.7321 132.537 19.2354C129.152 20.5418 124.245 19.858 124.18 15.258C124.132 12.03 124.12 9.49236 124.144 7.64505C124.146 7.50096 124.221 7.42784 124.369 7.42569L127.369 7.41602C127.493 7.41602 127.555 7.47731 127.555 7.59989C127.562 9.19666 127.154 15.0128 127.949 16.0741C128.79 17.1934 131.11 16.858 131.458 15.3612C131.489 15.2257 131.513 14.6182 131.53 13.5386C131.558 11.5687 131.563 9.59666 131.543 7.62247C131.541 7.48913 131.607 7.42247 131.742 7.42247L134.736 7.41924C134.871 7.41924 134.94 7.48591 134.945 7.61924C135.021 10.3956 134.989 13.1569 134.85 15.9031Z" fill="#747474"/>
<path d="M150.952 15.0447L150.825 16.4608C150.823 16.4801 150.826 16.4995 150.832 16.5179C150.838 16.5362 150.848 16.5531 150.861 16.5674C150.875 16.5816 150.891 16.593 150.909 16.6008C150.927 16.6086 150.946 16.6125 150.965 16.6124H156.742C156.779 16.6124 156.815 16.6271 156.841 16.6531C156.868 16.6791 156.882 16.7144 156.882 16.7512V19.377C156.882 19.4137 156.868 19.449 156.841 19.475C156.815 19.5011 156.779 19.5157 156.742 19.5157H147.652C147.615 19.5157 147.579 19.5011 147.553 19.475C147.526 19.449 147.512 19.4137 147.512 19.377L147.515 7.57373C147.515 7.53695 147.53 7.50166 147.556 7.47565C147.582 7.44964 147.618 7.43502 147.655 7.43502L156.739 7.40922C156.758 7.40878 156.777 7.41215 156.794 7.41912C156.812 7.4261 156.828 7.43654 156.841 7.44981C156.855 7.46308 156.865 7.4789 156.872 7.49632C156.879 7.51374 156.883 7.53239 156.882 7.55115L156.853 10.277C156.853 10.3137 156.838 10.349 156.812 10.375C156.786 10.4011 156.75 10.4157 156.713 10.4157L151.076 10.377C151.039 10.377 151.003 10.3916 150.977 10.4176C150.951 10.4436 150.936 10.4789 150.936 10.5157V11.8092C150.936 11.846 150.951 11.8813 150.977 11.9073C151.003 11.9333 151.039 11.9479 151.076 11.9479L156.755 11.9286C156.774 11.9286 156.792 11.9323 156.81 11.9394C156.827 11.9466 156.842 11.9571 156.855 11.9703C156.869 11.9836 156.879 11.9992 156.886 12.0164C156.892 12.0336 156.896 12.052 156.895 12.0705L156.853 14.7834C156.852 14.8196 156.837 14.8541 156.811 14.8794C156.785 14.9047 156.749 14.9189 156.713 14.9189H151.089C151.055 14.9195 151.022 14.9327 150.997 14.9559C150.971 14.9791 150.956 15.0107 150.952 15.0447Z" fill="#747474"/>
<path d="M89.438 8.03936L83.3518 8.01832C83.233 8.01791 83.1364 8.1129 83.136 8.23048L83.1359 8.24338C83.1355 8.36097 83.2314 8.45662 83.3502 8.45703L89.4365 8.47806C89.5553 8.47847 89.6519 8.38349 89.6523 8.2659L89.6523 8.253C89.6527 8.13542 89.5568 8.03977 89.438 8.03936Z" fill="white"/>
<path d="M113.549 13.5859C113.503 15.4614 114.687 17.0113 116.195 17.0477C117.702 17.0842 118.962 15.5935 119.008 13.718C119.054 11.8426 117.87 10.2927 116.362 10.2562C114.855 10.2197 113.595 11.7105 113.549 13.5859Z" fill="white"/>
<path d="M81.9272 17.3258C81.9203 17.3839 81.9259 17.4427 81.9435 17.4984C81.9611 17.5542 81.9904 17.6057 82.0294 17.6495C82.0685 17.6933 82.1164 17.7285 82.1701 17.7528C82.2237 17.777 82.282 17.7898 82.341 17.7903L90.3366 17.8291C90.4042 17.8293 90.4711 17.8156 90.5331 17.7889C90.5951 17.7622 90.6509 17.723 90.6968 17.6739C90.7427 17.6248 90.7779 17.5668 90.8 17.5035C90.8221 17.4403 90.8308 17.3732 90.8253 17.3065L90.7797 16.8065C90.7689 16.6538 90.6863 16.5764 90.5321 16.5742L87.4433 16.5129C87.3895 16.5121 87.3381 16.4903 87.3003 16.4523C87.2625 16.4143 87.2413 16.363 87.2413 16.3097L87.2381 13.6774C87.2381 13.5506 87.3032 13.486 87.4336 13.4839L92.9562 13.4258C93.1082 13.4237 93.1843 13.4979 93.1843 13.6484L93.2038 20.271C93.2038 20.4129 93.1332 20.4839 92.992 20.4839H79.3663C79.3386 20.4839 79.3112 20.4784 79.2857 20.4679C79.2602 20.4573 79.2371 20.4418 79.2177 20.4223C79.1982 20.4028 79.183 20.3796 79.1727 20.3542C79.1624 20.3288 79.1573 20.3016 79.1577 20.2742L79.1773 13.6291C79.1773 13.5215 79.2305 13.4678 79.3369 13.4678H85.3711C85.3935 13.4677 85.4157 13.4722 85.4363 13.4809C85.4569 13.4895 85.4755 13.5022 85.491 13.5182C85.5065 13.5342 85.5186 13.5531 85.5266 13.5738C85.5345 13.5945 85.5382 13.6166 85.5373 13.6387L85.4233 16.3774C85.4189 16.4721 85.369 16.5194 85.2734 16.5194L82.2074 16.5613C82.0814 16.5613 82.0108 16.6237 81.9956 16.7484L81.9272 17.3258ZM89.6719 18.2549C89.6719 18.2299 89.667 18.2051 89.6573 18.182C89.6476 18.1589 89.6335 18.138 89.6156 18.1203C89.5978 18.1026 89.5766 18.0886 89.5533 18.079C89.5299 18.0695 89.505 18.0645 89.4797 18.0645H83.2826C83.2574 18.0645 83.2324 18.0695 83.2091 18.079C83.1857 18.0886 83.1645 18.1026 83.1467 18.1203C83.1288 18.138 83.1147 18.1589 83.105 18.182C83.0954 18.2051 83.0904 18.2299 83.0904 18.2549V18.2678C83.0904 18.3182 83.1106 18.3666 83.1467 18.4023C83.1827 18.438 83.2316 18.4581 83.2826 18.4581H89.4797C89.5307 18.4581 89.5796 18.438 89.6156 18.4023C89.6517 18.3666 89.6719 18.3182 89.6719 18.2678V18.2549Z" fill="#747474"/>
<path d="M89.4797 18.0645H83.2826C83.1764 18.0645 83.0903 18.1497 83.0903 18.2548V18.2677C83.0903 18.3728 83.1764 18.458 83.2826 18.458H89.4797C89.5858 18.458 89.6719 18.3728 89.6719 18.2677V18.2548C89.6719 18.1497 89.5858 18.0645 89.4797 18.0645Z" fill="white"/>
<path d="M79.5781 21.3706H92.2036C92.2992 21.3706 92.3926 21.3534 92.4838 21.3189C92.6185 21.2695 92.7586 21.2652 92.9041 21.306C93.1126 21.362 93.1181 21.434 92.9204 21.5222L86.2997 24.4157C86.1998 24.4609 86.101 24.4609 86.0032 24.4157L79.5325 21.577C79.2175 21.4394 79.2327 21.3706 79.5781 21.3706Z" fill="#747474"/>
<path d="M155.716 27.168H3.81841C3.69244 27.168 3.59033 27.2691 3.59033 27.3938V27.6776C3.59033 27.8024 3.69244 27.9035 3.81841 27.9035H155.716C155.842 27.9035 155.944 27.8024 155.944 27.6776V27.3938C155.944 27.2691 155.842 27.168 155.716 27.168Z" fill="#747474"/>
<path d="M130.719 28.8933C131.064 29.99 127.871 30.4675 127.829 28.932C127.828 28.9134 127.832 28.8949 127.841 28.8784C127.85 28.8618 127.862 28.8477 127.878 28.8374C127.894 28.8271 127.912 28.8209 127.93 28.8194C127.949 28.8178 127.968 28.8211 127.985 28.8287C128.834 29.2244 129.677 29.2169 130.513 28.8062C130.532 28.7968 130.553 28.7917 130.575 28.7911C130.596 28.7905 130.617 28.7945 130.636 28.8028C130.656 28.811 130.673 28.8234 130.688 28.839C130.702 28.8547 130.712 28.8732 130.719 28.8933Z" fill="#747474"/>
<path d="M24.8079 30.4221C25.0555 29.6479 26.1828 29.9092 26.4989 30.4995C26.5488 30.5963 26.6281 30.6425 26.7367 30.6382C30.9072 30.5028 30.8127 36.0318 26.7465 36.0286C26.6227 36.0286 26.5336 36.0845 26.4793 36.1963L26.3816 36.3963C26.3273 36.5081 26.2415 36.5856 26.1242 36.6286C25.466 36.8716 25.0033 36.7382 24.7362 36.2286C24.6775 36.1167 24.5841 36.0597 24.456 36.0576C20.406 35.9544 20.2496 30.635 24.5733 30.5963C24.6927 30.5942 24.7709 30.5361 24.8079 30.4221ZM24.6091 31.8834C22.172 32.2124 22.5662 34.9382 24.6319 34.8995C24.7731 34.8974 24.8437 34.8264 24.8437 34.6866V32.0866C24.8437 31.9296 24.7655 31.8619 24.6091 31.8834ZM26.538 34.9221C28.8578 34.6673 28.9621 32.0286 26.5347 31.8673C26.4087 31.8587 26.3468 31.9167 26.349 32.0415L26.3913 34.7963C26.3917 34.8144 26.3958 34.8323 26.4036 34.8487C26.4113 34.8651 26.4225 34.8797 26.4363 34.8916C26.4501 34.9035 26.4663 34.9123 26.4838 34.9176C26.5014 34.9228 26.5198 34.9244 26.538 34.9221Z" fill="#747474"/>
<path d="M61.7528 32.2066C57.0023 28.1421 57.0936 38.7776 61.7626 34.6808C61.7849 34.6611 61.8123 34.6478 61.8418 34.6425C61.8713 34.6372 61.9016 34.64 61.9296 34.6507C61.9575 34.6614 61.982 34.6795 62.0002 34.703C62.0185 34.7265 62.0298 34.7546 62.033 34.7841C62.3621 37.9841 55.7219 37.6808 56.6537 32.4002C57.1001 29.8679 59.9217 29.3647 61.8179 30.7034C61.9309 30.783 61.9874 30.8905 61.9874 31.026V32.1002C61.9874 32.3045 61.9092 32.34 61.7528 32.2066Z" fill="#747474"/>
<path d="M70.452 32.8899C69.9274 35.2157 72.4036 36.6124 73.9806 34.6737C74.061 34.5748 74.1196 34.5866 74.1566 34.7092C75.0884 37.8253 67.4251 37.8866 68.976 32.0802C69.5886 29.777 72.3515 29.506 74.0555 30.6931C74.1446 30.7533 74.1902 30.8361 74.1924 30.9415L74.2347 32.0415C74.236 32.0682 74.2295 32.0946 74.216 32.1176C74.2026 32.1407 74.1826 32.1596 74.1585 32.172C74.1343 32.1845 74.107 32.19 74.0796 32.1881C74.0522 32.1861 74.0258 32.1766 74.0034 32.1608C72.6839 31.2092 70.9244 30.7899 70.452 32.8899Z" fill="#747474"/>
<path d="M109.987 32.0293C108.651 34.0906 110.808 36.9906 113.056 34.8099C113.221 34.6508 113.336 34.6798 113.398 34.897C113.623 35.6809 113.174 36.2841 112.418 36.5551C107.807 38.1906 106.403 31.5067 109.932 30.1648C111.147 29.7035 114.154 30.1099 113.363 32.1487C113.319 32.2583 113.254 32.2745 113.167 32.197C112.271 31.3874 110.763 30.8357 109.987 32.0293Z" fill="#747474"/>
<path d="M115.816 30.2938C116.95 29.7132 120.345 29.9486 119.446 32.1099C119.402 32.2175 119.335 32.2336 119.244 32.1583C115.22 28.7519 114.402 36.6261 118.129 35.4583C118.582 35.3164 118.931 35.0164 119.299 34.6809C119.432 34.5583 119.514 34.5863 119.547 34.7648C120.13 38.0519 112.841 37.5519 114.233 32.3422C114.489 31.3895 115.017 30.7067 115.816 30.2938Z" fill="#747474"/>
<path d="M32.2106 34.6129L34.537 30.3355C34.587 30.2408 34.6652 30.1914 34.7716 30.1871L36.3616 30.0903C36.4919 30.0839 36.5571 30.1451 36.5571 30.2742L36.5799 36.4484C36.5821 36.614 36.4995 36.6968 36.3323 36.6968L35.2375 36.6903C35.0963 36.6882 35.0257 36.6172 35.0257 36.4774V32.5193C35.0257 32.3451 34.9845 32.3355 34.9019 32.4903L32.7776 36.5097C32.7189 36.6215 32.6244 36.6785 32.4941 36.6806L30.9823 36.7C30.8324 36.7021 30.7575 36.629 30.7575 36.4806L30.751 30.3839C30.751 30.2355 30.8248 30.1613 30.9725 30.1613H32.1846C32.3149 30.1613 32.3768 30.2258 32.3703 30.3548L32.1878 34.6064C32.1878 34.6408 32.1954 34.643 32.2106 34.6129Z" fill="#747474"/>
<path d="M39.2937 31.4518H37.5799C37.5289 31.4518 37.48 31.4318 37.444 31.3961C37.4079 31.3604 37.3877 31.312 37.3877 31.2615V30.3228C37.3877 30.2729 37.4075 30.225 37.4428 30.1894C37.4782 30.1538 37.5263 30.1333 37.5767 30.1325L42.9592 30.0615C43.0091 30.0615 43.057 30.0807 43.0929 30.115C43.1288 30.1493 43.1498 30.196 43.1514 30.2454L43.1808 31.3583C43.1817 31.3847 43.1771 31.4109 43.1672 31.4354C43.1574 31.46 43.1425 31.4822 43.1235 31.5007C43.1045 31.5192 43.0818 31.5336 43.0569 31.5429C43.032 31.5523 43.0054 31.5564 42.9788 31.5551L41.2487 31.4841C41.2223 31.4828 41.196 31.4868 41.1713 31.496C41.1466 31.5052 41.1241 31.5193 41.1052 31.5374C41.0862 31.5556 41.0712 31.5774 41.0612 31.6015C41.0511 31.6256 41.0462 31.6516 41.0467 31.6777L41.0662 36.5035C41.0662 36.5539 41.0459 36.6023 41.0099 36.638C40.9738 36.6737 40.9249 36.6938 40.874 36.6938H39.7043C39.6533 36.6938 39.6044 36.6737 39.5683 36.638C39.5323 36.6023 39.512 36.5539 39.512 36.5035L39.486 31.6422C39.486 31.5917 39.4657 31.5433 39.4297 31.5076C39.3936 31.4719 39.3447 31.4518 39.2937 31.4518Z" fill="#747474"/>
<path d="M52.3755 34.2424V35.265C52.3755 35.3043 52.3912 35.3421 52.4193 35.3699C52.4475 35.3977 52.4856 35.4133 52.5253 35.4133L55.4838 35.3875C55.5235 35.3875 55.5616 35.4032 55.5897 35.431C55.6179 35.4588 55.6336 35.4966 55.6336 35.5359V36.5456C55.6336 36.585 55.6179 36.6227 55.5897 36.6505C55.5616 36.6784 55.5235 36.694 55.4838 36.694H50.9809C50.9412 36.694 50.9031 36.6784 50.875 36.6505C50.8469 36.6227 50.8311 36.585 50.8311 36.5456L50.8213 30.3359C50.8213 30.2971 50.8366 30.2599 50.864 30.2321C50.8914 30.2044 50.9287 30.1884 50.9679 30.1875L55.4642 30.0811C55.4839 30.0807 55.5035 30.0841 55.5218 30.0911C55.5402 30.0982 55.5569 30.1088 55.5712 30.1223C55.5854 30.1357 55.5968 30.1519 55.6047 30.1697C55.6126 30.1876 55.6169 30.2068 55.6174 30.2263L55.6402 31.2908C55.6406 31.3103 55.6371 31.3296 55.63 31.3478C55.6229 31.366 55.6122 31.3826 55.5986 31.3966C55.585 31.4107 55.5687 31.422 55.5507 31.4299C55.5326 31.4377 55.5132 31.442 55.4935 31.4424L52.5221 31.4746C52.4829 31.4755 52.4456 31.4915 52.4182 31.5192C52.3908 31.547 52.3754 31.5842 52.3755 31.623V32.6746C52.3755 32.714 52.3912 32.7517 52.4193 32.7796C52.4475 32.8074 52.4856 32.823 52.5253 32.823H55.4838C55.5235 32.823 55.5616 32.8387 55.5897 32.8665C55.6179 32.8943 55.6336 32.9321 55.6336 32.9714V33.8585C55.6337 33.8973 55.6183 33.9346 55.5909 33.9623C55.5635 33.99 55.5262 34.0061 55.487 34.0069L52.5221 34.094C52.4829 34.0948 52.4456 34.1108 52.4182 34.1386C52.3908 34.1663 52.3754 34.2036 52.3755 34.2424Z" fill="#747474"/>
<path d="M76.7307 31.6548V36.4935C76.7307 36.5474 76.709 36.5991 76.6705 36.6372C76.632 36.6753 76.5798 36.6967 76.5254 36.6967L75.3068 36.6871C75.2524 36.6871 75.2002 36.6656 75.1617 36.6275C75.1232 36.5894 75.1016 36.5377 75.1016 36.4838V30.3225C75.1016 30.2692 75.1227 30.218 75.1605 30.18C75.1983 30.1419 75.2497 30.1202 75.3036 30.1193L80.6763 30.0645C80.7036 30.0641 80.7306 30.069 80.7559 30.079C80.7812 30.089 80.8042 30.1039 80.8236 30.1229C80.843 30.1418 80.8584 30.1643 80.8689 30.1892C80.8795 30.2141 80.8849 30.2407 80.8849 30.2677V36.4903C80.8849 36.5442 80.8632 36.5959 80.8247 36.634C80.7862 36.6721 80.734 36.6935 80.6796 36.6935H79.461C79.4066 36.6935 79.3544 36.6721 79.3159 36.634C79.2774 36.5959 79.2558 36.5442 79.2558 36.4903V31.6548C79.2558 31.6009 79.2341 31.5492 79.1956 31.5111C79.1571 31.473 79.1049 31.4516 79.0505 31.4516H76.9359C76.8815 31.4516 76.8293 31.473 76.7908 31.5111C76.7523 31.5492 76.7307 31.6009 76.7307 31.6548Z" fill="#747474"/>
<path d="M86.0784 35.0552L83.8432 35.0939C83.8006 35.0948 83.7594 35.109 83.7255 35.1345C83.6916 35.16 83.6666 35.1955 83.6543 35.2359L83.2437 36.5262C83.231 36.5654 83.2063 36.5998 83.1731 36.6247C83.1398 36.6495 83.0996 36.6635 83.058 36.6649L81.8362 36.7004C81.8037 36.7011 81.7715 36.694 81.7424 36.6797C81.7133 36.6655 81.688 36.6445 81.6689 36.6185C81.6497 36.5926 81.6371 36.5624 81.6322 36.5306C81.6273 36.4988 81.6302 36.4663 81.6407 36.4359L83.7455 30.2681C83.7588 30.2295 83.7837 30.1958 83.8169 30.1715C83.8501 30.1473 83.89 30.1337 83.9312 30.1326L85.9708 30.0617C86.0143 30.0601 86.0571 30.0724 86.0929 30.0968C86.1287 30.1212 86.1556 30.1564 86.1696 30.1971L88.2842 36.4455C88.2948 36.4762 88.2976 36.509 88.2926 36.5411C88.2875 36.5732 88.2746 36.6035 88.2551 36.6296C88.2355 36.6556 88.2098 36.6765 88.1803 36.6906C88.1507 36.7046 88.1182 36.7113 88.0854 36.71L86.8115 36.652C86.7686 36.65 86.7275 36.6345 86.6941 36.6078C86.6607 36.5812 86.6368 36.5447 86.6257 36.5036L86.2771 35.2036C86.2655 35.1604 86.2396 35.1224 86.2036 35.0955C86.1675 35.0686 86.1235 35.0544 86.0784 35.0552ZM84.0941 33.6294C84.088 33.6483 84.0864 33.6683 84.0895 33.6878C84.0927 33.7074 84.1004 33.726 84.1122 33.742C84.1239 33.758 84.1393 33.7711 84.1571 33.7801C84.175 33.7891 84.1947 33.7939 84.2147 33.7939L85.6776 33.7875C85.6977 33.7871 85.7175 33.782 85.7352 33.7725C85.7529 33.7631 85.7681 33.7497 85.7796 33.7333C85.791 33.7169 85.7984 33.6981 85.8011 33.6783C85.8037 33.6586 85.8016 33.6385 85.7949 33.6197L85.0553 31.5391C85.0468 31.514 85.0307 31.4922 85.009 31.4768C84.9874 31.4614 84.9614 31.453 84.9347 31.453C84.9081 31.453 84.8821 31.4614 84.8604 31.4768C84.8388 31.4922 84.8226 31.514 84.8142 31.5391L84.0941 33.6294Z" fill="#747474"/>
<path d="M100.242 33.7225C100.73 34.8547 100.111 36.3193 98.7982 36.5999C98.1835 36.7311 97.0355 36.7504 95.3543 36.658C95.2652 36.6537 95.2207 36.6074 95.2207 36.5192V30.3192C95.2207 30.2096 95.2761 30.1526 95.3869 30.1483L99.6323 30.0547C99.7822 30.0526 99.8571 30.1257 99.8571 30.2741L99.8669 31.1934C99.8669 31.3461 99.7898 31.4214 99.6356 31.4193L97.0616 31.3838C96.9378 31.3816 96.8715 31.4418 96.8628 31.5644L96.7944 32.416C96.7814 32.5859 96.8596 32.6558 97.029 32.6257C98.2019 32.4289 99.704 32.4838 100.242 33.7225ZM98.8015 35.1322C98.8747 35.0656 98.9314 34.983 98.9669 34.891C99.0024 34.7991 99.0158 34.7003 99.006 34.6025C98.9962 34.5048 98.9634 34.4108 98.9104 34.328C98.8573 34.2452 98.7855 34.1759 98.7005 34.1257C98.19 33.8203 97.6231 33.7526 96.9997 33.9225C96.8998 33.9504 96.8498 34.016 96.8498 34.1192V35.3192C96.8498 35.4268 96.9019 35.4945 97.0062 35.5225C97.7013 35.7117 98.2997 35.5816 98.8015 35.1322Z" fill="#747474"/>
<path d="M102.998 35.2226L102.646 36.5484C102.636 36.5891 102.611 36.625 102.578 36.6507C102.544 36.6764 102.503 36.6903 102.461 36.6904H101.19C101.16 36.6899 101.13 36.6824 101.103 36.6684C101.076 36.6544 101.053 36.6343 101.036 36.6098C101.018 36.5852 101.007 36.5569 101.002 36.5272C100.998 36.4975 101.001 36.4672 101.011 36.4388L103.132 30.2581C103.144 30.2214 103.168 30.1894 103.199 30.1664C103.231 30.1433 103.269 30.1303 103.308 30.1291L105.344 30.0646C105.385 30.0631 105.426 30.0749 105.46 30.0981C105.494 30.1213 105.52 30.1548 105.533 30.1936L107.661 36.4388C107.671 36.4675 107.673 36.498 107.669 36.528C107.664 36.558 107.653 36.5865 107.635 36.6111C107.617 36.6357 107.594 36.6557 107.566 36.6695C107.539 36.6833 107.509 36.6905 107.478 36.6904L106.211 36.6968C106.169 36.697 106.128 36.6835 106.094 36.6585C106.061 36.6334 106.036 36.5982 106.025 36.5581L105.637 35.2194C105.626 35.1794 105.602 35.1441 105.568 35.1191C105.535 35.094 105.494 35.0806 105.452 35.0807H103.184C103.142 35.0808 103.1 35.0947 103.067 35.1204C103.033 35.146 103.009 35.182 102.998 35.2226ZM103.464 33.6194C103.457 33.6385 103.455 33.6588 103.458 33.6788C103.461 33.6988 103.469 33.7178 103.48 33.7343C103.492 33.7507 103.508 33.7641 103.526 33.7733C103.544 33.7825 103.564 33.7873 103.585 33.7872L105.015 33.7936C105.035 33.7941 105.055 33.7897 105.074 33.7809C105.092 33.7721 105.108 33.7591 105.12 33.743C105.132 33.7269 105.14 33.7082 105.143 33.6883C105.147 33.6685 105.145 33.6482 105.139 33.6291L104.432 31.4904C104.423 31.4653 104.407 31.4435 104.386 31.4281C104.364 31.4127 104.338 31.4043 104.311 31.4043C104.285 31.4043 104.259 31.4127 104.237 31.4281C104.215 31.4435 104.199 31.4653 104.191 31.4904L103.464 33.6194Z" fill="#747474"/>
<path d="M122.143 35.4028H125.154C125.187 35.4028 125.218 35.4157 125.241 35.4387C125.265 35.4617 125.278 35.4929 125.278 35.5254V36.5706C125.278 36.6031 125.265 36.6343 125.241 36.6572C125.218 36.6802 125.187 36.6931 125.154 36.6931H120.566C120.534 36.6931 120.502 36.6802 120.479 36.6572C120.456 36.6343 120.443 36.6031 120.443 36.5706L120.426 30.2641C120.426 30.2322 120.439 30.2015 120.461 30.1786C120.484 30.1557 120.515 30.1424 120.547 30.1415L125.151 30.0577C125.167 30.0572 125.184 30.0601 125.199 30.066C125.214 30.072 125.228 30.081 125.24 30.0924C125.252 30.1038 125.262 30.1175 125.268 30.1326C125.274 30.1477 125.278 30.1639 125.278 30.1802V31.3125C125.278 31.3445 125.265 31.3752 125.243 31.3981C125.22 31.421 125.189 31.4342 125.157 31.4351L122.14 31.5028C122.108 31.5037 122.077 31.5169 122.055 31.5398C122.032 31.5627 122.02 31.5934 122.02 31.6254V32.6996C122.02 32.7321 122.033 32.7633 122.056 32.7863C122.079 32.8093 122.111 32.8222 122.143 32.8222H125.154C125.187 32.8222 125.218 32.8351 125.241 32.8581C125.265 32.8811 125.278 32.9122 125.278 32.9448V33.8996C125.278 33.9316 125.265 33.9623 125.243 33.9852C125.22 34.008 125.189 34.0213 125.157 34.0222L122.14 34.0641C122.108 34.065 122.077 34.0782 122.055 34.1011C122.032 34.124 122.02 34.1547 122.02 34.1867V35.2802C122.02 35.3128 122.033 35.3439 122.056 35.3669C122.079 35.3899 122.111 35.4028 122.143 35.4028Z" fill="#747474"/>
<path d="M127.894 34.5096L130.181 30.3613C130.248 30.2387 130.353 30.1763 130.494 30.1742L131.595 30.158C131.975 30.1516 132.163 30.3354 132.159 30.7096L132.117 36.5354C132.117 36.643 132.062 36.6967 131.954 36.6967L130.856 36.6903C130.71 36.6881 130.638 36.615 130.641 36.4709L130.686 32.358C130.686 32.2527 130.662 32.2462 130.614 32.3387L128.399 36.5387C128.347 36.6397 128.263 36.6903 128.148 36.6903L126.604 36.6935C126.456 36.6957 126.381 36.6225 126.379 36.4742L126.327 30.3709C126.325 30.2311 126.394 30.1591 126.535 30.1548L127.738 30.1193C127.89 30.115 127.963 30.1881 127.959 30.3387L127.832 34.4903C127.828 34.5849 127.848 34.5914 127.894 34.5096Z" fill="#747474"/>
<path d="M137.414 32.4068V30.3487C137.414 30.3052 137.431 30.2631 137.46 30.2309C137.49 30.1986 137.53 30.1785 137.574 30.1745L138.851 30.0584C138.875 30.0561 138.9 30.0589 138.923 30.0664C138.946 30.074 138.967 30.0862 138.985 30.1022C139.003 30.1183 139.018 30.1379 139.028 30.1597C139.038 30.1816 139.043 30.2053 139.044 30.2293V36.5197C139.044 36.5659 139.025 36.6102 138.992 36.6428C138.959 36.6755 138.914 36.6939 138.868 36.6939H137.59C137.544 36.6939 137.499 36.6755 137.466 36.6428C137.433 36.6102 137.414 36.5659 137.414 36.5197V33.9971C137.414 33.9739 137.41 33.951 137.401 33.9297C137.392 33.9083 137.378 33.889 137.362 33.8727C137.345 33.8565 137.325 33.8438 137.304 33.8352C137.282 33.8266 137.259 33.8225 137.235 33.8229L135.055 33.8519C135.032 33.8523 135.01 33.8573 134.988 33.8664C134.967 33.8755 134.948 33.8887 134.932 33.9052C134.916 33.9217 134.903 33.9411 134.895 33.9624C134.886 33.9837 134.882 34.0065 134.883 34.0293L134.906 36.5164C134.906 36.5396 134.902 36.5626 134.893 36.5841C134.885 36.6056 134.872 36.6252 134.855 36.6417C134.839 36.6582 134.819 36.6713 134.798 36.6803C134.776 36.6892 134.753 36.6939 134.73 36.6939H133.527C133.481 36.6939 133.436 36.6755 133.403 36.6428C133.37 36.6102 133.351 36.5659 133.351 36.5197L133.299 30.3358C133.299 30.2896 133.318 30.2453 133.351 30.2126C133.384 30.1799 133.429 30.1616 133.475 30.1616H134.713C134.76 30.1616 134.805 30.1799 134.838 30.2126C134.871 30.2453 134.889 30.2896 134.889 30.3358V32.4035C134.889 32.4497 134.908 32.494 134.941 32.5267C134.974 32.5594 135.019 32.5777 135.065 32.5777L137.238 32.5809C137.262 32.5809 137.284 32.5764 137.306 32.5677C137.327 32.5589 137.347 32.5461 137.363 32.5299C137.379 32.5138 137.392 32.4945 137.401 32.4734C137.41 32.4523 137.414 32.4296 137.414 32.4068Z" fill="#747474"/>
<path d="M45.7257 32.5805H47.9739C48.0003 32.5805 48.0264 32.5752 48.0506 32.5649C48.0748 32.5545 48.0966 32.5393 48.1146 32.5203C48.1327 32.5012 48.1465 32.4787 48.1554 32.4541C48.1642 32.4295 48.1679 32.4033 48.1661 32.3773L48.039 30.3644C48.0372 30.3383 48.0409 30.3122 48.0498 30.2876C48.0586 30.263 48.0725 30.2404 48.0905 30.2214C48.1086 30.2023 48.1304 30.1871 48.1546 30.1768C48.1788 30.1664 48.2049 30.1611 48.2313 30.1611H49.4955C49.5464 30.1611 49.5953 30.1812 49.6314 30.2169C49.6674 30.2526 49.6877 30.301 49.6877 30.3515V36.5063C49.6877 36.5568 49.6674 36.6052 49.6314 36.6409C49.5953 36.6766 49.5464 36.6966 49.4955 36.6966L48.3062 36.6902C48.2558 36.6893 48.2077 36.6689 48.1724 36.6333C48.137 36.5977 48.1172 36.5498 48.1172 36.4998L48.1466 34.0224C48.147 33.9974 48.1424 33.9726 48.1332 33.9493C48.1239 33.9261 48.1101 33.9049 48.0926 33.8869C48.075 33.8689 48.0541 33.8545 48.0309 33.8446C48.0077 33.8346 47.9828 33.8293 47.9576 33.8289L45.729 33.7902C45.7035 33.7897 45.6781 33.7943 45.6544 33.8037C45.6307 33.8131 45.6091 33.827 45.5909 33.8448C45.5727 33.8625 45.5583 33.8836 45.5484 33.9069C45.5386 33.9302 45.5335 33.9552 45.5335 33.9805V36.5063C45.5335 36.5568 45.5132 36.6052 45.4772 36.6409C45.4411 36.6766 45.3922 36.6966 45.3413 36.6966L44.1781 36.6869C44.1271 36.6869 44.0782 36.6669 44.0421 36.6312C44.0061 36.5955 43.9858 36.5471 43.9858 36.4966V30.3515C43.9858 30.301 44.0061 30.2526 44.0421 30.2169C44.0782 30.1812 44.1271 30.1611 44.1781 30.1611H45.3413C45.3922 30.1611 45.4411 30.1812 45.4772 30.2169C45.5132 30.2526 45.5335 30.301 45.5335 30.3515V32.3902C45.5335 32.4406 45.5537 32.4891 45.5898 32.5247C45.6258 32.5604 45.6747 32.5805 45.7257 32.5805Z" fill="#747474"/>
<path d="M103.464 33.6194L104.19 31.4903C104.199 31.4653 104.215 31.4435 104.237 31.428C104.258 31.4126 104.284 31.4043 104.311 31.4043C104.338 31.4043 104.364 31.4126 104.385 31.428C104.407 31.4435 104.423 31.4653 104.431 31.4903L105.139 33.629C105.145 33.6482 105.146 33.6685 105.143 33.6883C105.14 33.7081 105.132 33.7268 105.12 33.743C105.107 33.7591 105.092 33.7721 105.073 33.7809C105.055 33.7897 105.035 33.794 105.015 33.7936L103.584 33.7871C103.564 33.7872 103.544 33.7825 103.526 33.7733C103.508 33.7641 103.492 33.7507 103.48 33.7342C103.468 33.7178 103.461 33.6988 103.458 33.6788C103.455 33.6588 103.457 33.6384 103.464 33.6194Z" fill="white"/>
<path d="M84.0941 33.6295L84.8141 31.5392C84.8225 31.5141 84.8387 31.4923 84.8604 31.4769C84.882 31.4614 84.908 31.4531 84.9347 31.4531C84.9613 31.4531 84.9873 31.4614 85.009 31.4769C85.0306 31.4923 85.0468 31.5141 85.0552 31.5392L85.7948 33.6198C85.8015 33.6386 85.8037 33.6587 85.801 33.6784C85.7983 33.6982 85.791 33.717 85.7795 33.7334C85.7681 33.7498 85.7528 33.7632 85.7351 33.7726C85.7174 33.782 85.6977 33.7872 85.6775 33.7875L84.2146 33.794C84.1946 33.7939 84.1749 33.7892 84.1571 33.7802C84.1393 33.7712 84.1239 33.7581 84.1121 33.7421C84.1004 33.726 84.0926 33.7075 84.0895 33.6879C84.0863 33.6684 84.0879 33.6483 84.0941 33.6295Z" fill="white"/>
<path d="M24.6318 34.8999C22.5661 34.9386 22.1719 32.2128 24.609 31.8838C24.7654 31.8623 24.8436 31.93 24.8436 32.087V34.687C24.8436 34.8268 24.773 34.8977 24.6318 34.8999Z" fill="white"/>
<path d="M26.5349 31.868C28.9622 32.0293 28.858 34.668 26.5381 34.9229C26.52 34.9251 26.5016 34.9236 26.484 34.9183C26.4665 34.9131 26.4503 34.9042 26.4365 34.8923C26.4227 34.8805 26.4115 34.8659 26.4038 34.8494C26.396 34.833 26.3918 34.8152 26.3915 34.7971L26.3492 32.0422C26.347 31.9175 26.4089 31.8594 26.5349 31.868Z" fill="white"/>
<path d="M65.4997 34.3476C66.048 34.322 66.4734 33.903 66.45 33.4119C66.4266 32.9207 65.9632 32.5433 65.415 32.5689C64.8668 32.5945 64.4413 33.0134 64.4647 33.5046C64.4881 33.9957 64.9515 34.3732 65.4997 34.3476Z" fill="#747474"/>
<path d="M91.3534 34.397C91.8771 34.397 92.3015 33.9767 92.3015 33.4582C92.3015 32.9398 91.8771 32.5195 91.3534 32.5195C90.8298 32.5195 90.4053 32.9398 90.4053 33.4582C90.4053 33.9767 90.8298 34.397 91.3534 34.397Z" fill="#747474"/>
<path d="M98.8018 35.1318C98.3 35.5813 97.7016 35.7114 97.0065 35.5222C96.9022 35.4942 96.8501 35.4265 96.8501 35.3189V34.1189C96.8501 34.0157 96.9001 33.9501 97 33.9222C97.6234 33.7523 98.1903 33.82 98.7008 34.1254C98.7858 34.1756 98.8576 34.2449 98.9107 34.3276C98.9637 34.4104 98.9965 34.5045 99.0063 34.6022C99.0161 34.7 99.0027 34.7988 98.9672 34.8907C98.9317 34.9827 98.875 35.0652 98.8018 35.1318Z" fill="white"/>
<path d="M155.634 38.21H3.8609C3.72415 38.21 3.61328 38.3197 3.61328 38.4551V38.7067C3.61328 38.8421 3.72415 38.9519 3.8609 38.9519H155.634C155.771 38.9519 155.882 38.8421 155.882 38.7067V38.4551C155.882 38.3197 155.771 38.21 155.634 38.21Z" fill="#747474"/>
</g>
<defs>
<clipPath id="clip0_414_65">
<rect width="159" height="40" fill="white"/>
</clipPath>
</defs>
</svg>
