<svg width="167" height="37" viewBox="0 0 167 37" fill="none" xmlns="http://www.w3.org/2000/svg">
<g clip-path="url(#clip0_414_158)">
<path d="M54.1963 14.5323C54.2213 14.5276 54.2476 14.527 54.2752 14.5307C54.3012 14.5339 54.3267 14.5305 54.3517 14.5204C56.232 13.7431 58.2383 14.0099 59.6334 15.5463C61.1719 17.2398 61.1528 19.8449 59.6015 21.5218C57.1945 24.1245 52.7892 22.9979 51.9893 19.5273C51.7192 18.3538 51.9319 17.4542 52.4307 16.3577C52.8522 15.4295 51.955 14.5268 51.0555 14.9762C49.6333 15.6876 48.0884 15.7614 46.6032 15.2255C45.9499 14.9905 45.3197 15.0826 45.0065 15.7559C44.7842 16.2346 44.9117 16.5967 45.1993 17.0064C45.7151 17.7416 46.0572 18.5743 46.2256 19.5043C46.9387 23.4314 44.1285 27.0607 40.1519 27.3664C35.1586 27.7507 31.5541 22.6549 33.5436 18.0735C33.687 17.7443 33.7678 17.5045 33.7858 17.3542C33.8942 16.4689 33.1102 15.6598 32.2003 15.7686C32.0446 15.7871 31.8378 15.8636 31.5796 15.998C29.0534 17.3161 26.4533 17.4015 23.7794 16.2545C23.6806 16.2121 23.5047 16.1902 23.2519 16.1886C21.8528 16.1807 20.7246 17.4701 21.0417 18.8604C21.1668 19.4098 21.5811 19.9505 21.8409 20.4849C23.5881 24.0705 23.3682 28.3406 21.1987 31.7008C16.6412 38.7594 6.43718 38.6879 1.86221 31.7278C-0.547977 28.0611 -0.565506 23.2392 1.74668 19.5218C4.76479 14.6665 11.0695 12.645 16.3329 15.1278C16.8388 15.366 17.2197 15.6018 17.7423 15.632C19.4793 15.7328 20.5963 13.9607 19.8275 12.4013C18.2722 9.24911 18.7359 5.48956 21.111 2.86859C24.2765 -0.62497 29.7399 -0.916365 33.2568 2.33821C35.8773 4.76464 36.6725 8.55516 35.3076 11.8431C35.1443 12.2385 34.7332 12.8356 34.687 13.3048C34.6017 14.1663 35.3164 14.9571 36.2056 14.892C36.3543 14.8814 36.5766 14.8118 36.8725 14.6832C38.6811 13.8971 40.5017 13.8799 42.3342 14.6316C42.5674 14.7269 42.7562 14.7758 42.9007 14.7785C43.5764 14.7912 44.1659 14.1711 44.044 13.4723C44.0223 13.3485 43.9458 13.1775 43.8146 12.9594C42.8808 11.4048 42.7222 9.55797 43.4218 7.88424C44.3867 5.57372 46.8518 4.16836 49.3528 4.54391C53.2067 5.12194 55.3667 9.41902 53.3669 12.8022C53.1366 13.1913 52.998 13.5152 53.2091 13.9694C53.3494 14.2703 53.8131 14.6101 54.1963 14.5323Z" fill="#747474"/>
<path d="M68.1225 8.53461V21.5862C68.1225 21.5942 68.1194 21.6019 68.1137 21.6076C68.108 21.6132 68.1003 21.6164 68.0923 21.6164H65.4439C65.4358 21.6164 65.4281 21.6132 65.4224 21.6076C65.4168 21.6019 65.4136 21.5942 65.4136 21.5862V4.65517C65.4136 4.64717 65.4168 4.6395 65.4224 4.63384C65.4281 4.62818 65.4358 4.625 65.4439 4.625H68.5512C68.5556 4.62505 68.56 4.62608 68.564 4.628C68.568 4.62992 68.5715 4.63269 68.5743 4.63612L75.0041 12.2561C75.007 12.2594 75.0105 12.2621 75.0145 12.2639C75.0185 12.2658 75.0228 12.2667 75.0272 12.2667C75.0316 12.2667 75.036 12.2658 75.04 12.2639C75.044 12.2621 75.0475 12.2594 75.0503 12.2561L81.4531 4.63612C81.4559 4.63269 81.4594 4.62992 81.4634 4.628C81.4674 4.62608 81.4717 4.62505 81.4762 4.625H84.5851C84.5891 4.625 84.593 4.62578 84.5967 4.6273C84.6004 4.62881 84.6037 4.63104 84.6065 4.63384C84.6093 4.63664 84.6116 4.63996 84.6131 4.64363C84.6146 4.64729 84.6154 4.65121 84.6154 4.65517V21.5862C84.6154 21.5902 84.6146 21.5941 84.6131 21.5978C84.6116 21.6015 84.6093 21.6048 84.6065 21.6076C84.6037 21.6104 84.6004 21.6126 84.5967 21.6141C84.593 21.6156 84.5891 21.6164 84.5851 21.6164H81.9367C81.9287 21.6164 81.921 21.6132 81.9153 21.6076C81.9096 21.6019 81.9064 21.5942 81.9064 21.5862V8.49968C81.9063 8.49354 81.9044 8.48757 81.9008 8.48257C81.8972 8.47757 81.8922 8.47378 81.8864 8.47171C81.8805 8.46964 81.8743 8.46938 81.8683 8.47098C81.8623 8.47257 81.857 8.47593 81.853 8.48062L75.0479 16.5547C75.0452 16.5581 75.0417 16.5609 75.0377 16.5628C75.0338 16.5647 75.0294 16.5657 75.025 16.5658C75.0206 16.5659 75.0163 16.565 75.0122 16.5632C75.0082 16.5614 75.0046 16.5588 75.0017 16.5555L68.1759 8.51476C68.1719 8.51002 68.1665 8.50664 68.1605 8.50507C68.1544 8.5035 68.1481 8.50382 68.1422 8.50599C68.1364 8.50816 68.1314 8.51208 68.1278 8.5172C68.1243 8.52232 68.1225 8.5284 68.1225 8.53461Z" fill="#747474"/>
<path d="M91.7004 18.8573H104.601C104.61 18.8573 104.618 18.8608 104.624 18.8671C104.631 18.8733 104.634 18.8818 104.634 18.8906V21.5831C104.634 21.5919 104.631 21.6004 104.624 21.6066C104.618 21.6129 104.61 21.6164 104.601 21.6164H88.9915C88.9826 21.6164 88.9741 21.6129 88.9678 21.6066C88.9615 21.6004 88.958 21.5919 88.958 21.5831V4.65835C88.958 4.6495 88.9615 4.64102 88.9678 4.63477C88.9741 4.62851 88.9826 4.625 88.9915 4.625H104.601C104.61 4.625 104.618 4.62851 104.624 4.63477C104.631 4.64102 104.634 4.6495 104.634 4.65835V7.35077C104.634 7.35962 104.631 7.3681 104.624 7.37435C104.618 7.38061 104.61 7.38412 104.601 7.38412H91.7004C91.6916 7.38412 91.6831 7.38763 91.6768 7.39389C91.6705 7.40014 91.667 7.40862 91.667 7.41747V11.6979C91.667 11.7067 91.6705 11.7152 91.6768 11.7215C91.6831 11.7277 91.6916 11.7312 91.7004 11.7312H102.071C102.08 11.7312 102.088 11.7347 102.095 11.741C102.101 11.7472 102.104 11.7557 102.104 11.7646V14.4768C102.104 14.4857 102.101 14.4942 102.095 14.5004C102.088 14.5067 102.08 14.5102 102.071 14.5102H91.7004C91.6916 14.5102 91.6831 14.5137 91.6768 14.52C91.6705 14.5262 91.667 14.5347 91.667 14.5435V18.8239C91.667 18.8328 91.6705 18.8413 91.6768 18.8475C91.6831 18.8538 91.6916 18.8573 91.7004 18.8573Z" fill="#747474"/>
<path d="M126.085 14.5893C126.043 17.8319 123.945 20.5553 120.771 21.2834C119.906 21.4819 119.164 21.5542 118.204 21.555C114.922 21.5581 111.64 21.5587 108.358 21.5565C108.348 21.5565 108.338 21.5524 108.33 21.5451C108.323 21.5379 108.319 21.528 108.319 21.5176V4.66596C108.319 4.64055 108.332 4.62785 108.357 4.62785C113.478 4.62203 116.904 4.6215 118.636 4.62626C122.3 4.63658 125.431 6.80815 126.002 10.5296C126.055 10.8689 126.083 11.3969 126.086 12.1136C126.092 13.3046 126.091 14.1298 126.085 14.5893ZM118.741 18.9078C120.986 18.8959 123.099 17.1713 123.115 14.8481C123.122 13.8239 123.123 12.8001 123.116 11.7769C123.112 11.2037 123.086 10.795 123.037 10.551C122.667 8.69229 120.708 7.28931 118.85 7.26946C117.832 7.25887 115.323 7.25914 111.323 7.27025C111.299 7.27025 111.287 7.28243 111.287 7.30678V18.876C111.287 18.9014 111.3 18.9141 111.325 18.9141C113.799 18.9231 116.271 18.921 118.741 18.9078Z" fill="#747474"/>
<path d="M132.162 18.8569H146.364C146.39 18.8569 146.404 18.8702 146.404 18.8966V21.5724C146.404 21.6004 146.39 21.6145 146.361 21.6145C141.985 21.6171 137.611 21.6174 133.238 21.6153C132.469 21.6153 131.942 21.5742 131.656 21.4922C130.657 21.2064 129.837 20.3766 129.544 19.3786C129.471 19.1287 129.434 18.7603 129.434 18.2734C129.433 14.8782 129.432 11.4831 129.433 8.08803C129.433 7.55606 129.47 7.15589 129.544 6.88752C129.835 5.84262 130.707 4.97479 131.782 4.7096C132.006 4.65402 132.345 4.62623 132.798 4.62623C137.32 4.62358 141.841 4.62332 146.363 4.62543C146.39 4.62543 146.404 4.63893 146.404 4.66593V7.32421C146.404 7.36391 146.384 7.38376 146.344 7.38376H132.162C132.151 7.38376 132.141 7.38794 132.134 7.39539C132.126 7.40283 132.122 7.41293 132.122 7.42346V18.8172C132.122 18.8437 132.135 18.8569 132.162 18.8569Z" fill="#747474"/>
<path d="M152.766 17.7997L163.871 4.63453C163.874 4.63153 163.877 4.62913 163.881 4.62748C163.884 4.62584 163.888 4.62499 163.892 4.625H166.913C166.92 4.625 166.927 4.62784 166.932 4.63291C166.937 4.63797 166.94 4.64484 166.94 4.652V21.5894C166.94 21.5966 166.937 21.6034 166.932 21.6085C166.927 21.6136 166.92 21.6164 166.913 21.6164H164.278C164.271 21.6164 164.264 21.6136 164.259 21.6085C164.254 21.6034 164.251 21.5966 164.251 21.5894V8.59337C164.251 8.5879 164.249 8.58259 164.246 8.57817C164.243 8.57375 164.238 8.57041 164.233 8.5686C164.228 8.56679 164.222 8.5666 164.217 8.56804C164.212 8.56949 164.207 8.57251 164.203 8.5767L153.226 21.6069C153.223 21.6099 153.22 21.6123 153.216 21.6139C153.213 21.6156 153.209 21.6164 153.205 21.6164H150.036C150.029 21.6164 150.022 21.6136 150.017 21.6085C150.012 21.6034 150.009 21.5966 150.009 21.5894V4.652C150.009 4.64484 150.012 4.63797 150.017 4.63291C150.022 4.62784 150.029 4.625 150.036 4.625H152.691C152.698 4.625 152.705 4.62784 152.71 4.63291C152.715 4.63797 152.718 4.64484 152.718 4.652V17.7822C152.718 17.7878 152.72 17.7932 152.723 17.7977C152.726 17.8023 152.731 17.8057 152.736 17.8077C152.741 17.8096 152.747 17.8098 152.752 17.8084C152.758 17.807 152.762 17.8039 152.766 17.7997Z" fill="#747474"/>
<path d="M166.109 25.3313C165.776 26.4865 163.607 26.4651 163.426 25.3075C163.421 25.2815 163.432 25.2686 163.458 25.2686H163.954C163.981 25.2686 164.001 25.2805 164.015 25.3043C164.316 25.8513 165.223 25.9117 165.508 25.3067C165.521 25.2813 165.541 25.2686 165.569 25.2686H166.061C166.069 25.2685 166.077 25.2702 166.083 25.2736C166.09 25.277 166.096 25.2819 166.101 25.288C166.106 25.2941 166.109 25.3012 166.11 25.3087C166.112 25.3162 166.111 25.3239 166.109 25.3313Z" fill="#747474"/>
<path d="M118.028 31.4893C116.915 31.7116 115.679 31.2916 115.158 30.2276C114.488 28.8564 114.948 27.1327 116.407 26.5427C117.905 25.9369 119.58 26.6967 119.963 28.2919C120.304 29.7107 119.503 31.1931 118.028 31.4893ZM117.537 30.9616C118.048 30.9385 118.528 30.7041 118.872 30.3101C119.215 29.9161 119.395 29.3947 119.371 28.8606C119.358 28.5961 119.297 28.3365 119.189 28.0965C119.081 27.8566 118.929 27.641 118.742 27.4621C118.554 27.2832 118.335 27.1444 118.097 27.0538C117.859 26.9632 117.606 26.9224 117.353 26.9338C116.843 26.957 116.363 27.1913 116.019 27.5853C115.675 27.9793 115.495 28.5007 115.52 29.0348C115.532 29.2993 115.594 29.5589 115.701 29.7989C115.809 30.0388 115.961 30.2544 116.149 30.4333C116.336 30.6123 116.555 30.751 116.793 30.8416C117.031 30.9323 117.284 30.973 117.537 30.9616Z" fill="#747474"/>
<path d="M104.726 29.9775L104.103 31.4567C104.099 31.464 104.094 31.4702 104.088 31.4746C104.081 31.479 104.073 31.4813 104.065 31.4813H103.503C103.496 31.4813 103.489 31.4796 103.483 31.4765C103.477 31.4733 103.472 31.4687 103.469 31.4631C103.465 31.4575 103.463 31.4511 103.462 31.4445C103.461 31.4378 103.463 31.4311 103.465 31.4249L105.623 26.4045C105.626 26.3972 105.631 26.3909 105.638 26.3866C105.644 26.3822 105.652 26.3799 105.66 26.3799H106.145C106.153 26.3799 106.161 26.3822 106.168 26.3866C106.175 26.3909 106.18 26.3972 106.183 26.4045L108.338 31.4249C108.341 31.4311 108.342 31.4378 108.341 31.4445C108.341 31.4511 108.338 31.4575 108.335 31.4631C108.331 31.4687 108.326 31.4733 108.32 31.4765C108.314 31.4796 108.307 31.4813 108.301 31.4813H107.702C107.694 31.4813 107.686 31.479 107.679 31.4746C107.672 31.4702 107.667 31.464 107.664 31.4567L107.035 29.9775C107.032 29.9701 107.026 29.9639 107.02 29.9595C107.013 29.9552 107.005 29.9528 106.997 29.9528H104.763C104.755 29.9528 104.747 29.9552 104.741 29.9595C104.734 29.9639 104.729 29.9701 104.726 29.9775ZM105.005 29.3224C105.004 29.3263 105.003 29.3305 105.004 29.3347C105.004 29.3388 105.006 29.3428 105.008 29.3463C105.01 29.3497 105.013 29.3525 105.017 29.3545C105.021 29.3564 105.025 29.3574 105.029 29.3574H106.739C106.743 29.3574 106.747 29.3564 106.751 29.3545C106.755 29.3525 106.758 29.3497 106.76 29.3463C106.763 29.3428 106.764 29.3388 106.765 29.3347C106.765 29.3305 106.765 29.3263 106.763 29.3224L105.907 27.3017C105.905 27.2973 105.902 27.2936 105.898 27.291C105.894 27.2884 105.889 27.287 105.884 27.287C105.879 27.287 105.875 27.2884 105.87 27.291C105.866 27.2936 105.863 27.2973 105.861 27.3017L105.005 29.3224Z" fill="#747474"/>
<path d="M66.1132 27.5148C66.1104 27.5107 66.1064 27.5076 66.1016 27.506C66.0969 27.5044 66.0918 27.5043 66.087 27.5058C66.0823 27.5073 66.0782 27.5104 66.0753 27.5144C66.0724 27.5185 66.0709 27.5234 66.071 27.5283V31.4419C66.071 31.4684 66.0577 31.4816 66.0312 31.4816H65.4934C65.4535 31.4816 65.4336 31.4618 65.4336 31.4221V26.4795C65.4336 26.4398 65.4535 26.4199 65.4934 26.4199H66.0272C66.0596 26.4199 66.0853 26.4329 66.1045 26.4588L67.9354 28.9504C67.9387 28.9548 67.9429 28.9585 67.9479 28.9609C67.9529 28.9634 67.9584 28.9646 67.964 28.9645C67.9696 28.9645 67.9751 28.9631 67.9801 28.9605C67.9851 28.9579 67.9894 28.9541 67.9928 28.9496L69.7496 26.4541C69.7656 26.4313 69.7876 26.4199 69.8158 26.4199H70.3336C70.3602 26.4199 70.3735 26.4332 70.3735 26.4596V31.4419C70.3735 31.4684 70.3602 31.4816 70.3336 31.4816H69.8158C69.7759 31.4816 69.756 31.4618 69.756 31.4221V27.4894C69.7558 27.4849 69.7542 27.4805 69.7514 27.4769C69.7487 27.4733 69.7448 27.4707 69.7405 27.4693C69.7362 27.4679 69.7315 27.4679 69.7272 27.4692C69.7228 27.4705 69.719 27.4732 69.7162 27.4767L67.9991 29.8746C67.9899 29.8876 67.9777 29.8982 67.9636 29.9055C67.9494 29.9129 67.9337 29.9168 67.9177 29.9168C67.9017 29.9169 67.886 29.9132 67.8717 29.906C67.8575 29.8988 67.8452 29.8883 67.8358 29.8754L66.1132 27.5148Z" fill="#747474"/>
<path d="M72.5613 28.6232H74.4998C74.5046 28.6232 74.5094 28.6242 74.5138 28.626C74.5182 28.6279 74.5223 28.6306 74.5257 28.6339C74.5291 28.6373 74.5318 28.6414 74.5336 28.6458C74.5355 28.6502 74.5364 28.655 74.5364 28.6598V29.1822C74.5364 29.187 74.5355 29.1918 74.5336 29.1962C74.5318 29.2006 74.5291 29.2047 74.5257 29.208C74.5223 29.2114 74.5182 29.2141 74.5138 29.216C74.5094 29.2178 74.5046 29.2187 74.4998 29.2187H72.5613C72.5515 29.2187 72.5422 29.2226 72.5353 29.2294C72.5285 29.2363 72.5246 29.2456 72.5246 29.2553V30.8496C72.5246 30.8593 72.5285 30.8686 72.5353 30.8754C72.5422 30.8823 72.5515 30.8861 72.5613 30.8861H74.7986C74.8034 30.8861 74.8081 30.8871 74.8126 30.8889C74.817 30.8907 74.8211 30.8934 74.8245 30.8968C74.8279 30.9002 74.8306 30.9042 74.8324 30.9087C74.8343 30.9131 74.8352 30.9179 74.8352 30.9226V31.4451C74.8352 31.4499 74.8343 31.4546 74.8324 31.4591C74.8306 31.4635 74.8279 31.4675 74.8245 31.4709C74.8211 31.4743 74.817 31.477 74.8126 31.4788C74.8081 31.4807 74.8034 31.4816 74.7986 31.4816H71.9239C71.9141 31.4816 71.9048 31.4778 71.8979 31.4709C71.8911 31.4641 71.8872 31.4548 71.8872 31.4451V26.4564C71.8872 26.4468 71.8911 26.4375 71.8979 26.4306C71.9048 26.4238 71.9141 26.4199 71.9239 26.4199H74.7189C74.7286 26.4199 74.7379 26.4238 74.7448 26.4306C74.7517 26.4375 74.7555 26.4468 74.7555 26.4564V26.9789C74.7555 26.9886 74.7517 26.9979 74.7448 27.0047C74.7379 27.0116 74.7286 27.0154 74.7189 27.0154H72.5613C72.5515 27.0154 72.5422 27.0193 72.5353 27.0261C72.5285 27.033 72.5246 27.0423 72.5246 27.0519V28.5867C72.5246 28.5964 72.5285 28.6057 72.5353 28.6126C72.5422 28.6194 72.5515 28.6232 72.5613 28.6232Z" fill="#747474"/>
<path d="M75.9906 31.5213V32.355C75.9906 32.3947 75.9707 32.4146 75.9309 32.4146H75.4528C75.413 32.4146 75.3931 32.3947 75.3931 32.355V30.9361C75.3931 30.9028 75.4095 30.8861 75.4425 30.8861H75.8958C75.9266 30.8861 75.9497 30.8729 75.9651 30.8464C76.7069 29.5824 76.7428 27.8888 76.8137 26.4691C76.8153 26.4363 76.8325 26.4199 76.8655 26.4199H79.7752C79.8018 26.4199 79.8151 26.4332 79.8151 26.4596V30.8464C79.8151 30.8729 79.8283 30.8861 79.8549 30.8861H80.4525C80.4923 30.8861 80.5122 30.906 80.5122 30.9457V32.3645C80.5122 32.3979 80.4955 32.4146 80.462 32.4146H79.9649C79.9314 32.4146 79.9147 32.3979 79.9147 32.3645V31.5213C79.9147 31.5108 79.9105 31.5007 79.903 31.4932C79.8955 31.4858 79.8854 31.4816 79.8748 31.4816H76.0305C76.0039 31.4816 75.9906 31.4949 75.9906 31.5213ZM77.4208 27.0551C77.3762 28.3382 77.2344 29.715 76.6774 30.8401C76.6626 30.8708 76.6721 30.8861 76.7061 30.8861H79.1378C79.1484 30.8861 79.1585 30.8819 79.166 30.8745C79.1735 30.8671 79.1777 30.857 79.1777 30.8464V27.075C79.1777 27.0353 79.1577 27.0154 79.1179 27.0154H77.4622C77.4351 27.0154 77.4213 27.0286 77.4208 27.0551Z" fill="#747474"/>
<path d="M85.025 27.5379L82.03 31.4713C82.0274 31.4745 82.0241 31.4772 82.0204 31.4789C82.0167 31.4807 82.0126 31.4816 82.0085 31.4816H81.4954C81.4882 31.4816 81.4813 31.4788 81.4762 31.4737C81.4711 31.4686 81.4683 31.4618 81.4683 31.4546V26.4469C81.4683 26.4398 81.4711 26.4329 81.4762 26.4278C81.4813 26.4228 81.4882 26.4199 81.4954 26.4199H82.0587C82.0658 26.4199 82.0727 26.4228 82.0778 26.4278C82.0829 26.4329 82.0857 26.4398 82.0857 26.4469V30.3589C82.0859 30.3645 82.0877 30.3699 82.091 30.3744C82.0944 30.3789 82.0991 30.3823 82.1044 30.384C82.1097 30.3858 82.1155 30.3858 82.1208 30.3842C82.1262 30.3825 82.1309 30.3792 82.1343 30.3748L85.1365 26.4302C85.1391 26.427 85.1424 26.4244 85.1461 26.4226C85.1498 26.4208 85.1539 26.4199 85.158 26.4199H85.6839C85.6911 26.4199 85.698 26.4228 85.703 26.4278C85.7081 26.4329 85.711 26.4398 85.711 26.4469V31.4546C85.711 31.4618 85.7081 31.4686 85.703 31.4737C85.698 31.4788 85.6911 31.4816 85.6839 31.4816H85.1007C85.0935 31.4816 85.0866 31.4788 85.0815 31.4737C85.0764 31.4686 85.0736 31.4618 85.0736 31.4546V27.5545C85.0736 27.5489 85.0719 27.5433 85.0686 27.5387C85.0653 27.5341 85.0607 27.5306 85.0553 27.5287C85.0499 27.5269 85.0441 27.5268 85.0387 27.5284C85.0332 27.5301 85.0284 27.5334 85.025 27.5379Z" fill="#747474"/>
<path d="M91.2319 31.4816H87.2417C87.232 31.4816 87.2227 31.4778 87.2158 31.4709C87.2089 31.4641 87.2051 31.4548 87.2051 31.4451V26.4564C87.2051 26.4468 87.2089 26.4375 87.2158 26.4306C87.2227 26.4238 87.232 26.4199 87.2417 26.4199H87.8058C87.8156 26.4199 87.8249 26.4238 87.8317 26.4306C87.8386 26.4375 87.8425 26.4468 87.8425 26.4564V30.8496C87.8425 30.8593 87.8463 30.8686 87.8532 30.8754C87.8601 30.8823 87.8694 30.8861 87.8791 30.8861H90.4949C90.4997 30.8861 90.5045 30.8852 90.5089 30.8833C90.5134 30.8815 90.5174 30.8788 90.5208 30.8754C90.5242 30.872 90.5269 30.868 90.5287 30.8636C90.5306 30.8591 90.5315 30.8544 90.5315 30.8496V26.4564C90.5315 26.4468 90.5354 26.4375 90.5423 26.4306C90.5491 26.4238 90.5585 26.4199 90.5682 26.4199H91.1323C91.142 26.4199 91.1513 26.4238 91.1582 26.4306C91.1651 26.4375 91.1689 26.4468 91.1689 26.4564V30.8496C91.1689 30.8593 91.1728 30.8686 91.1797 30.8754C91.1865 30.8823 91.1959 30.8861 91.2056 30.8861H91.8295C91.8392 30.8861 91.8485 30.89 91.8554 30.8968C91.8622 30.9037 91.8661 30.913 91.8661 30.9226V32.378C91.8661 32.3877 91.8622 32.397 91.8554 32.4039C91.8485 32.4107 91.8392 32.4146 91.8295 32.4146H91.3052C91.2955 32.4146 91.2861 32.4107 91.2793 32.4039C91.2724 32.397 91.2685 32.3877 91.2685 32.378V31.5181C91.2685 31.5085 91.2647 31.4992 91.2578 31.4923C91.2509 31.4855 91.2416 31.4816 91.2319 31.4816Z" fill="#747474"/>
<path d="M93.4597 30.3589C93.4598 30.3631 93.4612 30.3671 93.4636 30.3705C93.4661 30.3738 93.4695 30.3763 93.4734 30.3777C93.4773 30.379 93.4814 30.379 93.4853 30.3778C93.4891 30.3766 93.4924 30.3741 93.4947 30.3708L96.4778 26.4525C96.4942 26.4308 96.5163 26.4199 96.5439 26.4199H97.0252C97.0517 26.4199 97.065 26.4332 97.065 26.4596V31.4419C97.065 31.4684 97.0517 31.4816 97.0252 31.4816H96.4873C96.4715 31.4816 96.4563 31.4753 96.4451 31.4642C96.4339 31.453 96.4276 31.4379 96.4276 31.4221V27.5331C96.4276 27.4966 96.4164 27.4929 96.3941 27.522L93.4047 31.4491C93.3882 31.4708 93.3662 31.4816 93.3386 31.4816H92.882C92.8422 31.4816 92.8223 31.4618 92.8223 31.4221V26.4795C92.8223 26.4398 92.8422 26.4199 92.882 26.4199H93.4198C93.4464 26.4199 93.4597 26.4332 93.4597 26.4596V30.3589Z" fill="#747474"/>
<path d="M99.196 29.237V31.4435C99.196 31.4536 99.192 31.4633 99.1848 31.4705C99.1776 31.4776 99.1679 31.4816 99.1578 31.4816H98.5968C98.5867 31.4816 98.577 31.4776 98.5698 31.4705C98.5626 31.4633 98.5586 31.4536 98.5586 31.4435V26.458C98.5586 26.4479 98.5626 26.4382 98.5698 26.4311C98.577 26.4239 98.5867 26.4199 98.5968 26.4199H99.1578C99.1679 26.4199 99.1776 26.4239 99.1848 26.4311C99.192 26.4382 99.196 26.4479 99.196 26.458V28.5653C99.196 28.5754 99.2 28.5851 99.2072 28.5922C99.2144 28.5994 99.2241 28.6034 99.2342 28.6034H101.926C101.937 28.6034 101.946 28.5994 101.954 28.5922C101.961 28.5851 101.965 28.5754 101.965 28.5653V26.458C101.965 26.4479 101.969 26.4382 101.976 26.4311C101.983 26.4239 101.993 26.4199 102.003 26.4199H102.564C102.574 26.4199 102.584 26.4239 102.591 26.4311C102.598 26.4382 102.602 26.4479 102.602 26.458V31.4435C102.602 31.4536 102.598 31.4633 102.591 31.4705C102.584 31.4776 102.574 31.4816 102.564 31.4816H102.003C101.993 31.4816 101.983 31.4776 101.976 31.4705C101.969 31.4633 101.965 31.4536 101.965 31.4435V29.237C101.965 29.2269 101.961 29.2172 101.954 29.2101C101.946 29.2029 101.937 29.1989 101.926 29.1989H99.2342C99.2241 29.1989 99.2144 29.2029 99.2072 29.2101C99.2 29.2172 99.196 29.2269 99.196 29.237Z" fill="#747474"/>
<path d="M111.433 26.4209H110.862C110.844 26.4209 110.829 26.4358 110.829 26.4542V31.4485C110.829 31.4669 110.844 31.4818 110.862 31.4818H111.433C111.451 31.4818 111.466 31.4669 111.466 31.4485V26.4542C111.466 26.4358 111.451 26.4209 111.433 26.4209Z" fill="#747474"/>
<path d="M114.627 31.4816H113.874C113.87 31.4815 113.866 31.4806 113.863 31.479C113.859 31.4773 113.856 31.475 113.854 31.4721L111.574 28.8591C111.569 28.8541 111.567 28.8478 111.567 28.8412C111.567 28.8346 111.569 28.8283 111.574 28.8233L113.774 26.4287C113.776 26.4259 113.779 26.4237 113.783 26.4222C113.786 26.4207 113.79 26.4199 113.793 26.4199H114.504C114.509 26.4199 114.515 26.4215 114.519 26.4243C114.523 26.4272 114.527 26.4313 114.529 26.4361C114.531 26.4409 114.532 26.4462 114.531 26.4513C114.53 26.4565 114.528 26.4613 114.524 26.4652L112.322 28.7789C112.317 28.7839 112.315 28.7904 112.315 28.7971C112.315 28.8039 112.317 28.8104 112.322 28.8154L114.647 31.4364C114.65 31.4402 114.653 31.445 114.654 31.4502C114.654 31.4554 114.654 31.4607 114.652 31.4655C114.65 31.4703 114.646 31.4743 114.642 31.4772C114.637 31.4801 114.632 31.4816 114.627 31.4816Z" fill="#747474"/>
<path d="M125.409 27.495L123.718 29.8579C123.707 29.8727 123.693 29.8848 123.677 29.8931C123.661 29.9015 123.643 29.9059 123.625 29.906C123.606 29.906 123.588 29.9018 123.572 29.8936C123.556 29.8854 123.542 29.8734 123.531 29.8587L121.811 27.5021C121.807 27.4978 121.803 27.4945 121.798 27.4928C121.793 27.4912 121.787 27.4911 121.782 27.4927C121.777 27.4943 121.773 27.4974 121.769 27.5017C121.766 27.5059 121.764 27.5111 121.764 27.5164V31.4419C121.764 31.4684 121.751 31.4816 121.725 31.4816H121.187C121.147 31.4816 121.127 31.4618 121.127 31.4221V26.4795C121.127 26.4398 121.147 26.4199 121.187 26.4199H121.741C121.768 26.4199 121.79 26.4308 121.806 26.4525L123.638 28.944C123.642 28.9492 123.647 28.9534 123.653 28.9563C123.659 28.9592 123.665 28.9607 123.672 28.9606C123.678 28.9605 123.684 28.9589 123.69 28.9559C123.696 28.9529 123.701 28.9485 123.704 28.9432L125.457 26.4541C125.472 26.4313 125.495 26.4199 125.523 26.4199H126.047C126.073 26.4199 126.087 26.4332 126.087 26.4596V31.4419C126.087 31.4684 126.073 31.4816 126.047 31.4816H125.509C125.469 31.4816 125.449 31.4618 125.449 31.4221V27.5077C125.449 27.4611 125.436 27.4569 125.409 27.495Z" fill="#747474"/>
<path d="M128.218 27.0535V31.4435C128.218 31.4536 128.214 31.4633 128.207 31.4705C128.2 31.4776 128.19 31.4816 128.18 31.4816H127.619C127.609 31.4816 127.599 31.4776 127.592 31.4705C127.585 31.4633 127.581 31.4536 127.581 31.4435V26.458C127.581 26.4479 127.585 26.4382 127.592 26.4311C127.599 26.4239 127.609 26.4199 127.619 26.4199H131.546C131.556 26.4199 131.566 26.4239 131.573 26.4311C131.58 26.4382 131.584 26.4479 131.584 26.458V31.4435C131.584 31.4536 131.58 31.4633 131.573 31.4705C131.566 31.4776 131.556 31.4816 131.546 31.4816H130.985C130.975 31.4816 130.965 31.4776 130.958 31.4705C130.951 31.4633 130.947 31.4536 130.947 31.4435V27.0535C130.947 27.0434 130.943 27.0337 130.936 27.0266C130.928 27.0194 130.919 27.0154 130.909 27.0154H128.256C128.246 27.0154 128.236 27.0194 128.229 27.0266C128.222 27.0337 128.218 27.0434 128.218 27.0535Z" fill="#747474"/>
<path d="M133.756 28.6232H135.707C135.717 28.6232 135.728 28.6275 135.735 28.6351C135.743 28.6427 135.747 28.653 135.747 28.6637V29.1782C135.747 29.189 135.743 29.1993 135.735 29.2069C135.728 29.2145 135.717 29.2187 135.707 29.2187H133.756C133.745 29.2187 133.735 29.223 133.727 29.2306C133.72 29.2382 133.716 29.2485 133.716 29.2592V30.8456C133.716 30.8564 133.72 30.8667 133.727 30.8743C133.735 30.8819 133.745 30.8861 133.756 30.8861H136.005C136.016 30.8861 136.027 30.8904 136.034 30.898C136.042 30.9056 136.046 30.9159 136.046 30.9266V31.4411C136.046 31.4519 136.042 31.4622 136.034 31.4698C136.027 31.4774 136.016 31.4816 136.005 31.4816H133.119C133.108 31.4816 133.098 31.4774 133.09 31.4698C133.082 31.4622 133.078 31.4519 133.078 31.4411V26.4604C133.078 26.4497 133.082 26.4394 133.09 26.4318C133.098 26.4242 133.108 26.4199 133.119 26.4199H135.926C135.937 26.4199 135.947 26.4242 135.954 26.4318C135.962 26.4394 135.966 26.4497 135.966 26.4604V26.9749C135.966 26.9857 135.962 26.996 135.954 27.0036C135.947 27.0111 135.937 27.0154 135.926 27.0154H133.756C133.745 27.0154 133.735 27.0197 133.727 27.0273C133.72 27.0349 133.716 27.0452 133.716 27.0559V28.5828C133.716 28.5935 133.72 28.6038 133.727 28.6114C133.735 28.619 133.745 28.6232 133.756 28.6232Z" fill="#747474"/>
<path d="M138.3 27.0154H136.601C136.591 27.0154 136.582 27.0116 136.575 27.0047C136.568 26.9979 136.564 26.9886 136.564 26.9789V26.4564C136.564 26.4468 136.568 26.4375 136.575 26.4306C136.582 26.4238 136.591 26.4199 136.601 26.4199H140.71C140.72 26.4199 140.729 26.4238 140.736 26.4306C140.743 26.4375 140.747 26.4468 140.747 26.4564V26.9789C140.747 26.9886 140.743 26.9979 140.736 27.0047C140.729 27.0116 140.72 27.0154 140.71 27.0154H139.011C139.001 27.0154 138.992 27.0193 138.985 27.0261C138.978 27.033 138.974 27.0423 138.974 27.0519V31.4451C138.974 31.4548 138.97 31.4641 138.963 31.4709C138.957 31.4778 138.947 31.4816 138.938 31.4816H138.373C138.369 31.4816 138.364 31.4807 138.359 31.4788C138.355 31.477 138.351 31.4743 138.347 31.4709C138.344 31.4675 138.341 31.4635 138.34 31.4591C138.338 31.4546 138.337 31.4499 138.337 31.4451V27.0519C138.337 27.0423 138.333 27.033 138.326 27.0261C138.319 27.0193 138.31 27.0154 138.3 27.0154Z" fill="#747474"/>
<path d="M142.221 28.6232H144.172C144.183 28.6232 144.193 28.6275 144.201 28.6351C144.208 28.6427 144.213 28.653 144.213 28.6637V29.1782C144.213 29.189 144.208 29.1993 144.201 29.2069C144.193 29.2145 144.183 29.2187 144.172 29.2187H142.221C142.211 29.2187 142.2 29.223 142.193 29.2306C142.185 29.2382 142.181 29.2485 142.181 29.2592V30.8456C142.181 30.8564 142.185 30.8667 142.193 30.8743C142.2 30.8819 142.211 30.8861 142.221 30.8861H144.451C144.462 30.8861 144.472 30.8904 144.48 30.898C144.487 30.9056 144.491 30.9159 144.491 30.9266V31.4411C144.491 31.4519 144.487 31.4622 144.48 31.4698C144.472 31.4774 144.462 31.4816 144.451 31.4816H141.584C141.573 31.4816 141.563 31.4774 141.555 31.4698C141.548 31.4622 141.543 31.4519 141.543 31.4411V26.4604C141.543 26.4497 141.548 26.4394 141.555 26.4318C141.563 26.4242 141.573 26.4199 141.584 26.4199H144.391C144.402 26.4199 144.412 26.4242 144.42 26.4318C144.427 26.4394 144.432 26.4497 144.432 26.4604V26.9749C144.432 26.9857 144.427 26.996 144.42 27.0036C144.412 27.0111 144.402 27.0154 144.391 27.0154H142.221C142.211 27.0154 142.2 27.0197 142.193 27.0273C142.185 27.0349 142.181 27.0452 142.181 27.0559V28.5828C142.181 28.5935 142.185 28.6038 142.193 28.6114C142.2 28.619 142.211 28.6232 142.221 28.6232Z" fill="#747474"/>
<path d="M149.079 29.1989H146.377C146.369 29.1989 146.36 29.2024 146.354 29.2087C146.347 29.2149 146.344 29.2234 146.344 29.2322V31.4483C146.344 31.4571 146.34 31.4656 146.334 31.4718C146.328 31.4781 146.319 31.4816 146.31 31.4816H145.74C145.731 31.4816 145.723 31.4781 145.716 31.4718C145.71 31.4656 145.707 31.4571 145.707 31.4483V26.4533C145.707 26.4444 145.71 26.4359 145.716 26.4297C145.723 26.4234 145.731 26.4199 145.74 26.4199H146.31C146.319 26.4199 146.328 26.4234 146.334 26.4297C146.34 26.4359 146.344 26.4444 146.344 26.4533V28.57C146.344 28.5789 146.347 28.5874 146.354 28.5936C146.36 28.5999 146.369 28.6034 146.377 28.6034H149.079C149.088 28.6034 149.097 28.5999 149.103 28.5936C149.109 28.5874 149.113 28.5789 149.113 28.57V26.4533C149.113 26.4444 149.116 26.4359 149.122 26.4297C149.129 26.4234 149.137 26.4199 149.146 26.4199H149.717C149.725 26.4199 149.734 26.4234 149.74 26.4297C149.747 26.4359 149.75 26.4444 149.75 26.4533V31.4483C149.75 31.4571 149.747 31.4656 149.74 31.4718C149.734 31.4781 149.725 31.4816 149.717 31.4816H149.146C149.137 31.4816 149.129 31.4781 149.122 31.4718C149.116 31.4656 149.113 31.4571 149.113 31.4483V29.2322C149.113 29.2234 149.109 29.2149 149.103 29.2087C149.097 29.2024 149.088 29.1989 149.079 29.1989Z" fill="#747474"/>
<path d="M154.571 30.8456V26.4604C154.571 26.4497 154.575 26.4394 154.583 26.4318C154.59 26.4242 154.6 26.4199 154.611 26.4199H155.167C155.178 26.4199 155.188 26.4242 155.196 26.4318C155.204 26.4394 155.208 26.4497 155.208 26.4604V30.8456C155.208 30.8564 155.212 30.8667 155.22 30.8743C155.228 30.8819 155.238 30.8861 155.249 30.8861H155.845C155.855 30.8861 155.866 30.8904 155.873 30.898C155.881 30.9056 155.885 30.9159 155.885 30.9266V32.3741C155.885 32.3848 155.881 32.3951 155.873 32.4027C155.866 32.4103 155.855 32.4146 155.845 32.4146H155.328C155.318 32.4146 155.307 32.4103 155.3 32.4027C155.292 32.3951 155.288 32.3848 155.288 32.3741V31.5221C155.288 31.5114 155.283 31.5011 155.276 31.4935C155.268 31.4859 155.258 31.4816 155.247 31.4816H151.285C151.274 31.4816 151.264 31.4774 151.256 31.4698C151.248 31.4622 151.244 31.4519 151.244 31.4411V26.4604C151.244 26.4497 151.248 26.4394 151.256 26.4318C151.264 26.4242 151.274 26.4199 151.285 26.4199H151.841C151.852 26.4199 151.862 26.4242 151.87 26.4318C151.877 26.4394 151.882 26.4497 151.882 26.4604V30.8456C151.882 30.8564 151.886 30.8667 151.893 30.8743C151.901 30.8819 151.911 30.8861 151.922 30.8861H154.53C154.541 30.8861 154.551 30.8819 154.559 30.8743C154.566 30.8667 154.571 30.8564 154.571 30.8456Z" fill="#747474"/>
<path d="M160.42 27.5315L157.421 31.4713C157.418 31.4745 157.415 31.4771 157.411 31.4789C157.408 31.4806 157.404 31.4816 157.4 31.4816H156.868C156.861 31.4816 156.854 31.4789 156.849 31.4739C156.844 31.469 156.841 31.4624 156.841 31.4554V26.4461C156.841 26.4392 156.844 26.4325 156.849 26.4276C156.854 26.4227 156.861 26.4199 156.868 26.4199H157.452C157.459 26.4199 157.466 26.4227 157.471 26.4276C157.476 26.4325 157.479 26.4392 157.479 26.4461V30.3557C157.479 30.3612 157.481 30.3665 157.484 30.3709C157.487 30.3753 157.491 30.3786 157.497 30.3803C157.502 30.382 157.507 30.3821 157.513 30.3806C157.518 30.379 157.522 30.3759 157.526 30.3716L160.527 26.4302C160.53 26.4271 160.533 26.4245 160.536 26.4227C160.54 26.4209 160.544 26.42 160.548 26.4199H161.078C161.085 26.4199 161.091 26.4227 161.096 26.4276C161.101 26.4325 161.104 26.4392 161.104 26.4461V31.4554C161.104 31.4624 161.101 31.469 161.096 31.4739C161.091 31.4789 161.085 31.4816 161.078 31.4816H160.493C160.486 31.4816 160.479 31.4789 160.474 31.4739C160.469 31.469 160.467 31.4624 160.467 31.4554V27.5474C160.466 27.542 160.465 27.5367 160.462 27.5323C160.458 27.5279 160.454 27.5246 160.449 27.5228C160.444 27.5211 160.438 27.521 160.433 27.5225C160.428 27.5241 160.423 27.5272 160.42 27.5315Z" fill="#747474"/>
<path d="M163.281 30.3661L166.277 26.4302C166.279 26.427 166.282 26.4244 166.286 26.4226C166.289 26.4208 166.293 26.4199 166.297 26.4199H166.835C166.839 26.4199 166.842 26.4206 166.845 26.4219C166.848 26.4231 166.851 26.425 166.853 26.4274C166.856 26.4297 166.858 26.4325 166.859 26.4356C166.86 26.4387 166.861 26.442 166.861 26.4453V31.4562C166.861 31.4595 166.86 31.4629 166.859 31.4659C166.858 31.469 166.856 31.4718 166.853 31.4742C166.851 31.4765 166.848 31.4784 166.845 31.4797C166.842 31.481 166.839 31.4816 166.835 31.4816H166.249C166.246 31.4816 166.242 31.481 166.239 31.4797C166.236 31.4784 166.233 31.4765 166.231 31.4742C166.228 31.4718 166.227 31.469 166.225 31.4659C166.224 31.4629 166.223 31.4595 166.223 31.4562L166.224 27.5379C166.224 27.5325 166.223 27.5272 166.219 27.5228C166.216 27.5184 166.212 27.5151 166.207 27.5134C166.201 27.5118 166.196 27.5118 166.191 27.5134C166.186 27.5151 166.181 27.5184 166.178 27.5228L163.171 31.4713C163.169 31.4745 163.165 31.4771 163.162 31.4789C163.158 31.4807 163.154 31.4816 163.15 31.4816H162.624C162.617 31.4816 162.61 31.4789 162.606 31.4742C162.601 31.4694 162.598 31.4629 162.598 31.4562V26.4453C162.598 26.4386 162.601 26.4321 162.606 26.4274C162.61 26.4226 162.617 26.4199 162.624 26.4199H163.21C163.213 26.4199 163.217 26.4206 163.22 26.4219C163.223 26.4231 163.226 26.425 163.228 26.4274C163.23 26.4297 163.232 26.4325 163.234 26.4356C163.235 26.4387 163.236 26.442 163.236 26.4453V30.351C163.236 30.3562 163.237 30.3612 163.241 30.3654C163.244 30.3696 163.248 30.3727 163.253 30.3743C163.258 30.376 163.263 30.3761 163.268 30.3746C163.273 30.3731 163.278 30.3701 163.281 30.3661Z" fill="#747474"/>
</g>
<defs>
<clipPath id="clip0_414_158">
<rect width="167" height="37" fill="white"/>
</clipPath>
</defs>
</svg>
