<svg width="101" height="45" viewBox="0 0 101 45" fill="none" xmlns="http://www.w3.org/2000/svg">
<path d="M73.1529 33.0628C73.1529 33.0571 73.1513 33.0516 73.1483 33.0469C73.1454 33.0422 73.1411 33.0385 73.136 33.0362C73.131 33.0338 73.1254 33.0331 73.1199 33.0339C73.1145 33.0348 73.1094 33.0372 73.1053 33.041C70.4533 35.5153 66.7714 35.8442 63.4383 34.8127C59.4527 33.5791 57.0056 30.3442 56.2768 26.2711C55.0039 19.1566 58.1095 12.0118 65.8283 11.0383C68.3039 10.7263 70.9189 11.1496 73.0826 12.504C73.1295 12.5331 73.1529 12.5198 73.1529 12.4641C73.1553 9.42709 73.1513 6.39286 73.141 3.36146C73.135 1.65146 71.6894 0.854504 70.1806 0.927065C70.1322 0.929483 70.1092 0.906104 70.1116 0.856925L70.1354 0.414307C70.137 0.379639 70.1548 0.362305 70.189 0.362305L77.229 0.36956C77.2663 0.36956 77.285 0.388507 77.285 0.426399L77.3278 10.707C77.3286 10.7424 77.3195 10.7755 77.3005 10.8061C77.287 10.8271 77.2802 10.8448 77.2802 10.8593C77.3167 17.4301 77.3294 24.0008 77.3183 30.5715C77.3159 32.3807 77.6482 34.705 79.925 34.809C79.975 34.8106 80 34.8373 80 34.8889V35.2722C80 35.323 79.9754 35.3484 79.9262 35.3484L73.2279 35.3496C73.1779 35.3496 73.1529 35.3242 73.1529 35.2734V33.0628ZM60.8329 26.3122C61.2913 30.6876 63.0775 34.5829 68.2599 33.9867C70.0961 33.7763 71.8513 32.5222 73.0267 31.0952C73.1279 30.9718 73.1505 30.8739 73.1505 30.7215C73.1505 25.198 73.1517 19.671 73.1541 14.1403C73.1541 14.0975 73.1382 14.0625 73.1064 14.0351C71.2964 12.4932 68.1932 12.1884 65.9509 12.5101C60.509 13.2901 60.4196 22.3759 60.8329 26.3122Z" fill="#747474"/>
<path d="M84.5 7.3623C85.8807 7.3623 87 6.24302 87 4.8623C87 3.48159 85.8807 2.3623 84.5 2.3623C83.1193 2.3623 82 3.48159 82 4.8623C82 6.24302 83.1193 7.3623 84.5 7.3623Z" fill="#747474"/>
<path d="M95.5 7.3623C96.8807 7.3623 98 6.24302 98 4.8623C98 3.48159 96.8807 2.3623 95.5 2.3623C94.1193 2.3623 93 3.48159 93 4.8623C93 6.24302 94.1193 7.3623 95.5 7.3623Z" fill="#747474"/>
<path d="M3.8039 32.1371C1.40164 29.9969 0.138328 27.2763 0.0139776 23.9753C-0.0442375 22.4127 0.0698165 20.8837 0.537913 19.4291C1.68321 15.8662 4.57495 13.2807 8.05954 12.1031C12.5635 10.5813 17.7161 11.3943 21.3243 14.6334C24.2671 17.2753 25.2734 20.771 24.9384 24.6444C24.0342 35.104 10.9834 38.5301 3.8039 32.1371ZM5.3068 27.6185C5.97924 30.752 7.90153 33.9575 11.2875 34.5859C14.0105 35.092 16.5352 34.063 18.0951 31.7845C20.2728 28.603 20.4106 23.8206 19.9247 20.1474C19.3616 15.8902 17.0472 11.7649 12.156 12.0395C10.4325 12.1355 9.01039 12.7862 7.88965 13.9918C4.70207 17.4216 4.3706 23.2486 5.3068 27.6185Z" fill="#747474"/>
<path d="M37.4086 35.1389C32.1137 34.2187 27.756 30.3881 27.1064 25.0843C26.9138 23.5115 26.9718 21.634 27.3695 20.1068C28.3758 16.2427 31.4901 13.3754 35.3391 12.1098C43.0234 9.58203 52.255 13.6022 52.9576 22.1007C53.0366 23.0473 53.0058 24.3753 52.8601 25.3519C51.7734 32.5703 44.3743 36.3505 37.4086 35.1389ZM32.5199 27.5425C33.204 30.6557 35.1439 33.9212 38.6373 34.5798C40.1693 34.8685 41.6079 34.7238 42.953 34.1455C48.5073 31.7558 48.4888 22.9549 47.3527 18.3133C46.3315 14.1432 43.0617 11.27 38.4261 12.2057C35.2489 12.8476 33.3127 15.9823 32.6138 18.8652C31.914 21.75 31.8828 24.6424 32.5199 27.5425Z" fill="#747474"/>
<path d="M93.9848 14.434C93.9848 12.7453 92.571 11.8809 91.0707 11.9611C91.0236 11.9636 91 11.9407 91 11.8922V11.4412C91 11.3886 91.0256 11.3623 91.0768 11.3623H98.0116C98.0436 11.3623 98.0743 11.3754 98.0969 11.3986C98.1195 11.4219 98.1322 11.4534 98.1322 11.4863C98.129 17.6924 98.1261 23.8943 98.1237 30.092C98.1225 32.0876 98.443 34.6282 100.935 34.7622C100.979 34.7648 101.001 34.789 101 34.8349L100.991 35.2972C100.991 35.3406 100.969 35.3623 100.927 35.3623L94.0457 35.3498C94.0059 35.3498 93.986 35.3297 93.986 35.2896C93.9852 28.3353 93.9848 21.3834 93.9848 14.434Z" fill="#747474"/>
<path d="M82.9419 13.367C82.5238 12.2931 81.4681 11.9262 80.5068 11.9335C80.4637 11.9335 80.4421 11.9098 80.4421 11.8626V11.4332C80.4421 11.386 80.4633 11.3623 80.5057 11.3623L86.9353 11.3635C86.9784 11.3635 87 11.3876 87 11.4357C86.9985 19.1135 86.9982 26.7912 86.9989 34.469C86.9989 34.5367 86.9729 34.6113 86.921 34.6928C85.7219 36.5845 84.521 38.475 83.3183 40.3643C82.6368 41.4345 81.7052 42.5781 80.6978 43.3437C79.7837 44.0385 78.1409 44.7185 77.0754 44.151C74.9541 43.0208 76.2194 39.3344 78.7126 40.2102C78.7982 40.2403 79.0148 40.3639 79.3623 40.5808C80.8426 41.5042 82.4097 40.3606 82.9946 38.811C83.0787 38.5875 83.1208 38.3735 83.1208 38.1688C83.1091 30.3614 83.1032 22.5536 83.1032 14.7454C83.1032 14.1028 83.0495 13.6434 82.9419 13.367Z" fill="#747474"/>
</svg>
