<svg width="39" height="39" viewBox="0 0 39 39" fill="none" xmlns="http://www.w3.org/2000/svg">
<path fill-rule="evenodd" clip-rule="evenodd" d="M20.7045 29.9061L25.2422 25.3685C25.5848 25.0258 26.1239 24.9781 26.5213 25.2553L33.3327 30.0059C33.8433 30.362 33.9079 31.0931 33.4677 31.5332L31.6017 33.3993C30.8914 34.1095 29.8752 34.4165 28.9104 34.137C25.887 33.2612 19.0196 30.7862 13.426 25.1926C7.83245 19.599 5.35745 12.7316 4.48163 9.7082C4.20215 8.7434 4.50911 7.7272 5.21938 7.01694L7.08542 5.1509C7.52559 4.71073 8.25664 4.77537 8.61274 5.28595L13.3633 12.0973C13.6405 12.4948 13.5929 13.0338 13.2502 13.3765L8.71251 17.9142" fill="#3385FF"/>
<path d="M20.7045 29.9061L25.2422 25.3685C25.5848 25.0258 26.1239 24.9781 26.5213 25.2553L33.3327 30.0059C33.8433 30.362 33.9079 31.0931 33.4677 31.5332L31.6017 33.3993C30.8914 34.1095 29.8752 34.4165 28.9104 34.137C25.887 33.2612 19.0196 30.7862 13.426 25.1926C7.83245 19.599 5.35745 12.7316 4.48163 9.7082C4.20215 8.7434 4.50911 7.7272 5.21938 7.01694L7.08542 5.1509C7.52559 4.71073 8.25664 4.77537 8.61274 5.28595L13.3633 12.0973C13.6405 12.4948 13.5929 13.0338 13.2502 13.3765L8.71251 17.9142" stroke="#3385FF" stroke-linecap="round"/>
</svg>
