<svg width="64" height="64" viewBox="0 0 64 64" fill="none" xmlns="http://www.w3.org/2000/svg">
<path d="M56 34.667H47.3333C46.2288 34.667 45.3333 35.5624 45.3333 36.667V48.667C45.3333 49.7716 46.2288 50.667 47.3333 50.667H54C55.1046 50.667 56 49.7716 56 48.667V34.667C56 21.4122 45.2548 10.667 32 10.667C18.7452 10.667 8 21.4122 8 34.667V48.667C8 49.7716 8.89543 50.667 10 50.667H16.6667C17.7712 50.667 18.6667 49.7716 18.6667 48.667V36.667C18.6667 35.5624 17.7712 34.667 16.6667 34.667H8" stroke="#3385FF" stroke-width="2"/>
</svg>
